<?xml version="1.0" encoding="UTF-8" standalone="no"?>
<svg width="320px" height="320px" viewBox="0 0 320 320" version="1.1" xmlns="http://www.w3.org/2000/svg" xmlns:xlink="http://www.w3.org/1999/xlink" xmlns:sketch="http://www.bohemiancoding.com/sketch/ns">
    <!-- Generator: Sketch 3.2.2 (9983) - http://www.bohemiancoding.com/sketch -->
    <title>email</title>
    <desc>Created with Sketch.</desc>
    <defs>
        <linearGradient x1="0%" y1="100%" x2="100%" y2="0%" id="linearGradient-1">
            <stop stop-color="#585858" offset="0%"></stop>
            <stop stop-color="#FFFFFF" offset="100%"></stop>
        </linearGradient>
        <filter x="-50%" y="-50%" width="200%" height="200%" filterUnits="objectBoundingBox" id="filter-2">
            <feOffset dx="2" dy="2" in="SourceAlpha" result="shadowOffsetOuter1"></feOffset>
            <feGaussianBlur stdDeviation="4" in="shadowOffsetOuter1" result="shadowBlurOuter1"></feGaussianBlur>
            <feColorMatrix values="0 0 0 0 0   0 0 0 0 0   0 0 0 0 0  0 0 0 0.0508237092 0" in="shadowBlurOuter1" type="matrix" result="shadowMatrixOuter1"></feColorMatrix>
            <feMerge>
                <feMergeNode in="shadowMatrixOuter1"></feMergeNode>
                <feMergeNode in="SourceGraphic"></feMergeNode>
            </feMerge>
        </filter>
    </defs>
    <g id="Broadcasts" stroke="none" stroke-width="1" fill="none" fill-rule="evenodd" sketch:type="MSPage">
        <g id="email" sketch:type="MSLayerGroup">
            <path d="M159.830377,319.981055 C248.086978,319.981055 319.63309,248.434944 319.63309,160.178343 C319.63309,71.9217414 248.086978,0.375629931 159.830377,0.375629931 C71.5737758,0.375629931 0.0276642535,71.9217414 0.0276642535,160.178343 C0.0276642535,248.434944 71.5737758,319.981055 159.830377,319.981055 Z" id="Oval-1" fill="#8E97B5" sketch:type="MSShapeGroup"></path>
            <path d="M159.830377,319.981055 C248.086978,319.981055 319.63309,248.434944 319.63309,160.178343 C319.63309,71.9217414 248.086978,0.375629931 159.830377,0.375629931 C71.5737758,0.375629931 0.0276642535,71.9217414 0.0276642535,160.178343 C0.0276642535,248.434944 71.5737758,319.981055 159.830377,319.981055 Z" id="Oval-4" fill-opacity="0.2" fill="url(#linearGradient-1)" sketch:type="MSShapeGroup"></path>
            <path d="M241.365509,70.4041064 C241.347509,70.2761064 241.312509,70.1551064 241.281509,70.0331064 C241.267509,69.9791064 241.260509,69.9231064 241.243509,69.8701064 C241.027509,69.1291064 240.598509,68.5001064 240.041509,68.0181064 C239.359509,67.4001064 238.477509,67.0131064 237.498509,67.0011064 C237.485509,67.0001064 237.472509,67.0001064 237.459509,67.0001064 C237.318509,66.9991064 237.177509,67.0051064 237.033509,67.0201064 C236.851509,67.0361064 236.670509,67.0671064 236.489509,67.1081064 C236.482509,67.1101064 236.475509,67.1111064 236.468509,67.1131064 C236.152509,67.1881064 235.840509,67.3021064 235.538509,67.4651064 L41.3285085,156.787106 C38.1855085,158.232106 38.2355085,162.716106 41.4105085,164.091106 L115.068509,195.987106 L115.068509,268.651106 C115.068509,272.831106 120.672509,274.210106 122.612509,270.508106 L150.489509,217.294106 L201.501509,248.534106 C203.881509,249.992106 206.984509,248.625106 207.516509,245.885106 L241.258509,72.1201064 C241.429509,71.5461064 241.461509,70.9641064 241.365509,70.4041064 L241.365509,70.4041064 Z M118.118509,188.590106 L52.8115085,160.311106 L219.705509,83.5531064 L118.118509,188.590106 L118.118509,188.590106 Z M123.068509,252.396106 L123.068509,200.501106 L143.652509,213.106106 L123.068509,252.396106 L123.068509,252.396106 Z M200.762509,238.701106 L125.412509,192.555106 L230.902509,83.4831064 L200.762509,238.701106 L200.762509,238.701106 Z" id="Imported-Layers" fill="#FFFFFF" filter="url(#filter-2)" sketch:type="MSShapeGroup"></path>
        </g>
    </g>
</svg>