<?xml version="1.0" encoding="UTF-8" standalone="no"?>
<svg width="320px" height="320px" viewBox="0 0 320 320" version="1.1" xmlns="http://www.w3.org/2000/svg" xmlns:xlink="http://www.w3.org/1999/xlink" xmlns:sketch="http://www.bohemiancoding.com/sketch/ns">
    <!-- Generator: Sketch 3.2.2 (9983) - http://www.bohemiancoding.com/sketch -->
    <title>email_live</title>
    <desc>Created with Sketch.</desc>
    <defs>
        <linearGradient x1="0%" y1="100%" x2="100%" y2="0%" id="linearGradient-1">
            <stop stop-color="#585858" offset="0%"></stop>
            <stop stop-color="#FFFFFF" offset="100%"></stop>
        </linearGradient>
        <filter x="-50%" y="-50%" width="200%" height="200%" filterUnits="objectBoundingBox" id="filter-2">
            <feOffset dx="2" dy="2" in="SourceAlpha" result="shadowOffsetOuter1"></feOffset>
            <feGaussianBlur stdDeviation="4" in="shadowOffsetOuter1" result="shadowBlurOuter1"></feGaussianBlur>
            <feColorMatrix values="0 0 0 0 0   0 0 0 0 0   0 0 0 0 0  0 0 0 0.0508237092 0" in="shadowBlurOuter1" type="matrix" result="shadowMatrixOuter1"></feColorMatrix>
            <feMerge>
                <feMergeNode in="shadowMatrixOuter1"></feMergeNode>
                <feMergeNode in="SourceGraphic"></feMergeNode>
            </feMerge>
        </filter>
    </defs>
    <g id="Broadcasts" stroke="none" stroke-width="1" fill="none" fill-rule="evenodd" sketch:type="MSPage">
        <g id="email_live" sketch:type="MSLayerGroup">
            <path d="M159.802713,319.605425 C248.059314,319.605425 319.605425,248.059314 319.605425,159.802713 C319.605425,71.5461115 248.059314,0 159.802713,0 C71.5461115,0 0,71.5461115 0,159.802713 C0,248.059314 71.5461115,319.605425 159.802713,319.605425 Z" id="Oval-1" fill="#8E97B5" sketch:type="MSShapeGroup"></path>
            <path d="M159.802713,319.605425 C248.059314,319.605425 319.605425,248.059314 319.605425,159.802713 C319.605425,71.5461115 248.059314,0 159.802713,0 C71.5461115,0 0,71.5461115 0,159.802713 C0,248.059314 71.5461115,319.605425 159.802713,319.605425 Z" id="Oval-4" fill-opacity="0.2" fill="url(#linearGradient-1)" sketch:type="MSShapeGroup"></path>
            <path d="M179.490848,34.1174696 C144.820918,35.1029707 111.979093,50.8709887 89.3864799,77.479519 C70.2283381,100.150972 60.0875315,128.237754 59.9988364,158.290611 L46.6586117,143.734804 C45.0965924,141.271051 42.0169014,140.783228 39.7945963,142.256552 C37.5673638,143.734804 37.0351932,147.184058 38.60214,149.15506 L61.9501286,178.498312 C62.8469346,179.478885 64.2956213,180.464386 65.8527131,180.464386 C67.4886449,180.464386 68.9176216,179.478885 69.8538476,178.498312 L96.8812194,149.15506 C98.5614988,146.691307 98.1870084,143.734804 96.048471,142.256552 C93.905006,140.290477 90.8105325,140.7783 89.1302531,142.75423 L69.8834127,162.725366 C69.0309542,133.160333 78.4079974,105.566301 96.8812159,83.8902039 C117.690072,59.7404988 147.930174,44.957982 179.850556,43.9724808 C242.104662,41.508728 294.764914,90.2910337 297.051277,152.870355 C298.164893,182.928139 287.457423,211.507672 266.890015,233.681447 C246.322606,255.855222 218.368867,268.671665 188.17804,269.652238 C142.460643,271.62324 100.571918,246.000211 81.3349357,204.116413 C80.1917544,201.652661 77.2598886,200.672087 74.7912083,202.150339 C72.3225279,203.130912 71.2532592,206.087416 72.3964405,208.551169 C92.6583436,252.410896 136.099233,280 183.95024,280 C185.472839,280 187.005294,279.512177 188.537748,279.512177 C221.36479,278.521748 251.757645,264.72966 274.108811,240.584883 C296.464904,216.435178 308.108599,184.899142 306.90136,152.377604 C304.41297,84.3780269 247.24405,31.1609662 179.490848,34.1174696 Z" id="Fill-1221" fill="#FFFFFF" sketch:type="MSShapeGroup" transform="translate(172.344641, 157.000000) scale(-1, 1) translate(-172.344641, -157.000000) "></path>
            <path d="M218.556169,93.368074 C218.543577,93.2790306 218.519095,93.1948566 218.49741,93.1099871 C218.487617,93.0724219 218.48272,93.0334653 218.470829,92.9965958 C218.319735,92.4811175 218.019646,92.0435523 217.630021,91.7082479 C217.152957,91.2783349 216.535991,91.0091175 215.851173,91.0007697 C215.84208,91.000074 215.832986,91.000074 215.823893,91.000074 C215.725262,90.9993784 215.626632,91.0035523 215.525903,91.0139871 C215.398592,91.0251175 215.271981,91.0466827 215.145371,91.0752045 C215.140474,91.0765958 215.135577,91.0772914 215.130681,91.0786827 C214.909637,91.1308566 214.69139,91.210161 214.480139,91.3235523 L78.6288089,153.460596 C76.4302572,154.465813 76.4652326,157.585118 78.6861685,158.541639 L130.210484,180.730161 L130.210484,231.279031 C130.210484,234.186857 134.130523,235.146161 135.487568,232.570857 L154.987735,195.552422 L190.671006,217.284596 C192.335834,218.298857 194.506405,217.3479 194.878543,215.441813 L218.481321,94.5618132 C218.600937,94.1625088 218.623321,93.7576393 218.556169,93.368074 L218.556169,93.368074 Z M132.343981,175.584422 L86.6612523,155.912074 L203.404838,102.515204 L132.343981,175.584422 L132.343981,175.584422 Z M135.806543,219.971204 L135.806543,183.870335 L150.205203,192.639031 L135.806543,219.971204 L135.806543,219.971204 Z M190.15407,210.444248 L137.446188,178.342683 L211.237223,102.466509 L190.15407,210.444248 L190.15407,210.444248 Z" id="Imported-Layers-2" fill="#FFFFFF" filter="url(#filter-2)" sketch:type="MSShapeGroup"></path>
        </g>
    </g>
</svg>