<?xml version="1.0" encoding="UTF-8" standalone="no"?>
<svg width="256px" height="256px" viewBox="0 0 256 256" version="1.1" xmlns="http://www.w3.org/2000/svg" xmlns:xlink="http://www.w3.org/1999/xlink" xmlns:sketch="http://www.bohemiancoding.com/sketch/ns">
    <!-- Generator: Sketch 3.5.2 (25235) - http://www.bohemiancoding.com/sketch -->
    <title>amazon</title>
    <desc>Created with Sketch.</desc>
    <defs></defs>
    <g id="Services" stroke="none" stroke-width="1" fill="none" fill-rule="evenodd" sketch:type="MSPage">
        <g id="amazon" sketch:type="MSArtboardGroup">
            <circle id="Oval" fill="#FFCC66" sketch:type="MSShapeGroup" cx="128" cy="128" r="128"></circle>
            <path d="M175.38,174.576 C117.48,202.808 81.54,179.18 58.536,164.832 C57.116,163.924 54.692,165.048 56.784,167.512 C64.452,177.04 89.568,199.988 122.356,199.988 C155.152,199.988 174.68,181.64 177.116,178.444 C179.552,175.276 177.832,173.52 175.38,174.576 L175.38,174.576 Z M191.64,165.372 C190.084,163.296 182.188,162.912 177.22,163.536 C172.24,164.136 164.764,167.268 165.412,169.128 C165.74,169.832 166.428,169.52 169.844,169.192 C173.268,168.848 182.876,167.616 184.884,170.288 C186.896,172.992 181.812,185.86 180.892,187.932 C179.992,190.008 181.236,190.536 182.916,189.164 C184.576,187.784 187.584,184.204 189.604,179.144 C191.608,174.052 192.824,166.948 191.64,165.372 L191.64,165.372 Z M134.444,98.052 C119.192,98.576 81.32,103.044 81.32,135.76 C81.32,170.96 124.668,172.428 138.896,149.688 C139.448,150.604 140.064,151.512 140.844,152.356 C146.08,157.988 153.06,164.696 153.06,164.696 L170.836,146.7 C170.836,146.7 160.728,138.58 160.728,129.756 L160.728,82.476 C160.728,74.356 153.06,56.004 125.492,56.004 C97.94,56.004 83.288,73.652 83.288,89.54 L106.312,91.656 C106.312,91.656 111.444,75.764 123.352,75.764 C135.26,75.764 134.444,85.644 134.444,87.776 C134.444,88.344 134.444,92.42 134.444,98.052 L134.444,98.052 Z M134.444,125.884 C134.444,151.652 108.048,147.752 108.048,131.416 C108.048,116.3 123.84,113.24 134.444,112.876 L134.444,125.884 L134.444,125.884 Z" id="Shape" fill="#FFFFFF" sketch:type="MSShapeGroup"></path>
        </g>
    </g>
</svg>