<?xml version="1.0" encoding="UTF-8" standalone="no"?>
<svg width="256px" height="256px" viewBox="0 0 256 256" version="1.1" xmlns="http://www.w3.org/2000/svg" xmlns:xlink="http://www.w3.org/1999/xlink" xmlns:sketch="http://www.bohemiancoding.com/sketch/ns">
    <!-- Generator: Sketch 3.5.2 (25235) - http://www.bohemiancoding.com/sketch -->
    <title>amazon_off</title>
    <desc>Created with Sketch.</desc>
    <defs></defs>
    <g id="Services" stroke="none" stroke-width="1" fill="none" fill-rule="evenodd" sketch:type="MSPage">
        <g id="amazon_off" sketch:type="MSArtboardGroup">
            <g id="off" sketch:type="MSLayerGroup" transform="translate(1.000000, 0.000000)" fill="#FFFFFF">
                <rect id="Rectangle-1" sketch:type="MSShapeGroup" x="0" y="0" width="256" height="256" rx="200"></rect>
            </g>
            <path d="M182.040862,177.250313 C181.270308,177.247875 180.470585,177.42825 179.734062,177.776813 C178.893015,178.118063 178.042246,178.50075 177.244954,178.844437 L176.058738,179.334375 L174.522492,179.948625 L174.522492,179.970562 C157.832831,186.756563 140.302123,190.734563 124.074308,191.083125 C123.476338,191.105063 122.8808,191.105063 122.294985,191.105063 C96.7864923,191.11725 75.9620923,179.249063 54.9529538,167.56125 C54.2164308,167.17125 53.4799077,166.971375 52.7409538,166.971375 C51.7905231,166.971375 50.8255077,167.324813 50.1205846,167.985375 C49.4132308,168.648375 48.9951385,169.616062 49,170.598375 C48.9951385,171.875625 49.6830462,173.045625 50.6383385,173.806125 C70.3518769,190.963687 91.9614154,206.91225 121.0164,206.926875 C121.580338,206.926875 122.156431,206.91225 122.737385,206.9025 C141.220954,206.48325 162.130431,200.228625 178.350954,190.003312 L178.443323,189.9375 C180.570246,188.672438 182.697169,187.21725 184.695262,185.615813 C185.944677,184.684687 186.800308,183.23925 186.788154,181.735312 C186.751692,179.063812 184.481354,177.250313 182.040862,177.250313 L182.040862,177.250313 Z M204.547354,167.77575 L204.547354,167.766 C204.489015,166.13775 204.136554,164.8995 203.463231,163.873312 L203.3976,163.775813 L203.317385,163.675875 C202.629477,162.922687 201.970738,162.6375 201.253662,162.318187 C199.124308,161.49675 196.029938,161.060438 192.291415,161.04825 C189.610277,161.04825 186.652031,161.30175 183.6792,161.950125 L183.674338,161.755125 L180.679631,162.752062 L180.628585,162.778875 L178.9392,163.32975 L178.944062,163.40775 C176.960554,164.231625 175.152062,165.26025 173.477262,166.474125 C172.439323,167.261437 171.569108,168.294938 171.518062,169.879312 C171.496185,170.73975 171.928862,171.736687 172.662954,172.321687 C173.380031,172.909125 174.225938,173.104125 174.962462,173.104125 C175.139908,173.104125 175.3052,173.09925 175.453477,173.072438 L175.596892,173.06025 L175.711138,173.04075 C177.176892,172.731187 179.306246,172.521562 181.795354,172.168125 C183.936862,171.934125 186.204769,171.756188 188.176123,171.756188 C189.573815,171.748875 190.818369,171.846375 191.674,172.034063 C192.104246,172.121813 192.429969,172.236375 192.612277,172.326562 C192.665754,172.3485 192.711938,172.375312 192.738677,172.39725 C192.777569,172.51425 192.831046,172.818938 192.821323,173.25525 C192.845631,174.905437 192.135846,177.969375 191.190277,180.952875 C190.252,183.943687 189.1144,186.94425 188.360862,188.938125 C188.185846,189.396375 188.0716,189.896062 188.0716,190.446937 C188.054585,191.251312 188.380308,192.221438 189.075508,192.8625 C189.748831,193.510875 190.619046,193.764375 191.358,193.764375 L191.387169,193.764375 C192.488308,193.752187 193.421723,193.308562 194.231169,192.682125 C201.827323,185.827875 204.467138,174.903 204.571662,168.75075 L204.547354,167.77575 L204.547354,167.77575 Z" id="Shape" fill="#E4E6EC" sketch:type="MSShapeGroup"></path>
            <path d="M170.463108,144.292875 C166.697846,139.466625 162.918,135.332625 162.918,126.033562 L162.918,95.055375 C162.918,81.9733125 163.948646,69.919875 154.339815,60.9815625 C146.444677,53.75925 134.081785,51 124.468092,51 L120.345508,51 C102.841538,52.0213125 84.3020615,59.5970625 80.1843385,81.29325 C79.4964308,84.0500625 81.5601538,85.07625 82.9311077,85.4175 L102.153631,87.8233125 C104.217354,87.479625 105.243138,85.753875 105.588308,84.047625 C107.302,76.4743125 113.483446,72.679125 120.345508,71.9893125 L121.723754,71.9893125 C125.843908,71.9893125 130.301938,73.7150625 132.705969,77.1616875 C135.452738,81.2908125 135.112431,86.7995625 135.112431,91.6209375 L135.112431,94.382625 C130.644677,94.714125 125.498738,95.055375 120.345508,95.737875 C112.450369,96.786 104.5528,98.151 98.0334769,101.26125 C85.3327077,106.421437 76.7472308,117.431625 76.7472308,133.609312 C76.7472308,153.93075 89.7907385,164.251125 106.273785,164.251125 C111.764892,164.251125 116.232646,163.556437 120.343077,162.532687 C126.872123,160.46325 132.355938,156.68025 138.887415,149.784562 C142.659969,154.9545 143.693046,157.370062 150.212369,162.873937 C151.930923,163.556437 153.647046,163.556437 155.015569,162.532687 C159.143015,159.083625 166.355108,152.885062 170.1228,149.450625 C171.846215,148.068562 171.501046,146.001562 170.463108,144.292875 L170.463108,144.292875 Z M131.337446,135.335062 C128.933415,140.14425 124.8084,143.247187 120.345508,144.295312 C119.662462,144.295312 118.636677,144.639 117.598738,144.639 C110.053631,144.639 105.588308,138.77925 105.588308,130.174875 C105.588308,119.154937 112.110062,113.992312 120.345508,111.581625 C124.810831,110.550562 129.9592,110.204437 135.112431,110.204437 L135.112431,114.340875 C135.112431,122.250562 135.450308,128.441812 131.337446,135.335062 L131.337446,135.335062 Z" id="Shape" fill="#E4E6EC" sketch:type="MSShapeGroup"></path>
        </g>
    </g>
</svg>