<?xml version="1.0" encoding="UTF-8" standalone="no"?>
<svg width="256px" height="256px" viewBox="0 0 256 256" version="1.1" xmlns="http://www.w3.org/2000/svg" xmlns:xlink="http://www.w3.org/1999/xlink" xmlns:sketch="http://www.bohemiancoding.com/sketch/ns">
    <!-- Generator: Sketch 3.2.2 (9983) - http://www.bohemiancoding.com/sketch -->
    <title>angellist_off</title>
    <desc>Created with Sketch.</desc>
    <defs>
        <filter x="-50%" y="-50%" width="200%" height="200%" filterUnits="objectBoundingBox" id="filter-1">
            <feOffset dx="1" dy="1" in="SourceAlpha" result="shadowOffsetOuter1"></feOffset>
            <feGaussianBlur stdDeviation="2" in="shadowOffsetOuter1" result="shadowBlurOuter1"></feGaussianBlur>
            <feColorMatrix values="0 0 0 0 0   0 0 0 0 0   0 0 0 0 0  0 0 0 0.0508237092 0" in="shadowBlurOuter1" type="matrix" result="shadowMatrixOuter1"></feColorMatrix>
            <feMerge>
                <feMergeNode in="shadowMatrixOuter1"></feMergeNode>
                <feMergeNode in="SourceGraphic"></feMergeNode>
            </feMerge>
        </filter>
    </defs>
    <g id="Services" stroke="none" stroke-width="1" fill="none" fill-rule="evenodd" sketch:type="MSPage">
        <g id="off" sketch:type="MSLayerGroup" transform="translate(0.000000, -300.000000)">
            <g id="angellist_off" transform="translate(0.000000, 300.000000)" sketch:type="MSShapeGroup">
                <g id="off-8" fill="#E5E5E5">
                    <rect id="Rectangle-1" x="0" y="0" width="256" height="256" rx="200"></rect>
                </g>
                <path d="M72,161.568628 C72,154.980392 73.4599628,149.856209 76.3798883,146.196078 C78.7783985,142.954248 82.6368715,140.601307 87.9553073,139.137255 C86.2867784,134.954249 85.4525139,131.869281 85.4525139,129.882353 C85.4525139,126.431372 87.2774674,122.771242 90.9273743,118.90196 C94.7858473,115.24183 98.3836126,113.411765 101.72067,113.411765 C103.493482,113.411765 105.579143,113.882353 107.977654,114.823529 C102.972067,100.496732 99.3743016,89.620915 97.1843575,82.1960784 C94.6815642,73.7254902 93.4301676,67.7124183 93.4301676,64.1568628 C93.4301676,59.1372549 94.6815642,55.2156863 97.1843575,52.3921569 C99.7914339,49.4640523 103.284916,48 107.664805,48 C115.173184,48 124.193668,63.4248366 134.726257,94.2745098 L137.385475,101.960784 C138.011173,100.392157 138.636871,98.6666664 139.26257,96.7843137 C149.690876,66.248366 159.07635,50.9803922 167.418994,50.9803922 C171.590317,50.9803922 174.875233,52.3921569 177.273743,55.2156863 C179.776536,58.0392157 181.027933,61.6993464 181.027933,66.1960784 C181.027933,69.124183 179.776536,75.0326797 177.273743,83.9215686 C175.083799,91.5555556 171.642458,102.013072 166.94972,115.294118 C172.893855,116.75817 177.169459,119.581699 179.776536,123.764706 C182.592179,128.261438 184,135.215686 184,144.627451 C184,163.24183 178.472998,178.457516 167.418994,190.27451 C156.156425,202.091503 141.869646,208 124.558659,208 C117.675978,208 111.054004,206.745098 104.692738,204.235294 C98.5400372,202.039216 92.9608939,198.588235 87.9553073,193.882353 C82.6368715,188.862745 78.6741154,183.686274 76.0670391,178.352941 C73.3556797,172.705882 72,167.111112 72,161.568628 L72,161.568628 L72,161.568628 Z M82.1675978,160.784314 C82.1675978,163.398693 82.8975791,166.48366 84.3575419,170.039216 C85.7132216,173.385621 87.7467412,176.888889 90.4581006,180.54902 C94.7337058,186.091503 99.7914339,190.326797 105.631285,193.254902 C111.575419,196.183007 118.301676,197.647059 125.810056,197.647059 C139.26257,197.647059 150.577281,192.575164 159.75419,182.431372 C168.826816,172.392157 173.363129,159.686275 173.363129,144.313725 C173.363129,139.503268 173.050279,135.79085 172.424581,133.176471 C171.903166,130.875817 170.912477,129.098039 169.452514,127.843137 C166.636871,125.437908 161.10987,123.346405 152.871508,121.568628 C144.633147,119.686274 135.873371,118.745098 126.592179,118.745098 C124.297952,118.745098 122.837989,119.058823 122.212291,119.686274 C121.482309,120 121.117318,121.045751 121.117318,122.823529 C121.117318,127.111111 123.515829,130.143791 128.312849,131.921569 C133.527002,134.117647 142.130354,135.215686 154.122905,135.215686 L158.502793,135.215686 C160.171322,135.215686 161.370577,135.79085 162.100558,136.941177 C162.934823,137.777778 163.508379,139.398693 163.821229,141.803922 C162.048417,143.581699 159.180633,145.202614 155.217877,146.666666 C151.463687,148.026144 148.700186,149.385621 146.927374,150.745098 C142.756052,153.777778 139.418994,157.385621 136.916201,161.568628 C134.51769,165.647059 133.318436,169.51634 133.318436,173.176471 C133.318436,175.372549 133.839851,178.039215 134.882682,181.176471 C136.029796,184.627451 136.603352,186.875817 136.603352,187.921568 L136.603352,188.862745 L135.977653,191.215686 C131.389199,190.901961 128.052142,188.75817 125.96648,184.784314 C124.193668,181.437908 123.202979,177.150327 122.994413,171.921568 C122.681564,172.026144 122.055866,172.078431 121.117318,172.078431 L119.396648,172.078431 C119.500931,172.601307 119.553072,173.228758 119.553072,173.960785 C119.553072,177.098039 118.353818,179.764706 115.955307,181.960784 C113.556797,184.156863 110.741155,185.254902 107.50838,185.254902 C102.607076,185.254902 97.6536313,182.90196 92.6480447,178.196078 C87.6424581,173.385621 85.1396648,168.679739 85.1396648,164.078432 C85.1396648,163.24183 85.2960893,162.405229 85.6089385,161.568628 C85.7132216,160.836601 86.547486,159.686275 88.1117318,158.117647 C90.7188081,161.359477 92.4916201,163.607843 93.4301676,164.862745 C97.8100558,171.03268 101.772812,174.117647 105.318436,174.117647 C106.256983,174.117647 107.143389,173.803922 107.977654,173.176471 C108.603352,172.54902 108.916201,172.026144 108.916201,171.607843 C108.916201,170.771242 108.290503,169.254902 107.039106,167.058823 C106.204842,165.490196 104.275605,162.718954 101.251397,158.745098 C98.3314711,154.980392 95.9851024,152.366013 94.2122905,150.90196 C92.6480447,149.437908 91.5009311,148.705883 90.7709497,148.705883 C88.7895717,148.705883 86.8603352,149.856209 84.9832402,152.156863 C83.1061452,154.457516 82.1675978,157.333334 82.1675978,160.784314 L82.1675978,160.784314 L82.1675978,160.784314 Z M96.2458101,130.823529 C96.2458101,132.183007 97.0800745,134.535948 98.7486034,137.882353 C100.208566,140.705882 102.554935,144.261438 105.787709,148.54902 C109.020484,152.732026 111.940409,155.973856 114.547486,158.27451 C117.05028,160.366013 118.927374,161.411765 120.178771,161.411765 C120.908752,161.411765 121.638733,161.045752 122.368715,160.313725 C123.098696,159.477124 123.463687,158.640523 123.463687,157.803922 C123.463687,156.54902 122.525139,153.51634 120.648045,148.705883 C118.458101,143.372549 116.05959,138.562092 113.452514,134.27451 C111.158287,130.614379 109.124767,128.052287 107.351955,126.588235 C105.683426,125.019608 104.067039,124.235294 102.502793,124.235294 C101.35568,124.235294 100.052141,125.019608 98.5921788,126.588235 C97.0279329,128.156863 96.2458101,129.568628 96.2458101,130.823529 L96.2458101,130.823529 L96.2458101,130.823529 Z M103.284916,63.0588235 C103.284916,66.6143791 104.536313,72.2091504 107.039106,79.8431372 C109.333333,87.2679739 112.774674,97.2026144 117.363128,109.647059 C118.405959,109.019608 119.865922,108.705882 121.743016,108.705882 C121.8473,108.705882 122.18622,108.732026 122.759777,108.784314 C123.333333,108.836601 123.880819,108.862745 124.402234,108.862745 C124.819367,108.862745 126.175046,108.96732 128.469274,109.176471 L117.675978,77.8039216 C114.756052,69.4379085 112.461825,64 110.793296,61.490196 C109.437616,59.2941176 108.081936,58.1960784 106.726257,58.1960784 C105.787709,58.1960784 105.005586,58.6143791 104.379888,59.4509804 C103.649907,60.3921568 103.284916,61.5947712 103.284916,63.0588235 L103.284916,63.0588235 L103.284916,63.0588235 Z M129.251397,143.058824 C130.189944,145.464052 131.180633,148.078432 132.223464,150.90196 C134.309125,148.496732 136.394786,146.509804 138.480447,144.941176 C137.959032,144.836601 137.176909,144.705883 136.134078,144.54902 C135.091248,144.392157 134.309125,144.261438 133.78771,144.156863 C131.702049,143.738562 130.189944,143.372549 129.251397,143.058824 L129.251397,143.058824 L129.251397,143.058824 Z M145.675978,111.058824 L156.156425,112.941176 C160.849162,99.973856 164.446927,89.5686275 166.94972,81.7254902 C169.556797,73.254902 170.860335,68.2352941 170.860335,66.6666667 C170.860335,64.993464 170.495345,63.6862745 169.765363,62.745098 C169.348231,62.0130719 168.566108,61.6470588 167.418994,61.6470588 C165.959031,61.6470588 164.342644,63.0588235 162.569833,65.8823529 C160.588454,68.9150327 158.346369,74.1960784 155.843575,81.7254902 L145.675978,111.058824 L145.675978,111.058824 Z" id="Shape" fill="#FFFFFF" filter="url(#filter-1)"></path>
            </g>
        </g>
    </g>
</svg>