<?xml version="1.0" encoding="UTF-8" standalone="no"?>
<svg width="256px" height="256px" viewBox="0 0 256 256" version="1.1" xmlns="http://www.w3.org/2000/svg" xmlns:xlink="http://www.w3.org/1999/xlink" xmlns:sketch="http://www.bohemiancoding.com/sketch/ns">
    <!-- Generator: Sketch 3.2.2 (9983) - http://www.bohemiancoding.com/sketch -->
    <title>github</title>
    <desc>Created with Sketch.</desc>
    <defs>
        <filter x="-50%" y="-50%" width="200%" height="200%" filterUnits="objectBoundingBox" id="filter-1">
            <feOffset dx="1" dy="1" in="SourceAlpha" result="shadowOffsetOuter1"></feOffset>
            <feGaussianBlur stdDeviation="2" in="shadowOffsetOuter1" result="shadowBlurOuter1"></feGaussianBlur>
            <feColorMatrix values="0 0 0 0 0   0 0 0 0 0   0 0 0 0 0  0 0 0 0.0508237092 0" in="shadowBlurOuter1" type="matrix" result="shadowMatrixOuter1"></feColorMatrix>
            <feMerge>
                <feMergeNode in="shadowMatrixOuter1"></feMergeNode>
                <feMergeNode in="SourceGraphic"></feMergeNode>
            </feMerge>
        </filter>
    </defs>
    <g id="Services" stroke="none" stroke-width="1" fill="none" fill-rule="evenodd" sketch:type="MSPage">
        <g id="on" sketch:type="MSLayerGroup" transform="translate(-300.000000, -600.000000)">
            <g id="github" transform="translate(300.000000, 600.000000)">
                <rect id="Rectangle-3" fill="#0B0B0A" sketch:type="MSShapeGroup" x="0" y="0" width="256" height="256" rx="200"></rect>
                <g id="Gradient-7"></g>
                <path d="M172.658301,57.44 C175.036736,62.8398318 176.576185,71.8099298 174.27616,78.3806835 C183.680126,86.4046349 186.910616,105.920871 182.373294,121.866841 C195.773554,122.894011 211.735206,121.378085 222.038273,125.491994 C212.404304,124.253117 199.252342,121.822408 186.829592,122.669236 C184.47468,122.828669 180.988051,122.577758 181.15794,125.891885 C195.538324,127.018374 209.829844,128.249411 221.638382,131.934678 C209.929163,130.021475 195.710826,127.109853 181.15794,126.702121 C175.14651,138.565546 163.050469,144.396633 146.351764,145.619828 C148.144738,149.527257 151.584321,151.017046 152.425921,157.300296 C153.677866,166.683353 150.463059,180.436458 153.63082,186.693572 C155.151973,189.691446 157.629728,189.767242 159.302473,192.333861 C155.212088,197.174369 145.073681,191.787605 143.915828,186.693572 C141.937283,177.958704 146.931997,164.427761 141.487733,158.505196 C141.874556,168.032005 139.237368,181.406128 141.895465,189.910994 C142.943544,193.259099 145.964941,194.550249 145.136409,197.566418 C126.127224,199.497917 134.067538,172.961377 130.962504,157.300296 C128.095314,157.498935 129.352487,161.594548 129.344646,163.340476 C129.263622,178.63303 132.473203,199.615532 115.988818,197.566418 C115.50529,194.35161 118.199979,193.259099 119.224535,190.323953 C122.235477,181.717154 118.662597,168.894514 120.042612,158.505196 C113.748907,163.248998 120.701256,179.811792 116.804281,188.300976 C114.55653,193.18853 107.316678,195.316053 101.827981,193.131029 C102.541512,189.495421 106.302576,190.083496 107.894298,186.693572 C110.12114,181.968066 107.90998,175.156855 108.707147,168.167915 C97.0580428,170.496691 88.0252168,167.830752 83.6055094,160.517718 C81.6295787,157.234955 81.1382097,153.364117 78.7467063,150.455108 C76.3682712,147.546099 72.5680023,147.151435 71.4650357,143.210029 C85.8898525,139.739082 86.4413358,158.050418 99.3972729,158.505196 C103.36743,158.648947 105.432225,157.357797 109.109652,156.495288 C110.136822,151.879555 112.340142,148.434745 115.5837,146.019718 C99.4678419,143.813785 86.1564464,138.795549 79.9646741,126.702121 C65.3098548,127.420879 51.9017537,129.378514 39.4842315,132.331955 C50.7543548,128.238956 64.6590522,126.77269 79.559556,126.294389 C78.6839783,121.014786 70.9841214,122.46537 66.2037282,122.669236 C57.3224947,123.063899 46.1412361,124.164252 39.0817271,125.491994 C49.316839,121.843318 63.6763142,122.298095 77.5391931,122.271959 C73.2998285,108.973632 74.7687082,87.8552189 84.0158548,79.9880874 C81.3943488,73.3885835 82.2098123,62.5810789 85.6337134,57.44 C95.9576899,57.900005 102.220031,62.4033497 108.707147,66.7002149 C116.752008,64.4132581 125.207214,63.2763138 136.229039,63.8826841 C140.865681,64.1388232 145.687893,66.2193005 149.177135,65.8925924 C152.60365,65.5711116 156.380396,61.7290242 159.702364,60.2575308 C164.038434,58.3495554 167.702792,57.6177292 172.658301,57.44" id="Fill-247" fill="#FFFFFF" filter="url(#filter-1)" sketch:type="MSShapeGroup"></path>
            </g>
        </g>
    </g>
</svg>