<?xml version="1.0" encoding="UTF-8" standalone="no"?>
<svg width="256px" height="256px" viewBox="0 0 256 256" version="1.1" xmlns="http://www.w3.org/2000/svg" xmlns:xlink="http://www.w3.org/1999/xlink" xmlns:sketch="http://www.bohemiancoding.com/sketch/ns">
    <!-- Generator: Sketch 3.2.2 (9983) - http://www.bohemiancoding.com/sketch -->
    <title>google</title>
    <desc>Created with Sketch.</desc>
    <defs>
        <linearGradient x1="15.6387329%" y1="86.3220215%" x2="85.244751%" y2="13.6154175%" id="linearGradient-1">
            <stop stop-color="#585858" offset="0%"></stop>
            <stop stop-color="#FFFFFF" offset="100%"></stop>
        </linearGradient>
        <filter x="-50%" y="-50%" width="200%" height="200%" filterUnits="objectBoundingBox" id="filter-2">
            <feOffset dx="1" dy="1" in="SourceAlpha" result="shadowOffsetOuter1"></feOffset>
            <feGaussianBlur stdDeviation="2" in="shadowOffsetOuter1" result="shadowBlurOuter1"></feGaussianBlur>
            <feColorMatrix values="0 0 0 0 0   0 0 0 0 0   0 0 0 0 0  0 0 0 0.0508237092 0" in="shadowBlurOuter1" type="matrix" result="shadowMatrixOuter1"></feColorMatrix>
            <feMerge>
                <feMergeNode in="shadowMatrixOuter1"></feMergeNode>
                <feMergeNode in="SourceGraphic"></feMergeNode>
            </feMerge>
        </filter>
    </defs>
    <g id="Services" stroke="none" stroke-width="1" fill="none" fill-rule="evenodd" sketch:type="MSPage">
        <g id="on" sketch:type="MSLayerGroup" transform="translate(0.000000, -600.000000)">
            <g id="google" transform="translate(0.000000, 600.000000)" sketch:type="MSShapeGroup">
                <rect id="Rectangle-3" fill="#D93526" x="0" y="0" width="256" height="256" rx="200"></rect>
                <g id="Gradient-8" fill="url(#linearGradient-1)" fill-opacity="0.2">
                    <rect id="Rectangle-7" x="0" y="0" width="256" height="256" rx="200"></rect>
                </g>
                <path d="M205.02,72.8686771 L205.02,85.0944389 L180.466159,85.0944389 L180.466159,109.618721 L168.201745,109.618721 L168.201745,85.0944389 L143.836622,85.0944389 L143.836622,72.8686771 L168.201745,72.8686771 L168.201745,48.4194274 L180.466159,48.4194274 L180.466159,72.8686771 L205.02,72.8686771 L205.02,72.8686771 Z M105.583653,48.4194274 L147.431365,48.4194274 L134.521215,55.9818011 L121.563317,55.9818011 C126.124388,58.8489549 129.635003,62.802944 132.101983,67.9847389 C134.548499,73.1619863 135.80359,78.5370469 135.80359,84.162216 C135.80359,88.8778994 135.062359,93.0933657 133.63674,96.735856 C132.199753,100.38062 130.412613,103.38647 128.300333,105.541951 C126.228979,107.840677 124.075771,109.862009 122.002144,111.744644 C119.839842,113.622732 118.086808,115.578126 116.670284,117.615374 C115.108242,119.618517 114.426128,121.742166 114.426128,124.054533 C114.426128,125.716618 114.914977,127.319587 115.954064,128.908913 C117.040899,130.548261 118.441507,132.07165 120.110414,133.517732 C121.833889,134.970635 123.657408,136.507666 125.762867,138.128825 C127.740999,139.699961 129.787342,141.498469 131.838232,143.431126 C133.889122,145.366057 135.769484,147.453327 137.372453,149.717946 C139.130034,151.996208 140.537463,154.722391 141.508339,157.832833 C142.545153,161.011485 143.074928,164.394772 143.074928,168.075915 C143.074928,178.22805 138.663922,187.225137 129.678203,195.033072 C120.067213,203.354866 106.611372,207.570333 89.5289566,207.570333 C85.840992,207.570333 81.9688566,207.222454 78.0785314,206.583541 C74.222312,205.962817 70.3160709,204.873707 66.4530303,203.373056 C62.5536103,201.901963 59.0884697,200.042065 56.0257766,197.829741 C53.0995063,195.671986 50.6257051,192.820748 48.7430697,189.348786 C46.7717594,185.808613 45.86,181.959215 45.86,177.709643 C45.86,173.842055 47.0082257,169.524271 49.377436,164.813135 C51.3692097,160.68407 54.5228514,157.209835 58.5723366,154.226722 C62.667296,151.273167 67.2465566,149.008547 72.3942457,147.423769 C77.5396611,145.868548 82.5259166,144.727143 87.2757057,143.985913 C92.0118526,143.27424 96.743452,142.826318 101.616022,142.705811 C97.475588,137.369404 95.4428874,132.655994 95.4428874,128.442802 C95.4428874,127.717487 95.5042777,126.923961 95.6884486,126.212288 C95.804408,125.452867 95.9226411,124.884439 96.1841183,124.366032 C96.3796577,123.849899 96.5820183,123.12231 96.9117069,122.278762 C97.2664063,121.430667 97.475588,120.723542 97.5574417,120.223325 C94.9949657,120.568929 92.8349371,120.707626 90.870448,120.707626 C81.4208914,120.707626 73.1968669,117.581269 66.4530303,111.310365 C59.6955514,105.062198 56.3099909,97.2360731 56.3099909,87.8433594 C56.3099909,78.8644617 59.324936,70.8678086 65.3912057,63.805652 C71.3642531,56.7935171 78.822036,52.3052051 87.7236274,50.3316211 C93.7125909,49.0219617 99.7129229,48.4194274 105.583653,48.4194274 L105.583653,48.4194274 Z M118.211862,93.8345966 C118.211862,89.9851983 117.663897,85.960724 116.583883,81.6452143 C115.506142,77.3228834 114.021407,73.1619863 112.063739,69.1579754 C110.165187,65.1335011 107.413993,61.816152 103.996601,59.174096 C100.640598,56.5843354 96.8434954,55.2564863 92.5984709,55.2564863 C86.6436131,55.2564863 82.1280166,57.5006423 78.822036,61.8707211 C75.5410663,66.2930954 73.9471926,71.5590177 73.9471926,77.652572 C73.9471926,80.676612 74.3405451,83.7847794 75.018112,87.1157709 C75.7616166,90.43312 76.9212109,93.7641114 78.424136,97.0632709 C79.9611669,100.36243 81.7142006,103.400113 83.7650909,106.008063 C85.8660029,108.668309 88.3147931,110.812421 91.2501583,112.504065 C94.1605126,114.088843 97.2914171,114.973318 100.606493,114.973318 C106.779627,114.973318 111.208822,113.054303 113.978206,109.186715 C116.779422,105.319127 118.211862,100.226007 118.211862,93.8345966 L118.211862,93.8345966 Z M129.635003,176.261287 C129.635003,174.910701 129.494033,173.637421 129.155249,172.393699 C128.866487,171.131787 128.607284,170.026762 128.300333,168.974033 C127.982013,167.903113 127.390847,166.798088 126.599594,165.656683 C125.824258,164.501637 125.180797,163.517118 124.610094,162.757698 C124.043939,161.961898 123.182202,161.011485 122.083998,159.92465 C120.92213,158.817351 120.067213,158.039741 119.469226,157.489502 C118.784838,156.916526 117.766214,156.122999 116.381522,155.002058 C114.914977,153.947055 113.969111,153.20355 113.437062,152.876135 C112.861813,152.462319 111.784072,151.702899 110.190198,150.616063 C108.687273,149.581523 107.750503,148.869851 107.318497,148.665217 C106.318063,148.510604 104.671894,148.440119 102.570982,148.440119 C99.0967463,148.440119 95.6975434,148.683406 92.4120263,149.115412 C89.1310566,149.581523 85.6204417,150.340944 82.1280166,151.511907 C78.535548,152.619206 75.4455703,154.119857 72.6557229,155.881986 C70.0386777,157.694136 67.8650069,160.097452 66.1415314,163.032817 C64.3634869,166.086415 63.6040663,169.506082 63.6040663,173.339564 C63.6040663,177.659621 64.6045006,181.511293 66.9532474,184.91277 C69.2451514,188.350626 72.1555057,190.992682 75.8161857,192.959445 C79.4723183,194.878459 83.3035269,196.360921 87.368928,197.293144 C91.332012,198.243557 95.4428874,198.746047 99.5264783,198.746047 C103.214443,198.746047 106.841017,198.345874 110.190198,197.568263 C113.639423,196.724715 116.874918,195.517373 119.839842,193.82573 C122.904809,192.129539 125.239913,189.783066 127.027053,186.777215 C128.741433,183.789555 129.635003,180.301677 129.635003,176.261287 L129.635003,176.261287 Z" id="Fill-209" fill="#FFFFFF" filter="url(#filter-2)"></path>
            </g>
        </g>
    </g>
</svg>