<?xml version="1.0" encoding="UTF-8" standalone="no"?>
<svg width="257px" height="256px" viewBox="0 0 257 256" version="1.1" xmlns="http://www.w3.org/2000/svg" xmlns:xlink="http://www.w3.org/1999/xlink" xmlns:sketch="http://www.bohemiancoding.com/sketch/ns">
    <!-- Generator: Sketch 3.2.2 (9983) - http://www.bohemiancoding.com/sketch -->
    <title>instagram</title>
    <desc>Created with Sketch.</desc>
    <defs>
        <filter x="-50%" y="-50%" width="200%" height="200%" filterUnits="objectBoundingBox" id="filter-1">
            <feOffset dx="1" dy="1" in="SourceAlpha" result="shadowOffsetOuter1"></feOffset>
            <feGaussianBlur stdDeviation="2" in="shadowOffsetOuter1" result="shadowBlurOuter1"></feGaussianBlur>
            <feColorMatrix values="0 0 0 0 0   0 0 0 0 0   0 0 0 0 0  0 0 0 0.0508237092 0" in="shadowBlurOuter1" type="matrix" result="shadowMatrixOuter1"></feColorMatrix>
            <feMerge>
                <feMergeNode in="shadowMatrixOuter1"></feMergeNode>
                <feMergeNode in="SourceGraphic"></feMergeNode>
            </feMerge>
        </filter>
    </defs>
    <g id="Services" stroke="none" stroke-width="1" fill="none" fill-rule="evenodd" sketch:type="MSPage">
        <g id="on" sketch:type="MSLayerGroup" transform="translate(-898.000000, -300.000000)">
            <g id="instagram" transform="translate(898.000000, 300.000000)">
                <rect id="Rectangle-6" fill="#517694" sketch:type="MSShapeGroup" x="0.455319931" y="0" width="256" height="256" rx="200"></rect>
                <g id="Gradient-5" transform="translate(2.000000, 0.000000)"></g>
                <path d="M181.542143,196 L78.4578571,196 C69.9220571,196 63,189.074114 63,180.532571 L63,77.4597714 C63,68.9201429 69.9220571,62 78.4578571,62 L181.542143,62 C190.079857,62 197,68.9201429 197,77.4597714 L197,180.532571 C197,189.074114 190.079857,196 181.542143,196 L181.542143,196 Z M129.998086,103.227971 C115.765371,103.227971 104.227971,114.761543 104.227971,128.996171 C104.227971,143.225057 115.765371,154.7682 129.998086,154.7682 C144.2308,154.7682 155.770114,143.225057 155.770114,128.996171 C155.770114,114.761543 144.2308,103.227971 129.998086,103.227971 L129.998086,103.227971 Z M181.542143,82.6111143 C181.542143,79.7664857 179.233514,77.4597714 176.381229,77.4597714 L160.923371,77.4597714 C158.076829,77.4597714 155.770114,79.7664857 155.770114,82.6111143 L155.770114,98.0747143 C155.770114,100.921257 158.076829,103.227971 160.923371,103.227971 L176.381229,103.227971 C179.233514,103.227971 181.542143,100.921257 181.542143,98.0747143 L181.542143,82.6111143 L181.542143,82.6111143 Z M181.542143,118.683914 L169.874571,118.683914 C170.7226,121.986057 171.226057,125.431771 171.226057,128.996171 C171.226057,151.772343 152.770429,170.227971 129.998086,170.227971 C107.229571,170.227971 88.7701143,151.772343 88.7701143,128.996171 C88.7701143,125.431771 89.2754857,121.986057 90.1235143,118.683914 L78.4578571,118.683914 L78.4578571,175.383143 C78.4578571,178.223943 80.7645714,180.532571 83.6168571,180.532571 L176.381229,180.532571 C179.233514,180.532571 181.542143,178.223943 181.542143,175.383143 L181.542143,118.683914 L181.542143,118.683914 Z" id="Fill-215" fill="#FFFFFF" filter="url(#filter-1)" sketch:type="MSShapeGroup"></path>
            </g>
        </g>
    </g>
</svg>