<?xml version="1.0" encoding="UTF-8" standalone="no"?>
<svg width="256px" height="256px" viewBox="0 0 256 256" version="1.1" xmlns="http://www.w3.org/2000/svg" xmlns:xlink="http://www.w3.org/1999/xlink" xmlns:sketch="http://www.bohemiancoding.com/sketch/ns">
    <!-- Generator: Sketch 3.2.2 (9983) - http://www.bohemiancoding.com/sketch -->
    <title>soundcloud_off</title>
    <desc>Created with Sketch.</desc>
    <defs>
        <filter x="-50%" y="-50%" width="200%" height="200%" filterUnits="objectBoundingBox" id="filter-1">
            <feOffset dx="1" dy="1" in="SourceAlpha" result="shadowOffsetOuter1"></feOffset>
            <feGaussianBlur stdDeviation="2" in="shadowOffsetOuter1" result="shadowBlurOuter1"></feGaussianBlur>
            <feColorMatrix values="0 0 0 0 0   0 0 0 0 0   0 0 0 0 0  0 0 0 0.0508237092 0" in="shadowBlurOuter1" type="matrix" result="shadowMatrixOuter1"></feColorMatrix>
            <feMerge>
                <feMergeNode in="shadowMatrixOuter1"></feMergeNode>
                <feMergeNode in="SourceGraphic"></feMergeNode>
            </feMerge>
        </filter>
    </defs>
    <g id="Services" stroke="none" stroke-width="1" fill="none" fill-rule="evenodd" sketch:type="MSPage">
        <g id="off" sketch:type="MSLayerGroup" transform="translate(-600.000000, -300.000000)">
            <g id="soundcloud_off" transform="translate(600.000000, 300.000000)" sketch:type="MSShapeGroup">
                <g id="off-6" fill="#E5E5E5">
                    <rect id="Rectangle-1" x="0" y="0" width="256" height="256" rx="200"></rect>
                </g>
                <path d="M125.975225,98.6967603 L125.975225,164.75 L196.866027,164.75 L196.866027,164.663145 C211.794688,163.702631 218.526823,154.40148 218.526823,143.04391 C218.526823,131.055363 209.504034,121.337819 197.361785,121.337819 C194.244867,121.337819 191.679639,121.984123 188.969497,123.154111 C187.027144,104.114981 170.954427,89.25 151.159714,89.25 C141.480999,89.25 132.679394,92.8110557 125.975225,98.6967603 M118.892246,106.965869 C116.454136,105.514879 113.832976,104.372991 111.046564,103.606623 L111.046564,164.75 L122.240517,164.75 L122.240517,102.457072 C121.015106,103.872297 119.896473,105.384597 118.892246,106.965869 M99.8526102,102.5848 L99.8526102,164.75 L107.316941,164.75 L107.316941,102.809601 C105.78899,102.5848 104.212735,102.464735 102.611057,102.464735 C101.675473,102.464735 100.755143,102.508163 99.8526102,102.5848 M84.9290336,107.824201 L84.9290336,164.75 L92.3908219,164.75 L92.3908219,104.135417 C89.7264423,105.034622 87.2196882,106.29402 84.9290336,107.824201 M71.5613734,128.344975 C71.052904,128.017992 70.546977,127.713999 70.0029148,127.438107 L70.0029148,164.75 L77.4621607,164.75 L77.4621607,114.841575 C74.4926995,118.737278 72.423229,123.338039 71.5613734,128.344975 M55.0793382,125.872162 L55.0793382,163.986187 C56.843727,164.479217 58.6996403,164.75 60.6165699,164.75 L62.5436688,164.75 L62.5436688,125.200313 C61.8979127,125.146667 61.2572413,125.110903 60.6038581,125.110903 C58.6869285,125.110903 56.8361,125.379132 55.0793382,125.872162 M40.5625372,144.931729 C40.5625372,150.975816 43.3006449,156.381264 47.61755,160.02662 L47.61755,129.839393 C43.3006449,133.474531 40.5625372,138.887642 40.5625372,144.931729" id="Fill-289" fill="#FFFFFF" filter="url(#filter-1)"></path>
            </g>
        </g>
    </g>
</svg>