<?xml version="1.0" encoding="UTF-8" standalone="no"?>
<svg width="256px" height="256px" viewBox="0 0 256 256" version="1.1" xmlns="http://www.w3.org/2000/svg" xmlns:xlink="http://www.w3.org/1999/xlink" xmlns:sketch="http://www.bohemiancoding.com/sketch/ns">
    <!-- Generator: Sketch 3.2.2 (9983) - http://www.bohemiancoding.com/sketch -->
    <title>vkontakte_off</title>
    <desc>Created with Sketch.</desc>
    <defs></defs>
    <g id="Services" stroke="none" stroke-width="1" fill="none" fill-rule="evenodd" sketch:type="MSPage">
        <g id="off" sketch:type="MSLayerGroup" transform="translate(-600.000000, -600.000000)">
            <g id="vkontakte_off" transform="translate(600.000000, 600.000000)" sketch:type="MSShapeGroup">
                <g id="off-9" fill="#FFFFFF">
                    <rect id="Rectangle-1" x="0" y="0" width="256" height="256" rx="200"></rect>
                </g>
                <path d="M180.299252,181.178723 C188.294284,178.770321 212.014392,185.037572 213.268458,175.037971 C213.670682,171.83168 209.453096,166.463435 207.498847,163.984618 C202.312378,157.405416 197.82733,153.099931 191.426358,147.199896 C188.473554,144.478314 184.640472,141.575376 184.420403,137.784076 C184.130686,132.796557 189.045158,127.800441 191.426358,124.683805 C197.38884,116.880137 202.808153,111.156547 208.323076,102.167714 C209.769601,99.810075 214.446283,91.2367665 212.856343,87.839293 C210.941243,83.7466865 200.278179,85.3829922 194.311164,85.3829922 C187.025794,85.3829922 179.09093,83.9239495 174.117525,85.7923757 C170.849453,87.0201167 168.916221,93.7507903 167.111569,97.6644962 C162.717598,107.193306 159.196075,113.600157 153.511772,120.999353 C150.912974,124.382089 148.511168,128.705179 144.033125,129.187023 C138.224775,125.338818 139.67748,116.686499 139.911974,108.308466 C140.120917,100.850728 142.377246,90.8998438 139.087744,85.3829922 C135.85635,79.9635739 124.294461,80.8797741 116.009299,80.8797741 C106.151919,80.8797741 97.975556,81.472152 94.9914306,87.4299096 C98.5764197,89.5451939 102.12267,89.6160173 104.057962,93.1612781 C106.111532,96.9231027 106.316765,105.728532 106.118537,112.811684 C105.943801,119.054373 105.570837,128.801384 101.585272,129.596407 C97.4789573,130.415583 93.9768033,124.260912 91.69451,120.999353 C86.4276793,113.473248 82.4326358,106.855564 78.0947125,97.6644962 C76.2051649,93.6607259 73.8396243,87.3840586 71.5008713,86.2017592 C67.5614633,84.210518 59.1604974,85.3829922 53.779923,85.3829922 C47.4358235,85.3829922 41.149008,84.3099982 37.2953199,87.4299096 C37.2977926,94.1008132 40.8238492,100.056933 43.4770461,105.442782 C51.6711302,122.078489 60.5324286,137.226905 71.9129864,151.703114 C82.5636884,165.25125 94.7091318,177.85453 118.48199,180.359956 C126.010096,181.153342 136.936916,181.962284 139.499859,177.494272 C142.672321,171.962683 138.900231,159.059325 146.505815,157.843866 C151.862487,156.987845 156.350008,164.392773 159.281383,167.669069 C164.468263,173.46512 170.546548,179.723365 179.475021,181.178723 L180.299252,181.178723 Z" id="Rectangle-1" fill="#E4E7EC"></path>
            </g>
        </g>
    </g>
</svg>