<?xml version="1.0" encoding="utf-8"?>
<!-- Generator: Adobe Illustrator 16.0.0, SVG Export Plug-In . SVG Version: 6.00 Build 0)  -->
<!DOCTYPE svg PUBLIC "-//W3C//DTD SVG 1.1//EN" "http://www.w3.org/Graphics/SVG/1.1/DTD/svg11.dtd">
<svg version="1.1" id="Layer_1" xmlns="http://www.w3.org/2000/svg" xmlns:xlink="http://www.w3.org/1999/xlink" x="0px" y="0px"
	 width="16px" height="16px" viewBox="0 0 16 16" enable-background="new 0 0 16 16" xml:space="preserve">
<g>
	<defs>
		<rect id="SVGID_1_" width="16" height="16"/>
	</defs>
	<clipPath id="SVGID_2_">
		<use xlink:href="#SVGID_1_"  overflow="visible"/>
	</clipPath>
	<path clip-path="url(#SVGID_2_)" fill="#1D1D1B" d="M15.766,8.438C15.912,8.34,16,8.175,16,8c0-0.176-0.088-0.341-0.234-0.438
		l-1.654-1.104L14.07,6.264l0.875-1.767C15.021,4.338,15.018,4.152,14.928,4c-0.088-0.153-0.246-0.251-0.42-0.263L12.533,3.61
		l-0.143-0.143l-0.13-1.973C12.252,1.318,12.152,1.16,12,1.072s-0.338-0.094-0.496-0.015l-1.77,0.874L9.535,1.879L8.438,0.234
		C8.34,0.088,8.176,0,8,0C7.825,0,7.659,0.088,7.562,0.234L6.465,1.88L6.267,1.932L4.496,1.057C4.339,0.978,4.153,0.984,3.999,1.072
		c-0.152,0.088-0.25,0.246-0.26,0.422L3.611,3.468L3.468,3.61L1.493,3.738C1.318,3.75,1.159,3.848,1.073,4
		C0.984,4.152,0.978,4.339,1.056,4.497l0.876,1.771L1.88,6.465L0.235,7.563C0.088,7.66,0,7.825,0,8.001
		c0,0.176,0.088,0.34,0.235,0.438L1.88,9.536l0.052,0.198l-0.875,1.77C0.979,11.662,0.985,11.848,1.073,12
		c0.087,0.152,0.246,0.251,0.42,0.262l1.975,0.129l0.144,0.144l0.128,1.974c0.01,0.176,0.108,0.334,0.261,0.422
		c0.153,0.088,0.339,0.093,0.496,0.016l1.77-0.873l0.2,0.051l1.096,1.645C7.66,15.912,7.825,16,8.001,16s0.341-0.088,0.439-0.234
		l1.097-1.645l0.199-0.053l1.77,0.875c0.156,0.078,0.344,0.072,0.496-0.017c0.152-0.087,0.25-0.245,0.262-0.422l0.127-1.972
		l0.146-0.146l1.971-0.127c0.176-0.012,0.334-0.11,0.424-0.262c0.086-0.152,0.092-0.339,0.014-0.497L14.07,9.734l0.043-0.194
		L15.766,8.438z M10.367,8.439l-0.365,0.278l0.133,0.438l0.742,2.441l-2.1-1.457L8.403,9.879l-0.376,0.262L5.929,11.6L6.67,9.156
		l0.133-0.438L6.438,8.439L4.403,6.897l2.55-0.052l0.458-0.01l0.15-0.432l0.842-2.414l0.841,2.414l0.15,0.432l0.457,0.01
		l2.551,0.052L10.367,8.439z"/>
</g>
</svg>
