<?xml version="1.0" encoding="UTF-8" standalone="no"?>
<svg width="48px" height="48px" viewBox="0 0 48 48" version="1.1" xmlns="http://www.w3.org/2000/svg" xmlns:xlink="http://www.w3.org/1999/xlink" xmlns:sketch="http://www.bohemiancoding.com/sketch/ns">
    <!-- Generator: Sketch 3.2.2 (9983) - http://www.bohemiancoding.com/sketch -->
    <title>add_image</title>
    <desc>Created with Sketch.</desc>
    <defs></defs>
    <g id="Icons" stroke="none" stroke-width="1" fill="none" fill-rule="evenodd" sketch:type="MSPage">
        <g id="add_image" sketch:type="MSLayerGroup" stroke="#626A85" stroke-width="2">
            <g id="plus" transform="translate(30.843750, 4.500000)" sketch:type="MSShapeGroup">
                <path d="M2.15624998,7.5 L17.1562497,7.5" id="Stroke-3061"></path>
                <path d="M9.65625,15 L9.65625,0" id="Stroke-3062"></path>
            </g>
            <path d="M15.75,13.5 C13.625,13.5 12,15.125 12,17.25 C12,19.375 13.625,21 15.75,21 C17.875,21 19.5,19.375 19.5,17.25 C19.5,15.125 17.875,13.5 15.75,13.5 L15.75,13.5 L15.75,13.5 Z" id="Path" sketch:type="MSShapeGroup"></path>
            <path d="M48,21.2365723 L48,42.0125164 C48,44.4908852 45.9986107,46.5 43.5058497,46.5 L4.49415034,46.5 C2.01209964,46.5 0,44.4742527 0,42.0052643 L0,8.99473572 C0,6.51236173 2.01791882,4.5 4.49968361,4.5 L28.6970215,4.5" id="Rectangle" sketch:type="MSShapeGroup"></path>
            <path d="M3,38.4 L13.2,28.8 C13.8,28.35 14.55,28.2 15.15,28.8 L18.6,31.65 L30.6,19.8 C31.2,19.2 32.1,19.2 32.7,19.8 L45,31.5" id="Path" stroke-linecap="round" sketch:type="MSShapeGroup"></path>
        </g>
    </g>
</svg>