<?xml version="1.0" encoding="UTF-8" standalone="no"?>
<svg width="36px" height="36px" viewBox="0 0 36 36" version="1.1" xmlns="http://www.w3.org/2000/svg" xmlns:xlink="http://www.w3.org/1999/xlink" xmlns:sketch="http://www.bohemiancoding.com/sketch/ns">
    <!-- Generator: Sketch 3.0.3 (7891) - http://www.bohemiancoding.com/sketch -->
    <title>add_image</title>
    <desc>Created with Sketch.</desc>
    <defs></defs>
    <g id="24" stroke="none" stroke-width="1" fill="none" fill-rule="evenodd" sketch:type="MSPage">
        <g id="Icons" sketch:type="MSLayerGroup" transform="translate(-320.000000, -382.000000)" fill="#0093E6" opacity="0.9">
            <g id="add_image" transform="translate(320.000000, 382.000000)" sketch:type="MSShapeGroup">
                <path d="M3,27.2829861 L3,11.1961806 C3,10.4369213 3.23726852,9.82002315 3.71180556,9.34548611 C4.2337963,8.82349537 4.80324074,8.5625 5.42013889,8.5625 L25.9201389,8.5625 L25.9201389,10.6267361 L5.13541667,10.6267361 L5.13541667,27.7100694 L29.8350694,27.7100694 L29.8350694,14.5416667 L31.9704861,14.5416667 L31.9704861,27.2829861 C31.9704861,28.0422454 31.7332176,28.6591435 31.2586806,29.1336806 C30.7841435,29.6082176 30.1909722,29.8454861 29.4791667,29.8454861 L5.42013889,29.8454861 C4.75578704,29.8454861 4.18634259,29.6082176 3.71180556,29.1336806 C3.23726852,28.6591435 3,28.0422454 3,27.2829861 L3,27.2829861 Z M5.98958333,26.5 L8.33854167,22.8697917 L10.5451389,23.7239583 L13.5347222,19.8802083 L16.3107639,21.375 L22.9305556,14.1145833 L28.5538194,22.015625 L28.5538194,26.5 L5.98958333,26.5 L5.98958333,26.5 Z M7.34201389,16.25 C7.34201389,15.6331019 7.5318287,15.134838 7.91145833,14.7552083 C8.33854167,14.328125 8.83680556,14.1145833 9.40625,14.1145833 C10.0231481,14.1145833 10.5451389,14.328125 10.9722222,14.7552083 C11.3993056,15.1822917 11.6128472,15.6805556 11.6128472,16.25 C11.6128472,16.8194444 11.3993056,17.3177083 10.9722222,17.7447917 C10.5451389,18.171875 10.0231481,18.3854167 9.40625,18.3854167 C8.83680556,18.3854167 8.33854167,18.171875 7.91145833,17.7447917 C7.5318287,17.365162 7.34201389,16.8668981 7.34201389,16.25 L7.34201389,16.25 Z M27.2013889,10.6979167 L27.2013889,8.5625 L29.7638889,8.5625 L29.7638889,6 L31.9704861,6 L31.9704861,8.5625 L34.5329861,8.5625 L34.5329861,10.6979167 L31.9704861,10.6979167 L31.9704861,13.2604167 L29.7638889,13.2604167 L29.7638889,10.6979167 L27.2013889,10.6979167 L27.2013889,10.6979167 Z"></path>
            </g>
        </g>
    </g>
</svg>