<?xml version="1.0" encoding="UTF-8" standalone="no"?>
<svg width="32px" height="32px" viewBox="0 0 32 32" version="1.1" xmlns="http://www.w3.org/2000/svg" xmlns:xlink="http://www.w3.org/1999/xlink" xmlns:sketch="http://www.bohemiancoding.com/sketch/ns">
    <!-- Generator: Sketch 3.2.2 (9983) - http://www.bohemiancoding.com/sketch -->
    <title>add_image</title>
    <desc>Created with Sketch.</desc>
    <defs></defs>
    <g id="Icons" stroke="none" stroke-width="1" fill="none" fill-rule="evenodd" sketch:type="MSPage">
        <g id="add_image" sketch:type="MSLayerGroup" stroke="#626A85" stroke-width="2">
            <g id="plus" transform="translate(20.562500, 3.000000)" sketch:type="MSShapeGroup">
                <path d="M1.43749999,5 L11.4374998,5" id="Stroke-3061"></path>
                <path d="M6.4375,10 L6.4375,0" id="Stroke-3062"></path>
            </g>
            <path d="M10.5,9 C9.08333333,9 8,10.0833333 8,11.5 C8,12.9166667 9.08333333,14 10.5,14 C11.9166667,14 13,12.9166667 13,11.5 C13,10.0833333 11.9166667,9 10.5,9 L10.5,9 L10.5,9 Z" id="Path" sketch:type="MSShapeGroup"></path>
            <path d="M32,14.1577148 L32,28.0083443 C32,29.6605901 30.6657405,31 29.0038998,31 L2.99610022,31 C1.34139976,31 0,29.6495018 0,28.0035095 L0,5.99649048 C0,4.34157448 1.34527922,3 2.99978907,3 L19.1313477,3" id="Rectangle" sketch:type="MSShapeGroup"></path>
            <path d="M2,25.6 L8.8,19.2 C9.2,18.9 9.7,18.8 10.1,19.2 L12.4,21.1 L20.4,13.2 C20.8,12.8 21.4,12.8 21.8,13.2 L30,21" id="Path" stroke-linecap="round" sketch:type="MSShapeGroup"></path>
        </g>
    </g>
</svg>