<?xml version="1.0" encoding="UTF-8" standalone="no"?>
<svg width="15px" height="15px" viewBox="0 0 15 15" version="1.1" xmlns="http://www.w3.org/2000/svg" xmlns:xlink="http://www.w3.org/1999/xlink" xmlns:sketch="http://www.bohemiancoding.com/sketch/ns">
    <!-- Generator: Sketch 3.2.2 (9983) - http://www.bohemiancoding.com/sketch -->
    <title>add_image</title>
    <desc>Created with Sketch.</desc>
    <defs></defs>
    <g id="Page-1" stroke="none" stroke-width="1" fill="none" fill-rule="evenodd" sketch:type="MSPage">
        <g id="add_image" sketch:type="MSLayerGroup" stroke="#231F1F">
            <path d="M14.5,5.84177756 L14.5,14.5 L0.5,14.5 L0.5,0.5 L8.94039619,0.5" id="Stroke-2520" sketch:type="MSShapeGroup"></path>
            <path d="M1.82608696,13.3478261 C1.82608696,13.3478261 3.04347826,10.3043478 4.56521739,10.3043478 C6.08695652,10.3043478 7.30434783,12.1304348 7.30434783,12.1304348 L9.13926087,8.98469565 C9.32217391,8.67121739 9.65817391,8.47826087 10.0212609,8.47826087 C10.4077826,8.47826087 10.7611304,8.69678261 10.9343043,9.04252174 L13.0869565,13.3478261" id="Stroke-2523" stroke-linejoin="round" sketch:type="MSShapeGroup"></path>
            <path d="M5.21428571,4 C4.325,4 3.59321429,4.7304 3.45714286,5.6836 C3.33678571,5.6312 3.20785714,5.6 3.07142857,5.6 C2.47964286,5.6 2,6.1376 2,6.8 C2,7.4624 2.47964286,8 3.07142857,8 L5.21428571,8 C6.20035714,8 7,7.1048 7,6 C7,4.8952 6.20035714,4 5.21428571,4 L5.21428571,4 Z" id="Stroke-2524" sketch:type="MSShapeGroup"></path>
            <g id="plus" transform="translate(10.000000, 0.000000)" stroke-linecap="round" sketch:type="MSShapeGroup">
                <path d="M0.500000003,2.5 L4.49999999,2.5" id="Stroke-3061"></path>
                <path d="M2.50743196,4.5 L2.50743196,0.5" id="Stroke-3062"></path>
            </g>
        </g>
        <g id="Group" sketch:type="MSLayerGroup" transform="translate(-300.000000, 0.000000)"></g>
    </g>
</svg>