<?xml version="1.0" encoding="UTF-8" standalone="no"?>
<svg width="32px" height="32px" viewBox="0 0 32 32" version="1.1" xmlns="http://www.w3.org/2000/svg" xmlns:xlink="http://www.w3.org/1999/xlink" xmlns:sketch="http://www.bohemiancoding.com/sketch/ns">
    <!-- Generator: Sketch 3.0.2 (7799) - http://www.bohemiancoding.com/sketch -->
    <title>akismet</title>
    <description>Created with Sketch.</description>
    <defs></defs>
    <g id="24" stroke="none" stroke-width="1" fill="none" fill-rule="evenodd" sketch:type="MSPage">
        <g id="Brands" sketch:type="MSLayerGroup" transform="translate(0.000000, -41.000000)" fill="#000000">
            <g id="akismet" transform="translate(0.000000, 41.000000)" sketch:type="MSShapeGroup">
                <path d="M0,17.2964801 C0,16.4864957 0.65240834,15.8298737 1.4571949,15.8298737 C2.26198146,15.8298737 2.9143898,16.4864957 2.9143898,17.2964801 C2.9143898,18.1064645 2.26198146,18.7630866 1.4571949,18.7630866 C0.65240834,18.7630866 0,18.1064645 0,17.2964801 L0,17.2964801 Z M19.0523755,28.0254873 C20.136831,27.9995001 20.8985205,27.9215399 21.3374668,27.7916042 C22.1120779,27.55772 22.4993776,27.1159453 22.4993776,26.4662668 C22.4993776,26.4922539 22.4219177,26.1154462 22.2669954,25.3358321 L20.2917471,19.9955022 L10.1443923,19.9955022 L8.59517782,24.3613193 C8.36279449,25.0109978 8.24660457,25.5956995 8.24660457,26.1154423 C8.24660457,27.3108506 9.40850379,27.9475258 11.7323371,28.0254873 L11.7323371,29 L2.43705033,29 L2.43705033,28.0254873 C3.46986513,27.9995001 4.25737461,27.8435797 4.79960239,27.5577212 C5.75495609,27.0639656 6.49082559,26.1024559 7.007233,24.6731634 L14.6371142,3.70164917 L17.5806217,3 L25.4816155,24.9070464 C25.9463822,26.2323904 26.5531518,27.1029464 27.3019425,27.5187406 C27.8183499,27.8045991 28.6574993,27.9735129 29.819416,28.0254873 L29.819416,29 L19.0523755,29 L19.0523755,28.0254873 L19.0523755,28.0254873 Z M29.0856102,17.2964801 C29.0856102,16.4864957 29.7380186,15.8298737 30.542805,15.8298737 C31.3475916,15.8298737 32,16.4864957 32,17.2964801 C32,18.1064645 31.3475916,18.7630866 30.542805,18.7630866 C29.7380186,18.7630866 29.0856102,18.1064645 29.0856102,17.2964801 L29.0856102,17.2964801 Z M19.865713,18.7091454 L15.2955303,5.88455772 L15.2180697,5.88455772 L10.6091566,18.7091454 L19.865713,18.7091454 L19.865713,18.7091454 Z"></path>
            </g>
        </g>
    </g>
</svg>