<?xml version="1.0" encoding="UTF-8" standalone="no"?>
<svg width="260px" height="310px" viewBox="0 0 260 310" version="1.1" xmlns="http://www.w3.org/2000/svg" xmlns:xlink="http://www.w3.org/1999/xlink" xmlns:sketch="http://www.bohemiancoding.com/sketch/ns">
    <title>ak-logo-2x</title>
    <description>Created with Sketch (http://www.bohemiancoding.com/sketch)</description>
    <defs></defs>
    <g id="Page 1" stroke="none" stroke-width="1" fill="none" fill-rule="evenodd">
        <path d="M0,145.47157 C0,138.929388 5.30081776,133.625903 11.8397086,133.625903 C18.3785994,133.625903 23.6794171,138.929388 23.6794171,145.47157 C23.6794171,152.013752 18.3785994,157.317238 11.8397086,157.317238 C5.30081776,157.317238 0,152.013752 0,145.47157 Z M154.800551,232.128936 C163.611752,231.919039 169.800479,231.289361 173.366918,230.23988 C179.660633,228.350815 182.807443,224.782635 182.807443,219.535232 C182.807443,219.745128 182.178081,216.701681 180.919338,210.404798 L164.870445,167.271364 L82.4231873,167.271364 L69.8358198,202.533733 C67.9477052,207.781136 67.0036621,212.503727 67.0036621,216.701649 C67.0036621,226.35687 76.4440933,231.499247 95.325239,232.128936 L95.325239,240 L19.8010339,240 L19.8010339,232.128936 C28.1926542,231.919039 34.5911687,230.659682 38.9967694,228.350825 C46.7590182,224.362799 52.7379579,216.596759 56.9337681,205.052474 L118.926553,35.6671664 L142.842551,30 L207.038126,206.941529 C210.814355,217.64623 215.744358,224.677644 221.828283,228.035982 C226.024093,230.344839 232.842182,231.709143 242.282755,232.128936 L242.282755,240 L154.800551,240 L154.800551,232.128936 Z M236.320583,145.47157 C236.320583,138.929388 241.621401,133.625903 248.160291,133.625903 C254.699182,133.625903 260,138.929388 260,145.47157 C260,152.013752 254.699182,157.317238 248.160291,157.317238 C241.621401,157.317238 236.320583,152.013752 236.320583,145.47157 Z M161.408918,156.881559 L124.276184,53.2983508 L123.646816,53.2983508 L86.1993976,156.881559 L161.408918,156.881559 Z M161.408918,156.881559" id="Oval 1" fill="#000000"></path>
    </g>
</svg>