<?xml version="1.0" encoding="UTF-8" standalone="no"?>
<svg width="32px" height="32px" viewBox="0 0 32 32" version="1.1" xmlns="http://www.w3.org/2000/svg" xmlns:xlink="http://www.w3.org/1999/xlink" xmlns:sketch="http://www.bohemiancoding.com/sketch/ns">
    <!-- Generator: Sketch 3.5.2 (25235) - http://www.bohemiancoding.com/sketch -->
    <title>Group</title>
    <desc>Created with Sketch.</desc>
    <defs></defs>
    <g id="Page-1" stroke="none" stroke-width="1" fill="none" fill-rule="evenodd" sketch:type="MSPage">
        <g id="Group" sketch:type="MSLayerGroup" fill="#000000">
            <path d="M26.8881204,25.7081921 C26.7352841,25.7077095 26.5766623,25.7434258 26.430576,25.8124451 C26.2637579,25.8800165 26.0950113,25.9557929 25.9368716,26.023847 L25.7015907,26.1208601 L25.3968825,26.2424886 L25.3968825,26.2468325 C22.0865562,27.5905374 18.6094119,28.3782265 15.3906909,28.4472459 C15.2720862,28.4515898 15.1539635,28.4515898 15.0377695,28.4515898 C9.97826408,28.454003 5.84782931,26.1039673 1.68075242,23.7896479 C1.53466608,23.7124234 1.38857973,23.6728459 1.24201125,23.6728459 C1.05349718,23.6728459 0.86209032,23.7428306 0.722271704,23.8736294 C0.581970955,24.0049109 0.499044051,24.196524 0.500008318,24.3910331 C0.499044051,24.643943 0.635487735,24.8756163 0.824966067,25.0262039 C4.73506598,28.4235959 9.02122976,31.5815921 14.7841674,31.5844881 C14.8960223,31.5844881 15.0102879,31.5815921 15.1255177,31.5796615 C18.7916582,31.4966453 22.9389677,30.2581586 26.1562422,28.2334308 L26.1745633,28.2203991 C26.5964298,27.9699024 27.0182963,27.6817588 27.4146098,27.364656 C27.6624262,27.1802827 27.8321371,26.8940697 27.8297264,26.596273 C27.8224944,26.0672857 27.3721821,25.7081921 26.8881204,25.7081921 L26.8881204,25.7081921 Z M31.3521913,23.8321213 L31.3521913,23.8301907 C31.3406201,23.5077787 31.2707108,23.2625912 31.1371599,23.0593944 L31.1241423,23.0400883 L31.1082319,23.0202995 C30.9717882,22.8711599 30.8411301,22.8146895 30.6989008,22.751462 C30.2765522,22.5888081 29.6627967,22.5024133 28.9212759,22.5 C28.389483,22.5 27.802727,22.5501959 27.2130781,22.6785815 L27.2121138,22.6399693 L26.6181258,22.8373742 L26.608001,22.8426834 L26.2729184,22.9517629 L26.2738827,22.9672078 C25.8804621,23.1303444 25.521755,23.3340238 25.1895652,23.5743848 C24.9836944,23.7302816 24.8110907,23.9349263 24.8009659,24.2486505 C24.7966267,24.4190269 24.8824464,24.6164318 25.0280506,24.7322685 C25.1702799,24.8485878 25.3380623,24.8872 25.4841486,24.8872 C25.5193443,24.8872 25.5521294,24.8862347 25.5815395,24.8809255 L25.6099854,24.8785122 L25.6326456,24.874651 C25.9233719,24.8133541 26.3457206,24.771846 26.8394249,24.7018614 C27.2641842,24.6555267 27.7140145,24.6202931 28.1050245,24.6202931 C28.382251,24.6188451 28.6291032,24.6381512 28.7988141,24.6753155 C28.8841516,24.692691 28.9487575,24.7153756 28.9849175,24.7332338 C28.9955244,24.7375777 29.0046849,24.7428868 29.0099884,24.7472307 C29.0177025,24.770398 29.0283095,24.8307296 29.0263809,24.9171244 C29.0312022,25.2438803 28.8904194,25.8505747 28.7028696,26.4413415 C28.5167662,27.0335563 28.2911279,27.6277017 28.1416666,28.0225115 C28.106953,28.1132502 28.0842927,28.212194 28.0842927,28.3212735 C28.0809178,28.4805489 28.1455236,28.6726447 28.2834137,28.7995823 C28.4169646,28.9279679 28.5895683,28.9781638 28.7361368,28.9781638 L28.7419224,28.9781638 C28.9603287,28.9757505 29.1454678,28.8879077 29.3060182,28.763866 C30.8126843,27.4066468 31.3362809,25.2433976 31.3570126,24.0251824 L31.3521913,23.8321213 L31.3521913,23.8321213 Z" id="Shape" sketch:type="MSShapeGroup"></path>
            <path d="M24.0881618,18.9730473 C23.3413375,18.0173951 22.5916205,17.1988162 22.5916205,15.3574963 L22.5916205,9.22346388 C22.5916205,6.63306714 22.7960449,4.24634982 20.8901726,2.47646258 C19.3242041,1.04636279 16.8720748,0.5 14.9652382,0.5 L14.1475403,0.5 C10.6756995,0.702231458 6.99846986,2.20231587 6.18173629,6.49840706 C6.0452926,7.0442872 6.45462365,7.24748396 6.72654676,7.31505533 L10.5392558,7.79143349 C10.9485868,7.72337947 11.152047,7.38166139 11.2205099,7.04380454 C11.5604138,5.54420278 12.7864784,4.79271261 14.1475403,4.65612192 L14.4209098,4.65612192 C15.2381255,4.65612192 16.1223578,4.99783999 16.5991874,5.68031083 C17.1439979,6.4979244 17.0764993,7.58871938 17.0764993,8.54340631 L17.0764993,9.09025175 C16.1903385,9.15589251 15.1696626,9.22346388 14.1475403,9.35860662 C12.5815718,9.56614726 11.0151212,9.83643274 9.72204007,10.4522975 C7.20289432,11.4740732 5.5,13.6542152 5.5,16.8575807 C5.5,20.8814558 8.08712653,22.9250071 11.3564715,22.9250071 C12.4456103,22.9250071 13.331771,22.7874511 14.1470582,22.584737 C15.4420679,22.1749649 16.5297603,21.425888 17.8252521,20.0604637 C18.5735227,21.08417 18.7784293,21.5624787 20.0715105,22.6523084 C20.4123786,22.7874511 20.7527646,22.7874511 21.0242056,22.584737 C21.8428677,21.9017835 23.2733568,20.6743979 24.0206632,19.9943403 C24.3624956,19.7206762 24.2940327,19.3113868 24.0881618,18.9730473 L24.0881618,18.9730473 Z M16.3277465,17.1992988 C15.8509168,18.1515725 15.0327368,18.7659893 14.1475403,18.9735299 C14.0120609,18.9735299 13.8086007,19.041584 13.6027299,19.041584 C12.1061885,19.041584 11.2205099,17.881287 11.2205099,16.1775232 C11.2205099,13.9954506 12.5140732,12.9731923 14.1475403,12.4958488 C15.0332189,12.2916867 16.054377,12.2231501 17.0764993,12.2231501 L17.0764993,13.0422116 C17.0764993,14.6084194 17.1435158,15.8343571 16.3277465,17.1992988 L16.3277465,17.1992988 Z" id="Shape" sketch:type="MSShapeGroup"></path>
        </g>
    </g>
</svg>