<?xml version="1.0" encoding="UTF-8" standalone="no"?>
<svg width="32px" height="32px" viewBox="0 0 32 32" version="1.1" xmlns="http://www.w3.org/2000/svg" xmlns:xlink="http://www.w3.org/1999/xlink" xmlns:sketch="http://www.bohemiancoding.com/sketch/ns">
    <!-- Generator: Sketch 3.0.2 (7799) - http://www.bohemiancoding.com/sketch -->
    <title>angellist</title>
    <description>Created with Sketch.</description>
    <defs></defs>
    <g id="24" stroke="none" stroke-width="1" fill="none" fill-rule="evenodd" sketch:type="MSPage">
        <g id="Brands" sketch:type="MSLayerGroup" transform="translate(-160.000000, -41.000000)" fill="#000000">
            <g id="angellist" transform="translate(160.000000, 41.000000)" sketch:type="MSShapeGroup">
                <path d="M3.96389892,22.7128912 C3.96389892,21.3951257 4.25752221,20.3701971 4.84476877,19.6381051 C5.32714988,18.9896809 6.10315427,18.5190503 7.17278195,18.2262136 C6.83721248,17.3895372 6.66942774,16.7724883 6.66942774,16.375067 C6.66942774,15.6848088 7.03645685,14.9527169 7.77051507,14.1787911 C8.54651945,13.4466993 9.27009111,13.0806534 9.94123005,13.0806534 C10.2977726,13.0806534 10.7172344,13.1747795 11.1996156,13.3630316 C10.1929072,10.4974147 9.46933548,8.32205588 9.02890056,6.83695515 C8.52554636,5.1426853 8.27386926,3.93996286 8.27386926,3.22878787 C8.27386926,2.2247761 8.52554636,1.44039191 9.02890056,0.875635294 C9.55322786,0.289961765 10.2558264,-0.002875 11.1366963,-0.002875 C12.6467588,-0.002875 14.4609313,3.08236949 16.5792135,9.25285845 L17.1140275,10.7902515 C17.239866,10.4764978 17.3657045,10.1313687 17.4915431,9.75486434 C19.5888523,3.64712611 21.4764304,0.593256985 23.1542778,0.593256985 C23.9932015,0.593256985 24.6538539,0.875635294 25.136235,1.44039191 C25.6395892,2.00514853 25.8912663,2.73724044 25.8912663,3.63666765 C25.8912663,4.22234118 25.6395892,5.40414669 25.136235,7.18208419 C24.6958,8.70901875 24.003688,10.8007099 23.0598988,13.4571577 C24.2553651,13.7499945 25.1152618,14.314751 25.6395892,15.1514276 C26.2058627,16.0508548 26.4889994,17.4418294 26.4889994,19.3243515 C26.4889994,23.0475618 25.3774256,26.0909724 23.1542778,28.4545834 C20.889184,30.8181945 18.0158703,32 14.5343371,32 C13.1501131,32 11.8183218,31.748997 10.5389632,31.2469912 C9.30155075,30.807736 8.17949035,30.1174779 7.17278195,29.176217 C6.10315427,28.1722052 5.30617678,27.136818 4.78184949,26.0700555 C4.23654911,24.9405423 3.96389892,23.8214876 3.96389892,22.7128912 L3.96389892,22.7128912 L3.96389892,22.7128912 Z M6.00877536,22.5560144 C6.00877536,23.0789372 6.155587,23.6959861 6.44921029,24.407161 C6.72186048,25.0765022 7.13083577,25.7772187 7.67613615,26.5093107 C8.53603291,27.617907 9.55322786,28.4650419 10.727721,29.0507155 C11.9231872,29.636389 13.2759516,29.9292258 14.7860143,29.9292258 C17.4915431,29.9292258 19.7671235,28.9147556 21.6127556,26.885815 C23.4374146,24.8777916 24.3497441,22.3363868 24.3497441,19.2616007 C24.3497441,18.2994227 24.2868248,17.5568725 24.1609862,17.0339497 C24.0561208,16.5737776 23.8568764,16.2181901 23.5632531,15.9671871 C22.9969796,15.4860981 21.8854058,15.0677599 20.2285315,14.7121725 C18.5716572,14.335668 16.8099176,14.1474158 14.9433125,14.1474158 C14.4819044,14.1474158 14.1882811,14.2101665 14.0624426,14.335668 C13.915631,14.3984187 13.8422251,14.6075878 13.8422251,14.9631753 C13.8422251,15.8207688 14.3246062,16.4273592 15.2893684,16.7829467 C16.338023,17.2222018 18.0683031,17.4418294 20.4802086,17.4418294 L21.3610784,17.4418294 C21.6966479,17.4418294 21.9378385,17.5568725 22.0846501,17.7869585 C22.2524349,17.9542938 22.3677868,18.2785059 22.4307062,18.7595949 C22.0741636,19.1151823 21.4974035,19.4393944 20.7004261,19.7322312 C19.9453948,20.0041511 19.3896079,20.276071 19.0330653,20.5479908 C18.1941416,21.1545813 17.5230027,21.8762147 17.0196485,22.7128912 C16.5372673,23.5286508 16.2960768,24.3025764 16.2960768,25.0346684 C16.2960768,25.4739235 16.4009422,26.0073047 16.6106732,26.6348122 C16.8413773,27.3250702 16.9567293,27.7747839 16.9567293,27.9839529 L16.9567293,28.1722052 L16.8308906,28.6428356 C15.9080746,28.5800849 15.2369358,28.1512882 14.8174738,27.3564456 C14.4609313,26.6871044 14.2616869,25.829511 14.2197407,24.7836654 C14.1568215,24.8045824 14.0309829,24.8150408 13.8422251,24.8150408 L13.496169,24.8150408 C13.5171421,24.9196253 13.5276287,25.0451268 13.5276287,25.1915453 C13.5276287,25.8190526 13.2864382,26.3524338 12.804057,26.791689 C12.321676,27.2309441 11.7554025,27.4505717 11.1052366,27.4505717 C10.1195013,27.4505717 9.12327947,26.9799411 8.11657108,26.0386801 C7.10986267,25.0765022 6.60650847,24.1352412 6.60650847,23.2148971 C6.60650847,23.0475618 6.6379681,22.8802265 6.70088738,22.7128912 C6.72186048,22.5664728 6.88964521,22.3363868 7.20424158,22.022633 C7.72856887,22.6710573 8.08511144,23.1207709 8.27386926,23.3717739 C9.15473911,24.6058717 9.95171659,25.2229205 10.6648017,25.2229205 C10.8535595,25.2229205 11.0318308,25.1601699 11.1996156,25.0346684 C11.3254541,24.9091669 11.3883734,24.8045824 11.3883734,24.7209147 C11.3883734,24.5535794 11.2625348,24.2502842 11.0108577,23.811029 C10.843073,23.4972754 10.4550708,22.9429772 9.84685113,22.1481345 C9.25960457,21.3951257 8.78771,20.8722029 8.43116745,20.5793661 C8.11657108,20.2865294 7.88586707,20.1401111 7.73905543,20.1401111 C7.34056668,20.1401111 6.95256449,20.3701971 6.57504884,20.8303691 C6.19753318,21.2905412 6.00877536,21.8657563 6.00877536,22.5560144 L6.00877536,22.5560144 L6.00877536,22.5560144 Z M8.84014274,16.5633191 C8.84014274,16.835239 9.00792747,17.3058695 9.34349694,17.9752107 C9.63712022,18.5399673 10.1090148,19.2511423 10.7591806,20.1087357 C11.4093465,20.9454121 11.996593,21.5938364 12.5209203,22.0540084 C13.0242746,22.4723467 13.4017902,22.6815159 13.6534672,22.6815159 C13.8002789,22.6815159 13.9470905,22.6083066 14.0939022,22.4618882 C14.2407138,22.294553 14.3141197,22.1272177 14.3141197,21.9598824 C14.3141197,21.7088794 14.1253618,21.1022889 13.7478462,20.1401111 C13.3074113,19.0733485 12.8250301,18.1111706 12.3007029,17.2535772 C11.8392949,16.5214853 11.4303196,16.0090209 11.073777,15.7161841 C10.7382075,15.4024305 10.4131246,15.2455537 10.0985282,15.2455537 C9.86782423,15.2455537 9.60566058,15.4024305 9.3120373,15.7161841 C8.99744092,16.0299379 8.84014274,16.3123162 8.84014274,16.5633191 L8.84014274,16.5633191 L8.84014274,16.5633191 Z M10.2558264,3.00916029 C10.2558264,3.72033529 10.5075035,4.83939008 11.0108577,6.36632463 C11.4722657,7.85142537 12.1643778,9.83853199 13.0871938,12.3276445 C13.2969247,12.202143 13.590548,12.1393923 13.9680636,12.1393923 C13.9890367,12.1393923 14.0571993,12.1446215 14.1725513,12.15508 C14.2879033,12.1655384 14.398012,12.1707676 14.5028774,12.1707676 C14.5867699,12.1707676 14.85942,12.1916846 15.3208281,12.2335184 L13.1501131,5.95844485 C12.5628665,4.28509191 12.1014585,3.1974125 11.765889,2.69540661 C11.4932388,2.25615147 11.2205886,2.0365239 10.9479385,2.0365239 C10.7591806,2.0365239 10.6018824,2.12019154 10.4760439,2.28752683 C10.3292323,2.47577904 10.2558264,2.71632353 10.2558264,3.00916029 L10.2558264,3.00916029 L10.2558264,3.00916029 Z M15.4781263,19.0105978 C15.666884,19.4916868 15.8661284,20.0146096 16.0758594,20.5793661 C16.4953212,20.0982773 16.914783,19.7008558 17.3342449,19.3871022 C17.2293794,19.3661853 17.0720812,19.3400392 16.8623503,19.3086638 C16.6526194,19.2772884 16.4953212,19.2511423 16.3904558,19.2302254 C15.970994,19.1465577 15.666884,19.0733485 15.4781263,19.0105978 L15.4781263,19.0105978 L15.4781263,19.0105978 Z M18.7813882,12.6100228 L20.889184,12.9865272 C21.832973,10.3928301 22.5565447,8.31159743 23.0598988,6.74282905 C23.5842262,5.04855919 23.8463898,4.04454742 23.8463898,3.73079375 C23.8463898,3.39612316 23.7729841,3.13466177 23.6261724,2.94640956 C23.54228,2.79999117 23.3849818,2.72678199 23.1542778,2.72678199 C22.8606545,2.72678199 22.5355716,3.00916029 22.1790291,3.57391691 C21.7805403,4.18050735 21.3296189,5.2368114 20.8262646,6.74282905 L18.7813882,12.6100228 L18.7813882,12.6100228 Z"></path>
            </g>
        </g>
    </g>
</svg>