<?xml version="1.0" encoding="UTF-8" standalone="no"?>
<svg width="32px" height="32px" viewBox="0 0 32 32" version="1.1" xmlns="http://www.w3.org/2000/svg" xmlns:xlink="http://www.w3.org/1999/xlink" xmlns:sketch="http://www.bohemiancoding.com/sketch/ns">
    <!-- Generator: Sketch 3.2.2 (9983) - http://www.bohemiancoding.com/sketch -->
    <title>blockquote</title>
    <desc>Created with Sketch.</desc>
    <defs></defs>
    <g id="Icons" stroke="none" stroke-width="1" fill="none" fill-rule="evenodd" sketch:type="MSPage">
        <g id="blockquote" sketch:type="MSLayerGroup" fill="#505977" opacity="0.9">
            <path d="M10.3687151,6 C8.53631285,6 7.01675978,6.64528446 5.81005587,7.93585338 C4.60335196,9.2264223 4,10.7966145 4,12.6464299 C4,16.9483263 7.12849162,20.9921089 13.3854749,24.7777778 L15.2625698,22.9709813 C13.2960894,21.8094693 11.8659218,20.6909762 10.972067,19.6155021 C10.0782123,18.540028 9.63128492,17.3139875 9.63128492,15.9373807 C9.63128492,14.7758687 10.1005587,13.7864325 11.0391061,12.9690722 C11.9776536,12.1517118 12.9162011,11.5494464 13.8547486,11.1622757 C14.7932961,10.775105 15.2625698,10.5600102 15.2625698,10.5169912 C15.2625698,9.39849815 14.7932961,8.36604302 13.8547486,7.41962581 C12.9162011,6.4732086 11.7541899,6 10.3687151,6 L10.3687151,6 Z M23.1731844,6 C21.3407821,6 19.8212291,6.64528446 18.6145251,7.93585338 C17.4078212,9.2264223 16.8044693,10.7966145 16.8044693,12.6464299 C16.8044693,16.9913453 19.9106145,21.0351279 26.122905,24.7777778 L28,22.9709813 C26.0335196,21.7664503 24.6145251,20.6264478 23.7430168,19.5509737 C22.8715084,18.4754996 22.4357542,17.2279496 22.4357542,15.8083238 C22.4357542,14.6468118 22.8938547,13.6573756 23.8100559,12.8400153 C24.726257,12.022655 25.6536313,11.4203895 26.5921788,11.0332188 C27.5307263,10.6460481 28,10.4309533 28,10.3879343 C28.0893855,9.31246023 27.6759777,8.31226931 26.7597765,7.38736159 C25.8435754,6.46245386 24.6480447,6 23.1731844,6 L23.1731844,6 Z" id="Shape-15" sketch:type="MSShapeGroup" transform="translate(16.000000, 15.388889) scale(1, -1) translate(-16.000000, -15.388889) "></path>
        </g>
    </g>
</svg>