<?xml version="1.0" encoding="UTF-8" standalone="no"?>
<svg width="48px" height="48px" viewBox="0 0 48 48" version="1.1" xmlns="http://www.w3.org/2000/svg" xmlns:xlink="http://www.w3.org/1999/xlink" xmlns:sketch="http://www.bohemiancoding.com/sketch/ns">
    <!-- Generator: Sketch 3.2.2 (9983) - http://www.bohemiancoding.com/sketch -->
    <title>blockquote</title>
    <desc>Created with Sketch.</desc>
    <defs></defs>
    <g id="Icons" stroke="none" stroke-width="1" fill="none" fill-rule="evenodd" sketch:type="MSPage">
        <g id="blockquote" sketch:type="MSLayerGroup" fill="#505977" opacity="0.9">
            <path d="M15.5530726,9 C12.8044693,9 10.5251397,9.96792669 8.7150838,11.9037801 C6.90502793,13.8396334 6,16.1949217 6,18.9696449 C6,25.4224895 10.6927374,31.4881634 20.0782123,37.1666667 L22.8938547,34.4564719 C19.9441341,32.7142039 17.7988827,31.0364643 16.4581006,29.4232532 C15.1173184,27.810042 14.4469274,25.9709813 14.4469274,23.906071 C14.4469274,22.163803 15.150838,20.6796487 16.5586592,19.4536082 C17.9664804,18.2275678 19.3743017,17.3241695 20.7821229,16.7434135 C22.1899441,16.1626575 22.8938547,15.8400153 22.8938547,15.7754868 C22.8938547,14.0977472 22.1899441,12.5490645 20.7821229,11.1294387 C19.3743017,9.70981291 17.6312849,9 15.5530726,9 L15.5530726,9 Z M34.7597765,9 C32.0111732,9 29.7318436,9.96792669 27.9217877,11.9037801 C26.1117318,13.8396334 25.2067039,16.1949217 25.2067039,18.9696449 C25.2067039,25.4870179 29.8659218,31.5526919 39.1843575,37.1666667 L42,34.4564719 C39.0502793,32.6496754 36.9217877,30.9396716 35.6145251,29.3264605 C34.3072626,27.7132493 33.6536313,25.8419244 33.6536313,23.7124857 C33.6536313,21.9702176 34.3407821,20.4860634 35.7150838,19.2600229 C37.0893855,18.0339824 38.4804469,17.1305842 39.8882682,16.5498282 C41.2960894,15.9690722 42,15.6464299 42,15.5819015 C42.1340782,13.9686903 41.5139665,12.468404 40.1396648,11.0810424 C38.7653631,9.69368079 36.972067,9 34.7597765,9 L34.7597765,9 Z" id="Shape-15" sketch:type="MSShapeGroup" transform="translate(24.000000, 23.083333) scale(1, -1) translate(-24.000000, -23.083333) "></path>
        </g>
    </g>
</svg>