<?xml version="1.0" encoding="UTF-8" standalone="no"?>
<svg width="15px" height="16px" viewBox="0 0 15 16" version="1.1" xmlns="http://www.w3.org/2000/svg" xmlns:xlink="http://www.w3.org/1999/xlink" xmlns:sketch="http://www.bohemiancoding.com/sketch/ns">
    <!-- Generator: Sketch 3.2.2 (9983) - http://www.bohemiancoding.com/sketch -->
    <title>blockquote</title>
    <desc>Created with Sketch.</desc>
    <defs></defs>
    <g id="Page-1" stroke="none" stroke-width="1" fill="none" fill-rule="evenodd" sketch:type="MSPage">
        <g id="Group" sketch:type="MSLayerGroup" transform="translate(-140.000000, -21.000000)"></g>
        <g id="blockquote" sketch:type="MSLayerGroup" transform="translate(-0.500000, 0.000000)" fill="#000000" opacity="0.9">
            <path d="M4.77526925,1.77793296 C3.68905143,1.77793296 2.78828543,2.17532972 2.07297126,2.97012325 C1.35765709,3.76491678 1,4.73191557 1,5.87111962 C1,8.52043138 2.85451823,11.0107844 6.56355469,13.3421788 L7.67626562,12.2294678 C6.51056845,11.5141537 5.66278869,10.8253326 5.13292634,10.1630047 C4.60306399,9.50067673 4.33813281,8.74562288 4.33813281,7.89784311 C4.33813281,7.18252894 4.61631055,6.57318724 5.17266601,6.069818 C5.72902148,5.56644877 6.28537695,5.19554512 6.84173242,4.95710707 C7.39808789,4.71866901 7.67626562,4.58620342 7.67626562,4.5597103 C7.67626562,3.87088925 7.39808789,3.23505443 6.84173242,2.65220584 C6.28537695,2.06935725 5.59655589,1.77793296 4.77526925,1.77793296 L4.77526925,1.77793296 Z M12.3655474,1.77793296 C11.2793296,1.77793296 10.3785636,2.17532972 9.66324944,2.97012325 C8.94793526,3.76491678 8.59027818,4.73191557 8.59027818,5.87111962 C8.59027818,8.54692449 10.4315498,11.0372775 14.1140932,13.3421788 L15.2268041,12.2294678 C14.061107,11.4876605 13.2199505,10.7855929 12.7033347,10.123265 C12.1867189,9.46093705 11.928411,8.69263664 11.928411,7.81836376 C11.928411,7.10304959 12.1999654,6.49370788 12.7430744,5.99033865 C13.2861833,5.48696942 13.8359155,5.11606577 14.3922709,4.87762771 C14.9486264,4.63918966 15.2268041,4.50672407 15.2268041,4.48023095 C15.2797904,3.81790301 15.034729,3.20193803 14.4916201,2.632336 C13.9485112,2.06273397 13.2398203,1.77793296 12.3655474,1.77793296 L12.3655474,1.77793296 Z" id="Shape-15" sketch:type="MSShapeGroup" transform="translate(8.113402, 7.560056) scale(1, -1) translate(-8.113402, -7.560056) "></path>
        </g>
    </g>
</svg>