<?xml version="1.0" encoding="UTF-8" standalone="no"?>
<svg width="36px" height="36px" viewBox="0 0 36 36" version="1.1" xmlns="http://www.w3.org/2000/svg" xmlns:xlink="http://www.w3.org/1999/xlink" xmlns:sketch="http://www.bohemiancoding.com/sketch/ns">
    <!-- Generator: Sketch 3.0.3 (7891) - http://www.bohemiancoding.com/sketch -->
    <title>blockquote</title>
    <desc>Created with Sketch.</desc>
    <defs></defs>
    <g id="24" stroke="none" stroke-width="1" fill="none" fill-rule="evenodd" sketch:type="MSPage">
        <g id="Icons" sketch:type="MSLayerGroup" transform="translate(-240.000000, -382.000000)" stroke="#0093E6" stroke-width="2" stroke-linecap="round" stroke-linejoin="round">
            <g id="blockquote" transform="translate(240.000000, 382.000000)" sketch:type="MSShapeGroup">
                <g id="Group" transform="translate(3.705882, 7.000000)">
                    <path d="M13.5076726,0 C6.04564834,0 0,6.04822123 0,13.5076726 L0,15.4373402" id="Stroke-6885"></path>
                    <path d="M12.8644501,15.4373402 C12.8644501,18.9905013 9.98345652,21.8695652 6.43222506,21.8695652 C2.87842072,21.8695652 0,18.9905013 0,15.4373402 C0,11.8848223 2.87842072,9.00511509 6.43222506,9.00511509 C9.98345652,9.00511509 12.8644501,11.8848223 12.8644501,15.4373402 L12.8644501,15.4373402 Z" id="Stroke-6886"></path>
                    <path d="M29.5882353,0 C22.126211,0 16.0805627,6.04822123 16.0805627,13.5076726 L16.0805627,15.4373402" id="Stroke-6887"></path>
                    <path d="M28.9450128,15.4373402 C28.9450128,18.9905013 26.0640192,21.8695652 22.5127877,21.8695652 C18.9589834,21.8695652 16.0805627,18.9905013 16.0805627,15.4373402 C16.0805627,11.8848223 18.9589834,9.00511509 22.5127877,9.00511509 C26.0640192,9.00511509 28.9450128,11.8848223 28.9450128,15.4373402 L28.9450128,15.4373402 Z" id="Stroke-6888"></path>
                </g>
            </g>
        </g>
    </g>
</svg>