<?xml version="1.0" encoding="UTF-8" standalone="no"?>
<svg width="15px" height="15px" viewBox="0 0 15 15" version="1.1" xmlns="http://www.w3.org/2000/svg" xmlns:xlink="http://www.w3.org/1999/xlink" xmlns:sketch="http://www.bohemiancoding.com/sketch/ns">
    <!-- Generator: Sketch 3.2.2 (9983) - http://www.bohemiancoding.com/sketch -->
    <title>bold</title>
    <desc>Created with Sketch.</desc>
    <defs></defs>
    <g id="Page-1" stroke="none" stroke-width="1" fill="none" fill-rule="evenodd" sketch:type="MSPage">
        <g id="bold" sketch:type="MSLayerGroup" transform="translate(2.000000, 2.000000)" fill="#000000" opacity="0.9">
            <path d="M5.3046875,0 L0.5,0 L0.578125,0.718213058 L1.2421875,0.793814433 C1.65885417,0.869415808 1.8671875,0.995418099 1.8671875,1.17182131 L1.8671875,9.94158076 C1.8671875,10.1431844 1.61979167,10.2691867 1.125,10.3195876 L0.578125,10.3195876 L0.5,11 L5.578125,11 C8.625,11 10.1484375,10.1809851 10.1484375,8.54295533 C10.1484375,7.81214204 9.85546875,7.21363116 9.26953125,6.74742268 C8.68359375,6.2812142 7.94791667,5.97250859 7.0625,5.82130584 L7.0625,5.74570447 C9.35416667,5.46849943 10.5,4.52348225 10.5,2.91065292 C10.5,0.97021764 8.76822917,0 5.3046875,0 L5.3046875,0 Z M5.03125,10.2061856 L4.2109375,10.2061856 L4.2109375,5.89690722 L5.2265625,5.89690722 C5.9296875,5.89690722 6.48307292,6.09851088 6.88671875,6.50171821 C7.29036458,6.90492554 7.4921875,7.40893471 7.4921875,8.0137457 C7.4921875,8.69415808 7.28385417,9.22966781 6.8671875,9.62027491 C6.45052083,10.010882 5.83854167,10.2061856 5.03125,10.2061856 L5.03125,10.2061856 Z M4.875,5.21649485 L4.2109375,5.21649485 L4.2109375,0.793814433 L5.2265625,0.642611684 L5.421875,0.642611684 C6.125,0.642611684 6.7109375,0.837915235 7.1796875,1.22852234 C7.6484375,1.61912944 7.8828125,2.15463918 7.8828125,2.83505155 C7.8828125,3.64146621 7.609375,4.23997709 7.0625,4.63058419 C6.515625,5.02119129 5.78645833,5.21649485 4.875,5.21649485 L4.875,5.21649485 Z" id="Shape-16" sketch:type="MSShapeGroup" transform="translate(5.500000, 5.500000) scale(1, -1) translate(-5.500000, -5.500000) "></path>
        </g>
        <g id="Group-2" sketch:type="MSLayerGroup"></g>
    </g>
</svg>