<?xml version="1.0" encoding="UTF-8" standalone="no"?>
<svg width="48px" height="48px" viewBox="0 0 48 48" version="1.1" xmlns="http://www.w3.org/2000/svg" xmlns:xlink="http://www.w3.org/1999/xlink" xmlns:sketch="http://www.bohemiancoding.com/sketch/ns">
    <!-- Generator: Sketch 3.2.2 (9983) - http://www.bohemiancoding.com/sketch -->
    <title>bold</title>
    <desc>Created with Sketch.</desc>
    <defs></defs>
    <g id="Icons" stroke="none" stroke-width="1" fill="none" fill-rule="evenodd" sketch:type="MSPage">
        <g id="bold" sketch:type="MSLayerGroup" fill="#505977" opacity="0.9">
            <path d="M23.3341619,5.25 L6.95454545,5.25 L7.22088068,7.69845361 L9.48473011,7.95618557 C10.9051847,8.21391753 11.6154119,8.64347079 11.6154119,9.24484536 L11.6154119,39.1417526 C11.6154119,39.8290378 10.772017,40.2585911 9.08522727,40.4304124 L7.22088068,40.4304124 L6.95454545,42.75 L24.2663352,42.75 C34.6534091,42.75 39.846946,39.9579038 39.846946,34.3737113 C39.846946,31.8823024 38.8481889,29.8419244 36.8506747,28.2525773 C34.8531605,26.6632302 32.3451705,25.6108247 29.3267045,25.0953608 L29.3267045,24.8376289 C37.1392045,23.8926117 41.0454545,20.6709622 41.0454545,15.1726804 C41.0454545,8.55756014 35.1416903,5.25 23.3341619,5.25 L23.3341619,5.25 Z M22.4019886,40.0438144 L19.6054688,40.0438144 L19.6054688,25.3530928 L23.0678267,25.3530928 C25.4648438,25.3530928 27.3513849,26.040378 28.7274503,27.4149485 C30.1035156,28.7895189 30.7915483,30.507732 30.7915483,32.5695876 C30.7915483,34.8891753 30.081321,36.7147766 28.6608665,38.0463918 C27.2404119,39.3780069 25.1541193,40.0438144 22.4019886,40.0438144 L22.4019886,40.0438144 Z M21.8693182,23.0335052 L19.6054688,23.0335052 L19.6054688,7.95618557 L23.0678267,7.44072165 L23.7336648,7.44072165 C26.1306818,7.44072165 28.128196,8.10652921 29.7262074,9.43814433 C31.3242188,10.7697595 32.1232244,12.5953608 32.1232244,14.9149485 C32.1232244,17.6640893 31.1910511,19.7044674 29.3267045,21.0360825 C27.462358,22.3676976 24.9765625,23.0335052 21.8693182,23.0335052 L21.8693182,23.0335052 Z" id="Shape-16" sketch:type="MSShapeGroup" transform="translate(24.000000, 24.000000) scale(1, -1) translate(-24.000000, -24.000000) "></path>
        </g>
    </g>
</svg>