<?xml version="1.0" encoding="UTF-8" standalone="no"?>
<svg width="32px" height="32px" viewBox="0 0 32 32" version="1.1" xmlns="http://www.w3.org/2000/svg" xmlns:xlink="http://www.w3.org/1999/xlink" xmlns:sketch="http://www.bohemiancoding.com/sketch/ns">
    <!-- Generator: Sketch 3.2.2 (9983) - http://www.bohemiancoding.com/sketch -->
    <title>bold</title>
    <desc>Created with Sketch.</desc>
    <defs></defs>
    <g id="Icons" stroke="none" stroke-width="1" fill="none" fill-rule="evenodd" sketch:type="MSPage">
        <g id="bold" sketch:type="MSLayerGroup" fill="#505977" opacity="0.9">
            <path d="M15.556108,3.5 L4.63636364,3.5 L4.81392045,5.13230241 L6.32315341,5.30412371 C7.27012311,5.47594502 7.74360795,5.76231386 7.74360795,6.16323024 L7.74360795,26.0945017 C7.74360795,26.5526919 7.1813447,26.8390607 6.05681818,26.9536082 L4.81392045,26.9536082 L4.63636364,28.5 L16.1775568,28.5 C23.1022727,28.5 26.5646307,26.6386025 26.5646307,22.9158076 C26.5646307,21.2548683 25.8987926,19.8946163 24.5671165,18.8350515 C23.2354403,17.7754868 21.563447,17.0738832 19.5511364,16.7302405 L19.5511364,16.5584192 C24.7594697,15.9284078 27.3636364,13.7806415 27.3636364,10.1151203 C27.3636364,5.70504009 23.4277936,3.5 15.556108,3.5 L15.556108,3.5 Z M14.9346591,26.6958763 L13.0703125,26.6958763 L13.0703125,16.9020619 L15.3785511,16.9020619 C16.9765625,16.9020619 18.2342566,17.360252 19.1516335,18.2766323 C20.0690104,19.1930126 20.5276989,20.338488 20.5276989,21.7130584 C20.5276989,23.2594502 20.054214,24.4765178 19.1072443,25.3642612 C18.1602746,26.2520046 16.7694129,26.6958763 14.9346591,26.6958763 L14.9346591,26.6958763 Z M14.5795455,15.3556701 L13.0703125,15.3556701 L13.0703125,5.30412371 L15.3785511,4.9604811 L15.8224432,4.9604811 C17.4204545,4.9604811 18.7521307,5.40435281 19.8174716,6.29209622 C20.8828125,7.17983963 21.415483,8.39690722 21.415483,9.94329897 C21.415483,11.7760596 20.7940341,13.1363116 19.5511364,14.024055 C18.3082386,14.9117984 16.6510417,15.3556701 14.5795455,15.3556701 L14.5795455,15.3556701 Z" id="Shape-16" sketch:type="MSShapeGroup" transform="translate(16.000000, 16.000000) scale(1, -1) translate(-16.000000, -16.000000) "></path>
        </g>
    </g>
</svg>