<?xml version="1.0" encoding="utf-8"?>
<!-- Generator: Adobe Illustrator 16.0.0, SVG Export Plug-In . SVG Version: 6.00 Build 0)  -->
<!DOCTYPE svg PUBLIC "-//W3C//DTD SVG 1.1//EN" "http://www.w3.org/Graphics/SVG/1.1/DTD/svg11.dtd">
<svg version="1.1" id="Layer_1" xmlns="http://www.w3.org/2000/svg" xmlns:xlink="http://www.w3.org/1999/xlink" x="0px" y="0px"
	 width="16px" height="16px" viewBox="0 0 16 16" enable-background="new 0 0 16 16" xml:space="preserve">
<g>
	<defs>
		<rect id="SVGID_1_" width="16" height="16"/>
	</defs>
	<clipPath id="SVGID_2_">
		<use xlink:href="#SVGID_1_"  overflow="visible"/>
	</clipPath>
	<path clip-path="url(#SVGID_2_)" fill="#1D1D1B" d="M11.43,5.501c1.812,0,3.438,0.727,4.549,1.871C15.986,7.248,16,7.126,16,7.001
		c0-3.865-3.58-7-8-7c-4.418,0-8,3.135-8,7c0,1.833,0.811,3.497,2.129,4.744L0,16.001l5.022-2.511
		c0.388,0.137,0.789,0.25,1.205,0.332c-0.153-0.232-0.285-0.479-0.401-0.733C5.76,12.947,5.703,12.8,5.653,12.652
		c-0.186-0.522-0.295-1.074-0.295-1.651C5.358,7.968,8.082,5.501,11.43,5.501"/>
	<path clip-path="url(#SVGID_2_)" fill="#1D1D1B" d="M14.518,12.805c0.658-0.849,0.959-1.902,0.722-2.949
		c-0.455-2.012-2.689-3.221-4.986-2.699C7.955,7.677,6.461,9.73,6.917,11.74c0.457,2.013,2.691,3.221,4.988,2.699
		c0.104-0.023,0.199-0.066,0.303-0.098L16,16.001L14.518,12.805z"/>
</g>
</svg>
