<?xml version="1.0" encoding="UTF-8" standalone="no"?>
<svg width="48px" height="48px" viewBox="0 0 48 48" version="1.1" xmlns="http://www.w3.org/2000/svg" xmlns:xlink="http://www.w3.org/1999/xlink" xmlns:sketch="http://www.bohemiancoding.com/sketch/ns">
    <!-- Generator: Sketch 3.2.2 (9983) - http://www.bohemiancoding.com/sketch -->
    <title>checkin</title>
    <desc>Created with Sketch.</desc>
    <defs></defs>
    <g id="Icons" stroke="none" stroke-width="1" fill="none" fill-rule="evenodd" sketch:type="MSPage">
        <g id="Fill-2869-+-Fill-2870" sketch:type="MSLayerGroup" transform="translate(8.000000, 0.000000)" fill="#231F1F">
            <path d="M16,0 C7.178,0 0,7.178 0,16 C0,24.489 14.546,46.613 15.166,47.551 C15.351,47.831 15.664,48 16,48 C16.336,48 16.649,47.831 16.834,47.551 C17.454,46.613 32,24.489 32,16 C32,7.178 24.822,0 16,0 L16,0 Z M16,45.158 C12.867,40.264 2,22.791 2,16 C2,8.28 8.28,2 16,2 C23.72,2 30,8.28 30,16 C30,22.789 19.133,40.264 16,45.158 L16,45.158 Z" id="Fill-2869" sketch:type="MSShapeGroup"></path>
            <path d="M16,9 C12.141,9 9,12.14 9,16 C9,19.859 12.141,23 16,23 C19.859,23 23,19.859 23,16 C23,12.14 19.859,9 16,9 L16,9 Z M16,21 C13.243,21 11,18.757 11,16 C11,13.243 13.243,11 16,11 C18.757,11 21,13.243 21,16 C21,18.757 18.757,21 16,21 L16,21 Z" id="Fill-2870" sketch:type="MSShapeGroup"></path>
        </g>
        <g id="checkin" sketch:type="MSLayerGroup"></g>
    </g>
</svg>