<?xml version="1.0" encoding="UTF-8" standalone="no"?>
<svg width="48px" height="48px" viewBox="0 0 48 48" version="1.1" xmlns="http://www.w3.org/2000/svg" xmlns:xlink="http://www.w3.org/1999/xlink" xmlns:sketch="http://www.bohemiancoding.com/sketch/ns">
    <!-- Generator: Sketch 3.2.2 (9983) - http://www.bohemiancoding.com/sketch -->
    <title>city</title>
    <desc>Created with Sketch.</desc>
    <defs></defs>
    <g id="Icons" stroke="none" stroke-width="1" fill="none" fill-rule="evenodd" sketch:type="MSPage">
        <g id="city" sketch:type="MSLayerGroup" fill="#535C70">
            <g id="Stroke-4705-+-Stroke-4706" transform="translate(9.000000, 2.000000)" sketch:type="MSShapeGroup">
                <path d="M24.1558113,26.8439031 C23.3835068,28.237299 22.5412085,29.6873765 21.6398722,31.1812285 C19.9618711,33.9623046 18.1616047,36.7619113 16.3611928,39.438995 C15.7310416,40.3759847 15.1461553,41.2303317 14.6217287,41.9845776 C14.4386214,42.2479278 14.2763009,42.4797466 14.1366642,42.6778561 C14.0536005,42.7957027 13.9960617,42.8768298 13.9687686,42.9150788 L17.0312314,42.9150788 C17.0039383,42.8768298 16.9463995,42.7957027 16.8633358,42.6778561 C16.7236991,42.4797466 16.5613786,42.2479278 16.3782713,41.9845776 C15.8538447,41.2303317 15.2689584,40.3759847 14.6388072,39.438995 C12.8383953,36.7619113 11.0381289,33.9623046 9.36012784,31.1812285 C8.45879145,29.6873765 7.61649319,28.237299 6.84418867,26.8439031 C3.6852291,21.1444919 1.87878788,16.6963582 1.87878788,14.3478261 C1.87878788,7.4894983 7.94646168,1.87234043 15.5,1.87234043 C23.051562,1.87234043 29.1212121,7.49055168 29.1212121,14.3478261 C29.1212121,16.6963582 27.3147709,21.1444919 24.1558113,26.8439031 Z M15.5,-1.87234043 C5.93056584,-1.87234043 -1.87878788,5.35718017 -1.87878788,14.3478261 C-1.87878788,17.5588952 0.084028329,22.3920825 3.5550223,28.6544678 C4.35069994,30.0900336 5.21583536,31.579427 6.13987216,33.110902 C7.85249608,35.9493611 9.68504218,38.7991662 11.5174428,41.5238148 C12.158776,42.4774314 12.7545537,43.3476875 13.2896974,44.117347 C13.4774398,44.3873637 13.6443428,44.6257269 13.7885197,44.8302778 C13.8757441,44.9540274 13.9355148,45.0383014 13.9687686,45.0849212 C14.7177793,46.1348135 16.2822207,46.1348135 17.0312314,45.0849212 C17.0644852,45.0383014 17.1242559,44.9540274 17.2114803,44.8302778 C17.3556572,44.6257269 17.5225602,44.3873637 17.7103026,44.117347 C18.2454463,43.3476875 18.841224,42.4774314 19.4825572,41.5238148 C21.3149578,38.7991662 23.1475039,35.9493611 24.8601278,33.110902 C25.7841646,31.579427 26.6493001,30.0900336 27.4449777,28.6544678 C30.9159717,22.3920825 32.8787879,17.5588952 32.8787879,14.3478261 C32.8787879,5.35810899 25.0673518,-1.87234043 15.5,-1.87234043 Z" id="Stroke-4705"></path>
                <path d="M15.5939394,17.8559204 C13.1767531,17.8559204 11.2727273,16.0932252 11.2727273,13.9891304 C11.2727273,11.8861841 13.177555,10.1223404 15.5939394,10.1223404 C18.0084268,10.1223404 19.9151515,11.887331 19.9151515,13.9891304 C19.9151515,16.0920785 18.009229,17.8559204 15.5939394,17.8559204 Z M15.5939394,6.37765957 C11.1614647,6.37765957 7.51515152,9.75409432 7.51515152,13.9891304 C7.51515152,18.2255226 11.1608395,21.6006013 15.5939394,21.6006013 C20.0248774,21.6006013 23.6727273,18.2246873 23.6727273,13.9891304 C23.6727273,9.75492985 20.024252,6.37765957 15.5939394,6.37765957 Z" id="Stroke-4706"></path>
            </g>
        </g>
    </g>
</svg>