<?xml version="1.0" encoding="UTF-8" standalone="no"?>
<svg width="48px" height="48px" viewBox="0 0 48 48" version="1.1" xmlns="http://www.w3.org/2000/svg" xmlns:xlink="http://www.w3.org/1999/xlink" xmlns:sketch="http://www.bohemiancoding.com/sketch/ns">
    <!-- Generator: Sketch 3.2.2 (9983) - http://www.bohemiancoding.com/sketch -->
    <title>city</title>
    <desc>Created with Sketch.</desc>
    <defs></defs>
    <g id="Icons" stroke="none" stroke-width="1" fill="none" fill-rule="evenodd" sketch:type="MSPage">
        <g id="city" sketch:type="MSLayerGroup" transform="translate(-1.000000, 0.000000)" fill="#231F1F">
            <g id="Group" sketch:type="MSShapeGroup">
                <path d="M47,46 L46,46 L46,27 C46,26.447 45.553,26 45,26 L40,26 L40,25 C40,24.447 39.553,24 39,24 C38.447,24 38,24.447 38,25 L38,26 L37,26 C36.447,26 36,26.447 36,27 L36,46 L34,46 L34,9 C34,8.447 33.553,8 33,8 L28,8 L28,5 C28,4.447 27.553,4 27,4 L26,4 L26,1 C26,0.447 25.553,0 25,0 C24.447,0 24,0.447 24,1 L24,4 L21,4 C20.447,4 20,4.447 20,5 L20,8 L15,8 C14.447,8 14,8.447 14,9 L14,46 L12,46 L12,27 C12,26.447 11.553,26 11,26 L10,26 L10,25 C10,24.447 9.553,24 9,24 C8.447,24 8,24.447 8,25 L8,26 L3,26 C2.447,26 2,26.447 2,27 L2,46 L1,46 C0.447,46 0,46.447 0,47 C0,47.553 0.447,48 1,48 L47,48 C47.553,48 48,47.553 48,47 C48,46.447 47.553,46 47,46 L47,46 Z M22,6 L26,6 L26,8 L22,8 L22,6 Z M4,28 L10,28 L10,46 L4,46 L4,28 Z M16,10 L32,10 L32,46 L16,46 L16,10 Z M38,28 L44,28 L44,46 L38,46 L38,28 Z" id="Fill-2946"></path>
                <path d="M29,14 L19,14 C18.447,14 18,14.447 18,15 C18,15.553 18.447,16 19,16 L29,16 C29.553,16 30,15.553 30,15 C30,14.447 29.553,14 29,14" id="Fill-2947"></path>
                <path d="M29,20 L19,20 C18.447,20 18,20.447 18,21 C18,21.553 18.447,22 19,22 L29,22 C29.553,22 30,21.553 30,21 C30,20.447 29.553,20 29,20" id="Fill-2948"></path>
                <path d="M29,26 L19,26 C18.447,26 18,26.447 18,27 C18,27.553 18.447,28 19,28 L29,28 C29.553,28 30,27.553 30,27 C30,26.447 29.553,26 29,26" id="Fill-2949"></path>
                <path d="M29,32 L19,32 C18.447,32 18,32.447 18,33 C18,33.553 18.447,34 19,34 L29,34 C29.553,34 30,33.553 30,33 C30,32.447 29.553,32 29,32" id="Fill-2950"></path>
                <path d="M29,38 L19,38 C18.447,38 18,38.447 18,39 C18,39.553 18.447,40 19,40 L29,40 C29.553,40 30,39.553 30,39 C30,38.447 29.553,38 29,38" id="Fill-2951"></path>
            </g>
        </g>
    </g>
</svg>