<?xml version="1.0" encoding="utf-8"?>
<!-- Generator: Adobe Illustrator 16.0.0, SVG Export Plug-In . SVG Version: 6.00 Build 0)  -->
<!DOCTYPE svg PUBLIC "-//W3C//DTD SVG 1.1//EN" "http://www.w3.org/Graphics/SVG/1.1/DTD/svg11.dtd">
<svg version="1.1" id="Layer_1" xmlns="http://www.w3.org/2000/svg" xmlns:xlink="http://www.w3.org/1999/xlink" x="0px" y="0px"
	 width="16px" height="16px" viewBox="0 0 16 16" enable-background="new 0 0 16 16" xml:space="preserve">
<g>
	<defs>
		<rect id="SVGID_1_" width="16" height="16"/>
	</defs>
	<clipPath id="SVGID_2_">
		<use xlink:href="#SVGID_1_"  overflow="visible"/>
	</clipPath>
	<path clip-path="url(#SVGID_2_)" fill="#1D1D1B" d="M9.5,2C7.83,2,6.389,2.92,5.613,4.271C5.275,4.104,4.902,4,4.5,4
		C3.119,4,2,5.119,2,6.5l0.006,0.056C0.814,7.25,0,8.527,0,10c0,2.2,1.801,4,4,4h2h4h2c2.201,0,4-1.8,4-4
		c0-1.473-0.814-2.75-2.006-3.444L14,6.5C14,4.015,11.986,2,9.5,2"/>
</g>
</svg>
