<?xml version="1.0" encoding="UTF-8" standalone="no"?>
<svg width="36px" height="36px" viewBox="0 0 36 36" version="1.1" xmlns="http://www.w3.org/2000/svg" xmlns:xlink="http://www.w3.org/1999/xlink" xmlns:sketch="http://www.bohemiancoding.com/sketch/ns">
    <!-- Generator: Sketch 3.0.2 (7799) - http://www.bohemiancoding.com/sketch -->
    <title>cog</title>
    <description>Created with Sketch.</description>
    <defs></defs>
    <g id="24" stroke="none" stroke-width="1" fill="none" fill-rule="evenodd" sketch:type="MSPage">
        <g id="Icons" sketch:type="MSLayerGroup" transform="translate(-120.000000, 0.000000)" stroke="#0093E6" stroke-width="2" stroke-linecap="round" stroke-linejoin="round">
            <g id="cog" transform="translate(120.000000, 0.000000)" sketch:type="MSShapeGroup">
                <g transform="translate(1.000000, 1.000000)">
                    <path d="M29.2014174,19.2173913 L33.9998522,19.2173913 L33.9998522,14.7826087 L29.1999391,14.7826087 C28.8909826,13.5009565 28.3854174,11.5592609 27.7172435,10.4631304 L31.1113304,7.06978261 L26.9293304,2.88852174 L23.5345043,6.2826087 C22.439113,5.61443478 20.4996348,5.10886957 19.2172435,4.79991304 L19.2172435,0 L14.7824609,0 L14.7824609,4.79991304 C13.5008087,5.10886957 11.559113,5.61443478 10.4644609,6.2826087 L7.06963478,2.88852174 L2.88763478,7.06978261 L6.28246087,10.4646087 C5.61354783,11.5592609 5.10872174,13.5009565 4.79754783,14.7826087 L-0.000147826087,14.7826087 L-0.000147826087,19.2173913 L4.79754783,19.2173913 C5.10872174,20.4990435 5.61354783,22.4407391 6.28246087,23.5353913 L2.88689565,26.9302174 L7.06963478,31.1114783 L10.4629826,27.715913 C11.559113,28.3855652 13.5008087,28.8911304 14.7824609,29.2015652 L14.7824609,34 L19.2172435,34 L19.2172435,29.2015652 C20.4996348,28.8911304 22.4405913,28.3855652 23.5345043,27.7173913 L26.9308087,31.1114783 L31.1113304,26.9302174 L27.7172435,23.5353913 C28.3854174,22.4407391 28.8909826,20.4990435 29.2014174,19.2173913 L29.2014174,19.2173913 Z" id="Stroke-3819"></path>
                    <path d="M23.6521739,17 C23.6521739,20.6742174 20.6742174,23.6521739 17,23.6521739 C13.3257826,23.6521739 10.3478261,20.6742174 10.3478261,17 C10.3478261,13.3257826 13.3257826,10.3478261 17,10.3478261 C20.6742174,10.3478261 23.6521739,13.3257826 23.6521739,17 L23.6521739,17 Z" id="Stroke-3820"></path>
                </g>
            </g>
        </g>
    </g>
</svg>