<?xml version="1.0" encoding="UTF-8" standalone="no"?>
<svg width="36px" height="36px" viewBox="0 0 36 36" version="1.1" xmlns="http://www.w3.org/2000/svg" xmlns:xlink="http://www.w3.org/1999/xlink" xmlns:sketch="http://www.bohemiancoding.com/sketch/ns">
    <!-- Generator: Sketch 3.0.2 (7799) - http://www.bohemiancoding.com/sketch -->
    <title>comment</title>
    <description>Created with Sketch.</description>
    <defs></defs>
    <g id="24" stroke="none" stroke-width="1" fill="none" fill-rule="evenodd" sketch:type="MSPage">
        <g id="Icons" sketch:type="MSLayerGroup" transform="translate(-160.000000, 0.000000)" stroke="#0093E6" stroke-width="2" stroke-linejoin="round">
            <g id="comment" transform="translate(160.000000, 0.000000)" sketch:type="MSShapeGroup">
                <g transform="translate(1.000000, 1.000000)">
                    <path d="M10.2594261,20.4206217 C9.53655652,20.3215783 8.82329565,20.1678391 8.13073043,19.9564478 L0.739426087,22.9129696 L3.69594783,17.7390565 C1.36990435,15.8779261 0.000295652174,13.1194913 0.000295652174,10.2509261 C0.000295652174,4.58918696 5.62581739,-7.39130443e-05 12.565513,-7.39130443e-05 C19.5052087,-7.39130443e-05 25.1307304,4.58918696 25.1307304,10.2509261" id="Stroke-1123"></path>
                    <path d="M13.3043478,22.9130435 C13.3043478,29.2518261 20.6956522,34 27.3478261,31.0434783 L33.2608696,33.2608696 L31.0434783,28.826087 C32.9593043,27.2931304 34,25.2738261 34,22.9130435 C34,18.2498696 29.3678696,14.0434783 23.6521739,14.0434783 C17.9372174,14.0434783 13.3043478,18.2498696 13.3043478,22.9130435 L13.3043478,22.9130435 Z" id="Stroke-1124"></path>
                </g>
            </g>
        </g>
    </g>
</svg>