<?xml version="1.0" encoding="UTF-8" standalone="no"?>
<svg width="48px" height="48px" viewBox="0 0 48 48" version="1.1" xmlns="http://www.w3.org/2000/svg" xmlns:xlink="http://www.w3.org/1999/xlink" xmlns:sketch="http://www.bohemiancoding.com/sketch/ns">
    <!-- Generator: Sketch 3.2.2 (9983) - http://www.bohemiancoding.com/sketch -->
    <title>comments</title>
    <desc>Created with Sketch.</desc>
    <defs></defs>
    <g id="Icons" stroke="none" stroke-width="1" fill="none" fill-rule="evenodd" sketch:type="MSPage">
        <g id="comments" sketch:type="MSLayerGroup" transform="translate(-1.000000, -1.000000)" stroke="#231F1F" stroke-width="2" stroke-linejoin="round">
            <g id="Stroke-1123-+-Stroke-1124" transform="translate(2.000000, 3.000000)" sketch:type="MSShapeGroup">
                <path d="M13.8804,27.6279 C12.9024,27.4939 11.9374,27.2859 11.0004,26.9999 L1.0004,30.9999 L5.0004,23.9999 C1.8534,21.4819 0.0004,17.7499 0.0004,13.8689 C0.0004,6.2089 7.6114,-0.000100000001 17.0004,-0.000100000001 C26.3894,-0.000100000001 34.0004,6.2089 34.0004,13.8689" id="Stroke-1123"></path>
                <path d="M18,31 C18,39.576 28,46 37,42 L45,45 L42,39 C44.592,36.926 46,34.194 46,31 C46,24.691 39.733,19 32,19 C24.268,19 18,24.691 18,31 L18,31 Z" id="Stroke-1124"></path>
            </g>
        </g>
    </g>
</svg>