<?xml version="1.0" encoding="UTF-8" standalone="no"?>
<svg width="32px" height="32px" viewBox="0 0 32 32" version="1.1" xmlns="http://www.w3.org/2000/svg" xmlns:xlink="http://www.w3.org/1999/xlink" xmlns:sketch="http://www.bohemiancoding.com/sketch/ns">
    <!-- Generator: Sketch 3.2.2 (9983) - http://www.bohemiancoding.com/sketch -->
    <title>comments</title>
    <desc>Created with Sketch.</desc>
    <defs></defs>
    <g id="Icons" stroke="none" stroke-width="1" fill="none" fill-rule="evenodd" sketch:type="MSPage">
        <g id="comments" sketch:type="MSLayerGroup" stroke="#626A85" stroke-width="2" stroke-linecap="round" stroke-linejoin="round">
            <g id="Stroke-1123-+-Stroke-1124" transform="translate(1.000000, 1.000000)" sketch:type="MSShapeGroup">
                <path d="M9.05243478,18.4798772 C8.4146087,18.3910166 7.78526087,18.2530836 7.17417391,18.0634257 L0.652434783,20.7159831 L3.26113043,16.0740078 C1.20873913,14.4042229 0.000260869565,11.9293869 0.000260869565,9.35574321 C0.000260869565,4.27609594 4.96395652,0.158663845 11.0872174,0.158663845 C17.2104783,0.158663845 22.1741739,4.27609594 22.1741739,9.35574321" id="Stroke-1123"></path>
                <path d="M11.7391304,20.7160494 C11.7391304,26.4031323 18.2608696,30.6631393 24.1304348,28.010582 L29.3478261,30 L27.3913043,26.021164 C29.0817391,24.6458131 30,22.8341164 30,20.7160494 C30,16.5323034 25.9128261,12.7583774 20.8695652,12.7583774 C15.8269565,12.7583774 11.7391304,16.5323034 11.7391304,20.7160494 L11.7391304,20.7160494 Z" id="Stroke-1124"></path>
            </g>
        </g>
    </g>
</svg>