<?xml version="1.0" encoding="UTF-8" standalone="no"?>
<svg width="48px" height="48px" viewBox="0 0 48 48" version="1.1" xmlns="http://www.w3.org/2000/svg" xmlns:xlink="http://www.w3.org/1999/xlink" xmlns:sketch="http://www.bohemiancoding.com/sketch/ns">
    <!-- Generator: Sketch 3.2.2 (9983) - http://www.bohemiancoding.com/sketch -->
    <title>comments</title>
    <desc>Created with Sketch.</desc>
    <defs></defs>
    <g id="Icons" stroke="none" stroke-width="1" fill="none" fill-rule="evenodd" sketch:type="MSPage">
        <g id="comments" sketch:type="MSLayerGroup" transform="translate(-1.000000, -1.000000)" fill="#626A85">
            <g id="Stroke-1123-+-Stroke-1124" transform="translate(0.500000, 0.500000)" sketch:type="MSShapeGroup">
                <path d="M13.2058814,27.6625492 C12.874443,27.5596834 12.5175907,27.5749223 12.1961283,27.7056692 L2.4135196,31.6845052 L4.28630613,33.8088495 L8.19934961,26.8458866 C8.55696768,26.2095324 8.40457185,25.4081298 7.83834144,24.947456 C5.09968041,22.7193357 3.5003913,19.4297225 3.5003913,16.0336148 C3.5003913,9.31109947 10.2187714,3.73799577 18.6308261,3.73799577 C27.0428808,3.73799577 33.7612609,9.31109947 33.7612609,16.0336148 C33.7612609,16.8620419 34.4328337,17.5336148 35.2612609,17.5336148 C36.089688,17.5336148 36.7612609,16.8620419 36.7612609,16.0336148 C36.7612609,7.51734837 28.5887469,0.737995767 18.6308261,0.737995767 C8.67290525,0.737995767 0.500391304,7.51734837 0.500391304,16.0336148 C0.500391304,20.3420737 2.51337521,24.4826249 5.94504987,27.2745673 L5.5840417,25.3761367 L1.67099822,32.3390997 C0.975516477,33.5766565 2.22879824,34.9982825 3.54378474,34.463444 L13.3263934,30.484608 L12.7612609,29.0951386 L12.3166403,30.5277281 C13.3018348,30.8334945 14.3243871,31.0595613 15.3716742,31.2054673 C16.1921768,31.3197781 16.9499928,30.7472965 17.0643036,29.9267939 C17.1786144,29.1062913 16.6061328,28.3484753 15.7856302,28.2341645 C14.897354,28.1104116 14.0337223,27.9194791 13.2058814,27.6625492 Z" id="Stroke-1123"></path>
                <path d="M38.8133777,45.3827729 L37.6612275,45.4174401 L45.4873144,48.4015671 C46.7603848,48.8869953 47.9690207,47.5607523 47.367802,46.3380976 L44.4330194,40.3698436 L44.0336217,42.1952859 C46.9383603,39.8319678 48.5,36.6808389 48.5,33.0740741 C48.5,25.8178515 41.5368741,19.6375661 33.3043478,19.6375661 C25.0724822,19.6375661 18.1086957,25.8181328 18.1086957,33.0740741 C18.1086957,42.9211172 29.2283193,49.7144253 38.8133777,45.3827729 L38.8133777,45.3827729 Z M33.3043478,22.6375661 C39.9544262,22.6375661 45.5,27.55967 45.5,33.0740741 C45.5,35.7597089 44.3581775,38.0637166 42.1402914,39.8682061 C41.5981222,40.3093192 41.4324702,41.06643 41.7408937,41.6936485 L44.6756763,47.6619024 L46.5561638,45.5984329 L38.7300769,42.6143059 C38.3567377,42.4719498 37.9420314,42.484428 37.5779267,42.6489732 C29.9433619,46.0991641 21.1086957,40.7018042 21.1086957,33.0740741 C21.1086957,27.5599883 26.6549018,22.6375661 33.3043478,22.6375661 L33.3043478,22.6375661 Z" id="Stroke-1124"></path>
            </g>
        </g>
    </g>
</svg>