<?xml version="1.0" encoding="UTF-8" standalone="no"?>
<svg width="36px" height="36px" viewBox="0 0 36 36" version="1.1" xmlns="http://www.w3.org/2000/svg" xmlns:xlink="http://www.w3.org/1999/xlink" xmlns:sketch="http://www.bohemiancoding.com/sketch/ns">
    <!-- Generator: Sketch 3.0.2 (7799) - http://www.bohemiancoding.com/sketch -->
    <title>component</title>
    <description>Created with Sketch.</description>
    <defs></defs>
    <g id="24" stroke="none" stroke-width="1" fill="none" fill-rule="evenodd" sketch:type="MSPage">
        <g id="Icons" sketch:type="MSLayerGroup" transform="translate(-160.000000, -120.000000)" stroke="#0093E6" stroke-width="2" stroke-linecap="round" stroke-linejoin="round">
            <g id="component" transform="translate(160.000000, 120.000000)" sketch:type="MSShapeGroup">
                <g transform="translate(1.000000, 3.000000)">
                    <path d="M17,17 L0,9.60869565 L0,21.4347826 L17,28.826087 L17,17 L17,17 Z" id="Stroke-5154"></path>
                    <path d="M34,9.60869565 L17,17 L17,28.826087 L34,21.4347826 L34,9.60869565 L34,9.60869565 Z" id="Stroke-5155"></path>
                    <path d="M21.4347826,10.3478261 C21.4347826,11.5725652 19.4487391,12.5652174 17,12.5652174 C14.5512609,12.5652174 12.5652174,11.5725652 12.5652174,10.3478261 C12.5652174,9.12382609 14.5512609,8.13043478 17,8.13043478 C19.4487391,8.13043478 21.4347826,9.12382609 21.4347826,10.3478261 L21.4347826,10.3478261 Z" id="Stroke-5156"></path>
                    <path d="M21.4347826,2.2173913 C21.4347826,3.44213043 19.4487391,4.43478261 17,4.43478261 C14.5512609,4.43478261 12.5652174,3.44213043 12.5652174,2.2173913 C12.5652174,0.993391304 14.5512609,0 17,0 C19.4487391,0 21.4347826,0.993391304 21.4347826,2.2173913 L21.4347826,2.2173913 Z" id="Stroke-5157"></path>
                    <path d="M31.7826087,6.65217391 C31.7826087,7.87691304 29.7965652,8.86956522 27.3478261,8.86956522 C24.899087,8.86956522 22.9130435,7.87691304 22.9130435,6.65217391 C22.9130435,5.42817391 24.899087,4.43478261 27.3478261,4.43478261 C29.7965652,4.43478261 31.7826087,5.42817391 31.7826087,6.65217391 L31.7826087,6.65217391 Z" id="Stroke-5158"></path>
                    <path d="M11.826087,6.65217391 C11.826087,7.87691304 9.84004348,8.86956522 7.39130435,8.86956522 C4.94256522,8.86956522 2.95652174,7.87691304 2.95652174,6.65217391 C2.95652174,5.42817391 4.94256522,4.43478261 7.39130435,4.43478261 C9.84004348,4.43478261 11.826087,5.42817391 11.826087,6.65217391 L11.826087,6.65217391 Z" id="Stroke-5159"></path>
                    <path d="M3.80467391,7.9543 L0.000369565217,9.60847391" id="Stroke-5160"></path>
                    <path d="M13.6551391,3.67251739 L10.4687478,5.0569087" id="Stroke-5161"></path>
                    <path d="M23.9394739,5.23385652 L20.3421261,3.67133478" id="Stroke-5162"></path>
                    <path d="M34,9.60869565 L30.6,8.13117391" id="Stroke-5163"></path>
                </g>
            </g>
        </g>
    </g>
</svg>