<?xml version="1.0" encoding="UTF-8" standalone="no"?>
<svg width="48px" height="48px" viewBox="0 0 48 48" version="1.1" xmlns="http://www.w3.org/2000/svg" xmlns:xlink="http://www.w3.org/1999/xlink" xmlns:sketch="http://www.bohemiancoding.com/sketch/ns">
    <!-- Generator: Sketch 3.2.2 (9983) - http://www.bohemiancoding.com/sketch -->
    <title>cross</title>
    <desc>Created with Sketch.</desc>
    <defs></defs>
    <g id="Icons" stroke="none" stroke-width="1" fill="none" fill-rule="evenodd" sketch:type="MSPage">
        <g id="cross" sketch:type="MSLayerGroup" fill="#626A85">
            <path d="M23.9951348,26.7305224 L3.43843555,47.2082759 C2.68297387,47.9608363 1.46048043,47.9584843 0.707920021,47.2030226 C-0.0446403867,46.447561 -0.042288442,45.2250675 0.713173236,44.4725071 L21.2698726,23.9947535 L0.792974562,3.43891119 C0.0404141865,2.68344948 0.0427661833,1.46095604 0.798227894,0.708395661 C1.5536896,-0.0441647141 2.77618305,-0.0418127173 3.52874342,0.713648993 L24.0056414,21.2694912 L44.5619586,0.792118367 C45.3174203,0.0395579595 46.5399137,0.0419099042 47.2924741,0.797371582 C48.0450345,1.55283326 48.0426826,2.7753267 47.2872209,3.52788711 L26.7309036,24.0052601 L47.2081808,44.5614831 C47.9607412,45.3169448 47.9583892,46.5394382 47.2029275,47.2919986 C46.4474657,48.044559 45.2249723,48.042207 44.4724119,47.2867453 L23.9951348,26.7305224 L23.9951348,26.7305224 Z" id="Stroke-3751" sketch:type="MSShapeGroup"></path>
        </g>
    </g>
</svg>