<?xml version="1.0" encoding="UTF-8" standalone="no"?>
<svg width="36px" height="36px" viewBox="0 0 36 36" version="1.1" xmlns="http://www.w3.org/2000/svg" xmlns:xlink="http://www.w3.org/1999/xlink" xmlns:sketch="http://www.bohemiancoding.com/sketch/ns">
    <!-- Generator: Sketch 3.0.2 (7799) - http://www.bohemiancoding.com/sketch -->
    <title>dashboard</title>
    <description>Created with Sketch.</description>
    <defs></defs>
    <g id="24" stroke="none" stroke-width="1" fill="none" fill-rule="evenodd" sketch:type="MSPage">
        <g id="Icons" sketch:type="MSLayerGroup" transform="translate(-80.000000, 0.000000)" stroke="#0093E6" stroke-width="2" stroke-linecap="round" stroke-linejoin="round">
            <g id="dashboard" transform="translate(80.000000, 0.000000)" sketch:type="MSShapeGroup">
                <g transform="translate(1.000000, 1.000000)">
                    <path d="M34.0830043,17 C34.0830043,26.3884348 26.4714391,34 17.0830043,34 C7.69383043,34 0.0830043478,26.3884348 0.0830043478,17 C0.0830043478,7.61156522 7.69383043,0 17.0830043,0 C26.4714391,0 34.0830043,7.61156522 34.0830043,17 L34.0830043,17 Z" id="Stroke-6441"></path>
                    <path d="M19.3003957,17 C19.3003957,18.224 18.3070043,19.2173913 17.0830043,19.2173913 C15.8582652,19.2173913 14.865613,18.224 14.865613,17 C14.865613,15.776 15.8582652,14.7826087 17.0830043,14.7826087 C18.3070043,14.7826087 19.3003957,15.776 19.3003957,17 L19.3003957,17 Z" id="Stroke-6442"></path>
                    <path d="M18.6507739,15.4322304 L25.966687,8.11557826" id="Stroke-6443"></path>
                    <path d="M2.95652174,17 L5.91304348,17" id="Stroke-6444"></path>
                    <path d="M4.10705217,22.3738478 L6.83961739,21.2429783" id="Stroke-6445"></path>
                    <path d="M30.0560739,22.374587 L27.3257261,21.2429783" id="Stroke-6446"></path>
                    <path d="M31.1250783,16.004 L28.1700348,16" id="Stroke-6447"></path>
                    <path d="M30.0567391,11.6268913 L27.3256522,12.7570217" id="Stroke-6448"></path>
                    <path d="M22.4575913,4.02626522 L21.3259826,6.75661304" id="Stroke-6449"></path>
                    <path d="M17,3.23007391 L17,6.18659565" id="Stroke-6450"></path>
                    <path d="M11.7098957,4.02552609 L12.8400261,6.75661304" id="Stroke-6451"></path>
                    <path d="M7.15382174,7.06941304 L9.24260435,9.16041304" id="Stroke-6452"></path>
                    <path d="M4.10926957,11.6246739 L6.83961739,12.7570217" id="Stroke-6453"></path>
                </g>
            </g>
        </g>
    </g>
</svg>