<?xml version="1.0" encoding="UTF-8" standalone="no"?>
<svg width="48px" height="48px" viewBox="0 0 48 48" version="1.1" xmlns="http://www.w3.org/2000/svg" xmlns:xlink="http://www.w3.org/1999/xlink" xmlns:sketch="http://www.bohemiancoding.com/sketch/ns">
    <!-- Generator: Sketch 3.2.2 (9983) - http://www.bohemiancoding.com/sketch -->
    <title>day</title>
    <desc>Created with Sketch.</desc>
    <defs></defs>
    <g id="Icons" stroke="none" stroke-width="1" fill="none" fill-rule="evenodd" sketch:type="MSPage">
        <g id="day" sketch:type="MSLayerGroup">
            <g id="Fill-2439-+-Fill-2440" sketch:type="MSShapeGroup">
                <path d="M24,0 C10.767,0 0,10.767 0,24 C0,37.233 10.767,48 24,48 C37.233,48 48,37.233 48,24 C48,10.767 37.233,0 24,0 L24,0 Z M24,44 C12.9718182,44 4,35.0281818 4,24 C4,12.9718182 12.9718182,4 24,4 C35.0281818,4 44,12.9718182 44,24 C44,35.0281818 35.0281818,44 24,44 L24,44 Z" id="Fill-2439" fill="#231F1F"></path>
                <path d="M22.9997246,23.9998459 C23.0003336,24.0004045 23,13 23,13 C23.0002154,13 23,23.561 23,23.561 L23,24.0009295 L23.3243097,24.2981856 L35.0003097,35.0001856 C34.9989295,35 22.9997246,23.9998459 22.9997246,23.9998459 Z M24.6756903,22.8238144 L25,23.561 L25,13 C25,11.8949058 24.1044757,11 23,11 C21.8955243,11 21,11.8949058 21,13 L21,24 C21,24.560051 21.2354428,25.0953904 21.6479515,25.4738571 L33.6482754,36.4741541 C34.0215861,36.8163556 34.503259,37 35,37 C35.5556306,37 36.0911381,36.7697371 36.4742965,36.3515693 C37.2203096,35.537555 37.1658764,34.271985 36.3516426,33.5257707 L24.6756903,22.8238144 Z" id="Fill-2440" fill="#000000"></path>
            </g>
        </g>
    </g>
</svg>