<?xml version="1.0" encoding="utf-8"?>
<!-- Generator: Adobe Illustrator 16.0.0, SVG Export Plug-In . SVG Version: 6.00 Build 0)  -->
<!DOCTYPE svg PUBLIC "-//W3C//DTD SVG 1.1//EN" "http://www.w3.org/Graphics/SVG/1.1/DTD/svg11.dtd">
<svg version="1.1" id="Layer_1" xmlns="http://www.w3.org/2000/svg" xmlns:xlink="http://www.w3.org/1999/xlink" x="0px" y="0px"
	 width="512px" height="512px" viewBox="0 0 512 512" enable-background="new 0 0 512 512" xml:space="preserve">
<path d="M400.427,155.737c5.975,5.974,15.664,5.974,21.639,0l84.67-66.672c14.097,44.295,4.14,94.612-30.999,129.752
	c-33.556,33.539-80.876,44.123-123.651,32.817l-100.43,100.428c11.273,42.775,0.706,90.113-32.818,123.639
	c-35.153,35.137-85.456,45.109-129.767,31.014l66.671-84.656c5.974-5.988,5.974-15.678,0-21.652l-43.26-43.262
	c-5.976-5.973-15.681-5.973-21.654,0L6.171,423.799c-14.096-44.295-4.155-94.596,30.999-129.734
	c33.54-33.539,80.877-44.123,123.652-32.816l100.445-100.43c-11.306-42.774-0.722-90.113,32.802-123.651
	c35.153-35.138,85.456-45.095,129.767-31L357.15,90.853c-5.975,5.959-5.975,15.649,0,21.624L400.427,155.737z"/>
</svg>
