<?xml version="1.0" encoding="UTF-8" standalone="no"?>
<svg width="48px" height="48px" viewBox="0 0 48 48" version="1.1" xmlns="http://www.w3.org/2000/svg" xmlns:xlink="http://www.w3.org/1999/xlink" xmlns:sketch="http://www.bohemiancoding.com/sketch/ns">
    <!-- Generator: Sketch 3.2.2 (9983) - http://www.bohemiancoding.com/sketch -->
    <title>earth</title>
    <desc>Created with Sketch.</desc>
    <defs></defs>
    <g id="Icons" stroke="none" stroke-width="1" fill="none" fill-rule="evenodd" sketch:type="MSPage">
        <g id="country" sketch:type="MSLayerGroup" fill="#231F1F">
            <g id="Fill-2943" sketch:type="MSShapeGroup">
                <g>
                    <path d="M41.827,7.951 C41.817,7.938 41.804,7.926 41.793,7.912 C38.903,4.719 35.166,2.307 30.942,1.027 C30.93,1.025 30.92,1.021 30.909,1.018 C28.72,0.359 26.401,0 24,0 C10.767,0 0,10.767 0,24 C0,37.233 10.767,48 24,48 C37.233,48 48,37.233 48,24 C48,17.835 45.662,12.207 41.827,7.951 L41.827,7.951 Z M39.903,8.822 C39.578,10.078 38.492,13.424 35.854,14.943 C32.31,14.253 28.903,16.187 28.167,17.085 C27.693,17.662 27.856,18.177 27.948,18.371 C28.104,18.698 28.401,18.916 28.769,18.98 C29.105,19.375 29.683,20.857 30.03,22.243 C30.074,22.418 30.165,22.579 30.293,22.707 C31.262,23.676 32.647,23.506 33.551,23.239 C33.679,24.309 32.16,26.004 30.668,27.556 C29.558,28.711 29,29.29 29,30 C29,30.829 29.608,31.358 30.053,31.745 C30.171,31.849 30.354,32.008 30.446,32.116 C30.417,32.157 30.37,32.216 30.293,32.293 C28.996,33.589 27.692,34.049 27.684,34.051 C27.275,34.188 27,34.569 27,35 C27,37.616 25.366,38.961 22.143,39 C21.468,38.5 20.041,35.735 20,35 C20,34.736 20.2,34.335 20.395,33.947 C20.679,33.379 21,32.736 21,32 C21,30.877 19.758,29.393 18.989,28.583 C18.927,27.348 18.573,26.441 17.915,25.819 C16.787,24.753 15.101,24.851 13.472,24.943 C12.991,24.971 12.495,25 12,25 C10.041,25 10.001,22.119 10,22 C10,21.938 10.048,15.811 14.196,14.98 C17.017,14.416 17.899,14.916 18.006,15.104 C18.029,15.331 18.13,15.545 18.293,15.707 C20.081,17.495 22.792,16.864 24.971,16.357 C25.762,16.174 26.509,16 27,16 C27.498,16 27.92,15.634 27.99,15.142 C28.369,12.487 28.548,9.127 27.246,8.188 C26.763,7.84 26.145,7.81 25.553,8.105 C24.83,8.467 24.155,8.529 23.701,8.277 C23.197,7.998 23.039,7.378 22.996,6.907 C22.876,5.621 26.893,3.865 30.671,3.037 C34.225,4.17 37.385,6.186 39.903,8.822 L39.903,8.822 Z M24,46 C11.869,46 2,36.131 2,24 C2,11.869 11.869,2 24,2 C24.853,2 25.693,2.054 26.521,2.148 C23.784,3.134 20.786,4.752 21.004,7.093 C21.129,8.436 21.742,9.477 22.729,10.025 C23.683,10.556 24.898,10.56 26.125,10.043 C26.3,10.755 26.294,12.387 26.108,14.078 C25.61,14.155 25.073,14.28 24.518,14.409 C22.841,14.799 20.954,15.236 19.901,14.46 C19.789,14.139 19.571,13.789 19.209,13.492 C18.184,12.651 16.418,12.496 13.804,13.02 C8.066,14.167 8,21.681 8,22 C8,23.729 8.836,27 12,27 C12.534,27 13.068,26.97 13.586,26.94 C14.844,26.868 16.04,26.799 16.541,27.273 C16.846,27.561 17,28.142 17,29 C17,29.265 17.105,29.52 17.293,29.707 C18.141,30.557 18.955,31.658 19,32 C19,32.264 18.8,32.665 18.605,33.053 C18.321,33.621 18,34.264 18,35 C18,36.016 20.05,41 22,41 C26.181,41 28.687,39.068 28.973,35.67 C29.624,35.354 30.67,34.744 31.707,33.707 C32.238,33.176 32.498,32.615 32.479,32.042 C32.448,31.178 31.822,30.633 31.365,30.236 C31.291,30.172 31.197,30.09 31.118,30.016 C31.354,29.728 31.777,29.287 32.109,28.942 C33.988,26.988 37.133,23.719 34.707,21.293 C34.401,20.988 33.938,20.914 33.553,21.105 C33.133,21.315 32.304,21.545 31.877,21.395 C31.385,19.539 30.871,18.467 30.41,17.847 C31.505,17.223 33.645,16.441 35.758,16.971 C35.987,17.027 36.233,17.001 36.447,16.895 C39.294,15.471 40.752,12.561 41.441,10.613 C44.297,14.324 46,18.966 46,24 C46,36.131 36.131,46 24,46 L24,46 Z"></path>
                </g>
            </g>
        </g>
    </g>
</svg>