<?xml version="1.0" encoding="UTF-8" standalone="no"?>
<svg width="36px" height="36px" viewBox="0 0 36 36" version="1.1" xmlns="http://www.w3.org/2000/svg" xmlns:xlink="http://www.w3.org/1999/xlink" xmlns:sketch="http://www.bohemiancoding.com/sketch/ns">
    <!-- Generator: Sketch 3.0.2 (7799) - http://www.bohemiancoding.com/sketch -->
    <title>email</title>
    <description>Created with Sketch.</description>
    <defs></defs>
    <g id="24" stroke="none" stroke-width="1" fill="none" fill-rule="evenodd" sketch:type="MSPage">
        <g id="Icons" sketch:type="MSLayerGroup" transform="translate(-320.000000, 0.000000)" stroke-linecap="round" stroke="#0093E6" stroke-width="2">
            <g id="email" transform="translate(320.000000, 0.000000)" sketch:type="MSShapeGroup">
                <g transform="translate(1.000000, 1.000000)">
                    <path d="M23.6521739,17 C23.6521739,20.6742174 20.6742174,23.6521739 17,23.6521739 C13.3257826,23.6521739 10.3478261,20.6742174 10.3478261,17 C10.3478261,13.3257826 13.3257826,10.3478261 17,10.3478261 C20.6742174,10.3478261 23.6521739,13.3257826 23.6521739,17 L23.6521739,17 Z" id="Stroke-548"></path>
                    <path d="M26.6086957,31.0434783 C23.8753913,32.9201304 20.5655652,34 17,34 C7.61156522,34 0,26.3884348 0,17 C0,7.61156522 7.61156522,0 17,0 C26.3884348,0 34,7.61156522 34,17 L34,18.4782609 C34,21.3357391 31.6828261,23.6521739 28.826087,23.6521739 C25.9693478,23.6521739 23.6521739,21.3357391 23.6521739,18.4782609 L23.6521739,17" id="Stroke-549"></path>
                </g>
            </g>
        </g>
    </g>
</svg>