<?xml version="1.0" encoding="UTF-8" standalone="no"?>
<svg width="28px" height="29px" viewBox="0 0 28 29" version="1.1" xmlns="http://www.w3.org/2000/svg" xmlns:xlink="http://www.w3.org/1999/xlink" xmlns:sketch="http://www.bohemiancoding.com/sketch/ns">
    <title>Untitled 2</title>
    <description>Created with Sketch (http://www.bohemiancoding.com/sketch)</description>
    <defs></defs>
    <g id="Page-1" stroke="none" stroke-width="1" fill="none" fill-rule="evenodd" sketch:type="MSPage">
        <path d="M18.6956522,14.21875 C18.6956522,16.8595937 16.5935652,19 14,19 C11.4064348,19 9.30434783,16.8595937 9.30434783,14.21875 C9.30434783,11.5779063 11.4064348,9.4375 14,9.4375 C16.5935652,9.4375 18.6956522,11.5779063 18.6956522,14.21875 L18.6956522,14.21875 Z" id="Stroke-548" stroke="#231F1F" stroke-width="3" stroke-linecap="round" sketch:type="MSShapeGroup"></path>
        <path d="M20.7826087,24.3125 C18.8532174,25.6613438 16.5168696,26.4375 14,26.4375 C7.37286957,26.4375 2,20.9666875 2,14.21875 C2,7.4708125 7.37286957,2 14,2 C20.6271304,2 26,7.4708125 26,14.21875 L26,15.28125 C26,17.3350625 24.3643478,19 22.3478261,19 C20.3313043,19 18.6956522,17.3350625 18.6956522,15.28125 L18.6956522,14.21875" id="Stroke-549" stroke="#231F1F" stroke-width="3" stroke-linecap="round" sketch:type="MSShapeGroup"></path>
    </g>
</svg>