<?xml version="1.0" encoding="utf-8"?>
<!-- Generator: Adobe Illustrator 16.0.0, SVG Export Plug-In . SVG Version: 6.00 Build 0)  -->
<!DOCTYPE svg PUBLIC "-//W3C//DTD SVG 1.1//EN" "http://www.w3.org/Graphics/SVG/1.1/DTD/svg11.dtd">
<svg version="1.1" id="Layer_1" xmlns="http://www.w3.org/2000/svg" xmlns:xlink="http://www.w3.org/1999/xlink" x="0px" y="0px"
	 width="16px" height="16px" viewBox="0 0 16 16" enable-background="new 0 0 16 16" xml:space="preserve">
<g>
	<defs>
		<rect id="SVGID_1_" width="16" height="16"/>
	</defs>
	<clipPath id="SVGID_2_">
		<use xlink:href="#SVGID_1_"  overflow="visible"/>
	</clipPath>
	<path clip-path="url(#SVGID_2_)" fill="#1D1D1B" d="M2.143,11.714C0.96,11.714,0,12.68,0,13.86C0,15.044,0.96,16,2.143,16
		c1.186,0,2.146-0.956,2.146-2.14C4.289,12.68,3.329,11.714,2.143,11.714"/>
	<path clip-path="url(#SVGID_2_)" fill="#1D1D1B" d="M0.141,5.494v2.812c2,0.037,3.877,0.834,5.295,2.259
		c1.42,1.422,2.217,3.306,2.254,5.315h2.82C10.432,10.188,5.825,5.571,0.141,5.494"/>
	<path clip-path="url(#SVGID_2_)" fill="#1D1D1B" d="M0.145,0v2.81c7.154,0.078,12.96,5.898,13.039,13.07h2.814
		C15.92,7.158,8.852,0.078,0.145,0"/>
</g>
</svg>
