<?xml version="1.0" encoding="UTF-8" standalone="no"?>
<svg width="62px" height="60px" viewBox="0 0 62 60" version="1.1" xmlns="http://www.w3.org/2000/svg" xmlns:xlink="http://www.w3.org/1999/xlink" xmlns:sketch="http://www.bohemiancoding.com/sketch/ns">
    <title>engagement_api</title>
    <description>Created with Sketch (http://www.bohemiancoding.com/sketch)</description>
    <defs></defs>
    <g id="Page-1" stroke="none" stroke-width="1" fill="none" fill-rule="evenodd" sketch:type="MSPage">
        <path d="M42.43375,20.9375 C49.00225,20.9375 54.8965,23.572875 58.923875,27.719875 C58.94925,27.270375 59,26.828125 59,26.375 C59,12.364375 46.0225,1 30,1 C13.98475,1 1,12.364375 1,26.375 C1,33.019625 3.939875,39.051625 8.717625,43.572 L1,59 L19.20475,49.897625 C20.61125,50.39425 22.064875,50.803875 23.572875,51.101125 C23.01825,50.260125 22.53975,49.36475 22.11925,48.444 C21.88,47.92925 21.673375,47.396375 21.492125,46.859875 C20.817875,44.967625 20.42275,42.966625 20.42275,40.875 C20.42275,29.880375 30.29725,20.9375 42.43375,20.9375" id="Shape" stroke="#00B2CE" sketch:type="MSShapeGroup"></path>
        <path d="M55.340368,47.5926553 C57.8532141,44.5623562 59.0027075,40.8039288 58.0976246,37.066917 C56.3600183,29.8855723 47.8285623,25.5703408 39.0565147,27.4334929 C30.2768292,29.2895064 24.5713703,36.6171906 26.3127955,43.7913968 C28.0580396,50.9763107 36.5894956,55.2879729 45.3615433,53.4248209 C45.7587104,53.342728 46.1215073,53.1892499 46.5186745,53.0750337 L61,59 L55.340368,47.5926553 L55.340368,47.5926553 Z" id="Shape" stroke="#00B2CE" sketch:type="MSShapeGroup"></path>
    </g>
</svg>