<?xml version="1.0" encoding="UTF-8" standalone="no"?>
<svg width="64px" height="64px" viewBox="0 0 64 64" version="1.1" xmlns="http://www.w3.org/2000/svg" xmlns:xlink="http://www.w3.org/1999/xlink" xmlns:sketch="http://www.bohemiancoding.com/sketch/ns">
    <title>Untitled</title>
    <description>Created with Sketch (http://www.bohemiancoding.com/sketch)</description>
    <defs></defs>
    <g id="Page-1" stroke="none" stroke-width="1" fill="none" fill-rule="evenodd" sketch:type="MSPage">
        <path d="M25,51 C25,53.209 23.209,55 21,55 C18.791,55 17,53.209 17,51 L17,24 L21,15 L25,24 L25,51 L25,51 Z" id="Stroke-2036" stroke="#2B2B2B" stroke-linecap="round" stroke-linejoin="round" sketch:type="MSShapeGroup"></path>
        <path d="M17,49 L25,49" id="Stroke-2037" stroke="#2B2B2B" stroke-linecap="round" stroke-linejoin="round" sketch:type="MSShapeGroup"></path>
        <path d="M17,45 L25,45" id="Stroke-2038" stroke="#2B2B2B" stroke-linecap="round" stroke-linejoin="round" sketch:type="MSShapeGroup"></path>
        <path d="M43,55 L31,55 L31,9 L43,9 L43,55 Z" id="Stroke-2039" stroke="#2B2B2B" stroke-linecap="round" stroke-linejoin="round" sketch:type="MSShapeGroup"></path>
        <path d="M31,15 L35,15" id="Stroke-2040" stroke="#2B2B2B" stroke-linecap="round" stroke-linejoin="round" sketch:type="MSShapeGroup"></path>
        <path d="M31,23 L35,23" id="Stroke-2041" stroke="#2B2B2B" stroke-linecap="round" stroke-linejoin="round" sketch:type="MSShapeGroup"></path>
        <path d="M31,31 L35,31" id="Stroke-2042" stroke="#2B2B2B" stroke-linecap="round" stroke-linejoin="round" sketch:type="MSShapeGroup"></path>
        <path d="M31,39 L35,39" id="Stroke-2043" stroke="#2B2B2B" stroke-linecap="round" stroke-linejoin="round" sketch:type="MSShapeGroup"></path>
        <path d="M31,47 L35,47" id="Stroke-2044" stroke="#2B2B2B" stroke-linecap="round" stroke-linejoin="round" sketch:type="MSShapeGroup"></path>
        <path d="M17,24 L25,24" id="Stroke-2045" stroke="#2B2B2B" stroke-linecap="round" stroke-linejoin="round" sketch:type="MSShapeGroup"></path>
        <path d="M21,24 L21,45" id="Stroke-2046" stroke="#2B2B2B" stroke-linecap="round" stroke-linejoin="round" sketch:type="MSShapeGroup"></path>
    </g>
</svg>