<?xml version="1.0" encoding="UTF-8" standalone="no"?>
<svg width="36px" height="36px" viewBox="0 0 36 36" version="1.1" xmlns="http://www.w3.org/2000/svg" xmlns:xlink="http://www.w3.org/1999/xlink" xmlns:sketch="http://www.bohemiancoding.com/sketch/ns">
    <!-- Generator: Sketch 3.0.3 (7891) - http://www.bohemiancoding.com/sketch -->
    <title>eye_open</title>
    <desc>Created with Sketch.</desc>
    <defs></defs>
    <g id="24" stroke="none" stroke-width="1" fill="none" fill-rule="evenodd" sketch:type="MSPage">
        <g id="Icons" sketch:type="MSLayerGroup" transform="translate(-360.000000, -382.000000)" stroke="#0093E6" stroke-width="2" stroke-linecap="round" stroke-linejoin="round">
            <g id="eye_open" transform="translate(360.000000, 382.000000)" sketch:type="MSShapeGroup">
                <g id="Stroke-166-+-Stroke-167" transform="translate(1.000000, 7.000000)">
                    <path d="M34,9.60869565 C34,9.60869565 26.3891739,19.2173913 17,19.2173913 C7.61082609,19.2173913 0,9.60869565 0,9.60869565 C0,9.60869565 7.61082609,0 17,0 C26.3891739,0 34,9.60869565 34,9.60869565 L34,9.60869565 Z" id="Stroke-166"></path>
                    <path d="M22.9130435,9.60869565 C22.9130435,12.8741739 20.2654783,15.5217391 17,15.5217391 C13.7345217,15.5217391 11.0869565,12.8741739 11.0869565,9.60869565 C11.0869565,6.34321739 13.7345217,3.69565217 17,3.69565217 C20.2654783,3.69565217 22.9130435,6.34321739 22.9130435,9.60869565 L22.9130435,9.60869565 Z" id="Stroke-167"></path>
                </g>
            </g>
        </g>
    </g>
</svg>