<?xml version="1.0" encoding="UTF-8" standalone="no"?>
<svg width="36px" height="36px" viewBox="0 0 36 36" version="1.1" xmlns="http://www.w3.org/2000/svg" xmlns:xlink="http://www.w3.org/1999/xlink" xmlns:sketch="http://www.bohemiancoding.com/sketch/ns">
    <!-- Generator: Sketch 3.0.3 (7891) - http://www.bohemiancoding.com/sketch -->
    <title>eye_closed</title>
    <desc>Created with Sketch.</desc>
    <defs></defs>
    <g id="24" stroke="none" stroke-width="1" fill="none" fill-rule="evenodd" sketch:type="MSPage">
        <g id="Icons" sketch:type="MSLayerGroup" transform="translate(-400.000000, -382.000000)" stroke="#0093E6" stroke-width="2" stroke-linecap="round" stroke-linejoin="round">
            <g id="eye_closed" transform="translate(400.000000, 382.000000)" sketch:type="MSShapeGroup">
                <g id="Group" transform="translate(1.000000, 3.000000)">
                    <path d="M27.7785,9 C31.437,11.6445 33.75225,14.568 33.75225,14.568 C33.75225,14.568 26.0295,24.318 16.50225,24.318 C14.9445,24.318 13.43475,24.057 12,23.62125" id="Stroke-236"></path>
                    <path d="M5.95125,19.8015 C2.30475,17.16075 0,14.25 0,14.25 C0,14.25 7.72275,4.5 17.25,4.5 C18.54,4.5 19.797,4.6785 21.00675,4.9875" id="Stroke-237"></path>
                    <path d="M12,15 C12,11.6865 14.6865,9 18,9" id="Stroke-238"></path>
                    <path d="M24,15 C24,18.3135 21.3135,21 18,21" id="Stroke-239"></path>
                    <path d="M32.25,0 L3,29.25" id="Stroke-240"></path>
                </g>
            </g>
        </g>
    </g>
</svg>