<?xml version="1.0" encoding="UTF-8" standalone="no"?>
<svg width="48px" height="48px" viewBox="0 0 48 48" version="1.1" xmlns="http://www.w3.org/2000/svg" xmlns:xlink="http://www.w3.org/1999/xlink" xmlns:sketch="http://www.bohemiancoding.com/sketch/ns">
    <!-- Generator: Sketch 3.2.2 (9983) - http://www.bohemiancoding.com/sketch -->
    <title>eye_closed</title>
    <desc>Created with Sketch.</desc>
    <defs></defs>
    <g id="Icons" stroke="none" stroke-width="1" fill="none" fill-rule="evenodd" sketch:type="MSPage">
        <g id="eye_closed" sketch:type="MSLayerGroup" stroke="#231F1F" stroke-width="2" stroke-linecap="round" stroke-linejoin="round">
            <g id="Group" transform="translate(1.000000, 5.000000)" sketch:type="MSShapeGroup">
                <path d="M38.0347,12.0762 C42.9127,15.6022 45.9997,19.5002 45.9997,19.5002 C45.9997,19.5002 35.7027,32.5002 22.9997,32.5002 C20.9227,32.5002 18.9097,32.1522 16.9967,31.5712" id="Stroke-236"></path>
                <path d="M7.9351,26.9023 C3.0731,23.3813 0.0001,19.5003 0.0001,19.5003 C0.0001,19.5003 10.2971,6.5003 23.0001,6.5003 C24.7201,6.5003 26.3961,6.7383 28.0091,7.1503" id="Stroke-237"></path>
                <path d="M15,19.5 C15,15.082 18.582,11.5 23,11.5" id="Stroke-238"></path>
                <path d="M31,19.5 C31,23.918 27.418,27.5 23,27.5" id="Stroke-239"></path>
                <path d="M42.5,0 L3.5,39" id="Stroke-240"></path>
            </g>
        </g>
    </g>
</svg>