<?xml version="1.0" encoding="UTF-8" standalone="no"?>
<svg width="15px" height="15px" viewBox="0 0 15 15" version="1.1" xmlns="http://www.w3.org/2000/svg" xmlns:xlink="http://www.w3.org/1999/xlink" xmlns:sketch="http://www.bohemiancoding.com/sketch/ns">
    <!-- Generator: Sketch 3.2.2 (9983) - http://www.bohemiancoding.com/sketch -->
    <title>eye_open</title>
    <desc>Created with Sketch.</desc>
    <defs></defs>
    <g id="Page-1" stroke="none" stroke-width="1" fill="none" fill-rule="evenodd" sketch:type="MSPage">
        <g id="eye" sketch:type="MSLayerGroup" transform="translate(0.500000, 4.000000)" stroke="#000000">
            <path d="M14,4.32391307 C14,4.32391307 10.8661304,8.64782609 7,8.64782609 C3.13386957,8.64782609 0,4.32391307 0,4.32391307 C0,4.32391307 3.13386957,8.8817842e-16 7,8.8817842e-16 C10.8661304,8.8817842e-16 14,4.32391307 14,4.32391307 L14,4.32391307 L14,4.32391307 Z" id="Stroke-166" sketch:type="MSShapeGroup"></path>
            <path d="M9.43478262,4.32391306 C9.43478262,5.79337826 8.34460871,6.9847826 7,6.9847826 C5.65539129,6.9847826 4.56521738,5.79337826 4.56521738,4.32391306 C4.56521738,2.85444783 5.65539129,1.66304349 7,1.66304349 C8.34460871,1.66304349 9.43478262,2.85444783 9.43478262,4.32391306 L9.43478262,4.32391306 L9.43478262,4.32391306 Z" id="Stroke-167" sketch:type="MSShapeGroup"></path>
        </g>
        <g id="Group" sketch:type="MSLayerGroup" transform="translate(-280.000000, 0.000000)"></g>
    </g>
</svg>