<?xml version="1.0" encoding="UTF-8" standalone="no"?>
<svg width="260px" height="310px" viewBox="0 0 260 310" version="1.1" xmlns="http://www.w3.org/2000/svg" xmlns:xlink="http://www.w3.org/1999/xlink" xmlns:sketch="http://www.bohemiancoding.com/sketch/ns">
    <title>foursquare_icon</title>
    <description>Created with Sketch (http://www.bohemiancoding.com/sketch)</description>
    <defs></defs>
    <g id="Page 1" stroke="none" stroke-width="1" fill="none" fill-rule="evenodd">
        <path d="M0,155.113017 C0,121.936699 26.7515617,95.0419831 59.7512889,95.0419831 C85.6491461,95.0419831 107.698787,111.606315 115.989924,134.771661 L126.061581,124.665177 L156.773896,155.483694 L240.643224,69.7801149 L260,50 L259.594754,77.7451351 L258.78923,132.895284 L258.717246,137.823638 L255.037724,141.080899 L195.204761,194.04745 L208.444119,207.332589 L126.061581,290 L50.8425757,214.520892 C22.0683492,210.196559 0,185.24575 0,155.113017 Z M105.245516,177.811298 C107.393774,172.231881 108.437524,161.238323 108.437524,155.113017 C108.437524,128.080461 86.6399558,106.166249 59.7512889,106.166249 C32.862622,106.166249 11.0650535,128.080461 11.0650535,155.113017 C11.0650535,182.145572 32.862622,204.059785 59.7512889,204.059785 C63.6313749,204.059785 75.7213393,202.367411 79.4198538,201.476435 L122.240746,250.490557 L247.725369,132.73195 L248.530893,84.2563612 L124.339188,197.815062 L105.245516,177.811298 Z M105.245516,177.811298" id="Rectangle 1" fill="#000000"></path>
    </g>
</svg>