<?xml version="1.0" encoding="UTF-8" standalone="no"?>
<svg width="32px" height="32px" viewBox="0 0 32 32" version="1.1" xmlns="http://www.w3.org/2000/svg" xmlns:xlink="http://www.w3.org/1999/xlink" xmlns:sketch="http://www.bohemiancoding.com/sketch/ns">
    <!-- Generator: Sketch 3.0.2 (7799) - http://www.bohemiancoding.com/sketch -->
    <title>foursquare</title>
    <description>Created with Sketch.</description>
    <defs></defs>
    <g id="24" stroke="none" stroke-width="1" fill="none" fill-rule="evenodd" sketch:type="MSPage">
        <g id="Brands" sketch:type="MSLayerGroup" transform="translate(-360.000000, 0.000000)" fill="#000000">
            <g id="foursquare" transform="translate(360.000000, 0.000000)" sketch:type="MSShapeGroup">
                <path d="M0,14.1391271 C0,9.99208738 3.2924999,6.63024789 7.35400479,6.63024789 C10.5414334,6.63024789 13.2552353,8.70078937 14.275683,11.5964576 L15.5152715,10.3331471 L19.2952487,14.1854618 L29.6176276,3.47251436 L32,1 L31.9501236,4.46814189 L31.8509822,11.3619105 L31.8421226,11.9779547 L31.3892583,12.3851124 L24.0252014,19.0059312 L25.6546608,20.6665736 L15.5152715,31 L6.25754778,21.5651115 C2.71610452,21.0245699 0,17.9057187 0,14.1391271 L0,14.1391271 Z M12.9532943,16.9764122 C13.2176953,16.2789851 13.3461568,14.9047904 13.3461568,14.1391271 C13.3461568,10.7600576 10.6633792,8.02078112 7.35400479,8.02078112 C4.0446304,8.02078112 1.36185274,10.7600576 1.36185274,14.1391271 C1.36185274,17.5181965 4.0446304,20.2574731 7.35400479,20.2574731 C7.83155383,20.2574731 9.31954945,20.0459264 9.77475124,19.9345544 L15.0450149,26.0613196 L30.4892762,11.3414938 L30.5884176,5.28204515 L15.3032847,19.4768828 L12.9532943,16.9764122 L12.9532943,16.9764122 Z"></path>
            </g>
        </g>
    </g>
</svg>