<?xml version="1.0" encoding="UTF-8" standalone="no"?>
<svg width="36px" height="36px" viewBox="0 0 36 36" version="1.1" xmlns="http://www.w3.org/2000/svg" xmlns:xlink="http://www.w3.org/1999/xlink" xmlns:sketch="http://www.bohemiancoding.com/sketch/ns">
    <!-- Generator: Sketch 3.0.2 (7799) - http://www.bohemiancoding.com/sketch -->
    <title>ghost</title>
    <description>Created with Sketch.</description>
    <defs></defs>
    <g id="24" stroke="none" stroke-width="1" fill="none" fill-rule="evenodd" sketch:type="MSPage">
        <g id="Icons" sketch:type="MSLayerGroup" transform="translate(-360.000000, -120.000000)" stroke="#0093E6" stroke-width="2" stroke-linecap="round" stroke-linejoin="round">
            <g id="ghost" transform="translate(360.000000, 120.000000)" sketch:type="MSShapeGroup">
                <path d="M30.0833171,13.5416586 C30.0833171,6.61497431 24.4683428,1 17.5416586,1 C10.6149743,1 5,6.61497431 5,13.5416586 L5,33.4607633 C5,34.2722824 5.66397016,34.9362526 6.47548924,34.9362526 L7.21323386,34.9362526 C8.02475294,34.9362526 8.6887231,34.2722824 8.6887231,33.4607633 C8.6887231,32.6492442 9.35269326,31.9852741 10.1642123,31.9852741 C10.9757314,31.9852741 11.6397016,32.6492442 11.6397016,33.4607633 C11.6397016,34.2722824 12.3036717,34.9362526 13.1151908,34.9362526 L14.5906801,34.9362526 C15.4021992,34.9362526 16.0661693,34.2722824 16.0661693,33.4607633 C16.0661693,32.6492442 16.7301395,31.9852741 17.5416586,31.9852741 C18.3531776,31.9852741 19.0171478,32.6492442 19.0171478,33.4607633 C19.0171478,34.2722824 19.681118,34.9362526 20.492637,34.9362526 L21.9681263,34.9362526 C22.7796454,34.9362526 23.4436155,34.2722824 23.4436155,33.4607633 C23.4436155,32.6492442 24.1075857,31.9852741 24.9191048,31.9852741 C25.7306238,31.9852741 26.394594,32.6492442 26.394594,33.4607633 C26.394594,34.2722824 27.0585642,34.9362526 27.8700832,34.9362526 L28.6078279,34.9362526 C29.4193469,34.9362526 30.0833171,34.2722824 30.0833171,33.4607633 L30.0833171,13.5416586 L30.0833171,13.5416586 Z" id="Stroke-7544"></path>
                <path d="M24.1813601,17.9681263 C24.1813601,19.1854049 23.1854049,20.1813601 21.9681263,20.1813601 C20.7508477,20.1813601 19.7548924,19.1854049 19.7548924,17.9681263 L19.7548924,13.5416586 C19.7548924,12.3243799 20.7508477,11.3284247 21.9681263,11.3284247 C23.1854049,11.3284247 24.1813601,12.3243799 24.1813601,13.5416586 L24.1813601,17.9681263 L24.1813601,17.9681263 Z" id="Stroke-7545"></path>
                <path d="M21.2303817,16.492637 C21.2303817,16.9006098 20.9006098,17.2303817 20.492637,17.2303817 C20.0846643,17.2303817 19.7548924,16.9006098 19.7548924,16.492637 C19.7548924,16.0846643 20.0846643,15.7548924 20.492637,15.7548924 C20.9006098,15.7548924 21.2303817,16.0846643 21.2303817,16.492637 L21.2303817,16.492637 Z" id="Stroke-7546"></path>
                <path d="M15.3284247,17.9681263 C15.3284247,19.1854049 14.3324695,20.1813601 13.1151908,20.1813601 C11.8979122,20.1813601 10.901957,19.1854049 10.901957,17.9681263 L10.901957,13.5416586 C10.901957,12.3243799 11.8979122,11.3284247 13.1151908,11.3284247 C14.3324695,11.3284247 15.3284247,12.3243799 15.3284247,13.5416586 L15.3284247,17.9681263 L15.3284247,17.9681263 Z" id="Stroke-7547"></path>
                <path d="M12.3774462,16.492637 C12.3774462,16.9006098 12.0476744,17.2303817 11.6397016,17.2303817 C11.2317288,17.2303817 10.901957,16.9006098 10.901957,16.492637 C10.901957,16.0846643 11.2317288,15.7548924 11.6397016,15.7548924 C12.0476744,15.7548924 12.3774462,16.0846643 12.3774462,16.492637 L12.3774462,16.492637 Z" id="Stroke-7548"></path>
            </g>
        </g>
    </g>
</svg>