<?xml version="1.0" encoding="UTF-8" standalone="no"?>
<svg width="32px" height="32px" viewBox="0 0 32 32" version="1.1" xmlns="http://www.w3.org/2000/svg" xmlns:xlink="http://www.w3.org/1999/xlink" xmlns:sketch="http://www.bohemiancoding.com/sketch/ns">
    <!-- Generator: Sketch 3.0.2 (7799) - http://www.bohemiancoding.com/sketch -->
    <title>github</title>
    <description>Created with Sketch.</description>
    <defs></defs>
    <g id="24" stroke="none" stroke-width="1" fill="none" fill-rule="evenodd" sketch:type="MSPage">
        <g id="Brands" sketch:type="MSLayerGroup" transform="translate(-320.000000, 0.000000)" fill="#000000">
            <g id="github" transform="translate(320.000000, 0.000000)" sketch:type="MSShapeGroup">
                <path d="M0,16.4215135 C0,13.6187387 0.8666875,11.2138919 2.6,9.20716216 C2.5,8.9492973 2.411125,8.64098198 2.3333125,8.28221622 C2.2555,7.92351351 2.1833125,7.43017117 2.116625,6.80231532 C2.0499375,6.17452252 2.07775,5.44576577 2.1999375,4.61617117 C2.3221875,3.78651351 2.544375,2.94008108 2.866625,2.07681081 C2.9221875,2.05436036 3.0083125,2.03474775 3.1249375,2.01790991 C3.2415625,2.00107207 3.5055,2.01507207 3.916625,2.05997297 C4.32775,2.10481081 4.7749375,2.20571171 5.2583125,2.36267568 C5.741625,2.51957658 6.3860625,2.81105405 7.1916875,3.23710811 C7.99725,3.66316216 8.8444375,4.20689189 9.733375,4.86836036 C11.2555625,4.40863063 13.3444375,4.17882883 16,4.17882883 C18.6555625,4.17882883 20.738875,4.40869369 22.25,4.86836036 C23.138875,4.20689189 23.9833125,3.66032432 24.7833125,3.22872072 C25.5833125,2.79705405 26.236125,2.50835135 26.7416875,2.36267568 C27.2471875,2.21687387 27.688875,2.11603604 28.066625,2.05997297 C28.4444375,2.00384685 28.7165625,1.99268468 28.88325,2.0262973 L29.13325,2.07681081 C29.4554375,2.94001802 29.674875,3.78645045 29.7915625,4.61617117 C29.9081875,5.44576577 29.93325,6.1772973 29.8665,6.81076577 C29.799875,7.44417117 29.7303125,7.93467568 29.6581875,8.28221622 C29.586,8.62981982 29.499875,8.93807207 29.399875,9.20716216 C31.133125,11.2251802 31.999875,13.629964 31.999875,16.4215766 C31.999875,17.9799279 31.86375,19.3924775 31.5915625,20.6593514 C31.3194375,21.9261622 30.941625,23.024973 30.4581875,23.9555315 C29.974875,24.886027 29.361,25.7016216 28.6165,26.4023784 C27.8720625,27.103009 27.06375,27.6804775 26.1915,28.1345315 C25.3193125,28.5885225 24.324875,28.9556757 23.2081875,29.2360541 C22.0915625,29.5163063 20.952625,29.7125586 19.7915625,29.8246216 C18.6304375,29.9366847 17.355375,29.9928108 15.9665625,29.9928108 C14.57775,29.9928108 13.3054375,29.9366847 12.149875,29.8246216 C10.9943125,29.7125586 9.8581875,29.5163063 8.7415625,29.2360541 C7.624875,28.9558018 6.63325,28.5885225 5.7665625,28.1345315 C4.899875,27.6804775 4.097125,27.1031982 3.35825,26.4023784 C2.619375,25.7016216 2.00825,24.886027 1.5249375,23.9555315 C1.041625,23.024973 0.666625,21.9261622 0.3999375,20.6593514 C0.1333125,19.3924775 0,17.9798649 0,16.4215135 L0,16.4215135 Z M4.2666875,20.6593514 C4.2666875,21.6122342 4.3778125,22.4615045 4.6,23.207036 C4.8221875,23.9525676 5.10275,24.5775225 5.4416875,25.082027 C5.7805625,25.5865315 6.2555625,26.0125856 6.8666875,26.3601892 C7.4778125,26.7077928 8.0695,26.9767568 8.6416875,27.1673964 C9.2139375,27.357973 9.9528125,27.5065495 10.858375,27.6130631 C11.7639375,27.7195135 12.57225,27.784027 13.283375,27.8063514 C13.9945,27.8287387 14.8945,27.839964 15.983375,27.839964 C17.07225,27.839964 17.975,27.8287387 18.6916875,27.8063514 C19.408375,27.784027 20.219375,27.7194505 21.1250625,27.6130631 C22.030625,27.5065495 22.7695625,27.3579099 23.34175,27.1673964 C23.9139375,26.9768829 24.505625,26.7077928 25.11675,26.3601892 C25.72775,26.0125856 26.2028125,25.5865315 26.54175,25.082027 C26.880625,24.5775225 27.1611875,23.9525676 27.3834375,23.207036 C27.6056875,22.4615045 27.71675,21.6122342 27.71675,20.6593514 C27.71675,19.0337117 27.0500625,17.5594865 25.71675,16.2364865 C25.3168125,15.8328829 24.8500625,15.5273423 24.3168125,15.319991 C23.7835,15.1125766 23.180625,14.9948378 22.5084375,14.9667748 C21.8361875,14.9387748 21.194625,14.9443874 20.583375,14.9836126 C19.9723125,15.0228378 19.21675,15.0761261 18.316625,15.1433514 C17.4166875,15.2106396 16.638875,15.2443153 15.9833125,15.2443153 C15.32775,15.2443153 14.5499375,15.2107027 13.65,15.1433514 C12.75,15.0761261 11.9944375,15.0228378 11.3833125,14.9836126 C10.7721875,14.9443874 10.1305625,14.9387748 9.4583125,14.9667748 C8.7860625,14.9947748 8.186125,15.1125766 7.6583125,15.319991 C7.1305625,15.5273423 6.666625,15.8328829 6.266625,16.2364865 C4.9333125,17.5594865 4.2666875,19.0336486 4.2666875,20.6593514 L4.2666875,20.6593514 Z M8.5166875,20.2725225 C8.5166875,19.5213784 8.67225,18.8851351 8.983375,18.3637297 C9.2945,17.8423874 9.67225,17.5818108 10.1166875,17.5818108 C10.561125,17.5818108 10.938875,17.8425135 11.25,18.3637297 C11.561125,18.8850721 11.7166875,19.5212523 11.7166875,20.2725225 C11.7166875,21.0123784 11.561125,21.6458468 11.25,22.1728649 C10.938875,22.6998829 10.561125,22.9632342 10.1166875,22.9632342 C9.67225,22.9632342 9.2945,22.6996937 8.983375,22.1728649 C8.67225,21.646036 8.5166875,21.0123784 8.5166875,20.2725225 L8.5166875,20.2725225 Z M13.8666875,25.0317027 C13.8445,24.942027 13.85,24.8551261 13.883375,24.771 C13.9166875,24.6869369 13.97225,24.6335856 14.0500625,24.6112613 C14.2389375,24.5328739 14.3611875,24.600036 14.41675,24.8130631 C14.539,25.1942793 14.7445625,25.5025946 15.0334375,25.738009 C15.3223125,25.9734234 15.639,26.0912252 15.9834375,26.0912252 C16.327875,26.0912252 16.6445625,25.9734865 16.9335,25.738009 C17.2223125,25.5025946 17.427875,25.1942793 17.5500625,24.8130631 C17.60575,24.600036 17.7279375,24.5328739 17.9166875,24.6112613 C17.9945,24.6336486 18.0500625,24.6869369 18.083375,24.771 C18.1166875,24.8551261 18.12225,24.942027 18.100125,25.0317027 C17.944625,25.5474324 17.6723125,25.9650991 17.2835,26.2845135 C16.8945625,26.6040541 16.4613125,26.7638559 15.9835,26.7638559 C15.5056875,26.7638559 15.072375,26.6041802 14.6835,26.2845135 C14.2944375,25.9650991 14.0221875,25.5474324 13.8666875,25.0317027 L13.8666875,25.0317027 Z M14.9,22.9968468 C14.9,22.851045 15.0055625,22.7249189 15.2166875,22.6184685 C15.4278125,22.512018 15.6778125,22.4587297 15.9666875,22.4587297 C16.2555625,22.4587297 16.5055625,22.512018 16.7166875,22.6184685 C16.9278125,22.7249189 17.0333125,22.851045 17.0333125,22.9968468 C17.0333125,23.1426486 16.9278125,23.2687748 16.7166875,23.3752252 C16.5055625,23.4816757 16.2555625,23.5349009 15.9666875,23.5349009 C15.6778125,23.5349009 15.4278125,23.4816757 15.2166875,23.3752252 C15.0055625,23.2687117 14.9,23.1425856 14.9,22.9968468 L14.9,22.9968468 Z M20.2166875,20.2725225 C20.2166875,19.5213784 20.3721875,18.8851351 20.683375,18.3637297 C20.9945625,17.8423874 21.3721875,17.5818108 21.81675,17.5818108 C22.2611875,17.5818108 22.638875,17.8425135 22.950125,18.3637297 C23.26125,18.8851351 23.4168125,19.5212523 23.4168125,20.2725225 C23.4168125,21.0123784 23.26125,21.6458468 22.950125,22.1728649 C22.6389375,22.6997568 22.26125,22.9632342 21.81675,22.9632342 C21.37225,22.9632342 20.9945625,22.6996937 20.683375,22.1728649 C20.3721875,21.6458468 20.2166875,21.0123784 20.2166875,20.2725225 L20.2166875,20.2725225 Z"></path>
            </g>
        </g>
    </g>
</svg>