<?xml version="1.0" encoding="UTF-8" standalone="no"?>
<svg width="32px" height="32px" viewBox="0 0 32 32" version="1.1" xmlns="http://www.w3.org/2000/svg" xmlns:xlink="http://www.w3.org/1999/xlink" xmlns:sketch="http://www.bohemiancoding.com/sketch/ns">
    <!-- Generator: Sketch 3.0.2 (7799) - http://www.bohemiancoding.com/sketch -->
    <title>google</title>
    <description>Created with Sketch.</description>
    <defs></defs>
    <g id="24" stroke="none" stroke-width="1" fill="none" fill-rule="evenodd" sketch:type="MSPage">
        <g id="Brands" sketch:type="MSLayerGroup" transform="translate(-400.000000, 0.000000)" fill="#EB2F12">
            <g id="google" transform="translate(400.000000, 0.000000)" sketch:type="MSShapeGroup">
                <path d="M8.79483438,25.2548428 C8.54010901,25.2227757 8.17542977,25.2072788 7.69898532,25.2072788 C5.85653669,25.2072788 4.18891405,25.4611992 2.69645283,25.9695094 C1.56155975,26.3653166 0.663345912,26.8792621 0,27.5106751 L0,30.3225157 C0,31.2449476 0.754716981,31.9996646 1.67714885,31.9996646 L13.9679665,31.9996646 C13.9801761,31.8505325 13.987891,31.6991866 13.987891,31.5438155 C13.987891,30.4004025 13.5747086,29.3678155 12.749283,28.4469937 C12.1135094,27.7480922 10.7959413,26.6843103 8.79483438,25.2548428 L8.79483438,25.2548428 Z M6.93662055,17.5365367 C8.20662474,17.5365367 9.28677568,17.0920922 10.1763354,16.2024654 C10.9700964,15.4089057 11.3675136,14.2491237 11.3675136,12.7245283 C11.3675136,10.7234214 10.8590692,8.83407966 9.84285115,7.054826 C8.66750524,4.99052411 7.17484277,4.0921761 5.36432704,4.0921761 C3.71240252,4.0921761 2.48935849,4.65697275 1.69579874,6.05437317 C1.21928721,6.84867086 0.981132075,7.84919078 0.981132075,9.05586583 C0.981132075,10.9937107 1.45757652,12.8042264 2.41039832,14.4873459 C3.55381132,16.5203857 5.06217191,17.5365367 6.93662055,17.5365367 L6.93662055,17.5365367 Z M30.3225157,0 L1.67714885,0 C0.754716981,0 0,0.754716981 0,1.67714885 L0,4.86862893 C2.03726625,3.21388679 4.82555975,2.38577778 8.36588679,2.38577778 L18.1806289,2.38577778 L15.1314382,4.18750524 L12.1775094,4.18750524 C14.4324025,6.0642348 15.5603187,8.07694759 15.5603187,10.4941216 C15.5603187,12.0529979 15.1471363,13.4206122 14.3214423,14.5967631 C13.7811321,15.3605367 12.8603103,16.2516394 11.5581719,17.2685954 C10.6685451,18.159631 10.2241677,18.9391027 10.2241677,19.6068763 C10.2241677,20.3385157 10.6366122,21.0226583 11.4629769,21.658566 L13.1780964,22.9940461 C14.5121006,24.0116059 15.4486876,24.9183396 15.989065,25.7133753 C16.7825577,26.8583983 17.1801761,28.1782474 17.1801761,29.6729895 C17.1801761,30.4883522 17.0585493,31.2637987 16.8163019,31.9995975 L30.3225157,31.9995975 C31.2449476,31.9995975 31.9996646,31.2448805 31.9996646,30.3224486 L31.9996646,1.67714885 C31.9996646,0.754716981 31.2449476,0 30.3225157,0 L30.3225157,0 Z M28.8187841,9.69895178 L24.7876562,9.69895178 L24.7876562,13.309652 L23.012696,13.309652 L23.012696,9.69895178 L19.1828931,9.69895178 L19.1828931,7.8490566 L23.012696,7.8490566 L23.012696,4.22312788 L24.7876562,4.22312788 L24.7876562,7.8490566 L28.8187841,7.8490566 L28.8187841,9.69895178 L28.8187841,9.69895178 Z M5.74557652,20.6937358 C5.74557652,20.2261468 5.9042348,19.6188847 6.22202096,18.8706751 L4.6972914,18.8706751 C2.86644864,18.8706751 1.30086373,18.4227421 0,17.5275472 L0,25.1746751 C1.84412579,24.5120671 4.23574004,24.0782893 7.17477568,23.8733417 C6.22195388,22.658348 5.74557652,21.5982558 5.74557652,20.6937358 L5.74557652,20.6937358 Z"></path>
            </g>
        </g>
    </g>
</svg>