<?xml version="1.0" encoding="UTF-8" standalone="no"?>
<svg width="32px" height="32px" viewBox="0 0 32 32" version="1.1" xmlns="http://www.w3.org/2000/svg" xmlns:xlink="http://www.w3.org/1999/xlink" xmlns:sketch="http://www.bohemiancoding.com/sketch/ns">
    <!-- Generator: Sketch 3.0.2 (7799) - http://www.bohemiancoding.com/sketch -->
    <title>google_analytics</title>
    <description>Created with Sketch.</description>
    <defs></defs>
    <g id="24" stroke="none" stroke-width="1" fill="none" fill-rule="evenodd" sketch:type="MSPage">
        <g id="Brands" sketch:type="MSLayerGroup" transform="translate(-440.000000, 0.000000)" fill="#EB2F12">
            <g id="google_analytics" transform="translate(440.000000, 0.000000)" sketch:type="MSShapeGroup">
                <g id="Shape">
                    <path d="M23.2675556,22.4197818 C23.266198,22.3414303 23.2623192,22.2969535 23.2623192,22.2969535 L23.2621899,22.2972768 C23.2376889,21.8813414 23.1700687,21.4741333 23.0560323,21.0971798 C22.9049535,20.6001131 22.6746182,20.1612283 22.4081455,19.7753535 C22.3691636,19.720404 22.3294061,19.6667475 22.289002,19.6136727 L22.2893899,19.6136727 C22.2893899,19.6136727 22.2851879,19.6083717 22.2785939,19.6005495 C22.1815596,19.4739071 22.0803879,19.3530182 21.9711354,19.2424081 C21.816501,19.0778182 21.6557253,18.9241535 21.4919111,18.7783758 C21.2047515,18.5230222 20.912097,18.2871919 20.6157576,18.066101 C20.6109737,18.0621576 20.606901,18.0587313 20.6021172,18.0547232 C19.2942545,16.9872162 18.625099,16.964396 18.625099,15.7789091 C18.625099,15.2996202 19.0546101,14.5407354 20.2228364,13.6420202 C21.3911919,12.7433697 22.2912646,11.5850343 22.2893899,10.162101 C22.2875798,8.75623434 21.7448727,7.63759192 21.7448727,7.63759192 L21.744097,7.63901414 C21.4396768,6.91820606 20.9662061,6.29611313 20.3721051,5.79633131 L20.3724929,5.79542626 C20.3724929,5.79542626 20.2925899,5.56379798 20.4224646,5.40405657 C20.5522747,5.24425051 21.4608808,3.99612121 21.4608808,3.99612121 C21.4608808,3.99612121 21.6206869,3.76643232 21.5606949,3.64664242 C21.5008323,3.52678788 20.751903,2.91775354 20.751903,2.91775354 C20.751903,2.91775354 20.5921616,2.86784646 20.4124444,3.00761212 C20.2327273,3.14744242 18.3353535,4.30894545 17.8761051,4.35225859 C17.4168566,4.39557172 16.2785616,4.42052525 16.2785616,4.42052525 L16.2785616,4.42330505 C15.7030788,4.43455354 15.1138263,4.51697778 14.5251556,4.68014545 C11.2215273,5.59579798 9.18787879,8.66359596 9.9830303,11.5324121 C10.6648566,13.9931798 13.2065616,15.5065535 16.0007758,15.3100929 C15.8496323,15.5524525 15.6993293,15.932703 15.6993293,16.4880162 C15.6993293,17.4537051 16.4650667,18.3552646 16.6743919,18.5836606 C16.6301091,18.5817859 16.5862788,18.5798465 16.5380525,18.5798465 C16.0137697,18.5798465 14.7106909,18.5947798 13.5654788,18.7764364 C13.5559111,18.7777939 13.5470545,18.7797333 13.5376162,18.7812848 C13.1047434,18.8339717 12.6961131,18.9296485 12.2982788,19.0622384 C11.8780768,19.2054303 11.4692525,19.3808162 11.0540929,19.5806384 C10.8445737,19.6784485 10.6441697,19.7966222 10.4353616,19.9156364 C10.2284283,20.0372364 10.0243394,20.1738343 9.82574545,20.3289212 C9.62728081,20.4838141 9.43340606,20.6565495 9.25446465,20.853398 C9.16389495,20.9506909 9.07752727,21.054901 8.9929697,21.1624081 C8.91222626,21.2726949 8.83387475,21.3869253 8.7616,21.5069737 C8.57748687,21.8146909 8.43565253,22.1607434 8.3464404,22.5219232 C8.20441212,23.0277818 8.06600404,23.7650747 8.17939394,24.4861414 C8.38025051,25.7642667 9.26306263,26.6590384 10.249503,27.3550869 C10.6168889,27.6334545 11.0174384,27.8385131 11.4170828,28.0022626 C11.8398061,28.1794586 12.1215354,28.2395152 12.1215354,28.2395152 L12.1202424,28.2374465 C12.4299636,28.3220687 12.7383273,28.3830303 13.0441697,28.4248566 L13.0438465,28.4263434 C13.0438465,28.4263434 16.7328323,29.064598 19.6336485,27.5916283 C20.1591596,27.324897 20.6069657,27.0345697 20.992,26.7326707 C21.1199354,26.6371879 21.245996,26.5385374 21.3677253,26.4333576 C22.0211071,25.8463677 22.5808162,25.1409455 22.9697939,24.2738424 C23.0164687,24.1660121 23.0620444,24.0441535 23.098699,23.9331556 C23.1213253,23.8547394 23.139297,23.7901576 23.1546182,23.723701 C23.1711677,23.6568566 23.1830626,23.589301 23.1963152,23.5214222 C23.2433778,23.2497778 23.2718869,22.9712808 23.2727273,22.6952404 C23.2733737,22.6031192 23.2711111,22.5113212 23.2675556,22.4197818 L23.2675556,22.4197818 Z M12.6939152,10.9252525 C11.9076202,8.50301414 12.7325737,6.06493737 14.536598,5.4793697 C16.3405576,4.89373737 18.440404,6.3826101 19.2265697,8.80471919 C20.0128646,11.2270222 19.1878465,13.6652283 17.3838869,14.2506667 C15.5800566,14.8362343 13.4800808,13.347297 12.6939152,10.9252525 L12.6939152,10.9252525 Z M11.8231273,25.5609535 C11.6190384,25.3486545 11.4579394,25.1157333 11.3240566,24.8752485 C11.1925657,24.6321778 11.1033535,24.3719111 11.0343111,24.0994909 C11.0176323,24.0314828 11.0043798,23.9608889 10.9921616,23.8915232 L10.9776808,23.7929374 L10.9682424,23.720404 L10.9660444,23.7034667 C10.9668202,23.7090909 10.9688889,23.7229253 10.9673374,23.7109657 L10.9668202,23.7047596 L10.9647515,23.6803232 C10.954602,23.5501253 10.9478141,23.4237414 10.9529212,23.2997495 C10.9556364,23.050602 10.9896404,22.8084364 11.048598,22.5426101 C11.0647596,22.4768 11.0848,22.410602 11.1072323,22.3438222 C11.1281778,22.2757495 11.1503515,22.2065131 11.1783434,22.1379232 C11.2329697,22.0004848 11.2995556,21.860396 11.3788768,21.7217939 C11.5366141,21.4442667 11.7453576,21.1711354 11.9974788,20.9333657 C12.2501818,20.6968242 12.5399273,20.4868525 12.8526222,20.3224566 C13.1635071,20.1557333 13.4923636,20.0159677 13.8185051,19.9298586 C14.0019071,19.8833131 14.1880242,19.8401939 14.3751758,19.799402 C14.5628444,19.761002 14.7523879,19.7289374 14.9423192,19.6965495 C15.3224404,19.6341657 15.7050182,19.5737212 16.0899232,19.5282101 C16.4163232,19.4944 16.7453737,19.4580687 17.0717091,19.4362828 L17.7534707,19.4362828 C17.7534707,19.4362828 17.7635556,19.4440404 17.7801697,19.4568404 C17.7878626,19.4629818 17.7951677,19.4697051 17.8031192,19.4756525 C17.8265859,19.4945939 17.8506343,19.5123071 17.8741657,19.5308606 C18.4231434,19.9664485 20.6769131,21.8176 21.0315636,23.1180283 C21.434699,24.596299 20.1255434,26.6733899 17.6688485,27.0404525 C17.5083313,27.0625616 17.3469737,27.0806626 17.1846465,27.092299 C17.0923313,27.0984404 17.0002747,27.1043879 16.9119677,27.1074263 C16.8284444,27.1110465 16.7123394,27.1151838 16.6311434,27.1155717 C16.2560646,27.1199677 15.8831838,27.1096242 15.5155394,27.0791758 C15.1480242,27.0452364 14.7858747,26.9889293 14.4348444,26.912 C13.7341414,26.7521293 13.0759758,26.496 12.5353374,26.1456808 C12.2642747,25.9725576 12.0277333,25.7713131 11.8231273,25.5609535 L11.8231273,25.5609535 Z"></path>
                    <path d="M27.1515152,1.29292929 C28.0958707,1.29292929 28.9872808,1.66425859 29.6614788,2.33845657 C30.3357414,3.01271919 30.7070707,3.90412929 30.7070707,4.84848485 L30.7070707,27.1515152 C30.7070707,28.0958707 30.3357414,28.9872808 29.6614788,29.6614788 C28.9872808,30.3357414 28.0958707,30.7070707 27.1515152,30.7070707 L4.84848485,30.7070707 C3.90412929,30.7070707 3.01271919,30.3357414 2.33845657,29.6614788 C1.66425859,28.9872808 1.29292929,28.0958707 1.29292929,27.1515152 L1.29292929,4.84848485 C1.29292929,3.90412929 1.66425859,3.01271919 2.33845657,2.33845657 C3.01265455,1.66419394 3.90412929,1.29292929 4.84848485,1.29292929 L27.1515152,1.29292929 L27.1515152,1.29292929 Z M27.1515152,0 L4.84848485,0 C2.18181818,0 0,2.18181818 0,4.84848485 L0,27.1515152 C0,29.8181818 2.18181818,32 4.84848485,32 L27.1515152,32 C29.8181818,32 32,29.8181818 32,27.1515152 L32,4.84848485 C32,2.18181818 29.8181818,0 27.1515152,0 L27.1515152,0 L27.1515152,0 Z"></path>
                </g>
            </g>
        </g>
    </g>
</svg>