<?xml version="1.0" encoding="UTF-8" standalone="no"?>
<svg width="40px" height="40px" viewBox="0 0 40 40" version="1.1" xmlns="http://www.w3.org/2000/svg" xmlns:xlink="http://www.w3.org/1999/xlink" xmlns:sketch="http://www.bohemiancoding.com/sketch/ns">
    <title>Untitled</title>
    <description>Created with Sketch (http://www.bohemiancoding.com/sketch)</description>
    <defs></defs>
    <g id="Page-1" stroke="none" stroke-width="1" fill="none" fill-rule="evenodd" sketch:type="MSPage">
        <path d="M20.4481059,1.93606862 C12.6104936,1.93606862 6.2570942,7.84176217 6.2570942,15.1270804 L6.2570942,36.0775108 C6.2570942,36.9310469 7.00838305,37.6293945 7.92662499,37.6293945 L8.76139039,37.6293945 C9.67963232,37.6293945 10.4309212,36.9310469 10.4309212,36.0775108 C10.4309212,35.2239747 11.18221,34.5256271 12.100452,34.5256271 C13.0186939,34.5256271 13.7699828,35.2239747 13.7699828,36.0775108 C13.7699828,36.9310469 14.5212716,37.6293945 15.4395136,37.6293945 L17.1090444,37.6293945 C18.0272863,37.6293945 18.7785752,36.9310469 18.7785752,36.0775108 C18.7785752,35.2239747 19.529864,34.5256271 20.4481059,34.5256271 C21.3663479,34.5256271 22.1176367,35.2239747 22.1176367,36.0775108 C22.1176367,36.9310469 22.8689256,37.6293945 23.7871675,37.6293945 L25.4566983,37.6293945 C26.3749403,37.6293945 27.1262291,36.9310469 27.1262291,36.0775108 C27.1262291,35.2239747 27.877518,34.5256271 28.7957599,34.5256271 C29.7140019,34.5256271 30.4652907,35.2239747 30.4652907,36.0775108 C30.4652907,36.9310469 31.2165796,37.6293945 32.1348215,37.6293945 L32.9695869,37.6293945 C33.8878288,37.6293945 34.6391177,36.9310469 34.6391177,36.0775108 L34.6391177,15.1270804 C34.6391177,7.84176217 28.2857183,1.93606862 20.4481059,1.93606862 Z M15.5,22 C16.875,22 18,20.9875 18,19.75 L18,15.25 C18,14.0125 16.875,13 15.5,13 C14.125,13 13,14.0125 13,15.25 L13,16.7913944 C13.315781,16.6272851 13.682508,16.5334327 14.0739636,16.5334327 C15.2617674,16.5334327 16.2218908,17.3975439 16.2218908,18.4665673 C16.2218908,19.5355906 15.2617674,20.3997018 14.0739636,20.3997018 C13.6999714,20.3997018 13.3485508,20.3140364 13.0425643,20.1632821 C13.2597465,21.2051896 14.2817485,22 15.5,22 Z M25.5,22 C26.875,22 28,20.9875 28,19.75 L28,15.25 C28,14.0125 26.875,13 25.5,13 C24.125,13 23,14.0125 23,15.25 L23,16.7913944 C23.315781,16.6272851 23.682508,16.5334327 24.0739636,16.5334327 C25.2617674,16.5334327 26.2218908,17.3975439 26.2218908,18.4665673 C26.2218908,19.5355906 25.2617674,20.3997018 24.0739636,20.3997018 C23.6999714,20.3997018 23.3485508,20.3140364 23.0425643,20.1632821 C23.2597465,21.2051896 24.2817485,22 25.5,22 Z" id="Stroke-7544" fill="#000000" sketch:type="MSShapeGroup"></path>
    </g>
</svg>