<?xml version="1.0" encoding="UTF-8" standalone="no"?>
<svg width="36px" height="36px" viewBox="0 0 36 36" version="1.1" xmlns="http://www.w3.org/2000/svg" xmlns:xlink="http://www.w3.org/1999/xlink" xmlns:sketch="http://www.bohemiancoding.com/sketch/ns">
    <!-- Generator: Sketch 3.0.3 (7891) - http://www.bohemiancoding.com/sketch -->
    <title>h1</title>
    <desc>Created with Sketch.</desc>
    <defs></defs>
    <g id="24" stroke="none" stroke-width="1" fill="none" fill-rule="evenodd" sketch:type="MSPage">
        <g id="Icons" sketch:type="MSLayerGroup" transform="translate(-120.000000, -382.000000)" fill="#199EE9">
            <g id="h1" transform="translate(120.000000, 382.000000)" sketch:type="MSShapeGroup">
                <path d="M12.9851541,27.993015 L13.1225631,26.6876292 L14.2218354,26.5502201 C14.9546836,26.4586141 15.3211077,26.229599 15.3211077,25.8631749 L15.3211077,18.5117914 L6.52692931,18.5117914 L6.52692931,26.0692885 C6.52692931,26.3899096 6.91625491,26.5502201 7.69490613,26.5502201 L8.79417843,26.6876292 L8.93158747,27.993015 L0,27.993015 L0.137409038,26.6876292 L1.30538586,26.5502201 C2.03823406,26.4128111 2.40465817,26.183796 2.40465817,25.8631749 L2.40465817,9.92372653 C2.40465817,9.55730243 1.96952954,9.32828737 1.0992723,9.23668134 L0.137409038,9.23668134 L0,8 L8.93158747,8 L8.79417843,9.23668134 L7.69490613,9.4427949 C6.91625491,9.4427949 6.52692931,9.64890846 6.52692931,10.0611356 L6.52692931,17.0689965 L15.3211077,17.0689965 L15.3211077,9.92372653 C15.3211077,9.60310544 14.9546836,9.4427949 14.2218354,9.4427949 L13.1225631,9.23668134 L12.9851541,8 L21.9167416,8 L21.7793325,9.23668134 L20.6113557,9.4427949 C19.8785075,9.58020394 19.5120834,9.78631749 19.5120834,10.0611356 L19.5120834,26.0692885 C19.5120834,26.3899096 19.947212,26.5960231 20.8174693,26.6876292 L21.9167416,26.8250382 L22.0541506,28.1304241 L12.9851541,28.1304241 L12.9851541,27.993015 L12.9851541,27.993015 Z M24.9397404,27.993015 L24.9397404,26.6876292 L27.2069895,26.3441066 C27.6192166,26.2066975 27.8253302,26.000584 27.8253302,25.7257659 L27.8253302,14.6643383 L24.8023314,14.3895203 L24.8023314,13.427657 L31.4666697,11.5039305 L31.4666697,25.7257659 C31.4666697,26.000584 31.6956848,26.2066975 32.1537149,26.3441066 L33.8713279,26.6876292 L33.8713279,27.993015 L24.9397404,27.993015 L24.9397404,27.993015 Z"></path>
            </g>
        </g>
    </g>
</svg>