<?xml version="1.0" encoding="UTF-8" standalone="no"?>
<svg width="36px" height="36px" viewBox="0 0 36 36" version="1.1" xmlns="http://www.w3.org/2000/svg" xmlns:xlink="http://www.w3.org/1999/xlink" xmlns:sketch="http://www.bohemiancoding.com/sketch/ns">
    <!-- Generator: Sketch 3.0.3 (7891) - http://www.bohemiancoding.com/sketch -->
    <title>h2</title>
    <desc>Created with Sketch.</desc>
    <defs></defs>
    <g id="24" stroke="none" stroke-width="1" fill="none" fill-rule="evenodd" sketch:type="MSPage">
        <g id="Icons" sketch:type="MSLayerGroup" transform="translate(-160.000000, -382.000000)" fill="#199EE9">
            <g id="h2" transform="translate(160.000000, 382.000000)" sketch:type="MSShapeGroup">
                <path d="M12.9851541,27.993015 L13.1225631,26.6876292 L14.2218354,26.5502201 C14.9546836,26.4586141 15.3211077,26.229599 15.3211077,25.8631749 L15.3211077,18.5117914 L6.52692931,18.5117914 L6.52692931,26.0692885 C6.52692931,26.3899096 6.91625491,26.5502201 7.69490613,26.5502201 L8.79417843,26.6876292 L8.93158747,27.993015 L0,27.993015 L0.137409038,26.6876292 L1.30538586,26.5502201 C2.03823406,26.4128111 2.40465817,26.183796 2.40465817,25.8631749 L2.40465817,9.92372653 C2.40465817,9.55730243 1.96952954,9.32828737 1.0992723,9.23668134 L0.137409038,9.23668134 L0,8 L8.93158747,8 L8.79417843,9.23668134 L7.69490613,9.4427949 C6.91625491,9.4427949 6.52692931,9.64890846 6.52692931,10.0611356 L6.52692931,17.0689965 L15.3211077,17.0689965 L15.3211077,9.92372653 C15.3211077,9.60310544 14.9088806,9.4427949 14.0844264,9.4427949 L13.1225631,9.23668134 L12.9851541,8 L21.9167416,8 L21.7793325,9.23668134 L20.6113557,9.4427949 C19.8785075,9.58020394 19.5120834,9.78631749 19.5120834,10.0611356 L19.5120834,26.0692885 C19.5120834,26.3899096 19.947212,26.5960231 20.8174693,26.6876292 L21.9167416,26.8250382 L22.0541506,28.1304241 L12.9851541,28.1304241 L12.9851541,27.993015 L12.9851541,27.993015 Z M35.0393047,27.993015 L24.5962178,27.993015 L24.4588088,26.3441066 C24.9168389,25.8402734 25.6038841,25.1417775 26.5199443,24.2486187 C27.4360046,23.35546 28.1001483,22.6913163 28.5123754,22.2561877 C28.9246025,21.8210591 29.3940834,21.2714229 29.920818,20.6072792 C30.4475527,19.9431356 30.8139768,19.3247949 31.0200903,18.7522572 C31.2262039,18.1797196 31.3292607,17.5728296 31.3292607,16.9315875 C31.3292607,16.0613302 31.0773441,15.3857358 30.573511,14.9048042 C30.0696778,14.4238725 29.4284356,14.1834067 28.6497844,14.1834067 C27.5047091,14.1834067 26.2222248,14.7788459 24.8023314,15.9697242 L24.4588088,15.3513835 C25.9703082,12.8780208 27.8940347,11.6413395 30.2299884,11.6413395 C31.6956848,11.6413395 32.8636616,12.0650174 33.7339188,12.9123731 C34.6041761,13.7597288 35.0393047,14.8246489 35.0393047,16.1071332 C35.0393047,17.3438146 34.5240208,18.5346929 33.493453,19.6797682 C32.4628852,20.8248435 30.71092,22.4050475 28.2375573,24.42038 L27.2069895,25.2448343 L27.2069895,25.3822433 L28.9246025,25.3822433 C31.1689501,25.3822433 32.5315898,25.3593418 33.0125214,25.3135388 C33.493453,25.2677358 33.8484264,25.0845237 34.0774414,24.7639026 L34.6957821,23.6646303 L35.7950544,23.6646303 L35.0393047,27.993015 Z"></path>
            </g>
        </g>
    </g>
</svg>