<?xml version="1.0" encoding="UTF-8" standalone="no"?>
<svg width="36px" height="36px" viewBox="0 0 36 36" version="1.1" xmlns="http://www.w3.org/2000/svg" xmlns:xlink="http://www.w3.org/1999/xlink" xmlns:sketch="http://www.bohemiancoding.com/sketch/ns">
    <!-- Generator: Sketch 3.0.3 (7891) - http://www.bohemiancoding.com/sketch -->
    <title>h3</title>
    <desc>Created with Sketch.</desc>
    <defs></defs>
    <g id="24" stroke="none" stroke-width="1" fill="none" fill-rule="evenodd" sketch:type="MSPage">
        <g id="Icons" sketch:type="MSLayerGroup" transform="translate(-200.000000, -382.000000)" fill="#199EE9">
            <g id="h3" transform="translate(200.000000, 382.000000)" sketch:type="MSShapeGroup">
                <path d="M12.9851541,27.993015 L13.1225631,26.6876292 L14.2218354,26.5502201 C14.9546836,26.4586141 15.3211077,26.229599 15.3211077,25.8631749 L15.3211077,18.5117914 L6.52692931,18.5117914 L6.52692931,26.0692885 C6.52692931,26.3899096 6.91625491,26.5502201 7.69490613,26.5502201 L8.79417843,26.6876292 L8.93158747,27.993015 L0,27.993015 L0.137409038,26.6876292 L1.30538586,26.5502201 C2.03823406,26.4128111 2.40465817,26.183796 2.40465817,25.8631749 L2.40465817,9.92372653 C2.40465817,9.55730243 1.96952954,9.32828737 1.0992723,9.23668134 L0.137409038,9.23668134 L0,8 L8.93158747,8 L8.79417843,9.23668134 L7.69490613,9.4427949 C6.91625491,9.4427949 6.52692931,9.64890846 6.52692931,10.0611356 L6.52692931,17.0689965 L15.3211077,17.0689965 L15.3211077,9.92372653 C15.3211077,9.60310544 14.9088806,9.4427949 14.0844264,9.4427949 L13.1225631,9.23668134 L12.9851541,8 L21.9167416,8 L21.7793325,9.23668134 L20.6113557,9.4427949 C19.8785075,9.58020394 19.5120834,9.78631749 19.5120834,10.0611356 L19.5120834,26.0692885 C19.5120834,26.3899096 19.947212,26.5960231 20.8174693,26.6876292 L21.9167416,26.8250382 L22.0541506,28.1304241 L12.9851541,28.1304241 L12.9851541,27.993015 L12.9851541,27.993015 Z M28.6497844,28.6113557 C27.4589061,28.6113557 26.4626906,28.3823406 25.6611378,27.9243105 C24.8595851,27.4662804 24.4588088,26.8479397 24.4588088,26.0692885 C24.4588088,24.9700162 24.9855434,24.42038 26.0390127,24.42038 C26.7260579,24.42038 27.2527925,24.7180996 27.6192166,25.3135388 C27.9856407,25.908978 28.1688528,26.5731216 28.1688528,27.3059698 L28.7871935,27.3059698 C29.6116477,27.3059698 30.2986929,26.973898 30.848329,26.3097543 C31.3979652,25.6456106 31.6727833,24.8097057 31.6727833,23.8020394 C31.6727833,22.8859791 31.4323174,22.2103847 30.9513858,21.7752561 C30.4704542,21.3401274 29.8635643,21.1225631 29.1307161,21.1225631 C28.5352769,21.1225631 27.9398377,21.2828737 27.3443986,21.6034948 L26.8634669,20.6416315 C27.046679,20.5042225 27.3787508,20.2752074 27.8596825,19.9545863 C28.3406141,19.6339652 28.6726859,19.4049502 28.855898,19.2675411 C29.03911,19.1301321 29.3024774,18.9125678 29.646,18.6148482 C29.9895225,18.3171286 30.2414391,18.0766628 30.4017497,17.8934507 C30.5620602,17.7102387 30.6994692,17.4697729 30.8139768,17.1720533 C30.9284843,16.8743337 30.9857381,16.5880649 30.9857381,16.3132468 C30.9857381,14.8933534 30.2070869,14.1834067 28.6497844,14.1834067 C27.4131031,14.1834067 26.1306187,14.7330429 24.8023314,15.8323152 L24.4588088,15.0078609 C25.145854,14.0918007 26.0619142,13.336051 27.2069895,12.7406118 C28.3520648,12.1451726 29.5200417,11.8474531 30.71092,11.8474531 C31.8559953,11.8474531 32.8293093,12.1566234 33.6308621,12.7749641 C34.4324148,13.3933047 34.8331911,14.1376037 34.8331911,15.0078609 C34.8331911,15.5574971 34.6385283,16.0956825 34.2492027,16.6224171 C33.8598771,17.1491518 33.5163545,17.5384774 33.2186349,17.790394 C32.9209154,18.0423105 32.3369269,18.4201854 31.4666697,18.9240185 C30.5964125,19.4278517 30.0696778,19.7255712 29.8864658,19.8171773 L29.8864658,19.9545863 C30.5277079,19.7713743 31.0544426,19.6797682 31.4666697,19.6797682 C32.520139,19.6797682 33.4247485,19.9889386 34.1804982,20.6072792 C34.9362479,21.2256199 35.3141228,22.0844264 35.3141228,23.1836987 C35.4057288,24.6035921 34.7873881,25.8631749 33.4591008,26.9624472 C32.1308134,28.0617196 30.5277079,28.6113557 28.6497844,28.6113557 L28.6497844,28.6113557 Z"></path>
            </g>
        </g>
    </g>
</svg>