<?xml version="1.0" encoding="UTF-8" standalone="no"?>
<svg width="32px" height="32px" viewBox="0 0 32 32" version="1.1" xmlns="http://www.w3.org/2000/svg" xmlns:xlink="http://www.w3.org/1999/xlink" xmlns:sketch="http://www.bohemiancoding.com/sketch/ns">
    <title>home</title>
    <description>Created with Sketch (http://www.bohemiancoding.com/sketch)</description>
    <defs></defs>
    <g id="Page-1" stroke="none" stroke-width="1" fill="none" fill-rule="evenodd" sketch:type="MSPage">
        <g id="noun_project_1144" sketch:type="MSLayerGroup" transform="translate(0.000000, 1.000000)" fill="#000000">
            <g id="Group" sketch:type="MSShapeGroup">
                <path d="M31.5371089,11.2777174 L16.1653861,0.202826087 C16.0031683,0.0857608696 15.7867723,0.0857608696 15.6242376,0.202826087 L0.256316832,11.2777174 C0.153980198,11.3517391 0.0842772277,11.4645652 0.0624158416,11.591087 C0.0408712871,11.7179348 0.0690693069,11.8483696 0.140673267,11.9536957 L2.23366337,15.03 C2.32586139,15.1653261 2.47192079,15.2373913 2.62083168,15.2373913 C2.7139802,15.2373913 2.80839604,15.2090217 2.89077228,15.1493478 L15.8970297,5.77532609 L28.9029703,15.1493478 C29.1171485,15.3032609 29.4108515,15.2494565 29.5600792,15.03 L31.6533861,11.9536957 C31.7246733,11.8483696 31.7531881,11.7176087 31.7310099,11.591087 C31.7097822,11.4645652 31.6397624,11.3517391 31.5371089,11.2777174 C31.5371089,11.2777174 31.6397624,11.3517391 31.5371089,11.2777174 L31.5371089,11.2777174 L31.5371089,11.2777174 Z M31.5371089,11.2777174" id="Shape"></path>
                <path d="M27.7180198,16.2006522 L16.1672871,7.87597826 C16.0050693,7.75891304 15.7886733,7.75891304 15.6264554,7.87597826 L4.01425743,16.245 C3.88815842,16.3356522 3.81306931,16.4840217 3.81306931,16.6428261 L3.81306931,29.5079348 C3.81306931,29.7756522 4.02439604,29.9934783 4.28483168,29.9934783 L12.3646733,29.9934783 C12.6251089,29.9934783 12.8364356,29.7756522 12.8364356,29.5079348 L12.8364356,18.2967391 L18.9576238,18.2967391 L18.9576238,29.5079348 C18.9576238,29.7756522 19.1686337,29.9934783 19.4293861,29.9934783 L27.4477624,29.9934783 C27.7085149,29.9934783 27.9188911,29.7756522 27.9188911,29.5079348 L27.9188911,16.5978261 C27.9188911,16.4396739 27.8447525,16.2919565 27.7180198,16.2006522 C27.7180198,16.2006522 27.8447525,16.2919565 27.7180198,16.2006522 L27.7180198,16.2006522 L27.7180198,16.2006522 Z M27.7180198,16.2006522" id="Shape"></path>
                <path d="M23.521901,3.84228261 L27.137901,6.44771739 C27.2183762,6.50576087 27.3127921,6.53543478 27.4081584,6.53543478 C27.4829307,6.53543478 27.557703,6.51717391 27.6261386,6.48065217 C27.781703,6.39717391 27.8799208,6.23119565 27.8799208,6.0498913 L27.8799208,0.552065217 C27.8799208,0.284021739 27.6685941,0.0668478261 27.4081584,0.0668478261 L23.7921584,0.0668478261 C23.5314059,0.0668478261 23.3207129,0.284347826 23.3207129,0.552065217 L23.3207129,3.44478261 C23.320396,3.6026087 23.3954851,3.75130435 23.521901,3.84228261 C23.521901,3.84228261 23.3954851,3.75130435 23.521901,3.84228261 L23.521901,3.84228261 L23.521901,3.84228261 Z M23.521901,3.84228261" id="Shape"></path>
            </g>
        </g>
    </g>
</svg>