<?xml version="1.0" encoding="UTF-8" standalone="no"?>
<svg width="422px" height="215px" viewBox="0 0 422 215" version="1.1" xmlns="http://www.w3.org/2000/svg" xmlns:xlink="http://www.w3.org/1999/xlink" xmlns:sketch="http://www.bohemiancoding.com/sketch/ns">
    <title>Slice 1</title>
    <description>Created with Sketch (http://www.bohemiancoding.com/sketch)</description>
    <defs></defs>
    <g id="Page 1" stroke="none" stroke-width="1" fill="none" fill-rule="evenodd">
        <g id="Layer_1" transform="translate(-1.000000, -4.000000)">
            <path d="M422.68386,20.4049123 C422.410462,15.0759281 421.855624,11.0168978 421.501814,8.25193465 C421.123881,5.47089611 420.922853,4 420.922853,4 C420.922853,4 420.673578,5.47089611 420.18307,8.21174623 C419.974,9.58619014 419.68452,11.2821414 419.354834,13.2754869 C418.952777,15.2366817 418.526598,17.4791955 418.108459,19.9708774 C417.167647,24.9542413 415.784574,30.9342779 414.007485,37.5573292 C412.198231,44.1562675 409.818058,51.3580321 406.649854,58.5678343 C403.457527,65.7695989 399.461088,72.9874388 394.395178,79.4336611 C389.33731,85.9120341 383.322548,91.6589779 376.334809,96.4655127 C369.395317,101.296161 361.587384,105.186399 353.256777,108.441661 C344.934212,111.67281 336.080932,114.317208 327.018583,116.575797 C317.988398,118.99514 308.708939,120.940259 299.485767,123.198849 C290.22239,125.360985 280.999218,127.796404 272.049445,130.754271 C263.067507,133.720176 254.334844,137.321059 246.277636,142.063292 C238.252592,146.78945 230.88692,152.785562 225.201844,159.979289 C219.452439,167.060488 215.729398,175.34734 213.598499,182.758084 C212.874798,185.297992 212.400372,187.709298 211.998315,190.072377 C211.6043,187.709298 211.10575,185.297992 210.39009,182.77416 C208.259192,175.371453 204.552232,167.084601 198.786745,160.003402 C193.125792,152.817713 185.760121,146.837676 177.735077,142.095443 C169.669828,137.353209 160.945206,133.768403 151.97935,130.786422 C143.005453,127.812479 133.782282,125.409212 124.534987,123.230999 C115.303774,120.964372 106.032356,118.99514 96.9860888,116.575797 C87.9317808,114.325246 79.0945833,111.67281 70.7639767,108.417548 C62.43337,105.138173 54.6334777,101.26401 47.6939859,96.433362 C40.7303707,91.6268272 34.6995262,85.863808 29.6416578,79.4015103 C24.5677073,72.9633257 20.5873499,65.7454858 17.4030639,58.5517589 C14.218778,51.3419567 11.8386047,44.1401922 10.0454336,37.5573292 C8.26834471,30.9423156 6.88527102,24.9703166 5.92837702,19.9708774 C5.48611508,17.4631201 5.06797652,15.204531 4.66592022,13.2513739 C4.3523163,11.2741037 4.05479464,9.59422782 3.83768423,8.21978392 C3.35521667,5.47089611 3.10594176,4.00803768 3.10594176,4.00803768 C3.10594176,4.00803768 2.88883135,5.48697148 2.5028573,8.25997234 C2.14100663,11.0410109 1.59421005,15.1402295 1.32885289,20.4290254 C1.03133123,25.7097835 0.814220824,32.1961943 1.23235938,39.6873154 C1.64245681,47.1945119 2.71996771,55.7144566 4.96344189,64.8854537 C7.23103944,74.0082246 10.7530527,83.806161 16.0923604,93.0494972 C21.4316681,102.276758 28.4435301,110.933343 36.6535198,117.902015 C40.7223296,121.430558 45.0725788,124.605443 49.5836505,127.354331 C54.0625578,130.183596 58.7183698,132.643127 63.4465519,134.732925 C72.8868339,139.105425 82.6407199,142.079367 92.2579067,144.635351 C101.907258,147.038618 111.468157,148.983738 120.763699,150.615387 C125.371264,151.435231 129.954706,152.239 134.457736,153.03473 C138.896438,153.878687 143.270811,154.730682 147.572813,155.542488 C156.072283,157.350966 164.105368,159.336274 171.302176,162.085162 C178.515066,164.817975 184.907761,168.242028 190.094288,172.60649 C200.67641,181.118397 206.039841,193.866163 208.645166,203.35063 C209.296497,205.74586 209.843293,207.907997 210.237309,209.820965 C210.695653,211.709821 211.041421,213.397734 211.250491,214.788254 C211.740999,217.537142 212.006356,219 212.006356,219 C212.006356,219 212.271714,217.529104 212.778304,214.804329 C212.971291,213.421848 213.325101,211.774122 213.775404,209.845078 C214.185502,207.916034 214.740339,205.74586 215.39167,203.358668 C216.726497,198.616434 218.688532,193.070433 221.67179,187.612845 C224.695253,182.195447 228.643446,176.866462 233.926466,172.638641 C239.121034,168.274178 245.529811,164.842088 252.710537,162.117313 C259.931468,159.368425 267.948471,157.375079 276.4399,155.590714 C280.757984,154.762832 285.124316,153.910838 289.554976,153.066881 C294.074089,152.263113 298.64949,151.451307 303.249014,150.631463 C312.544556,148.999813 322.105455,147.054694 331.738724,144.635351 C341.380034,142.079367 351.13392,139.081311 360.55812,134.708812 C365.286302,132.627051 369.934073,130.13537 374.437103,127.32218 C378.940134,124.573292 383.290383,121.406445 387.33507,117.869864 C395.545059,110.901193 402.573003,102.244607 407.888188,93.0173464 C413.251619,83.7820479 416.75755,73.9760739 419.025147,64.8693783 C421.260581,55.7144566 422.338091,47.1864743 422.764271,39.6873154 C423.18241,32.1801189 422.97334,25.7097835 422.68386,20.4049123" id="Shape" fill="#242A33"></path>
            <path d="M212.002278,158 C212.002278,158 211.833676,157.033861 211.496472,155.2304 C211.376042,154.32867 211.151239,153.225661 210.854179,151.985782 C210.597261,150.729801 210.244,149.312796 209.818481,147.74282 C208.124432,141.519271 204.63999,133.162165 197.783509,127.566608 C194.411468,124.708445 190.252619,122.45412 185.579935,120.674813 C180.899222,118.871353 175.688617,117.567064 170.172922,116.391595 C167.362889,115.860218 164.536798,115.304688 161.654507,114.749158 C158.724043,114.233883 155.753436,113.686404 152.758743,113.155028 C146.729214,112.084223 140.523055,110.828242 134.252666,109.242163 C128.006363,107.55947 121.679773,105.611089 115.537843,102.736824 C112.47892,101.376178 109.460142,99.7578941 106.537707,97.8900246 C103.623301,96.0865643 100.789181,94.0174156 98.1557783,91.6906298 C92.8167146,87.125621 88.2644604,81.4495518 84.8041049,75.3950779 C81.327692,69.3245018 79.0475505,62.9077257 77.5783044,56.9337635 C76.117087,50.9195455 75.418593,45.3320391 75.153647,40.4047279 C74.8806723,35.4854679 75.0171596,31.2344544 75.2098476,27.7644036 C75.3784497,24.3024039 75.7397397,21.6133158 75.9805997,19.7937532 C76.237517,17.9661394 76.357947,17 76.357947,17 C76.357947,17 76.5345777,17.9661394 76.8476957,19.7776509 C76.9922117,20.6552275 77.1688424,21.7743391 77.3775878,23.0705761 C77.6505624,24.3587621 77.9235371,25.8321247 78.2045405,27.4745618 C78.8227478,30.7513847 79.7219586,34.6723006 80.870058,39.0118769 C82.0342147,43.3353509 83.5917761,48.0533318 85.6471149,52.7874151 C87.718511,57.505396 90.3117705,62.2394792 93.5954954,66.450237 C96.8711915,70.6931993 100.79721,74.4691943 105.325378,77.6252498 C109.813403,80.81351 114.895549,83.3415748 120.298842,85.4992862 C125.710164,87.6086907 131.442632,89.3557928 137.319616,90.8452578 C143.196601,92.4393879 149.218101,93.7195226 155.215516,95.2009364 C161.21293,96.6340433 167.202316,98.2201222 173.031128,100.160452 C178.851912,102.100782 184.512122,104.475875 189.754841,107.591675 C194.965446,110.691372 199.742503,114.604237 203.419633,119.330269 C207.160992,123.975789 209.569592,129.402273 210.950523,134.257123 C211.424214,135.907611 211.745361,137.49369 211.994249,139.023411 C212.251167,137.49369 212.564285,135.907611 213.037976,134.241021 C214.410878,129.378119 216.827507,123.959687 220.568866,119.306115 C224.245995,114.588135 229.03911,110.67527 234.257743,107.55947 C239.476377,104.451722 245.144616,102.076629 250.989486,100.14435 C256.802241,98.2040199 262.791626,96.6018386 268.797069,95.1928853 C274.778426,93.7034203 280.815984,92.4393879 286.68494,90.8452578 C292.569953,89.3557928 298.302421,87.6328442 303.713743,85.5073374 C309.125064,83.3818306 314.207211,80.81351 318.695235,77.6494033 C323.215375,74.4933478 327.149422,70.7334551 330.425118,66.4824416 C333.7249,62.2555816 336.294074,57.5214983 338.36547,52.7954662 C340.436866,48.061383 341.986399,43.3514532 343.150556,39.0118769 C344.314712,34.6803517 345.197866,30.7594358 345.816073,27.4826129 C346.097076,25.848227 346.362022,24.3748644 346.634997,23.0947296 C346.835714,21.7904414 347.028402,20.6713299 347.164889,19.7776509 C347.486036,17.9661394 347.654638,17 347.654638,17 C347.654638,17 347.775068,17.9661394 348.031985,19.7937532 C348.280874,21.6052647 348.626106,24.2701993 348.802737,27.7644036 C348.987396,31.2425056 349.115855,35.4854679 348.84288,40.4047279 C348.577934,45.3239879 347.87944,50.9114943 346.426252,56.9176612 C344.940948,62.8996745 342.668835,69.3164506 339.200451,75.3789756 C335.740096,81.4334494 331.179813,87.1095186 325.864835,91.6664763 C323.231432,93.9932621 320.397313,96.0704619 317.474878,97.8658711 C314.560472,99.7176383 311.549722,101.360075 308.474742,102.728773 C302.348869,105.586935 296.022279,107.55947 289.784005,109.242163 C283.497559,110.828242 277.291399,112.100325 271.269899,113.17113 C268.275206,113.702507 265.304599,114.249986 262.374136,114.773311 C259.491844,115.328841 256.665753,115.87632 253.85572,116.415748 C248.331997,117.591218 243.12942,118.895506 238.456736,120.698966 C233.784052,122.486324 229.609145,124.732599 226.253162,127.590761 C222.816893,130.368412 220.231662,133.870668 218.272667,137.413179 C216.337758,140.995946 215.069229,144.635071 214.194104,147.74282 C213.776613,149.304745 213.423352,150.729801 213.166435,152.001884 C212.853317,153.257866 212.644571,154.344772 212.516113,155.238451 C212.178909,157.033861 212.002278,158 212.002278,158" id="Shape" fill="#77767D"></path>
        </g>
    </g>
</svg>