<?xml version="1.0" encoding="UTF-8" standalone="no"?>
<svg width="36px" height="36px" viewBox="0 0 36 36" version="1.1" xmlns="http://www.w3.org/2000/svg" xmlns:xlink="http://www.w3.org/1999/xlink" xmlns:sketch="http://www.bohemiancoding.com/sketch/ns">
    <!-- Generator: Sketch 3.0.2 (7799) - http://www.bohemiancoding.com/sketch -->
    <title>hull</title>
    <description>Created with Sketch.</description>
    <defs></defs>
    <g id="24" stroke="none" stroke-width="1" fill="none" fill-rule="evenodd" sketch:type="MSPage">
        <g id="Brands" sketch:type="MSLayerGroup" transform="translate(-200.000000, -40.000000)">
            <g id="hull" transform="translate(200.000000, 40.000000)" sketch:type="MSShapeGroup">
                <g transform="translate(0.000000, 9.000000)" id="Shape">
                    <path d="M35.9730307,1.37343452 C35.9497077,0.927287004 35.9023755,0.587461211 35.8721927,0.355975924 C35.8399519,0.123144791 35.8228026,0 35.8228026,0 C35.8228026,0 35.8015375,0.123144791 35.7596932,0.352611312 C35.7418578,0.467681035 35.7171628,0.609667652 35.689038,0.776552392 C35.6547393,0.940745445 35.6183828,1.12849079 35.5827121,1.33709671 C35.5024533,1.75430857 35.384466,2.2549628 35.232866,2.80945082 C35.0785221,3.36192007 34.8754741,3.9648585 34.6052008,4.56846985 C34.3328696,5.17140828 33.9919412,5.77569255 33.5597782,6.31537628 C33.1283013,6.85775169 32.6151937,7.33889117 32.0190832,7.74129874 C31.4270887,8.14572511 30.7610091,8.47141945 30.0503412,8.74395301 C29.3403593,9.01446781 28.5851032,9.23585927 27.8120118,9.42495045 C27.0416643,9.62750009 26.2500517,9.79034727 25.4632408,9.97943852 C24.6730001,10.1604546 23.8861892,10.3643501 23.1227015,10.6119855 C22.3564698,10.8602938 21.6115033,11.1617631 20.9241585,11.5587872 C20.2395576,11.9544656 19.6112064,12.4564657 19.1262237,13.0587312 C18.6357531,13.6515757 18.3181477,14.3453587 18.1363648,14.9657931 C18.0746273,15.1784365 18.034155,15.3803133 17.9998563,15.5781525 C17.9662436,15.3803133 17.9237133,15.1784365 17.8626617,14.967139 C17.6808789,14.3473775 17.3646454,13.6535945 16.8728029,13.0607499 C16.389878,12.4591574 15.7615269,11.9585031 15.076926,11.5614789 C14.3888953,11.1644547 13.6446147,10.8643314 12.879755,10.6146772 C12.1142093,10.3656959 11.3273985,10.1644922 10.5385297,9.98213015 C9.75103285,9.79236603 8.9601062,9.62750009 8.18838672,9.42495045 C7.4159813,9.23653222 6.66209715,9.01446781 5.95142929,8.74193425 C5.24076142,8.46738193 4.57536777,8.1430334 3.9833732,7.73860705 C3.38932072,7.33619949 2.8748411,6.85371416 2.44336417,6.31268458 C2.01051531,5.77367378 1.67095876,5.16938951 1.39931351,4.567124 C1.12766827,3.96351265 0.924620306,3.36057423 0.771648364,2.80945082 C0.620048364,2.25563572 0.502061035,1.75565441 0.420430267,1.33709671 C0.38270176,1.12714494 0.347031172,0.938053758 0.312732531,0.774533629 C0.28597959,0.608994728 0.260598595,0.468353957 0.242077328,0.353284235 C0.200918958,0.123144791 0.179653799,0.000672922047 0.179653799,0.000672922047 C0.179653799,0.000672922047 0.161132532,0.124490636 0.128205836,0.356648847 C0.0973370585,0.589479982 0.0506909047,0.932670377 0.028053801,1.37545329 C0.00267280635,1.81756327 -0.0158484605,2.36061162 0.0198221272,2.98777524 C0.0548067421,3.61628472 0.146727103,4.32958241 0.338113526,5.09738682 C0.531557867,5.86115369 0.832013974,6.68144604 1.28749994,7.45530674 C1.7429859,8.2278216 2.34115423,8.95255895 3.04153249,9.53598265 C3.38863475,9.83139555 3.75974606,10.0971999 4.14457682,10.3273393 C4.5266637,10.564208 4.92384197,10.7701223 5.327194,10.9450821 C6.13252611,11.3111519 6.96461118,11.5601331 7.78503469,11.7741224 C8.6082021,11.9753262 9.42382382,12.1381734 10.2168084,12.2747766 C10.6098709,12.3434147 11.0008754,12.410707 11.3850201,12.4773262 C11.7636772,12.5479831 12.1368464,12.6193129 12.5038419,12.6872781 C13.2289151,12.8386855 13.914202,13.0048974 14.5281477,13.2350368 C15.1434653,13.4638305 15.6888137,13.7504954 16.1312663,14.1158922 C17.0340065,14.828517 17.4915504,15.8957718 17.7138056,16.6898202 C17.7693694,16.8903511 17.8160155,17.0713672 17.8496283,17.2315227 C17.8887287,17.3896594 17.9182255,17.5309731 17.9360608,17.6473887 C17.9779051,17.8775282 18.0005422,18 18.0005422,18 C18.0005422,18 18.0231794,17.8768552 18.0663956,17.6487345 C18.0828589,17.5329919 18.1130418,17.3950428 18.1514563,17.2335414 C18.1864409,17.0720401 18.233773,16.8903511 18.2893368,16.6904931 C18.4032083,16.2934689 18.5705857,15.8291525 18.8250816,15.3722382 C19.0830074,14.9186886 19.41982,14.472541 19.8705042,14.1185839 C20.3136427,13.753187 20.860363,13.4658492 21.4729368,13.2377285 C22.0889404,13.0075891 22.7728553,12.8407043 23.4972427,12.6913156 C23.86561,12.6220045 24.2380933,12.5506748 24.6160643,12.4800179 C25.0015811,12.4127257 25.3918996,12.3447606 25.7842761,12.2761225 C26.5772607,12.1395192 27.3928824,11.9766721 28.2146779,11.7741224 C29.0371593,11.5601331 29.8692444,11.309133 30.6732045,10.9430633 C31.0765566,10.7687764 31.4730489,10.5601705 31.8571936,10.3246476 C32.2413384,10.0945082 32.6124497,9.82937679 32.9574941,9.53329094 C33.6578723,8.94986732 34.2574126,8.22512989 34.7108407,7.45261505 C35.1683846,6.67942727 35.4674687,5.858462 35.660913,5.09604097 C35.8516135,4.32958241 35.9435338,3.6156118 35.9798904,2.98777524 C36.015561,2.35926577 35.9977257,1.81756327 35.9730307,1.37343452" fill="#242A33"></path>
                    <path d="M18.0001943,12.8930233 C18.0001943,12.8930233 17.9858112,12.8121372 17.957045,12.6611498 C17.9467714,12.5856561 17.9275938,12.4933112 17.9022522,12.3895073 C17.8803351,12.2843554 17.8501991,12.1657225 17.8138989,12.0342826 C17.6693828,11.5132413 17.3721318,10.8135766 16.7872188,10.3451114 C16.4995565,10.1058233 16.1447732,9.91708912 15.7461556,9.76812388 C15.3468531,9.61713653 14.9023465,9.50794024 14.4318133,9.40952888 C14.1920948,9.36504151 13.9510065,9.31853202 13.7051238,9.27202253 C13.4551316,9.22888323 13.2017149,9.18304778 12.9462435,9.13856048 C12.4318761,9.04891169 11.9024407,8.9437598 11.367526,8.81097179 C10.834666,8.67009516 10.2949569,8.50697489 9.77100082,8.26633875 C9.51005005,8.1524242 9.25252396,8.01693997 9.00321671,7.8605602 C8.7545944,7.70957283 8.51282113,7.53634177 8.28817066,7.3415411 C7.83270551,6.95935432 7.44436155,6.48414852 7.14916535,5.97726234 C6.85259932,5.46902806 6.65808488,4.93180959 6.53274635,4.43166392 C6.40809273,3.928148 6.34850556,3.46035676 6.32590354,3.04783768 C6.30261659,2.63599266 6.31426006,2.28009386 6.3306979,1.98957798 C6.34508102,1.69973614 6.37590196,1.47460318 6.39644926,1.32226771 C6.41836638,1.16925818 6.42864003,1.08837209 6.42864003,1.08837209 C6.42864003,1.08837209 6.44370805,1.16925818 6.47041954,1.32091961 C6.48274792,1.39439114 6.49781594,1.4880842 6.5156236,1.59660637 C6.53891054,1.7044545 6.56219748,1.82780579 6.58616933,1.96531215 C6.6389074,2.23965081 6.71561732,2.56791354 6.81355945,2.9312269 C6.9128714,3.29319217 7.04574393,3.68818592 7.22108089,4.08452778 C7.39778767,4.47952153 7.6190136,4.87586337 7.89914179,5.22839193 C8.17858506,5.58361669 8.51350607,5.8997465 8.89979528,6.1639744 C9.28265997,6.43089851 9.71620797,6.64255045 10.1771524,6.82319605 C10.6387818,6.99979736 11.1278075,7.14606637 11.6291616,7.27076577 C12.1305157,7.40422782 12.6441982,7.51140189 13.155826,7.63542723 C13.6674537,7.75540828 14.1783966,7.88819628 14.6756413,8.05064249 C15.172201,8.21308873 15.6550625,8.41193372 16.1023087,8.6727914 C16.5468153,8.93230091 16.9543367,9.25988961 17.2680256,9.6555574 C17.5871936,10.0444847 17.7926666,10.4987949 17.9104712,10.9052475 C17.9508808,11.0434279 17.9782772,11.1762159 17.9995094,11.3042856 C18.0214266,11.1762159 18.0481381,11.0434279 18.0885477,10.9038994 C18.2056673,10.4967728 18.4118252,10.0431366 18.7309933,9.65353521 C19.044682,9.25854153 19.4535734,8.93095284 19.8987648,8.67009516 C20.3439563,8.40991161 20.8275028,8.21106661 21.3261173,8.04929442 C21.8219921,7.88684818 22.3329349,7.75271207 22.8452476,7.63475319 C23.3555055,7.51005379 23.8705579,7.40422782 24.3712271,7.27076577 C24.8732661,7.14606637 25.3622918,7.00181951 25.8239212,6.82387011 C26.2855505,6.6459207 26.7190986,6.43089851 27.1019632,6.16599656 C27.4875675,5.90176865 27.8231734,5.58698694 28.1026167,5.23108813 C28.3841147,4.87721148 28.6032859,4.48086963 28.7799927,4.08520182 C28.9566995,3.68885997 29.0888871,3.29454027 29.1881991,2.9312269 C29.287511,2.56858758 29.3628511,2.24032486 29.4155892,1.9659862 C29.439561,1.82915389 29.462163,1.7058026 29.48545,1.59862852 C29.5025728,1.4894323 29.5190106,1.39573925 29.530654,1.32091961 C29.5580505,1.16925818 29.5724336,1.08837209 29.5724336,1.08837209 C29.5724336,1.08837209 29.5827072,1.16925818 29.6046243,1.32226771 C29.6258565,1.47392914 29.6553076,1.69703994 29.6703757,1.98957798 C29.6861286,2.28076791 29.6970872,2.63599266 29.6738002,3.04783768 C29.6511982,3.45968271 29.591611,3.92747394 29.4676424,4.43031582 C29.340934,4.93113554 29.1471044,5.468354 28.8512233,5.97591424 C28.5560271,6.48280041 28.1669983,6.95800621 27.7135878,7.33951895 C27.4889373,7.53431962 27.2471641,7.70822472 26.9978569,7.85853805 C26.7492346,8.01356972 26.4923933,8.15107605 26.2300728,8.26566472 C25.7074865,8.5049527 25.1677774,8.67009516 24.6356023,8.81097179 C24.0993178,8.9437598 23.5698824,9.05025977 23.0561999,9.13990856 C22.8007285,9.18439593 22.5473118,9.23023139 22.2973197,9.27404464 C22.0514369,9.32055413 21.8103486,9.36638958 21.5706301,9.411551 C21.0994121,9.50996244 20.6555903,9.61915864 20.2569727,9.77014599 C19.8583551,9.91978527 19.5022019,10.1078455 19.2159096,10.3471335 C18.9227681,10.579681 18.7022271,10.8728931 18.535109,11.1694755 C18.3700457,11.469428 18.26183,11.774099 18.1871747,12.0342826 C18.1515594,12.1650484 18.1214234,12.2843554 18.0995063,12.3908554 C18.0727948,12.4960074 18.0549871,12.5870042 18.0440286,12.6618238 C18.0152624,12.8121372 18.0001943,12.8930233 18.0001943,12.8930233" fill="#77767D"></path>
                </g>
            </g>
        </g>
    </g>
</svg>