<?xml version="1.0" encoding="UTF-8" standalone="no"?>
<svg width="15px" height="15px" viewBox="0 0 15 15" version="1.1" xmlns="http://www.w3.org/2000/svg" xmlns:xlink="http://www.w3.org/1999/xlink" xmlns:sketch="http://www.bohemiancoding.com/sketch/ns">
    <!-- Generator: Sketch 3.2.2 (9983) - http://www.bohemiancoding.com/sketch -->
    <title>image</title>
    <desc>Created with Sketch.</desc>
    <defs></defs>
    <g id="Page-1" stroke="none" stroke-width="1" fill="none" fill-rule="evenodd" sketch:type="MSPage">
        <g id="image" sketch:type="MSLayerGroup" stroke="#231F1F">
            <path d="M14.5,14.5 L0.5,14.5 L0.5,0.5 L14.5,0.5 L14.5,14.5 Z" id="Stroke-2520" sketch:type="MSShapeGroup"></path>
            <path d="M5.21428571,2 C4.325,2 3.59321429,2.7304 3.45714286,3.6836 C3.33678571,3.6312 3.20785714,3.6 3.07142857,3.6 C2.47964286,3.6 2,4.1376 2,4.8 C2,5.4624 2.47964286,6 3.07142857,6 L5.21428571,6 C6.20035714,6 7,5.1048 7,4 C7,2.8952 6.20035714,2 5.21428571,2 L5.21428571,2 Z" id="Stroke-2522" sketch:type="MSShapeGroup"></path>
            <path d="M1.82608696,12.3478261 C1.82608696,12.3478261 3.04347826,9.30434783 4.56521739,9.30434783 C6.08695652,9.30434783 7.30434783,11.1304348 7.30434783,11.1304348 L9.13926087,7.98469565 C9.32217391,7.67121739 9.65817391,7.47826087 10.0212609,7.47826087 C10.4077826,7.47826087 10.7611304,7.69678261 10.9343043,8.04252174 L13.0869565,12.3478261" id="Stroke-2523" stroke-linejoin="round" sketch:type="MSShapeGroup"></path>
        </g>
        <g id="Group" sketch:type="MSLayerGroup" transform="translate(-20.000000, 0.000000)"></g>
    </g>
</svg>