<?xml version="1.0" encoding="UTF-8" standalone="no"?>
<svg width="36px" height="36px" viewBox="0 0 36 36" version="1.1" xmlns="http://www.w3.org/2000/svg" xmlns:xlink="http://www.w3.org/1999/xlink" xmlns:sketch="http://www.bohemiancoding.com/sketch/ns">
    <!-- Generator: Sketch 3.0.2 (7799) - http://www.bohemiancoding.com/sketch -->
    <title>image</title>
    <description>Created with Sketch.</description>
    <defs></defs>
    <g id="24" stroke="none" stroke-width="1" fill="none" fill-rule="evenodd" sketch:type="MSPage">
        <g id="Icons" sketch:type="MSLayerGroup" transform="translate(-280.000000, -160.000000)" stroke="#0093E6" stroke-width="2">
            <g id="image" transform="translate(280.000000, 160.000000)" sketch:type="MSShapeGroup">
                <path d="M23.6666667,23.6666667 L18.8095238,11.5238095 L14.7619048,20.4285714 L10.7142857,15.5714286 L5.85714286,23.6666667" id="Stroke-2524" stroke-linejoin="round"></path>
                <path d="M28.5238095,28.5238095 L1,28.5238095 L1,1 L28.5238095,1 L28.5238095,28.5238095 Z" id="Stroke-2525"></path>
                <path d="M31.7753429,10.5205667 L34.9996762,10.8144238 L32.7937238,34.9997571 L8.60839048,32.7938048" id="Stroke-2526" stroke-linecap="round"></path>
                <path d="M1,23 L28.5238095,23" id="Stroke-2527"></path>
                <path d="M10.7142857,8.28571429 C10.7142857,9.62709524 9.62709524,10.7142857 8.28571429,10.7142857 C6.94433333,10.7142857 5.85714286,9.62709524 5.85714286,8.28571429 C5.85714286,6.94514286 6.94433333,5.85714286 8.28571429,5.85714286 C9.62709524,5.85714286 10.7142857,6.94514286 10.7142857,8.28571429 L10.7142857,8.28571429 Z" id="Stroke-2528" stroke-linejoin="round"></path>
            </g>
        </g>
    </g>
</svg>