<?xml version="1.0" encoding="UTF-8" standalone="no"?>
<svg width="32px" height="32px" viewBox="0 0 32 32" version="1.1" xmlns="http://www.w3.org/2000/svg" xmlns:xlink="http://www.w3.org/1999/xlink" xmlns:sketch="http://www.bohemiancoding.com/sketch/ns">
    <!-- Generator: Sketch 3.0.2 (7799) - http://www.bohemiancoding.com/sketch -->
    <title>instagram</title>
    <description>Created with Sketch.</description>
    <defs></defs>
    <g id="24" stroke="none" stroke-width="1" fill="none" fill-rule="evenodd" sketch:type="MSPage">
        <g id="Brands" sketch:type="MSLayerGroup" transform="translate(-120.000000, 0.000000)" fill="#517FA4">
            <g id="instagram" transform="translate(120.000000, 0.000000)" sketch:type="MSShapeGroup">
                <path d="M25.8157173,0 L6.18428272,0 C2.7742456,0 0,2.77365608 0,6.18376198 L0,12.7160867 L0,25.816238 C0,29.2263439 2.7742456,32 6.18428272,32 L25.8163628,32 C29.2263999,32 32,29.2263439 32,25.816238 L32,12.7154413 L32,6.18311649 C31.9993545,2.77301059 29.2257544,0 25.8157173,0 L25.8157173,0 Z M27.6781322,3.54816 L28.3795722,3.5456 L28.3795722,4.24384 L28.3795722,8.92352 L23.0195722,8.9408 L23.0010122,3.56352 L27.6781322,3.54816 L27.6781322,3.54816 Z M11.6582922,12.4992 C12.6746122,11.09312 14.3232522,10.17088 16.1869322,10.17088 C18.0506122,10.17088 19.6992522,11.09312 20.7142922,12.4992 C21.3754122,13.41696 21.7715722,14.53952 21.7715722,15.75552 C21.7715722,18.83456 19.2640522,21.33952 16.1862922,21.33952 C13.1066122,21.33952 10.6016522,18.83456 10.6016522,15.75552 C10.6022922,14.53952 10.9971722,13.41696 11.6582922,12.4992 L11.6582922,12.4992 Z M28.9594122,25.488 C28.9594122,27.16544 27.5955722,28.528 25.9194122,28.528 L6.45445224,28.528 C4.77765224,28.528 3.41381224,27.16544 3.41381224,25.488 L3.41381224,12.4992 L8.14981224,12.4992 C7.74085224,13.50528 7.51109224,14.60416 7.51109224,15.75552 C7.51109224,20.53824 11.4022922,24.432 16.1869322,24.432 C20.9709322,24.432 24.8621322,20.53824 24.8621322,15.75552 C24.8621322,14.60416 24.6310922,13.50528 24.2221322,12.4992 L28.9594122,12.4992 L28.9594122,25.488 L28.9594122,25.488 Z"></path>
            </g>
        </g>
    </g>
</svg>