<?xml version="1.0" encoding="UTF-8" standalone="no"?>
<svg width="48px" height="48px" viewBox="0 0 48 48" version="1.1" xmlns="http://www.w3.org/2000/svg" xmlns:xlink="http://www.w3.org/1999/xlink" xmlns:sketch="http://www.bohemiancoding.com/sketch/ns">
    <!-- Generator: Sketch 3.2.2 (9983) - http://www.bohemiancoding.com/sketch -->
    <title>instant_win</title>
    <desc>Created with Sketch.</desc>
    <defs></defs>
    <g id="Icons" stroke="none" stroke-width="1" fill="none" fill-rule="evenodd" sketch:type="MSPage">
        <g id="instant_win" sketch:type="MSLayerGroup" fill="#000000">
            <path d="M18.7018732,0.0697773042 C18.2779156,-0.09522002 17.7961456,0.0397777907 17.5233116,0.396772001 C17.2484492,0.754766195 17.2484492,1.2477582 17.5233116,1.60475241 C22.5661759,8.16064609 22.8481382,18.5014784 18.3489133,24.4633817 C17.3011903,23.024405 16.6368548,21.5194294 16.2828806,19.8014573 C16.2139114,19.4694627 15.9796191,19.1934672 15.6591152,19.0694692 C15.3396256,18.9454712 14.9765232,18.9894705 14.6976037,19.1884672 C8.95084802,23.2484014 6.63530917,30.1622893 8.79972438,36.8051816 C11.0158665,43.6050713 17.1460096,48 24.4171871,48 C32.5119377,48 38.0426575,43.3790749 39.5904071,35.3242056 C41.9363735,23.1184035 34.1033001,6.03968049 18.7018732,0.0697773042 Z M25.4314397,28.0003243 C25.07138,28.0003243 24.7376909,28.1883213 24.5551254,28.4953163 C24.3735742,28.8013114 24.3705314,29.1803052 24.5459972,29.4903002 C25.2651023,30.7512797 24.6393084,32.1742567 24.2021655,32.9102447 C23.2071836,34.5882175 21.2953173,35.9511954 19.94129,35.9511954 C19.8114657,35.9511954 19.6887411,35.9381956 19.5781876,35.912196 C19.2434842,35.8361973 18.8966098,35.9301957 18.6481179,36.160192 C18.3996259,36.3921882 18.2870439,36.7301828 18.3468848,37.0631774 C18.8661822,39.924131 21.3795003,42.0000973 24.3248901,42.0000973 C27.6333823,42.0000973 30.3069524,39.3781398 30.4104061,36.0301941 C30.4773468,33.82023 29.976306,30.8762777 28.3677012,29.2423042 C27.5684701,28.4303174 26.5532032,28.0003243 25.4314397,28.0003243 Z" id="Fill-274" sketch:type="MSShapeGroup"></path>
        </g>
    </g>
</svg>