<?xml version="1.0" encoding="UTF-8" standalone="no"?>
<svg width="48px" height="48px" viewBox="0 0 48 48" version="1.1" xmlns="http://www.w3.org/2000/svg" xmlns:xlink="http://www.w3.org/1999/xlink" xmlns:sketch="http://www.bohemiancoding.com/sketch/ns">
    <!-- Generator: Sketch 3.3.3 (12072) - http://www.bohemiancoding.com/sketch -->
    <title>intercom</title>
    <desc>Created with Sketch.</desc>
    <defs></defs>
    <g id="Icons" stroke="none" stroke-width="1" fill="none" fill-rule="evenodd" sketch:type="MSPage">
        <g id="intercom" sketch:type="MSLayerGroup" fill="#626A85">
            <path d="M0,30.0964532 L0,39.9998037 C0,44.4180423 3.58173097,48 7.99998037,48 L40.0000196,48 C44.4183868,48 48,44.4180423 48,39.9998037 L48,30.0968654 L48,7.99984297 C48,3.58148664 44.4183868,0 40.0000196,0 L7.99998037,0 C3.58173097,0 0,3.58148664 0,7.99984297 L0,30.0964532 Z M40.0019039,38.70116 C40.0019039,37.913518 39.3621787,37.273441 38.5734748,37.273441 C38.3738551,37.273441 38.1831859,37.3141893 38.0097111,37.3887373 L38.0073557,37.3844976 C28.0725363,41.6568198 19.9311145,41.6568198 9.99664847,37.3844976 L9.99370423,37.3887373 C9.82070048,37.3140715 9.63038459,37.273441 9.43041158,37.273441 C8.64111881,37.273441 8.00162915,37.9136357 8.00162915,38.70116 C8.00162915,39.290125 8.35741152,39.795356 8.86641232,40.0132294 L8.86488131,40.0192357 C19.5000773,44.5916344 28.504398,44.5916344 39.1403006,40.0192357 L39.1379452,40.0132294 C39.6460038,39.795356 40.0019039,39.290125 40.0019039,38.70116 Z M7.99998037,10.8577541 C7.11635405,10.8577541 6.39996074,11.5742635 6.39996074,12.4580054 L6.39996074,23.6579975 C6.39996074,24.5415039 7.11635405,25.2576599 7.99998037,25.2576599 C8.8836067,25.2576599 9.6,24.5415039 9.6,23.6579975 L9.6,12.4580054 C9.6,11.5742635 8.88372447,10.8577541 7.99998037,10.8577541 Z M40.0000196,10.8577541 C39.1163933,10.8577541 38.4,11.5742635 38.4,12.4580054 L38.4,23.6579975 C38.4,24.5415039 39.1163933,25.2576599 40.0000196,25.2576599 C40.883646,25.2576599 41.6000393,24.5415039 41.6000393,23.6579975 L41.6000393,12.4580054 C41.6000393,11.5742635 40.883646,10.8577541 40.0000196,10.8577541 Z M33.5999411,6.85759711 C32.7163148,6.85759711 32.0000393,7.57398865 32.0000393,8.45784835 L32.0000393,27.6576835 C32.0000393,28.5414254 32.7163148,29.2579347 33.5999411,29.2579347 C34.4836852,29.2579347 35.1999607,28.5414254 35.1999607,27.6576835 L35.1999607,8.45784835 C35.1999607,7.57398865 34.4836852,6.85759711 33.5999411,6.85759711 Z M14.3999411,6.85759711 C13.5163148,6.85759711 12.8000393,7.57398865 12.8000393,8.45784835 L12.8000393,27.6576835 C12.8000393,28.5414254 13.5163148,29.2579347 14.3999411,29.2579347 C15.2835674,29.2579347 15.999843,28.5414254 15.999843,27.6576835 L15.999843,8.45784835 C15.9999607,7.57398865 15.2836852,6.85759711 14.3999411,6.85759711 Z M27.1999804,4.45804463 C26.3162363,4.45804463 25.5999607,5.17420064 25.5999607,6.05770703 L25.5999607,30.057707 C25.5999607,30.9415667 26.3162363,31.6579583 27.1999804,31.6579583 C28.0836067,31.6579583 28.8,30.9415667 28.8,30.057707 L28.8,6.05770703 C28.8,5.17420064 28.0836067,4.45804463 27.1999804,4.45804463 Z M20.8000196,4.45804463 C19.9163933,4.45804463 19.2,5.17420064 19.2,6.05770703 L19.2,30.057707 C19.2,30.9415667 19.9163933,31.6579583 20.8000196,31.6579583 C21.683646,31.6579583 22.4000393,30.9415667 22.4000393,30.057707 L22.4000393,6.05770703 C22.4000393,5.17420064 21.683646,4.45804463 20.8000196,4.45804463 Z" id="Shape" sketch:type="MSShapeGroup"></path>
        </g>
    </g>
</svg>