<?xml version="1.0" encoding="UTF-8" standalone="no"?>
<svg width="48px" height="48px" viewBox="0 0 48 48" version="1.1" xmlns="http://www.w3.org/2000/svg" xmlns:xlink="http://www.w3.org/1999/xlink" xmlns:sketch="http://www.bohemiancoding.com/sketch/ns">
    <!-- Generator: Sketch 3.2.2 (9983) - http://www.bohemiancoding.com/sketch -->
    <title>italic</title>
    <desc>Created with Sketch.</desc>
    <defs></defs>
    <g id="Icons" stroke="none" stroke-width="1" fill="none" fill-rule="evenodd" sketch:type="MSPage">
        <g id="italic" sketch:type="MSLayerGroup" fill="#505977" opacity="0.9">
            <path d="M21.2544872,2.20952381 C20.8850427,2.20952381 20.3308761,2.27746806 19.5919872,2.41335656 C18.8530983,2.54924506 18.1449964,2.73042973 17.4676816,2.95691057 L15.4357372,3.63635308 C15.4357372,3.63635308 14.9123575,3.86283391 13.8655983,4.31579559 C12.818839,4.76875726 12.6956909,4.92729384 13.4961538,4.79140534 L21.8086538,27.4847851 L19.2225427,28.1642276 L13.4961538,23.6799071 L11.8336538,25.0387921 C13.0651353,27.0318235 14.7584224,28.8436702 16.913515,30.4743322 C19.0686075,32.1049942 21.131339,32.9203252 23.1017094,32.9203252 C23.594302,32.9203252 24.3639779,32.8297329 25.4107372,32.6485482 C26.4574964,32.4673635 27.4426816,32.2408827 28.3662927,31.9691057 C29.2899038,31.6973287 30.0903668,31.4029036 30.7676816,31.0858304 C31.4449964,30.7687573 31.7220798,30.5196283 31.5989316,30.3384437 L23.1017094,7.23739837 L25.1336538,6.69384437 L31.5989316,9.81927991 L33.2614316,8.59628339 C31.906802,6.96562137 30.0595798,5.49349593 27.719765,4.17990708 C25.3799501,2.86631823 23.2248575,2.20952381 21.2544872,2.20952381 L21.2544872,2.20952381 Z M30.6753205,36.9969803 C26.9808761,36.9969803 25.1336538,38.3558653 25.1336538,41.0736353 C25.1336538,42.613705 25.7801816,43.9499419 27.0732372,45.0823461 C28.3662927,46.2147503 29.7517094,46.7809524 31.2294872,46.7809524 C34.9239316,46.7809524 36.7711538,45.331475 36.7711538,42.4325203 C36.6480057,40.8924506 35.9706909,39.6015099 34.7392094,38.559698 C33.5077279,37.5178862 32.1530983,36.9969803 30.6753205,36.9969803 L30.6753205,36.9969803 Z" id="Shape-49" sketch:type="MSShapeGroup" transform="translate(24.302404, 24.495238) scale(1, -1) translate(-24.302404, -24.495238) "></path>
        </g>
    </g>
</svg>