<?xml version="1.0" encoding="UTF-8" standalone="no"?>
<svg width="32px" height="32px" viewBox="0 0 32 32" version="1.1" xmlns="http://www.w3.org/2000/svg" xmlns:xlink="http://www.w3.org/1999/xlink" xmlns:sketch="http://www.bohemiancoding.com/sketch/ns">
    <!-- Generator: Sketch 3.2.2 (9983) - http://www.bohemiancoding.com/sketch -->
    <title>italic</title>
    <desc>Created with Sketch.</desc>
    <defs></defs>
    <g id="Icons" stroke="none" stroke-width="1" fill="none" fill-rule="evenodd" sketch:type="MSPage">
        <g id="italic" sketch:type="MSLayerGroup" fill="#505977" opacity="0.9">
            <path d="M14.1696581,1.47301587 C13.9233618,1.47301587 13.5539174,1.51831204 13.0613248,1.60890437 C12.5687322,1.69949671 12.0966643,1.82028649 11.6451211,1.97127371 L10.2904915,2.42423539 C10.2904915,2.42423539 9.9415717,2.57522261 9.24373219,2.87719706 C8.54589269,3.17917151 8.46379392,3.28486256 8.9974359,3.19427023 L14.5391026,18.3231901 L12.8150285,18.7761518 L8.9974359,15.7866047 L7.88910256,16.6925281 C8.71009022,18.0212156 9.83894824,19.2291134 11.2756766,20.3162214 C12.712405,21.4033295 14.0875594,21.9468835 15.4011396,21.9468835 C15.7295347,21.9468835 16.2426519,21.8864886 16.9404915,21.7656988 C17.638331,21.644909 18.2951211,21.4939218 18.9108618,21.3127371 C19.5266026,21.1315525 20.0602445,20.9352691 20.5117877,20.723887 C20.963331,20.5125048 21.1480532,20.3464189 21.0659544,20.2256291 L15.4011396,4.82493225 L16.7557692,4.46256291 L21.0659544,6.5461866 L22.1742877,5.73085559 C21.2712013,4.64374758 20.0397198,3.66233062 18.4798433,2.78660472 C16.9199668,1.91087882 15.4832384,1.47301587 14.1696581,1.47301587 L14.1696581,1.47301587 Z M20.4502137,24.6646535 C17.9872507,24.6646535 16.7557692,25.5705768 16.7557692,27.3824235 C16.7557692,28.4091367 17.1867877,29.2999613 18.0488248,30.0548974 C18.9108618,30.8098335 19.8344729,31.1873016 20.8196581,31.1873016 C23.2826211,31.1873016 24.5141026,30.2209834 24.5141026,28.2883469 C24.4320038,27.2616338 23.9804606,26.4010066 23.1594729,25.7064654 C22.3384853,25.0119241 21.4353989,24.6646535 20.4502137,24.6646535 L20.4502137,24.6646535 Z" id="Shape-49" sketch:type="MSShapeGroup" transform="translate(16.201603, 16.330159) scale(1, -1) translate(-16.201603, -16.330159) "></path>
        </g>
    </g>
</svg>