<?xml version="1.0" encoding="UTF-8" standalone="no"?>
<svg width="32px" height="32px" viewBox="0 0 32 32" version="1.1" xmlns="http://www.w3.org/2000/svg" xmlns:xlink="http://www.w3.org/1999/xlink" xmlns:sketch="http://www.bohemiancoding.com/sketch/ns">
    <!-- Generator: Sketch 3.2.2 (9983) - http://www.bohemiancoding.com/sketch -->
    <title>key</title>
    <desc>Created with Sketch.</desc>
    <defs></defs>
    <g id="Icons" stroke="none" stroke-width="1" fill="none" fill-rule="evenodd" sketch:type="MSPage">
        <g id="key" sketch:type="MSLayerGroup" stroke="#626A85" stroke-width="2" stroke-linecap="round" stroke-linejoin="round">
            <path d="M27.0869565,1 L14.3219565,13.7643478 C13.0665217,13.1128261 11.6428261,12.7391304 10.1304348,12.7391304 C5.08782609,12.7391304 1,16.8276087 1,21.8695652 C1,26.9115217 5.08782609,31 10.1304348,31 C15.1730435,31 19.2608696,26.9115217 19.2608696,21.8695652 C19.2608696,20.3571739 18.8871739,18.9334783 18.235,17.6773913 L22.5217391,13.3913043 L24.4782609,13.3913043 L24.4782609,11.4347826 L25.1304348,10.7826087 L27.0869565,10.7826087 L27.0869565,8.82608696 L27.7391304,8.17391304 L29.6956522,8.17391304 L29.6956522,6.2173913 L31,4.91304348 L31,1 L27.0869565,1 L27.0869565,1 Z" id="Stroke-254" sketch:type="MSShapeGroup"></path>
            <path d="M10,24.5 C10,25.8808333 8.88083333,27 7.5,27 C6.11916667,27 5,25.8808333 5,24.5 C5,23.1191667 6.11916667,22 7.5,22 C8.88083333,22 10,23.1191667 10,24.5 L10,24.5 Z" id="Stroke-255" sketch:type="MSShapeGroup"></path>
        </g>
    </g>
</svg>