<?xml version="1.0" encoding="UTF-8" standalone="no"?>
<svg width="48px" height="48px" viewBox="0 0 48 48" version="1.1" xmlns="http://www.w3.org/2000/svg" xmlns:xlink="http://www.w3.org/1999/xlink" xmlns:sketch="http://www.bohemiancoding.com/sketch/ns">
    <!-- Generator: Sketch 3.2.2 (9983) - http://www.bohemiancoding.com/sketch -->
    <title>key</title>
    <desc>Created with Sketch.</desc>
    <defs></defs>
    <g id="Icons" stroke="none" stroke-width="1" fill="none" fill-rule="evenodd" sketch:type="MSPage">
        <g id="key" sketch:type="MSLayerGroup">
            <path d="M15.4183594,36.1573242 C15.4183594,38.1322935 13.817645,39.7330078 11.8426758,39.7330078 C9.86770654,39.7330078 8.26699219,38.1322935 8.26699219,36.1573242 C8.26699219,34.182355 9.86770654,32.5816406 11.8426758,32.5816406 C13.817645,32.5816406 15.4183594,34.182355 15.4183594,36.1573242 L15.4183594,36.1573242 Z" id="Stroke-255" stroke="#626A85" stroke-width="2" stroke-linecap="round" stroke-linejoin="round" sketch:type="MSShapeGroup"></path>
            <path d="M20.1857616,19.3881564 L22.5211924,19.0272181 C20.393437,17.922996 18.0375037,17.3360649 15.6049168,17.3360649 C7.28833806,17.3360649 0.545898438,24.0788372 0.545898438,32.3950832 C0.545898438,40.7113293 7.28833806,47.4541016 15.6049168,47.4541016 C23.9214955,47.4541016 30.6639351,40.7113293 30.6639351,32.3950832 C30.6639351,29.9619995 30.0767704,27.6059533 28.9716678,25.4775256 L28.6107671,27.8134494 L34.7419762,21.683173 L33.3278702,22.2688519 L36.1262313,22.2688519 C37.2308008,22.2688519 38.1262313,21.3734214 38.1262313,20.2688519 L38.1262313,17.4704908 L36.1262313,17.4704908 L37.5404449,18.8847044 L38.4732319,17.9519174 L37.0590183,16.5377038 L37.0590183,18.5377038 L39.8573794,18.5377038 C40.9619489,18.5377038 41.8573794,17.6422733 41.8573794,16.5377038 L41.8573794,13.7393427 L39.8573794,13.7393427 L41.271593,15.1535563 L42.20438,14.2207693 L40.7901664,12.8065557 L40.7901664,14.8065557 L43.5885275,14.8065557 C44.693097,14.8065557 45.5885275,13.9111252 45.5885275,12.8065557 L45.5885275,10.0081946 L45.0027411,11.4224082 L46.8683151,9.55683415 C47.2433879,9.18176139 47.4541016,8.67305356 47.4541016,8.14262058 L47.4541016,2.54589844 C47.4541016,1.44132894 46.5586711,0.545898438 45.4541016,0.545898438 L39.8573794,0.545898438 C39.3269641,0.545898438 38.8182718,0.756598092 38.443202,1.13164875 L20.1857616,19.3881564 L20.1857616,19.3881564 Z M39.8573794,4.54589844 L45.4541016,4.54589844 L43.4541016,2.54589844 L43.4541016,8.14262058 L44.039888,6.72840702 L42.174314,8.59398107 C41.7992412,8.96905383 41.5885275,9.47776165 41.5885275,10.0081946 L41.5885275,12.8065557 L43.5885275,10.8065557 L40.7901664,10.8065557 C40.2597335,10.8065557 39.7510256,11.0172694 39.3759529,11.3923421 L38.4431659,12.3251292 C38.0680931,12.7002019 37.8573794,13.2089098 37.8573794,13.7393427 L37.8573794,16.5377038 L39.8573794,14.5377038 L37.0590183,14.5377038 C36.5285854,14.5377038 36.0198775,14.7484175 35.6448048,15.1234902 L34.7120178,16.0562773 C34.336945,16.43135 34.1262313,16.9400578 34.1262313,17.4704908 L34.1262313,20.2688519 L36.1262313,18.2688519 L33.3278702,18.2688519 C32.79749,18.2688519 32.2888283,18.4795238 31.9137643,18.8545308 L25.7825552,24.9848071 C25.1658,25.6014684 25.0197633,26.5466884 25.4216545,27.3207308 C26.2340761,28.885455 26.6639351,30.6102992 26.6639351,32.3950832 C26.6639351,38.5022345 21.7123123,43.4541016 15.6049168,43.4541016 C9.49752124,43.4541016 4.54589844,38.5022345 4.54589844,32.3950832 C4.54589844,26.287932 9.49752124,21.3360649 15.6049168,21.3360649 C17.389447,21.3360649 19.1144364,21.7658096 20.6786856,22.577594 C21.4526117,22.9792315 22.3975481,22.8331926 23.0141164,22.2166558 L41.2715569,3.96014813 L39.8573794,4.54589844 L39.8573794,4.54589844 Z" id="Stroke-254" fill="#626A85" sketch:type="MSShapeGroup"></path>
        </g>
    </g>
</svg>