<?xml version="1.0" encoding="UTF-8" standalone="no"?>
<svg width="36px" height="36px" viewBox="0 0 36 36" version="1.1" xmlns="http://www.w3.org/2000/svg" xmlns:xlink="http://www.w3.org/1999/xlink" xmlns:sketch="http://www.bohemiancoding.com/sketch/ns">
    <!-- Generator: Sketch 3.0.2 (7799) - http://www.bohemiancoding.com/sketch -->
    <title>key</title>
    <description>Created with Sketch.</description>
    <defs></defs>
    <g id="24" stroke="none" stroke-width="1" fill="none" fill-rule="evenodd" sketch:type="MSPage">
        <g id="Icons" sketch:type="MSLayerGroup" transform="translate(-160.000000, -40.000000)" stroke-linecap="round" stroke="#0093E6" stroke-width="2">
            <g id="key" transform="translate(160.000000, 40.000000)" sketch:type="MSShapeGroup">
                <path d="M30.5618913,1 L16.0948913,15.4662609 C14.6720652,14.7278696 13.0585435,14.3043478 11.3445,14.3043478 C5.62954348,14.3043478 0.996673913,18.9379565 0.996673913,24.6521739 C0.996673913,30.3663913 5.62954348,35 11.3445,35 C17.0594565,35 21.6923261,30.3663913 21.6923261,24.6521739 C21.6923261,22.9381304 21.2688043,21.3246087 20.5296739,19.9010435 L25.3879783,15.0434783 L27.6053696,15.0434783 L27.6053696,12.826087 L28.3445,12.0869565 L30.5618913,12.0869565 L30.5618913,9.86956522 L31.3010217,9.13043478 L33.518413,9.13043478 L33.518413,6.91304348 L34.9966739,5.43478261 L34.9966739,1 L30.5618913,1 L30.5618913,1 Z" id="Stroke-254"></path>
                <path d="M10.6053696,27.6086957 C10.6053696,28.8334348 9.61271739,29.826087 8.38797826,29.826087 C7.16323913,29.826087 6.17058696,28.8334348 6.17058696,27.6086957 C6.17058696,26.3839565 7.16323913,25.3913043 8.38797826,25.3913043 C9.61271739,25.3913043 10.6053696,26.3839565 10.6053696,27.6086957 L10.6053696,27.6086957 Z" id="Stroke-255" stroke-linejoin="round"></path>
            </g>
        </g>
    </g>
</svg>