<?xml version="1.0" encoding="UTF-8" standalone="no"?>
<svg width="48px" height="48px" viewBox="0 0 48 48" version="1.1" xmlns="http://www.w3.org/2000/svg" xmlns:xlink="http://www.w3.org/1999/xlink" xmlns:sketch="http://www.bohemiancoding.com/sketch/ns">
    <!-- Generator: Sketch 3.2.2 (9983) - http://www.bohemiancoding.com/sketch -->
    <title>key</title>
    <desc>Created with Sketch.</desc>
    <defs></defs>
    <g id="Icons" stroke="none" stroke-width="1" fill="none" fill-rule="evenodd" sketch:type="MSPage">
        <g id="key" sketch:type="MSLayerGroup" stroke-linecap="round" stroke="#231F1F" stroke-width="2">
            <g id="Stroke-254-+-Stroke-255" transform="translate(1.000000, 1.000000)" sketch:type="MSShapeGroup">
                <path d="M40,0 L20.427,19.572 C18.502,18.573 16.319,18 14,18 C6.268,18 0,24.269 0,32 C0,39.731 6.268,46 14,46 C21.732,46 28,39.731 28,32 C28,29.681 27.427,27.498 26.427,25.572 L33,19 L36,19 L36,16 L37,15 L40,15 L40,12 L41,11 L44,11 L44,8 L46,6 L46,0 L40,0 L40,0 Z" id="Stroke-254"></path>
                <path d="M13,36 C13,37.657 11.657,39 10,39 C8.343,39 7,37.657 7,36 C7,34.343 8.343,33 10,33 C11.657,33 13,34.343 13,36 L13,36 Z" id="Stroke-255" stroke-linejoin="round"></path>
            </g>
        </g>
    </g>
</svg>