<?xml version="1.0" encoding="UTF-8" standalone="no"?>
<svg width="32px" height="32px" viewBox="0 0 32 32" version="1.1" xmlns="http://www.w3.org/2000/svg" xmlns:xlink="http://www.w3.org/1999/xlink" xmlns:sketch="http://www.bohemiancoding.com/sketch/ns">
    <!-- Generator: Sketch 3.0.2 (7799) - http://www.bohemiancoding.com/sketch -->
    <title>kissmetrics</title>
    <description>Created with Sketch.</description>
    <defs></defs>
    <g id="24" stroke="none" stroke-width="1" fill="none" fill-rule="evenodd" sketch:type="MSPage">
        <g id="Brands" sketch:type="MSLayerGroup" transform="translate(-280.000000, 0.000000)" fill="#0093E6">
            <g id="kissmetrics" transform="translate(280.000000, 0.000000)" sketch:type="MSShapeGroup">
                <g>
                    <path d="M21.0363913,26.6998905 L16.8304766,26.6998905 L16.8304766,9 L21.0363913,9 L21.0363913,26.6998905 L21.0363913,26.6998905 Z M26.2937844,26.1552426 C26.0780418,26.3716604 25.8294141,26.5558655 25.5559405,26.6998905 L22.0878699,26.6998905 L22.0878699,15.6593648 L26.2937844,15.6593648 L26.2937844,26.1552426 L26.2937844,26.1552426 Z M15.6037516,26.6998905 L11.397837,26.6998905 L11.397837,17.9375685 L15.6037516,17.9375685 L15.6037516,26.6998905 L15.6037516,26.6998905 Z M10.3463584,21.6177437 L10.3463584,26.549695 C8.20161754,25.7066725 6.56151563,23.8729433 6,21.6177437 L10.3463584,21.6177437 L10.3463584,21.6177437 Z" id="Rectangle-1"></path>
                    <path d="M29.0909091,11.2683461 C29.0906916,11.3430822 29.0906916,11.3430822 29.0896083,11.4175783 L29.0951815,11.5726577 C29.0896591,11.804099 29.0896591,11.804099 29.0897431,12.0895618 C29.0899054,12.7918764 29.0899054,12.7918764 29.090052,13.7860844 C29.0902263,15.072644 29.0903848,16.8262815 29.0905276,18.930262 C29.0906388,20.5680785 29.0907024,21.7379475 29.0908136,24.0776908 C29.0908932,25.9494852 29.0908932,25.9494852 29.0909091,26.4174296 C29.0909091,27.8930236 27.8913846,29.0909091 26.4114784,29.0909091 L11.4513494,29.0909091 C11.3768741,29.090686 11.3768741,29.090686 11.3172731,29.0908256 C6.65165669,29.0909091 2.90909091,25.3483433 2.90909091,20.7316539 C2.90909091,16.2244468 6.48313751,12.5324251 10.9739482,12.3774691 L12.3306557,12.3306557 L12.3774691,10.9739482 C12.5324251,6.48313751 16.2244468,2.90909091 20.7316539,2.90909091 C25.3483433,2.90909091 29.0909091,6.65165669 29.0909091,11.2683461 Z M9.47010844,10.8736294 L10.8736293,9.47010846 C4.81744868,9.67907778 0,14.6555447 0,20.7316539 C0,26.9549899 5.04501015,32 11.2683461,32 C11.3780884,31.9997842 11.3780884,31.9997842 11.4441967,31.9999824 L26.4114784,32 C29.4971414,32 32,29.5005612 32,26.4173801 C31.9999841,25.949373 31.9999841,25.949373 31.9999046,24.077559 C31.9997933,21.7377917 31.9997297,20.5679055 31.9996185,18.9300646 C31.9994757,16.826024 31.9993172,15.0723291 31.9991429,13.7856903 C31.9989963,12.7913731 31.9989963,12.7913731 31.998834,12.0887753 C31.9996293,11.582434 31.9996293,11.582434 31.9926833,11.313248 L30.5439324,11.4429529 L31.9982565,11.4683274 C31.9997087,11.3684586 31.9997087,11.3684586 32,11.2683461 C32,5.04501015 26.9549899,0 20.7316539,0 C14.6555447,0 9.67907778,4.81744868 9.47010844,10.8736294 Z" id="Oval-1"></path>
                </g>
            </g>
        </g>
    </g>
</svg>