<?xml version="1.0" encoding="utf-8"?>
<!-- Generator: Adobe Illustrator 16.0.0, SVG Export Plug-In . SVG Version: 6.00 Build 0)  -->
<!DOCTYPE svg PUBLIC "-//W3C//DTD SVG 1.1//EN" "http://www.w3.org/Graphics/SVG/1.1/DTD/svg11.dtd">
<svg version="1.1" id="Layer_1" xmlns="http://www.w3.org/2000/svg" xmlns:xlink="http://www.w3.org/1999/xlink" x="0px" y="0px"
	 width="16px" height="16px" viewBox="0 0 16 16" enable-background="new 0 0 16 16" xml:space="preserve">
<g>
	<defs>
		<rect id="SVGID_1_" width="16" height="16"/>
	</defs>
	<clipPath id="SVGID_2_">
		<use xlink:href="#SVGID_1_"  overflow="visible"/>
	</clipPath>
	<path clip-path="url(#SVGID_2_)" fill="#1D1D1B" d="M13,3l1-2h-1H3H2l1,2H0v2.5c0,0.952,0.012,3.059,3.391,3.436
		C4.021,10.439,5.365,11.568,7,11.9V13c0,2-4,2-5,2v1h6h6v-1c-1,0-5,0-5-2v-1.102c1.635-0.332,2.979-1.46,3.611-2.963
		C15.988,8.559,16,6.452,16,5.5V3H13z M3,7.876C1.008,7.498,1,6.325,1,5.5V4h2V7.876z M9.455,6.854l0.807,2.664L7.977,7.928
		L5.691,9.518l0.807-2.664l-2.219-1.68l2.783-0.058l0.915-2.628l0.914,2.628l2.781,0.058L9.455,6.854z M15,5.5
		c0,0.825-0.006,1.998-2,2.376V4h2V5.5z"/>
</g>
</svg>
