<?xml version="1.0" encoding="UTF-8" standalone="no"?>
<svg width="36px" height="36px" viewBox="0 0 36 36" version="1.1" xmlns="http://www.w3.org/2000/svg" xmlns:xlink="http://www.w3.org/1999/xlink" xmlns:sketch="http://www.bohemiancoding.com/sketch/ns">
    <!-- Generator: Sketch 3.0.2 (7799) - http://www.bohemiancoding.com/sketch -->
    <title>like</title>
    <description>Created with Sketch.</description>
    <defs></defs>
    <g id="24" stroke="none" stroke-width="1" fill="none" fill-rule="evenodd" sketch:type="MSPage">
        <g id="Icons" sketch:type="MSLayerGroup" transform="translate(-200.000000, 0.000000)">
            <g id="like" transform="translate(200.000000, 0.000000)" sketch:type="MSShapeGroup">
                <g transform="translate(1.000000, 2.000000)">
                    <path d="M28.826087,20.6956522 L28.826087,20.6956522 C30.0508261,20.6956522 31.0434783,21.6883043 31.0434783,22.9130435 C31.0434783,24.1377826 30.0508261,25.1304348 28.826087,25.1304348 L27.3478261,25.1304348 C28.5725652,25.1304348 29.5652174,26.123087 29.5652174,27.3478261 C29.5652174,28.5725652 28.5725652,28.826087 27.3478261,28.826087 L17.7391304,28.826087 C13.526087,28.826087 12.5652174,28.0869565 7.39130435,27.3478261 L7.39130435,14.7826087 C11.0130435,14.7826087 17,8.13043478 17,2.2173913 C17,-0.11973913 20.235913,-0.990434783 21.4347826,3.28026087 C22.173913,5.91304348 19.9565217,11.0869565 19.9565217,11.0869565 L31.7826087,11.0869565 C33.0073478,11.0869565 34,12.0796087 34,13.3043478 C34,14.529087 33.0073478,16.2608696 31.7826087,16.2608696 L30.3043478,16.2608696 C31.529087,16.2608696 32.5217391,17.2535217 32.5217391,18.4782609 C32.5217391,19.703 31.529087,20.6956522 30.3043478,20.6956522 L28.826087,20.6956522" id="Stroke-704" stroke="#0093E6" stroke-width="2" stroke-linecap="round" stroke-linejoin="round"></path>
                    <path d="M7.39130435,30.3043478 L0,30.3043478 L0,12.5652174 L7.39130435,12.5652174 L7.39130435,30.3043478 Z" id="Stroke-705" stroke="#0093E6" stroke-width="2" stroke-linecap="round" stroke-linejoin="round"></path>
                    <path d="M4.43478261,26.6086957 C4.02678261,26.6086957 3.69565217,26.9398261 3.69565217,27.3478261 C3.69565217,27.7558261 4.02678261,28.0869565 4.43478261,28.0869565 C4.84278261,28.0869565 5.17391304,27.7558261 5.17391304,27.3478261 C5.17391304,26.9398261 4.84278261,26.6086957 4.43478261,26.6086957" id="Fill-706" fill="#0093E6"></path>
                </g>
            </g>
        </g>
    </g>
</svg>