<?xml version="1.0" encoding="UTF-8" standalone="no"?>
<svg width="15px" height="15px" viewBox="0 0 15 15" version="1.1" xmlns="http://www.w3.org/2000/svg" xmlns:xlink="http://www.w3.org/1999/xlink" xmlns:sketch="http://www.bohemiancoding.com/sketch/ns">
    <!-- Generator: Sketch 3.2.2 (9983) - http://www.bohemiancoding.com/sketch -->
    <title>like</title>
    <desc>Created with Sketch.</desc>
    <defs></defs>
    <g id="Page-1" stroke="none" stroke-width="1" fill="none" fill-rule="evenodd" sketch:type="MSPage">
        <g id="like" sketch:type="MSLayerGroup" transform="translate(0.500000, 1.500000)">
            <path d="M11.8695652,8 L11.8695652,8 C12.3738696,8 12.7826087,8.38371429 12.7826087,8.85714286 C12.7826087,9.33057143 12.3738696,9.71428571 11.8695652,9.71428571 L11.2608696,9.71428571 C11.7651739,9.71428571 12.173913,10.098 12.173913,10.5714286 C12.173913,11.0448571 11.7651739,11.1428571 11.2608696,11.1428571 L7.30434783,11.1428571 C5.56956522,11.1428571 5.17391304,10.8571429 3.04347826,10.5714286 L3.04347826,5.71428571 C4.53478261,5.71428571 7,3.14285714 7,0.857142857 C7,-0.0462857143 8.33243478,-0.382857143 8.82608696,1.268 C9.13043478,2.28571429 8.2173913,4.28571429 8.2173913,4.28571429 L13.0869565,4.28571429 C13.5912609,4.28571429 14,4.66942857 14,5.14285714 C14,5.61628571 13.5912609,6.28571429 13.0869565,6.28571429 L12.4782609,6.28571429 C12.9825652,6.28571429 13.3913043,6.66942857 13.3913043,7.14285714 C13.3913043,7.61628571 12.9825652,8 12.4782609,8 L11.8695652,8" id="Stroke-704" stroke="#231F1F" stroke-linecap="round" stroke-linejoin="round" sketch:type="MSShapeGroup"></path>
            <path d="M3.04347826,12 L0,12 L0,5 L3.04347826,5 L3.04347826,12 Z" id="Stroke-705" stroke="#231F1F" stroke-linecap="round" stroke-linejoin="round" sketch:type="MSShapeGroup"></path>
            <path d="M2,10 C1.724,10 1.5,10.224 1.5,10.5 C1.5,10.776 1.724,11 2,11 C2.276,11 2.5,10.776 2.5,10.5 C2.5,10.224 2.276,10 2,10" id="Fill-706" fill="#231F1F" sketch:type="MSShapeGroup"></path>
        </g>
        <g id="Group" sketch:type="MSLayerGroup" transform="translate(-120.000000, 0.000000)"></g>
    </g>
</svg>