<?xml version="1.0" encoding="UTF-8" standalone="no"?>
<svg width="48px" height="48px" viewBox="0 0 48 48" version="1.1" xmlns="http://www.w3.org/2000/svg" xmlns:xlink="http://www.w3.org/1999/xlink" xmlns:sketch="http://www.bohemiancoding.com/sketch/ns">
    <!-- Generator: Sketch 3.2.2 (9983) - http://www.bohemiancoding.com/sketch -->
    <title>link</title>
    <desc>Created with Sketch.</desc>
    <defs></defs>
    <g id="Icons" stroke="none" stroke-width="1" fill="none" fill-rule="evenodd" sketch:type="MSPage">
        <g id="link" sketch:type="MSLayerGroup" fill="#000000">
            <g transform="translate(4.000000, 4.000000)" sketch:type="MSShapeGroup">
                <path d="M12.2410043,35.8277821 C11.4838533,36.5849331 10.4829695,37 9.414,37 C8.3439875,37 7.34311627,36.5849027 6.58510678,35.8268932 L5.17085661,34.4136431 C3.61263107,32.8554175 3.61263107,30.3165825 5.17110678,28.7581068 L14.3641452,19.5640683 C15.1215211,18.8074941 16.1224492,18.393 17.193,18.393 C18.2629625,18.393 19.2645562,18.8077697 20.0208932,19.5641068 L21.4336431,20.9778566 C22.2154175,21.7596311 23.4815825,21.7596311 24.2631068,20.9781068 C25.0436317,20.1995844 25.0436317,18.9334183 24.2640116,18.1517992 L22.8493567,16.7361432 C21.3394495,15.2262359 19.3280455,14.393 17.193,14.393 C15.0577544,14.393 13.0454091,15.2263774 11.5358932,16.7358932 L2.34285476,25.9299317 C-0.776652671,29.048296 -0.776652671,34.1235609 2.34289322,37.2431068 L3.75739383,38.655607 C5.26629684,40.1656523 7.27881199,41 9.414,41 C11.5489761,41 13.5615535,40.1658021 15.0703743,38.6558392 L21.4349957,32.2932179 C22.2153295,31.5108847 22.2153295,30.2471153 21.4360116,29.4657992 C20.6538918,28.6836782 19.3877268,28.6830596 18.6068932,29.4638932 L20.0211068,30.8781068 C20.0206705,30.8788847 13.6560043,37.2417821 13.6560043,37.2417821 C12.5218964,38.3767484 11.0182458,39 9.414,39 C7.80959578,39 6.30599156,38.3766364 5.17137407,37.2411606 L3.75660617,35.828393 C1.41865267,33.4904391 1.41865267,29.681704 3.75697719,27.3442363 L12.9501452,18.1500683 C14.0845146,17.015699 15.5881376,16.393 17.193,16.393 C18.7975866,16.393 20.3002903,17.0155039 21.4348932,18.1501068 L22.8486433,19.5648568 C22.8484175,19.5643689 21.4353569,18.1501434 21.4353569,18.1501434 C20.3036519,17.0184383 18.7933318,16.393 17.193,16.393 C15.5922564,16.393 14.0829785,17.0180067 12.9502676,18.149519 L3.75685476,27.3439317 C1.41736893,29.6834175 1.41736893,33.4885825 3.75689322,35.8281068 L5.17114339,37.2413569 C6.30374892,38.3739625 7.81323344,39 9.414,39 C11.0137017,39 12.5232052,38.3740083 13.6551068,37.2421068 L20.0209957,30.8782179 L18.6070043,29.4637821 L12.2410043,35.8277821 Z" id="Fill-26"></path>
                <path d="M36.8703565,2.71514304 C35.3605909,1.20537738 33.3482456,0.372 31.213,0.372 C29.0775414,0.372 27.0651055,1.20553911 25.5566257,2.71516081 L19.1919488,9.07883767 C18.4102179,9.8605685 18.4102179,11.1274318 19.1927992,11.9080116 C19.9719212,12.6891309 21.2370812,12.6891309 22.0192008,11.9090116 L28.3851068,5.54310678 C29.1431292,4.78668942 30.1436066,4.372 31.213,4.372 C32.2826842,4.372 33.2840776,4.78689584 34.0426427,5.54385544 L35.4553937,6.95860688 C36.2123084,7.71472085 36.627,8.71612587 36.627,9.787 C36.627,10.8566552 36.212432,11.8575529 35.455519,12.6152676 L26.2629317,21.8068548 C25.5061782,22.5644096 24.505731,22.979 23.435,22.979 C22.3648735,22.979 21.3635425,22.56413 20.607481,21.8072676 C19.8272812,21.0250669 18.5587188,21.0250669 17.7779884,21.8077992 C16.9976786,22.5861087 16.9970601,23.8522727 17.7769884,24.6342008 C19.2877506,26.1449642 21.300237,26.979 23.435,26.979 C25.569763,26.979 27.5822494,26.1449642 29.0921068,24.6351068 L38.2841068,15.4431068 C39.7935166,13.933697 40.627,11.9213955 40.627,9.787 C40.627,7.6509035 39.7937169,5.63836117 38.284839,4.13062553 L36.871161,5.54537447 C38.0044688,6.67782434 38.627,8.18135938 38.627,9.787 C38.627,11.3909745 38.0042218,12.8945646 36.8698932,14.0288932 L27.6778932,23.2208932 C26.5430144,24.355772 25.0391967,24.979 23.435,24.979 C21.8308033,24.979 20.3269856,24.355772 19.1921068,23.2208932 C20.323803,24.3532147 21.8341996,24.979 23.435,24.979 C25.036458,24.979 26.5459553,24.3534568 27.677481,23.2207324 L36.8700683,14.0291452 C38.0018819,12.896133 38.627,11.3869012 38.627,9.787 C38.627,8.18557977 38.0014837,6.67507147 36.869732,5.54451859 L35.4566063,4.12939312 C34.3221569,2.99734243 32.8128291,2.372 31.213,2.372 C29.6133551,2.372 28.104975,2.99721078 26.9716427,4.12814456 L20.6058932,10.4938932 C20.6057821,10.4925682 26.9710512,4.12916233 26.9710512,4.12916233 C28.1046332,2.9947224 29.6080886,2.372 31.213,2.372 C32.8178624,2.372 34.3214854,2.99469896 35.4558932,4.12910678 L36.8706435,5.54485696 L38.2853565,4.13114304 L36.8703565,2.71514304 Z" id="Fill-27"></path>
            </g>
        </g>
    </g>
</svg>