<?xml version="1.0" encoding="UTF-8" standalone="no"?>
<svg width="15px" height="15px" viewBox="0 0 15 15" version="1.1" xmlns="http://www.w3.org/2000/svg" xmlns:xlink="http://www.w3.org/1999/xlink" xmlns:sketch="http://www.bohemiancoding.com/sketch/ns">
    <!-- Generator: Sketch 3.2.2 (9983) - http://www.bohemiancoding.com/sketch -->
    <title>link</title>
    <desc>Created with Sketch.</desc>
    <defs></defs>
    <g id="Page-1" stroke="none" stroke-width="1" fill="none" fill-rule="evenodd" sketch:type="MSPage">
        <g id="link" sketch:type="MSLayerGroup" transform="translate(1.000000, 0.500000)" stroke="#000000">
            <path d="M7.23924039,10.2666644 L4.85925503,12.5801755 C3.98302851,13.432426 2.56229245,13.432426 1.68606592,12.5801755 L1.15688942,12.0664255 C0.281036861,11.214175 0.281036861,9.83326744 1.15688942,8.98138055 L4.5948538,5.63891517 C5.47145429,4.78702828 6.89219033,4.78702828 7.76841688,5.63891517 L8.29684544,6.15339235" id="Stroke-88" sketch:type="MSShapeGroup"></path>
            <path d="M6.08532336,3.72057348 L8.4656827,1.40706243 C9.34153526,0.554811939 10.7622713,0.554811939 11.6388718,1.40706243 L12.1676743,1.921176 C13.0439009,2.7730629 13.0439009,4.15433407 12.1676743,5.00622097 L8.72970999,8.34832276 C7.85385743,9.20057325 6.4327474,9.20057325 5.55689484,8.34832276" id="Stroke-89" sketch:type="MSShapeGroup"></path>
        </g>
        <g id="Group" sketch:type="MSLayerGroup" transform="translate(-140.000000, 0.000000)"></g>
    </g>
</svg>