<?xml version="1.0" encoding="UTF-8" standalone="no"?>
<svg width="32px" height="32px" viewBox="0 0 32 32" version="1.1" xmlns="http://www.w3.org/2000/svg" xmlns:xlink="http://www.w3.org/1999/xlink" xmlns:sketch="http://www.bohemiancoding.com/sketch/ns">
    <!-- Generator: Sketch 3.0.2 (7799) - http://www.bohemiancoding.com/sketch -->
    <title>linkedin</title>
    <description>Created with Sketch.</description>
    <defs></defs>
    <g id="24" stroke="none" stroke-width="1" fill="none" fill-rule="evenodd" sketch:type="MSPage">
        <g id="Brands" sketch:type="MSLayerGroup" transform="translate(-40.000000, 0.000000)" fill="#4875B4">
            <g id="linkedin" transform="translate(40.000000, 0.000000)" sketch:type="MSShapeGroup">
                <path d="M29.6342337,0 L2.36382398,0 C1.0585736,0 0,1.02682054 0,2.29233182 L0,29.7083116 C0,30.9731795 1.0585736,32 2.36382398,32 L29.6342337,32 C30.9414264,32 32,30.9725361 32,29.7083116 L32,2.29233182 C32,1.02617717 30.940779,0 29.6342337,0 L29.6342337,0 Z M9.7835102,27.48042 L4.90840816,27.48042 L4.90840816,12.65748 L9.7835102,12.65748 L9.7835102,27.48042 L9.7835102,27.48042 Z M7.34628571,10.6326 L7.31363265,10.6326 C5.67836735,10.6326 4.62040816,9.4941 4.62040816,8.0718 C4.62040816,6.61782 5.71102041,5.511 7.37828571,5.511 C9.04620408,5.511 10.0721633,6.61782 10.1048163,8.0718 C10.1048163,9.4941 9.04555102,10.6326 7.34628571,10.6326 L7.34628571,10.6326 Z M27.3632653,27.48042 L22.4881633,27.48042 L22.4881633,19.54854 C22.4881633,17.55666 21.7828571,16.19706 20.0189388,16.19706 C18.6723265,16.19706 17.8703673,17.1138 17.5170612,17.99952 C17.3884082,18.31566 17.3570612,18.75786 17.3570612,19.20138 L17.3570612,27.47976 L12.4819592,27.47976 C12.4819592,27.47976 12.5459592,14.04612 12.4819592,12.65682 L17.3570612,12.65682 L17.3570612,14.75496 C18.004898,13.74516 19.1634286,12.30702 21.7515102,12.30702 C24.9586939,12.30702 27.3639184,14.42628 27.3639184,18.97962 L27.3639184,27.48042 L27.3632653,27.48042 Z"></path>
            </g>
        </g>
    </g>
</svg>