<?xml version="1.0" encoding="UTF-8" standalone="no"?>
<svg width="36px" height="36px" viewBox="0 0 36 36" version="1.1" xmlns="http://www.w3.org/2000/svg" xmlns:xlink="http://www.w3.org/1999/xlink" xmlns:sketch="http://www.bohemiancoding.com/sketch/ns">
    <!-- Generator: Sketch 3.0.2 (7799) - http://www.bohemiancoding.com/sketch -->
    <title>lock</title>
    <description>Created with Sketch.</description>
    <defs></defs>
    <g id="24" stroke="none" stroke-width="1" fill="none" fill-rule="evenodd" sketch:type="MSPage">
        <g id="Icons" sketch:type="MSLayerGroup" transform="translate(-400.000000, -40.000000)" stroke="#0093E6" stroke-width="2" stroke-linecap="round" stroke-linejoin="round">
            <g id="lock" transform="translate(400.000000, 40.000000)" sketch:type="MSShapeGroup">
                <g transform="translate(5.000000, 1.000000)">
                    <path d="M25.1304348,13.3043478 L0,13.3043478 L0,34 L25.1304348,34 L25.1304348,13.3043478 Z" id="Stroke-73"></path>
                    <path d="M4.43478261,8.13043478 C4.43478261,3.64021739 8.075,0 12.5652174,0 C17.0554348,0 20.6956522,3.64021739 20.6956522,8.13043478 L20.6956522,13.3043478 L4.43478261,13.3043478 L4.43478261,8.13043478 L4.43478261,8.13043478 Z" id="Stroke-75"></path>
                    <path d="M11.826087,22.173913 L11.826087,26.6086957" id="Stroke-71"></path>
                    <path d="M12.5652174,21.4347826 C12.5652174,21.8435217 12.2348261,22.173913 11.826087,22.173913 C11.418087,22.173913 11.0869565,21.8435217 11.0869565,21.4347826 C11.0869565,21.0260435 11.418087,20.6956522 11.826087,20.6956522 C12.2348261,20.6956522 12.5652174,21.0260435 12.5652174,21.4347826 L12.5652174,21.4347826 Z" id="Stroke-69"></path>
                </g>
            </g>
        </g>
    </g>
</svg>