<?xml version="1.0" encoding="UTF-8" standalone="no"?>
<svg width="68px" height="68px" viewBox="0 0 68 68" version="1.1" xmlns="http://www.w3.org/2000/svg" xmlns:xlink="http://www.w3.org/1999/xlink" xmlns:sketch="http://www.bohemiancoding.com/sketch/ns">
    <title>login_byou</title>
    <description>Created with Sketch (http://www.bohemiancoding.com/sketch)</description>
    <defs></defs>
    <g id="Page-1" stroke="none" stroke-width="1" fill="none" fill-rule="evenodd" sketch:type="MSPage">
        <g id="contacts-copy-+-Path" sketch:type="MSLayerGroup" transform="translate(1.000000, 1.000000)" stroke="#31ACCF">
            <path d="M32.0006352,0 C14.3271067,0 0,14.3268223 0,32 C0,49.6731777 14.3271067,64 32.0006352,64 C49.6741638,64 64,49.6731777 64,32 C64,14.3268223 49.6741638,0 32.0006352,0 L32.0006352,0 Z" id="contacts-copy" sketch:type="MSShapeGroup"></path>
            <path d="M12.3076923,57.8461538 C14.0880878,56.8147816 22.3159561,55.4468424 24.0257009,54.3784989 C25.9178529,53.1966917 25.3102576,46.7292613 25.3102576,46.7292613 L24.0257009,45.6137475 C24.0257009,45.6137475 23.7675051,42.6522177 23.141926,41.6297696 C22.0718903,39.880644 20.5728127,35.255405 20.5728127,35.255405 C20.5728127,35.255405 19.2882561,34.3272975 19.2882561,32.7056591 C19.2882561,31.0840208 20.5728127,30.1559133 20.5728127,30.1559133 C20.5728127,30.1559133 19.569574,25.6428631 19.569574,22.5066757 C19.569574,15.3763114 25.0340779,12.3076923 32.5217586,12.3076923 C40.0107238,12.3076923 44.1765409,15.9181324 44.1765409,22.5066757 C44.1765409,25.6415883 43.6948322,30.1559133 43.6948322,30.1559133 C43.6948322,30.1559133 44.9793888,31.0840208 44.9793888,32.7056591 C44.9793888,34.3272975 43.6948322,35.255405 43.6948322,35.255405 C43.6948322,35.255405 42.3755925,39.2521316 41.1257189,41.6297696 C40.5669368,42.6904639 40.241944,45.6137475 40.241944,45.6137475 L38.9573873,46.7292613 C38.9573873,46.7292613 38.3485075,53.1966917 40.241944,54.3784989 C41.9285668,55.4328188 49.7975866,56.8198811 51.6923077,57.8461538" id="Path" sketch:type="MSShapeGroup"></path>
        </g>
    </g>
</svg>