<?xml version="1.0" encoding="UTF-8" standalone="no"?>
<svg width="32px" height="32px" viewBox="0 0 32 32" version="1.1" xmlns="http://www.w3.org/2000/svg" xmlns:xlink="http://www.w3.org/1999/xlink" xmlns:sketch="http://www.bohemiancoding.com/sketch/ns">
    <!-- Generator: Sketch 3.0.2 (7799) - http://www.bohemiancoding.com/sketch -->
    <title>meetups</title>
    <description>Created with Sketch.</description>
    <defs></defs>
    <g id="24" stroke="none" stroke-width="1" fill="none" fill-rule="evenodd" sketch:type="MSPage">
        <g id="Brands" sketch:type="MSLayerGroup" transform="translate(-80.000000, 0.000000)" fill="#EB2F12">
            <g id="meetups" transform="translate(80.000000, 0.000000)" sketch:type="MSShapeGroup">
                <path d="M32,4.79937637 L32,27.2006236 C32,29.8507008 29.851246,32 27.2006236,32 L4.79937637,32 C2.14929915,32 0,29.851246 0,27.2006236 L0,4.79937637 C0,2.14929915 2.14875399,0 4.79937637,0 L27.2006236,0 C29.8507008,0 32,2.14875399 32,4.79937637 L32,4.79937637 Z M0.246153846,7.38461538 L31.7538462,7.38461538 L31.7538462,24.8615385 L0.246153846,24.8615385 L0.246153846,7.38461538 L0.246153846,7.38461538 Z M10.7291759,22.0253471 C10.968239,22.0664826 11.1540025,22.0686133 11.1600729,22.0302864 C11.1659435,21.9932206 11.2617042,21.9773227 11.3728796,21.9949312 C11.484055,22.0125396 11.5798175,21.9966294 11.5856862,21.959576 C11.5915574,21.9225071 11.6409729,21.8992689 11.6955055,21.907906 C11.9121263,21.9422154 12.6048864,21.7008292 12.9012864,21.4877606 C13.1266199,21.3257786 13.2187686,21.212525 13.2282095,21.0859271 C13.2354431,20.988971 13.221795,20.9065426 13.19784,20.9027486 C13.1739036,20.8989574 13.15732,20.7518476 13.1609904,20.5758393 C13.1646578,20.3998303 13.146261,20.2182176 13.1201051,20.1722613 C13.0939463,20.1263014 13.0720976,19.9643182 13.0715868,19.8123024 C13.0694409,19.1934361 13.0591794,19.0851931 13.0017897,19.0761034 C12.9687764,19.0708747 12.958591,18.960487 12.9791319,18.8307969 C12.9996722,18.7011099 12.9861586,18.5901951 12.9491012,18.5843258 C12.9120282,18.578454 12.8985264,18.4675442 12.9190673,18.3378542 C12.9396078,18.2081671 12.9867346,18.1068569 13.0237951,18.1127266 C13.060865,18.1185979 13.0850298,18.1621838 13.0775225,18.2095835 C13.070015,18.2569833 13.1175911,18.3490734 13.1832455,18.4142293 C13.2489036,18.4793825 13.2976782,18.5639057 13.2916353,18.6020592 C13.2855924,18.6402127 13.3809169,18.8233051 13.5034679,19.0089311 C13.6260196,19.194554 13.7225343,19.3701323 13.7179455,19.3991045 C13.7133572,19.4280736 13.8238145,19.6137599 13.9634025,19.8117403 C14.1029903,20.0097207 14.2137738,20.1933274 14.2095826,20.2197897 C14.2053934,20.2462395 14.3152057,20.4359783 14.4536087,20.6414389 C14.5920123,20.8468964 14.700857,21.0427647 14.6954821,21.0767009 C14.6901066,21.1106401 14.7311897,21.1456073 14.7867759,21.1544113 C14.842362,21.1632153 14.882817,21.2021678 14.876671,21.2409718 C14.870525,21.279776 14.977213,21.4676 15.1137573,21.6583615 C15.3363146,21.9692811 15.3941889,22.0102905 15.6726527,22.0543948 C15.8434987,22.0814542 15.9874533,22.0772679 15.992549,22.0450949 C16.0009751,21.9918945 16.1233685,21.9822192 16.8143988,21.9801233 C16.9379175,21.9797488 17.0426943,21.955985 17.0472389,21.9272916 C17.0517819,21.8986076 17.2611743,21.8855116 17.5125514,21.8981996 C18.009834,21.9232842 18.2313211,21.8647125 18.2572075,21.7012721 C18.2663594,21.6434889 18.311719,21.5687007 18.358002,21.5350752 C18.4541486,21.4652341 18.8359418,19.1473498 18.7751207,19.0027785 C18.7258542,18.88568 18.7936534,17.9142303 18.9345772,16.7180823 C18.997175,16.1867291 19.0209195,15.747632 18.987336,15.7423129 C18.9537618,15.7369953 18.9670887,15.4749472 19.0169735,15.159987 C19.0668583,14.8450267 19.1250092,14.5900748 19.1461751,14.5934271 C19.2358624,14.6076322 19.3450144,14.8331497 19.3245967,14.962062 C19.3124396,15.0388182 19.3328134,15.1064203 19.3698709,15.1122897 C19.4069438,15.1181615 19.4285659,15.1778014 19.41795,15.2448278 C19.4073345,15.3118512 19.4338442,15.4325937 19.4768608,15.5131366 C19.519877,15.5936826 19.5475717,15.7127801 19.5385408,15.7778214 C19.529448,15.8428529 19.5523321,15.9008631 19.5893895,15.9067324 C19.6264593,15.9126037 19.642362,16.0083551 19.6247554,16.1195184 C19.6071494,16.2306786 19.6230645,16.3264319 19.6601218,16.3323012 C19.6971948,16.3381729 19.713097,16.4339274 19.695491,16.5450876 C19.6778844,16.656251 19.6896468,16.7513465 19.7216343,16.7564128 C19.7536187,16.7614786 19.8064766,16.9485462 19.8390983,17.1721196 C19.8717169,17.3956926 19.9153468,17.5968373 19.9360571,17.6191121 C19.9567648,17.6413834 19.994783,17.795023 20.0205394,17.9605346 C20.0462994,18.1260437 20.092839,18.2654943 20.1239681,18.2704246 C20.1550879,18.2753536 20.1709579,18.3400222 20.1592201,18.4141321 C20.1474827,18.4882389 20.168199,18.5536783 20.2052565,18.5595476 C20.2423263,18.5654188 20.2658796,18.6128656 20.2576234,18.6649938 C20.249367,18.7171221 20.2998887,18.9710665 20.3698912,19.2293159 C20.4398967,19.4875659 20.4765833,19.713816 20.4514192,19.7320966 C20.4262562,19.7503903 20.4410431,19.7709328 20.4842768,19.7777803 C20.5275136,19.7846283 20.5508834,19.8660267 20.5362117,19.9586603 C20.5215396,20.051297 20.5398554,20.1318917 20.5769129,20.137761 C20.6139826,20.1436322 20.6346871,20.2090666 20.6229493,20.2831765 C20.6112118,20.3572833 20.6243294,20.4216208 20.652106,20.4261568 C20.67988,20.4306892 20.7661084,20.6152727 20.8437242,20.836345 C20.9213403,21.057414 21.0086454,21.2420601 21.0377447,21.246669 C21.0668409,21.2512774 21.0834384,21.3005225 21.0746348,21.3561056 C21.0658318,21.4116858 21.0889495,21.4619636 21.1260069,21.4678329 C21.1630768,21.4737041 21.1840644,21.5373505 21.172673,21.6092729 C21.1612821,21.681192 21.1793143,21.7635778 21.2127481,21.7923465 C21.2461905,21.8211198 21.2642105,21.9035035 21.2528196,21.9754228 C21.2414282,22.0473451 21.2624282,22.1109934 21.2994855,22.1168628 C21.3365554,22.122734 21.3557767,22.1975323 21.3422263,22.2830855 C21.3286761,22.3686386 21.3527854,22.5045367 21.3958047,22.5850832 C21.4388182,22.6656255 21.4685738,22.771731 21.4620581,22.8208918 C21.4425934,22.9663515 21.5994942,23.1312384 21.7853825,23.1606801 C21.8806757,23.1757732 21.9634443,23.1578049 21.969313,23.1207515 C21.9751841,23.0836826 22.099759,23.0723484 22.2461479,23.0955342 C22.4145333,23.1222038 22.5393984,23.103321 22.5860385,23.0441346 C22.6299009,22.9884662 22.8042321,22.956235 23.0164884,22.9645692 C23.2508901,22.9737618 23.3781968,22.9471247 23.3877375,22.8868874 C23.3957233,22.8364665 23.4628976,22.804819 23.5370124,22.8165575 C23.6576551,22.8356655 23.7143575,22.7728986 23.7144299,22.6202097 C23.7144686,22.5311538 24.0391385,22.615185 24.0582366,22.7091936 C24.0699882,22.7670319 24.1025006,22.755426 24.1507159,22.6761858 C24.1981024,22.5983074 24.1977588,22.5398048 24.1497685,22.5148927 C24.1083534,22.4933947 24.0836677,22.417696 24.0949163,22.3466753 C24.1061648,22.2756548 24.0850481,22.2127439 24.0479906,22.2068746 C24.0109332,22.2010053 23.9881111,22.1430049 23.9971419,22.0779636 C24.0062348,22.0129321 23.9784782,21.8938247 23.9354615,21.8132818 C23.8924453,21.7327359 23.8659353,21.6119964 23.8765511,21.54497 C23.8871671,21.4779435 23.8655326,21.4183017 23.8284751,21.4124324 C23.7914022,21.4065605 23.7704142,21.3429173 23.7818055,21.270995 C23.7931969,21.1990726 23.7751646,21.1166869 23.741734,21.0879186 C23.7082914,21.0591455 23.688071,20.9906559 23.6967734,20.935711 C23.7054758,20.880766 23.6622631,20.7611262 23.6007444,20.6698389 C23.5392282,20.5785553 23.4998318,20.4348204 23.513198,20.3504293 C23.5265643,20.266038 23.5096385,20.090522 23.4755878,19.9603899 C23.4415366,19.830261 23.4094966,19.6398394 23.4043694,19.5372282 C23.3992484,19.4346178 23.356822,19.298039 23.3100828,19.233719 C23.2633471,19.1693964 23.2325047,19.0700528 23.2415487,19.0129513 C23.2505927,18.9558497 23.2188396,18.800982 23.1709836,18.6688001 C23.1231276,18.5366182 23.0575552,18.2456454 23.0252666,18.0221947 C22.9929781,17.798744 22.9417338,17.59457 22.9113968,17.5684517 C22.8810617,17.5423433 22.8700746,17.4336074 22.8869881,17.3268192 C22.9039022,17.2200281 22.8903879,17.1091163 22.8569574,17.0803481 C22.8235118,17.0515744 22.8102937,16.9388736 22.8275537,16.8298978 C22.8448138,16.7209221 22.828615,16.6269599 22.7915575,16.6210906 C22.7544878,16.6152193 22.735901,16.5364144 22.7502268,16.4459654 C22.7645525,16.3555164 22.7489211,16.2579721 22.7154874,16.2292034 C22.6820449,16.2004302 22.6688262,16.0877324 22.6860863,15.9787568 C22.7033463,15.869781 22.6871482,15.7758156 22.6500907,15.7699463 C22.6130332,15.764077 22.5902112,15.7060767 22.599242,15.6410353 C22.6083349,15.5760038 22.5805782,15.4568965 22.5375621,15.3763505 C22.4945454,15.2958076 22.4725538,15.1465391 22.4886919,15.0446468 C22.5048306,14.9427515 22.4906823,14.8358432 22.4572486,14.8070745 C22.4238057,14.7783044 22.4079035,14.6825499 22.4218827,14.5942885 C22.4358619,14.5060272 22.4199473,14.4102708 22.3865168,14.3815026 C22.3530706,14.3527319 22.3374517,14.2551897 22.3517774,14.1647407 C22.3661031,14.0742917 22.3475035,13.9954879 22.310446,13.9896186 C22.2733762,13.9837473 22.2574736,13.8879961 22.2750801,13.7768326 C22.2926866,13.6656693 22.2767716,13.5699161 22.2397142,13.5640468 C22.2026598,13.5581778 22.1781248,13.515445 22.1852564,13.4690943 C22.1923663,13.4227402 22.1714901,13.302893 22.1388654,13.2027685 C22.1062411,13.1026407 22.0581851,12.8852562 22.0320754,12.7196886 C22.0059652,12.5541242 21.9591349,12.4146244 21.9280057,12.4096939 C21.8968859,12.404765 21.8810159,12.3400965 21.8927532,12.2659896 C21.9044911,12.1918797 21.8837743,12.1264434 21.8467169,12.1205741 C21.809647,12.1147028 21.7937444,12.0189515 21.8113509,11.9077882 C21.828957,11.7966279 21.8188773,11.7017989 21.7889723,11.6970624 C21.759058,11.6923245 21.7130831,11.4668744 21.6868063,11.1960602 C21.6605321,10.9252496 21.6151854,10.6831374 21.5860331,10.6580643 C21.5568766,10.6329779 21.5447514,10.5384475 21.559077,10.4479985 C21.5734028,10.3575495 21.5548032,10.2787457 21.5177426,10.2728759 C21.4806729,10.2670046 21.4575131,10.2170728 21.4662489,10.1619172 C21.4816382,10.0647534 21.4493162,9.99817791 21.151043,9.51267764 C21.0146571,9.29067008 20.9925505,9.2811019 20.3298368,9.15714372 C19.3028402,8.9650354 18.300889,8.94274757 18.1326074,9.10827057 C18.0793953,9.16061276 17.9929744,9.34426599 17.940585,9.51638882 C17.8881829,9.6885128 17.8212825,9.82553504 17.7919042,9.82088199 C17.7299498,9.81106935 17.614241,10.09552 17.4883863,10.5670173 C17.4397514,10.7492321 17.3678698,10.922759 17.3286522,10.952631 C17.2894279,10.9825052 17.2415018,11.1069938 17.2221348,11.229272 C17.2027679,11.3515501 17.1566014,11.4467964 17.119544,11.4409271 C17.082471,11.4350553 17.033874,11.5457286 17.0115206,11.6868619 C16.9891668,11.8279983 16.9170401,11.9952703 16.8512398,12.0585782 C16.7849557,12.1223527 16.7061254,12.3236459 16.6747067,12.5099819 C16.643413,12.6949465 16.5034426,13.2632501 16.3636599,13.7728844 C16.0184457,15.031487 15.7660784,16.3106398 15.8489163,16.3819287 C15.9331631,16.4543301 15.88357,16.7700767 15.7904119,16.755322 C15.7511481,16.7491031 15.7425932,16.7166706 15.7713633,16.6832444 C15.8001388,16.6498032 15.7825362,16.6159504 15.7322524,16.6079863 C15.6819686,16.6000222 15.553742,16.3932479 15.4473009,16.1484885 C15.3408634,15.9037266 15.2271028,15.6992436 15.1945017,15.6940801 C15.1619099,15.688918 15.1402303,15.6531077 15.1463447,15.6145018 C15.1524588,15.5758991 15.107129,15.4696266 15.0456097,15.3783425 C14.984094,15.2870559 14.9424597,15.1574507 14.9530903,15.0903313 C14.9637215,15.0232087 14.9306176,14.9616709 14.8795249,14.9535787 C14.8284353,14.9454869 14.7633583,14.8419471 14.7349173,14.7234906 C14.7064732,14.6050335 14.6565594,14.5038954 14.6239954,14.4987377 C14.5914439,14.4935822 14.5719954,14.4438855 14.5807985,14.3883054 C14.589602,14.3327221 14.5664843,14.2824444 14.5294239,14.2765745 C14.492354,14.2707033 14.4692487,14.2204274 14.4780517,14.1648474 C14.4868553,14.1092641 14.4637376,14.0589863 14.4266801,14.053117 C14.3896103,14.0472458 14.3636213,14.0151775 14.3689006,13.9818455 C14.3821883,13.8979502 14.0225023,13.1311156 13.9512913,13.0915355 C13.9194316,13.0738284 13.8979918,13.0302866 13.903617,12.9947702 C13.9092418,12.9592567 13.8675374,12.8614836 13.8109393,12.7774969 C13.7543408,12.6935132 13.6783686,12.5354122 13.6421135,12.4261588 C13.6058546,12.3169078 13.5181617,12.1523606 13.4472388,12.0604988 C13.3763158,11.9686369 13.3237392,11.8590599 13.3304023,11.8169898 C13.3370656,11.7749197 13.3173257,11.7365102 13.286522,11.7316314 C13.2557275,11.726754 13.2019687,11.6405457 13.167057,11.5400589 C13.1321457,11.439569 13.0632268,11.3509595 13.0139006,11.343147 C12.9645743,11.3353345 12.9290213,11.2986259 12.93489,11.2615725 C12.9411685,11.2219317 12.7097359,11.156848 12.3728411,11.1034891 C12.0359494,11.0501307 11.7957304,11.0405217 11.7894534,11.0801532 C11.7835827,11.117219 11.6423417,11.1259134 11.475577,11.0995005 C11.3088155,11.073088 11.1675725,11.0817949 11.1617038,11.1188483 C11.1558331,11.1559141 11.0752327,11.174213 10.982586,11.1595392 C10.8899424,11.1448659 10.809922,11.1595023 10.8047654,11.1920596 C10.7961651,11.24636 10.7113917,11.2709289 10.1351345,11.3861539 C9.96401541,11.4203678 9.93329088,11.4613205 9.89439502,11.7068993 C9.86987148,11.8617348 9.87355346,12.0217078 9.90257822,12.0623883 C9.95273265,12.132684 9.92864763,12.4466102 9.73138866,14.2935815 C9.68451313,14.7324677 9.67394498,15.0959547 9.70789726,15.1013323 C9.74183712,15.1067078 9.73835826,15.3085831 9.70013132,15.5499385 C9.66190438,15.7912939 9.64985842,16.0457755 9.67336254,16.1154554 C9.69686666,16.1851351 9.71401481,16.4748958 9.71146905,16.7593708 C9.70892329,17.043846 9.70837234,17.4633052 9.71024767,17.6915061 C9.71212039,17.9197035 9.71308384,18.2230588 9.71242159,18.3656329 C9.71174124,18.508201 9.73565098,18.6459001 9.7655504,18.6716314 C9.79544982,18.6973627 9.80310556,18.8245244 9.78256468,18.9542144 C9.76038362,19.0942602 9.77525972,19.1774388 9.81919305,19.1590498 C9.86363328,19.1404489 9.87672239,19.2319015 9.85198783,19.3880694 C9.82934005,19.5310619 9.83273188,19.6810533 9.85952226,19.7213799 C9.88631527,19.7617102 9.91813484,20.0602869 9.93023776,20.3848903 C9.94233807,20.7094902 9.97660183,21.0086002 10.0063769,21.0495775 C10.036152,21.0905548 10.0470673,21.2089703 10.0306347,21.3127218 C10.0142021,21.4164732 10.0310771,21.5061655 10.0681345,21.512035 C10.1052074,21.5179067 10.1307136,21.553024 10.1248449,21.5900774 C10.1189762,21.6271308 10.1580315,21.7239604 10.211635,21.8052526 C10.2865296,21.9190314 10.4056244,21.9696546 10.7291759,22.0253471 L10.7291759,22.0253471 Z"></path>
            </g>
        </g>
    </g>
</svg>