<?xml version="1.0" encoding="UTF-8" standalone="no"?>
<svg width="32px" height="32px" viewBox="0 0 32 32" version="1.1" xmlns="http://www.w3.org/2000/svg" xmlns:xlink="http://www.w3.org/1999/xlink" xmlns:sketch="http://www.bohemiancoding.com/sketch/ns">
    <!-- Generator: Sketch 3.0.2 (7799) - http://www.bohemiancoding.com/sketch -->
    <title>mixpanel</title>
    <description>Created with Sketch.</description>
    <defs></defs>
    <g id="24" stroke="none" stroke-width="1" fill="none" fill-rule="evenodd" sketch:type="MSPage">
        <g id="Brands" sketch:type="MSLayerGroup" transform="translate(-200.000000, 0.000000)" fill="#6D6AA8">
            <g id="mixpanel" transform="translate(200.000000, 0.000000)" sketch:type="MSShapeGroup">
                <path d="M18,20 C19.6568543,20 21,18.6568543 21,17 C21,15.3431457 19.6568543,14 18,14 C16.3431457,14 15,15.3431457 15,17 C15,18.6568543 16.3431457,20 18,20 L18,20 L18,20 Z M3.9329609,21 C6.10507532,21 7.86592178,19.2091391 7.86592178,17 C7.86592178,14.7908609 6.10507532,13 3.9329609,13 C1.76084646,13 0,14.7908609 0,17 C0,19.2091391 1.76084646,21 3.9329609,21 L3.9329609,21 L3.9329609,21 Z M29.2877891,19.0387548 C30.3923586,19.0387548 31.2877891,18.1433243 31.2877891,17.0387548 C31.2877891,15.9341853 30.3923586,15.0387548 29.2877891,15.0387548 C28.1832196,15.0387548 27.2877891,15.9341853 27.2877891,17.0387548 C27.2877891,18.1433243 28.1832196,19.0387548 29.2877891,19.0387548 Z"></path>
            </g>
        </g>
    </g>
</svg>