<?xml version="1.0" encoding="UTF-8" standalone="no"?>
<svg width="32px" height="32px" viewBox="0 0 32 32" version="1.1" xmlns="http://www.w3.org/2000/svg" xmlns:xlink="http://www.w3.org/1999/xlink" xmlns:sketch="http://www.bohemiancoding.com/sketch/ns">
    <!-- Generator: Sketch 3.2.2 (9983) - http://www.bohemiancoding.com/sketch -->
    <title>month</title>
    <desc>Created with Sketch.</desc>
    <defs></defs>
    <g id="Icons" stroke="none" stroke-width="1" fill="none" fill-rule="evenodd" sketch:type="MSPage">
        <g id="month" sketch:type="MSLayerGroup" stroke="#626A85" stroke-width="2" stroke-linecap="round" stroke-linejoin="round">
            <g id="Group" transform="translate(1.000000, 1.000000)" sketch:type="MSShapeGroup">
                <path d="M5.10638298,2.60869565 L8.8817842e-15,2.60869565 L8.8817842e-15,30 L29.3617021,30 L29.3617021,2.60869565 L24.2553191,2.60869565" id="Stroke-3935"></path>
                <path d="M8.93617021,5.2173913 L5.10638298,5.2173913 L5.10638298,0 L8.93617021,0 L8.93617021,5.2173913 Z" id="Stroke-3936"></path>
                <path d="M24.2553191,5.2173913 L20.4255319,5.2173913 L20.4255319,0 L24.2553191,0 L24.2553191,5.2173913 Z" id="Stroke-3937"></path>
                <path d="M8.93617021,2.60869565 L20.4255319,2.60869565" id="Stroke-3938"></path>
                <path d="M8.8817842e-15,9.13043478 L29.3617021,9.13043478" id="Stroke-3939"></path>
                <path d="M7.65957447,11.7391304 L7.65957447,27.3913043" id="Stroke-3940"></path>
                <path d="M14.6808511,11.7391304 L14.6808511,27.3913043" id="Stroke-3941"></path>
                <path d="M21.7021277,11.7391304 L21.7021277,27.3913043" id="Stroke-3942"></path>
                <path d="M2.55319149,14.3478261 L26.8085106,14.3478261" id="Stroke-3943"></path>
                <path d="M2.55319149,19.5652174 L26.8085106,19.5652174" id="Stroke-3944"></path>
                <path d="M2.55319149,24.7826087 L26.8085106,24.7826087" id="Stroke-3945"></path>
            </g>
        </g>
    </g>
</svg>