<?xml version="1.0" encoding="utf-8"?>
<!-- Generator: Adobe Illustrator 16.0.0, SVG Export Plug-In . SVG Version: 6.00 Build 0)  -->
<!DOCTYPE svg PUBLIC "-//W3C//DTD SVG 1.1//EN" "http://www.w3.org/Graphics/SVG/1.1/DTD/svg11.dtd">
<svg version="1.1" id="Layer_1" xmlns="http://www.w3.org/2000/svg" xmlns:xlink="http://www.w3.org/1999/xlink" x="0px" y="0px"
	 width="16px" height="16px" viewBox="0 0 16 16" enable-background="new 0 0 16 16" xml:space="preserve">
<g>
	<defs>
		<rect id="SVGID_1_" width="16" height="16"/>
	</defs>
	<clipPath id="SVGID_2_">
		<use xlink:href="#SVGID_1_"  overflow="visible"/>
	</clipPath>
	<path clip-path="url(#SVGID_2_)" fill="#1D1D1B" d="M15.766,8.437C15.913,8.339,16,8.175,16,7.999c0-0.176-0.087-0.34-0.234-0.437
		l-1.654-1.104L14.07,6.263l0.875-1.767c0.076-0.158,0.072-0.344-0.019-0.497c-0.088-0.152-0.245-0.25-0.42-0.261l-1.975-0.127
		l-0.144-0.145L12.26,1.493C12.252,1.318,12.152,1.159,12,1.071c-0.152-0.087-0.339-0.093-0.496-0.015l-1.77,0.875L9.535,1.878
		L8.438,0.234C8.34,0.087,8.176-0.001,8-0.001c-0.174,0-0.338,0.088-0.437,0.235L6.465,1.88L6.268,1.931L4.496,1.056
		C4.34,0.978,4.153,0.984,4,1.071C3.849,1.159,3.75,1.318,3.74,1.493L3.612,3.468L3.469,3.611L1.496,3.738
		c-0.177,0.011-0.334,0.11-0.422,0.261c-0.089,0.153-0.095,0.34-0.016,0.498l0.875,1.771L1.879,6.465L0.233,7.562
		C0.086,7.659,0,7.824,0,8c0,0.176,0.088,0.341,0.235,0.438l1.645,1.099l0.052,0.196l-0.875,1.771
		c-0.079,0.158-0.073,0.345,0.015,0.496c0.089,0.153,0.246,0.252,0.423,0.263l1.973,0.129l0.143,0.144l0.13,1.973
		C3.749,14.684,3.848,14.842,4,14.93c0.153,0.088,0.338,0.094,0.496,0.016l1.77-0.875l0.199,0.053l1.096,1.645
		C7.662,15.912,7.828,16,8.002,16c0.177,0,0.34-0.088,0.438-0.234l1.097-1.645l0.2-0.053l1.771,0.875
		c0.154,0.078,0.345,0.072,0.496-0.017c0.151-0.088,0.25-0.247,0.263-0.423l0.127-1.971l0.146-0.146l1.97-0.127
		c0.177-0.011,0.334-0.109,0.423-0.262c0.088-0.152,0.094-0.338,0.016-0.496l-0.875-1.77l0.043-0.194L15.766,8.437z M11.85,6.634
		l-3.549,3.688L7.191,11.43c-0.202,0.205-0.537,0.205-0.739,0l-1.111-1.107L3.701,8.68c-0.205-0.204-0.205-0.536,0-0.739L4.438,7.2
		c0.203-0.204,0.537-0.204,0.741,0l1.64,1.641l3.548-3.687c0.202-0.205,0.534-0.206,0.737-0.002l0.74,0.74
		C12.051,6.095,12.051,6.429,11.85,6.634"/>
</g>
</svg>
