<?xml version="1.0" encoding="UTF-8" standalone="no"?>
<svg width="36px" height="36px" viewBox="0 0 36 36" version="1.1" xmlns="http://www.w3.org/2000/svg" xmlns:xlink="http://www.w3.org/1999/xlink" xmlns:sketch="http://www.bohemiancoding.com/sketch/ns">
    <!-- Generator: Sketch 3.0.3 (7891) - http://www.bohemiancoding.com/sketch -->
    <title>ol</title>
    <desc>Created with Sketch.</desc>
    <defs></defs>
    <g id="24" stroke="none" stroke-width="1" fill="none" fill-rule="evenodd" sketch:type="MSPage">
        <g id="Icons" sketch:type="MSLayerGroup" transform="translate(0.000000, -422.000000)" stroke="#0093E6" stroke-width="2" stroke-linecap="round" stroke-linejoin="round">
            <g id="ol" transform="translate(0.000000, 422.000000)" sketch:type="MSShapeGroup">
                <g id="Group" transform="translate(1.000000, 4.000000)">
                    <path d="M8.86956522,2.95652174 L34,2.95652174" id="Stroke-6915"></path>
                    <path d="M8.86956522,14.7826087 L34,14.7826087" id="Stroke-6916"></path>
                    <path d="M8.86956522,26.6086957 L34,26.6086957" id="Stroke-6917"></path>
                    <path d="M2.2173913,5.91304348 L2.2173913,0.107913043 L0,2.27134783" id="Stroke-6918"></path>
                    <path d="M2.95652174,17.7391304 L-0.10273913,17.7391304 C2.08508696,14.7826087 2.85378261,15.0243043 2.85378261,13.3583043 C2.85378261,12.5423043 2.19004348,11.9066522 1.37552174,11.9066522 C0.558043478,11.9066522 -0.051,12.529 -0.051,13.345" id="Stroke-6919"></path>
                    <path d="M0,23.6521739 L2.85378261,23.6521739 L1.37552174,25.9235217 C2.59730435,25.9235217 2.85378261,26.6353043 2.85378261,27.3744348 C2.85378261,28.1135652 2.59730435,28.826087 1.37552174,28.826087 L0,28.826087" id="Stroke-6920"></path>
                </g>
            </g>
        </g>
    </g>
</svg>