<?xml version="1.0" encoding="utf-8"?>
<!-- Generator: Adobe Illustrator 16.0.0, SVG Export Plug-In . SVG Version: 6.00 Build 0)  -->
<!DOCTYPE svg PUBLIC "-//W3C//DTD SVG 1.1//EN" "http://www.w3.org/Graphics/SVG/1.1/DTD/svg11.dtd">
<svg version="1.1" id="Layer_1" xmlns="http://www.w3.org/2000/svg" xmlns:xlink="http://www.w3.org/1999/xlink" x="0px" y="0px"
	 width="16px" height="16px" viewBox="0 0 16 16" enable-background="new 0 0 16 16" xml:space="preserve">
<g>
	<defs>
		<rect id="SVGID_1_" width="16" height="16"/>
	</defs>
	<clipPath id="SVGID_2_">
		<use xlink:href="#SVGID_1_"  overflow="visible"/>
	</clipPath>
	<path clip-path="url(#SVGID_2_)" fill="#1D1D1B" d="M15.201,1.609C14.553,0.96,13.764,1.75,13.764,1.75L9.021,6.492
		C8.23,7.282,5.976,8.188,5.976,8.188l2.594,2.597c0,0,0.957-2.203,1.748-2.995c0.789-0.79,4.74-4.742,4.74-4.742
		S15.85,2.257,15.201,1.609"/>
	<path clip-path="url(#SVGID_2_)" fill="#1D1D1B" d="M3.022,10.784c-1.2,2.868-1.003,4.506-3.021,5.004
		c7.78,1.353,7.78-4.215,7.78-4.215L5.186,8.979C5.186,8.979,3.611,9.374,3.022,10.784 M2.272,14.925
		c0.594-0.688,1.523-3.983,2.719-4.813C5.835,10.675,4.96,13.3,2.272,14.925"/>
</g>
</svg>
