<?xml version="1.0" encoding="UTF-8" standalone="no"?>
<svg width="48px" height="48px" viewBox="0 0 48 48" version="1.1" xmlns="http://www.w3.org/2000/svg" xmlns:xlink="http://www.w3.org/1999/xlink" xmlns:sketch="http://www.bohemiancoding.com/sketch/ns">
    <!-- Generator: Sketch 3.2.2 (9983) - http://www.bohemiancoding.com/sketch -->
    <title>phone</title>
    <desc>Created with Sketch.</desc>
    <defs></defs>
    <g id="Icons" stroke="none" stroke-width="1" fill="none" fill-rule="evenodd" sketch:type="MSPage">
        <g id="phone" sketch:type="MSLayerGroup" fill="#000000">
            <g id="Fill-428" sketch:type="MSShapeGroup">
                <path d="M41.1520347,28.4158212 C39.902081,27.1658675 38.2355256,26.475 36.468,26.475 C34.7005171,26.475 33.0331398,27.1658236 31.7822261,28.4155605 L30.7902499,29.4065367 L32.1377576,29.3462568 C27.3123165,25.3189494 22.6766027,20.6827286 18.6538331,15.8613501 L18.5931068,17.2091068 L19.5851068,16.2171068 C22.1686042,13.6324313 22.1686042,9.43139065 19.5851068,6.84789322 L14.6781068,1.94089322 C13.4282162,0.691002664 11.7607161,0 9.993,0 C8.224605,0 6.55730342,0.690483014 5.30689322,1.94089322 L2.61576187,4.63302459 C-0.373163417,7.62082316 -0.847245024,12.3479798 1.48674556,15.8793797 C9.46511929,27.9418249 20.0561564,38.5328619 32.1202987,46.5130418 C33.5883014,47.4834546 35.2951015,47.997 37.053,47.997 C39.4397977,47.997 41.6863848,47.0672044 43.3678157,45.3823972 L46.0591068,42.6911068 C47.3090506,41.4435154 48,39.7760158 48,38.008 C48,36.2389504 47.3097612,34.5725476 46.0591068,33.3218932 L41.1520347,28.4158212 L41.1520347,28.4158212 Z M40.5387619,42.5560245 C39.6094637,43.4861546 38.3740875,43.997 37.053,43.997 C36.0803845,43.997 35.1390573,43.7138122 34.3263423,43.1767208 C22.7091245,35.4916672 12.5053926,25.2884444 4.82304723,13.674307 C3.53421534,11.7248552 3.79625814,9.1081249 5.44392851,7.46128501 L8.13523813,4.76897541 C8.63240293,4.27181063 9.28897955,4 9.993,4 C10.6961149,4 11.3526638,4.27187739 11.8498932,4.76910678 L16.7568932,9.67610678 C17.7794106,10.6993479 17.7794106,12.3663758 16.7568932,13.3888932 L15.1221096,15.0226769 C14.3949436,15.7498428 14.3376605,16.9087705 14.9874361,17.7044957 C19.4970826,23.2092162 24.7875152,28.5004266 30.2932221,33.0115151 C31.087156,33.6634615 32.2475325,33.606681 32.9751068,32.8791068 L34.6101068,31.2441068 C35.5891993,30.2650142 37.3450343,30.2652478 38.3238932,31.2441068 L43.2309653,36.1501788 C43.7281894,36.6474029 44,37.3039796 44,38.008 C44,38.7107763 43.7283836,39.3661288 43.2314099,39.8623769 L40.5387619,42.5560245 L40.5387619,42.5560245 Z"></path>
            </g>
        </g>
    </g>
</svg>