<?xml version="1.0" encoding="utf-8"?>
<!-- Generator: Adobe Illustrator 16.0.0, SVG Export Plug-In . SVG Version: 6.00 Build 0)  -->
<!DOCTYPE svg PUBLIC "-//W3C//DTD SVG 1.1//EN" "http://www.w3.org/Graphics/SVG/1.1/DTD/svg11.dtd">
<svg version="1.1" id="Layer_1" xmlns="http://www.w3.org/2000/svg" xmlns:xlink="http://www.w3.org/1999/xlink" x="0px" y="0px"
	 width="16px" height="16px" viewBox="0 0 16 16" enable-background="new 0 0 16 16" xml:space="preserve">
<path fill="#1D1D1B" d="M2,4h12.001v9H2V4z M0,15h16V1.999H0V15z"/>
<g>
	<defs>
		<rect id="SVGID_1_" width="16" height="16"/>
	</defs>
	<clipPath id="SVGID_2_">
		<use xlink:href="#SVGID_1_"  overflow="visible"/>
	</clipPath>
	<path clip-path="url(#SVGID_2_)" fill="#1D1D1B" d="M5.746,7.746c0.828,0,1.498-0.672,1.498-1.501c0-0.828-0.67-1.499-1.498-1.499
		c-0.83,0-1.502,0.671-1.502,1.499C4.244,7.074,4.916,7.746,5.746,7.746"/>
	<path clip-path="url(#SVGID_2_)" fill="#1D1D1B" d="M13,8.373L11.416,5.5l-2.148,4.644L8,8.848c0,0-1.756,0.652-2.334,1.652
		c-0.922-0.5-1.422,0-1.422,0L3,12h10V8.373z"/>
</g>
</svg>
