<?xml version="1.0" encoding="utf-8"?>
<!-- Generator: Adobe Illustrator 16.0.0, SVG Export Plug-In . SVG Version: 6.00 Build 0)  -->
<!DOCTYPE svg PUBLIC "-//W3C//DTD SVG 1.1//EN" "http://www.w3.org/Graphics/SVG/1.1/DTD/svg11.dtd">
<svg version="1.1" id="Layer_1" xmlns="http://www.w3.org/2000/svg" xmlns:xlink="http://www.w3.org/1999/xlink" x="0px" y="0px"
	 width="512px" height="512px" viewBox="0 0 512 512" enable-background="new 0 0 512 512" xml:space="preserve">
<path d="M416,287.887c-32,0-64,32.113-96,32.113s-32-128-96-128S96,256,64,384c0,0,352,0,384,0C448,384.001,448,287.887,416,287.887
	z M0,96v352h512V96H0z M480,416H32V128h448V416z M352,208c0,26.51,21.49,48,48,48s48-21.49,48-48s-21.49-48-48-48
	S352,181.49,352,208z"/>
</svg>
