<?xml version="1.0" encoding="utf-8"?>
<!-- Generator: Adobe Illustrator 16.0.0, SVG Export Plug-In . SVG Version: 6.00 Build 0)  -->
<!DOCTYPE svg PUBLIC "-//W3C//DTD SVG 1.1//EN" "http://www.w3.org/Graphics/SVG/1.1/DTD/svg11.dtd">
<svg version="1.1" id="Layer_1" xmlns="http://www.w3.org/2000/svg" xmlns:xlink="http://www.w3.org/1999/xlink" x="0px" y="0px"
	 width="512px" height="512px" viewBox="0 0 512 512" enable-background="new 0 0 512 512" xml:space="preserve">
<path d="M319.869,192.13l-95.804,159.675l-63.402-46.249l-0.467-1.652l-3.774-1.45l2.933,2.151L64.392,383.74v31.935H447.61V383.74
	l-47.902-143.707L319.869,192.13z M144.228,208.098c26.461,0,47.901-21.439,47.901-47.901s-21.44-47.902-47.901-47.902
	s-47.902,21.44-47.902,47.902S117.766,208.098,144.228,208.098z M495.51,32.456H16.489c-8.826,0-15.967,7.157-15.967,15.968v415.152
	c0,8.826,7.142,15.968,15.967,15.968H495.51c8.826,0,15.969-7.142,15.969-15.968V48.424
	C511.479,39.613,504.336,32.456,495.51,32.456z M479.543,431.642c0,8.826-7.141,15.968-15.967,15.968H48.424
	c-8.825,0-15.967-7.142-15.967-15.968V80.358c0-8.812,7.142-15.969,15.967-15.969h415.153c8.826,0,15.967,7.157,15.967,15.969
	V431.642L479.543,431.642z"/>
</svg>
