<?xml version="1.0" encoding="UTF-8" standalone="no"?>
<svg width="48px" height="48px" viewBox="0 0 48 48" version="1.1" xmlns="http://www.w3.org/2000/svg" xmlns:xlink="http://www.w3.org/1999/xlink" xmlns:sketch="http://www.bohemiancoding.com/sketch/ns">
    <!-- Generator: Sketch 3.2.2 (9983) - http://www.bohemiancoding.com/sketch -->
    <title>platform</title>
    <desc>Created with Sketch.</desc>
    <defs></defs>
    <g id="Icons" stroke="none" stroke-width="1" fill="none" fill-rule="evenodd" sketch:type="MSPage">
        <g id="platform" sketch:type="MSLayerGroup" fill="#626A85">
            <path d="M23.7518298,0 C23.4709787,0 23.2626383,0.00408510638 22.7387234,0.0153191489 C9.77770213,0.545361702 0,10.5395745 0,23.261617 C0,36.6188936 10.6182128,47.4893617 23.6834043,47.4893617 C36.8119149,47.4893617 47.4893617,36.7996596 47.4893617,23.6599149 C47.4893617,10.6120851 36.8425532,0 23.7518298,0 L23.7518298,0 Z M44.4061277,22.9787234 L34.8622979,22.9787234 C34.8868085,20.3826383 34.589617,17.8222979 33.9799149,15.3191489 L42.6403404,15.3191489 C43.7157447,17.7181277 44.3182979,20.3060426 44.4061277,22.9787234 L44.4061277,22.9787234 Z M40.9480851,12.2542979 L33.0730213,12.2542979 C31.9935319,9.2292766 30.4289362,6.33191489 28.3945532,3.59897872 C33.5305532,4.78059574 38.0200851,7.89140426 40.9480851,12.2542979 L40.9480851,12.2542979 Z M15.6102128,22.9787234 C15.5765106,20.3581277 15.9033191,17.8018723 16.6008511,15.3191489 L30.9099574,15.3191489 C31.6003404,17.8018723 31.9281702,20.3581277 31.8995745,22.9787234 L15.6102128,22.9787234 L15.6102128,22.9787234 Z M31.6994043,26.0415319 C31.4022128,28.56 30.7761702,31.1162553 29.8120851,33.7011064 L17.6915745,33.7011064 C16.733617,31.1305532 16.1085957,28.5732766 15.8062979,26.0415319 L31.6994043,26.0415319 L31.6994043,26.0415319 Z M23.4924255,3.06689362 C23.6149787,3.06382979 23.6793191,3.06280851 23.7518298,3.06280851 C23.8345532,3.06280851 23.9131915,3.06382979 24.0122553,3.06689362 C26.5848511,5.95302128 28.5385532,9.03012766 29.8580426,12.2542979 L17.645617,12.2542979 C18.9671489,9.024 20.9218723,5.94485106 23.4924255,3.06689362 L23.4924255,3.06689362 Z M19.1438298,3.55302128 C17.0971915,6.29208511 15.522383,9.20476596 14.4306383,12.2542979 L6.28391489,12.2542979 C9.168,7.81378723 13.7484255,4.69685106 19.1438298,3.55302128 L19.1438298,3.55302128 Z M4.6733617,15.3191489 L13.5288511,15.3191489 C12.9150638,17.8182128 12.6168511,20.3795745 12.6413617,22.9787234 L3.07812766,22.9787234 C3.11387234,20.2825532 3.66229787,17.700766 4.6733617,15.3191489 L4.6733617,15.3191489 Z M5.76204255,33.7011064 C4.45480851,31.3429787 3.59897872,28.7530213 3.24970213,26.0415319 L12.816,26.0415319 C13.0825532,28.5834894 13.6483404,31.1438298 14.5041702,33.7011064 L5.76204255,33.7011064 L5.76204255,33.7011064 Z M7.83217021,36.7649362 L15.6653617,36.7649362 C16.7019574,39.1904681 18.0081702,41.6027234 19.5686809,43.9894468 C14.9627234,43.0253617 10.8326809,40.464 7.83217021,36.7649362 L7.83217021,36.7649362 Z M23.6834043,44.4245106 C23.6537872,44.4245106 23.6221277,44.4234894 23.5925106,44.4234894 C21.7501277,41.9029787 20.2253617,39.3436596 18.9988085,36.7649362 L28.5048511,36.7649362 C27.2813617,39.3375319 25.7586383,41.8958298 23.9213617,44.4194043 C23.8151489,44.4224681 23.7477447,44.4245106 23.6834043,44.4245106 L23.6834043,44.4245106 Z M27.954383,43.9547234 C29.5077447,41.5771915 30.8078298,39.1761702 31.8382979,36.7649362 L39.7225532,36.7649362 C36.7342979,40.4251915 32.5991489,42.9732766 27.954383,43.9547234 L27.954383,43.9547234 Z M41.8182128,33.7011064 L32.9994894,33.7011064 C33.8553191,31.1438298 34.4211064,28.5834894 34.6876596,26.0415319 L44.274383,26.0415319 C43.9659574,28.7448511 43.1285106,31.3348085 41.8182128,33.7011064 L41.8182128,33.7011064 Z" id="Imported-Layers" sketch:type="MSShapeGroup"></path>
        </g>
    </g>
</svg>