<?xml version="1.0" encoding="UTF-8" standalone="no"?>
<svg width="48px" height="48px" viewBox="0 0 48 48" version="1.1" xmlns="http://www.w3.org/2000/svg" xmlns:xlink="http://www.w3.org/1999/xlink" xmlns:sketch="http://www.bohemiancoding.com/sketch/ns">
    <!-- Generator: Sketch 3.2.2 (9983) - http://www.bohemiancoding.com/sketch -->
    <title>platform</title>
    <desc>Created with Sketch.</desc>
    <defs></defs>
    <g id="Icons" stroke="none" stroke-width="1" fill="none" fill-rule="evenodd" sketch:type="MSPage">
        <g id="platform" sketch:type="MSLayerGroup" fill="#231F1F">
            <g id="Fill-5151" sketch:type="MSShapeGroup">
                <g>
                    <path d="M24.01,0.086 C23.661,0.086 23.315,0.093 22.971,0.106 C9.875,0.636 0,10.729 0,23.585 C0,37.095 10.737,48.086 23.936,48.086 C37.205,48.086 48,37.281 48,24 C48,10.813 37.238,0.086 24.01,0.086 L24.01,0.086 Z M2.048,25 L13.133,25 C13.339,28.298 14.041,31.646 15.244,35 L5.043,35 C3.333,32.033 2.269,28.633 2.048,25 L2.048,25 Z M13.063,23 L2.028,23 C2.123,19.344 3.092,15.949 4.755,13 L14.686,13 C13.604,16.232 13.059,19.582 13.063,23 L13.063,23 Z M16.738,13 L31.281,13 C32.463,16.227 33.057,19.575 33.052,23 L14.966,23 C14.962,19.575 15.556,16.227 16.738,13 L16.738,13 Z M15.044,25 L32.975,25 C32.751,28.287 31.992,31.634 30.693,35 L17.324,35 C16.026,31.634 15.267,28.287 15.044,25 L15.044,25 Z M34.885,25 L45.975,25 C45.812,28.629 44.768,32.029 43.056,35 L32.773,35 C33.977,31.646 34.678,28.298 34.885,25 L34.885,25 Z M34.955,23 C34.959,19.582 34.415,16.232 33.333,13 L43.017,13 C44.751,15.965 45.81,19.367 45.975,23 L34.955,23 L34.955,23 Z M41.699,11 L32.593,11 C31.352,7.98 29.614,5.082 27.394,2.346 C33.238,3.25 38.327,6.455 41.699,11 L41.699,11 Z M24.555,2.1 C27.094,4.91 29.063,7.891 30.463,11 L17.556,11 C18.957,7.89 20.927,4.907 23.467,2.097 C23.648,2.093 23.828,2.086 24.01,2.086 C24.192,2.086 24.373,2.096 24.555,2.1 L24.555,2.1 Z M20.635,2.334 C18.41,5.074 16.669,7.977 15.426,11 L6.043,11 C9.376,6.404 14.528,3.206 20.635,2.334 L20.635,2.334 Z M6.336,37 L16.019,37 C17.26,39.971 18.895,42.938 20.92,45.868 C14.967,45.024 9.77,41.727 6.336,37 L6.336,37 Z M23.526,46.075 C21.304,43.061 19.516,40.026 18.16,37 L29.857,37 C28.5,40.025 26.713,43.059 24.492,46.072 C24.307,46.076 24.122,46.086 23.936,46.086 C23.798,46.086 23.663,46.078 23.526,46.075 L23.526,46.075 Z M27.104,45.854 C29.125,42.929 30.758,39.967 31.998,37 L41.757,37 C38.332,41.693 33.106,44.986 27.104,45.854 L27.104,45.854 Z"></path>
                </g>
            </g>
        </g>
    </g>
</svg>