<?xml version="1.0" encoding="UTF-8" standalone="no"?>
<svg width="32px" height="32px" viewBox="0 0 32 32" version="1.1" xmlns="http://www.w3.org/2000/svg" xmlns:xlink="http://www.w3.org/1999/xlink" xmlns:sketch="http://www.bohemiancoding.com/sketch/ns">
    <!-- Generator: Sketch 3.2.2 (9983) - http://www.bohemiancoding.com/sketch -->
    <title>platform</title>
    <desc>Created with Sketch.</desc>
    <defs></defs>
    <g id="Icons" stroke="none" stroke-width="1" fill="none" fill-rule="evenodd" sketch:type="MSPage">
        <g id="platform" sketch:type="MSLayerGroup" stroke="#626A85" fill="#626A85">
            <path d="M17.685,29.8895 C19.05,27.9445 20.145,25.9745 20.96,23.9995 L27.455,23.9995 C25.225,27.1795 21.72,29.3895 17.685,29.8895 L17.685,29.8895 Z M15.635,29.9895 C14.16,28 12.99,25.9945 12.11,23.9995 L19.9,23.9995 C19.02,25.9945 17.85,28 16.38,29.9895 C16.24,29.9895 16.1,29.9995 15.96,29.9995 C15.85,29.9995 15.74,29.9945 15.635,29.9895 L15.635,29.9895 Z M4.605,23.9995 L11.05,23.9995 C11.865,25.9745 12.96,27.949 14.33,29.8995 C10.33,29.4195 6.845,27.199 4.605,23.9995 L4.605,23.9995 Z M3.21,10 L9.965,10 C9.42,11.9445 9.18,13.9545 9.25,16 L2.005,16 C2.005,15.8945 2,15.79 2,15.6845 C2,13.6395 2.43,11.7195 3.21,10 L3.21,10 Z M14.19,2.1095 C12.395,4.26 11.09,6.574 10.27,8.9995 L3.715,8.9995 C5.79,5.2745 9.59,2.6645 14.19,2.1095 L14.19,2.1095 Z M16.41,2.01 C18.39,4.1945 19.83,6.54 20.725,8.9995 L11.285,8.9995 C12.18,6.54 13.62,4.1895 15.605,2.005 C15.74,2.005 15.87,1.9995 16.005,1.9995 C16.14,1.9995 16.275,2.005 16.41,2.01 L16.41,2.01 Z M28.135,8.9995 L21.74,8.9995 C20.925,6.5795 19.62,4.2695 17.83,2.1195 C22.235,2.6945 26,5.3195 28.135,8.9995 L28.135,8.9995 Z M22.7,16.9995 L29.955,16.9995 C29.795,19.175 29.135,21.21 28.095,22.9995 L21.35,22.9995 C22.085,20.9895 22.535,18.9795 22.7,16.9995 L22.7,16.9995 Z M10.95,10 L21.065,10 C21.65,11.9445 21.9,13.9495 21.825,16 L10.19,16 C10.11,13.9495 10.36,11.9445 10.95,10 L10.95,10 Z M10.25,16.9995 L21.76,16.9995 C21.585,18.9745 21.1,20.9795 20.315,22.9995 L11.695,22.9995 C10.91,20.9795 10.43,18.9745 10.25,16.9995 L10.25,16.9995 Z M2.06,16.9995 L9.31,16.9995 C9.475,18.9795 9.925,20.9895 10.66,22.9995 L3.965,22.9995 C2.925,21.21 2.255,19.175 2.06,16.9995 L2.06,16.9995 Z M30,16 L22.76,16 C22.83,13.9545 22.59,11.9445 22.05,10 L28.66,10 C29.52,11.8045 30,13.8195 30,15.9445 L30,16 L30,16 Z M16.005,1 C15.79,1 15.575,1.005 15.355,1.01 C7.17,1.3445 1,7.65 1,15.6845 C1,24.13 7.71,31 15.96,31 C24.255,31 31,24.2445 31,15.9445 C31,7.7045 24.275,1 16.005,1 L16.005,1 Z" id="Fill-3146" sketch:type="MSShapeGroup"></path>
        </g>
    </g>
</svg>