<?xml version="1.0" encoding="UTF-8" standalone="no"?>
<svg width="32px" height="32px" viewBox="0 0 32 32" version="1.1" xmlns="http://www.w3.org/2000/svg" xmlns:xlink="http://www.w3.org/1999/xlink" xmlns:sketch="http://www.bohemiancoding.com/sketch/ns">
    <!-- Generator: Sketch 3.2.2 (9983) - http://www.bohemiancoding.com/sketch -->
    <title>platform</title>
    <desc>Created with Sketch.</desc>
    <defs></defs>
    <g id="Icons" stroke="none" stroke-width="1" fill="none" fill-rule="evenodd" sketch:type="MSPage">
        <g id="platform" sketch:type="MSLayerGroup" fill="#626A85">
            <path d="M21.4221935,24.190228 L20.96,24.4995 L27.455,24.4995 L27.0456261,23.7124233 C24.8523941,26.8399919 21.4436162,28.9199242 17.6235124,29.3932951 L18.0942697,30.1767252 C19.4792092,28.2033132 20.5923665,26.2011585 21.4221935,24.190228 L21.4221935,24.190228 L21.4221935,24.190228 Z M16.6287134,30.5242147 L17.7464876,30.3857049 C21.8496375,29.87726 25.5101427,27.6437314 27.8643739,24.2865767 L28.4163176,23.4995 L27.455,23.4995 L20.96,23.4995 L20.6254301,23.4995 L20.4978065,23.808772 C19.6968276,25.7497945 18.6194437,27.6876063 17.2757303,29.6022748 L16.6287134,30.5242147 L16.6287134,30.5242147 Z M12.5674714,23.7977081 L12.11,24.4995 L19.9,24.4995 L19.4425286,23.7977081 C18.5680458,25.7802004 17.4109091,27.7528841 15.9778636,29.6923698 L16.38,29.9895 L16.38,29.4895 C16.3137318,29.4895 16.2631018,29.4908562 16.1521542,29.4948186 C16.0531018,29.4983562 16.0103984,29.4995 15.96,29.4995 C15.8777624,29.4995 15.802129,29.496892 15.6587826,29.4900659 L15.635,29.9895 L16.0366534,29.6917173 C14.6017258,27.7562675 13.4437217,25.7842074 12.5674714,23.7977081 L12.5674714,23.7977081 L12.5674714,23.7977081 Z M15.3744919,30.4776614 L15.6112174,30.4889341 C15.769746,30.496483 15.8572376,30.4995 15.96,30.4995 C16.0262682,30.4995 16.0768982,30.4981438 16.1878458,30.4941814 C16.2868982,30.4906438 16.3296016,30.4895 16.38,30.4895 L16.6322401,30.4895 L16.7821364,30.2866302 C18.2581088,28.2890471 19.4525908,26.2526972 20.3574714,24.2012919 L20.6670337,23.4995 L19.9,23.4995 L12.11,23.4995 L11.3429663,23.4995 L11.6525286,24.2012919 C12.5593452,26.2570863 13.7550115,28.2932843 15.2333466,30.2872827 L15.3744919,30.4776614 L15.3744919,30.4776614 Z M11.05,24.4995 L10.5878065,24.190228 C11.4201285,26.2072046 12.5349569,28.2137683 13.9208428,30.1868855 L14.3895726,29.4030616 C10.6118971,28.9497405 7.22225633,26.866048 5.01459491,23.7127388 L4.605,24.4995 L11.05,24.4995 L11.05,24.4995 Z M3.64458616,23.4995 L4.19540509,24.2862612 C6.56384196,27.6692138 10.2061465,29.9082247 14.2704274,30.3959384 L15.3835208,30.5295096 L14.7391572,29.6121145 C13.3946803,27.6979524 12.3156864,25.7558866 11.5121935,23.808772 L11.3845699,23.4995 L11.05,23.4995 L4.605,23.4995 L3.64458616,23.4995 L3.64458616,23.4995 Z M9.965,10.5 L9.48355272,9.86506106 C8.92434622,11.8602483 8.67858101,13.9215879 8.75029252,16.0171007 L9.25,15.5 L2.005,15.5 L2.005,16 L2.505,16 C2.505,15.9507566 2.5042926,15.9110948 2.50235834,15.8303486 C2.5005426,15.7535948 2.5,15.7231733 2.5,15.6845 C2.5,13.7475888 2.89962764,11.8945593 3.66534181,10.2065523 L3.21,10.5 L9.965,10.5 L9.965,10.5 Z M2.88777202,9.5 L2.75465819,9.79344774 C1.93000618,11.6113825 1.5,13.605274 1.5,15.6845 C1.5,15.7337434 1.5007074,15.7734052 1.50264166,15.8541514 C1.5044574,15.9309052 1.505,15.9613267 1.505,16 L1.505,16.5 L2.005,16.5 L9.25,16.5 L9.76740342,16.5 L9.74970748,15.9828993 C9.68149834,13.9897308 9.91503457,12.030961 10.4464473,10.1349389 L10.6244065,9.5 L9.965,9.5 L3.21,9.5 L2.88777202,9.5 L2.88777202,9.5 Z M9.79633639,8.83936635 L10.27,8.4995 L3.715,8.4995 L4.15180179,9.24281912 C6.18443403,5.59387692 9.88246682,3.13283933 14.2498917,2.60590002 L13.8061455,1.78910066 C11.9856409,3.97015642 10.6427803,6.33564721 9.79633639,8.83936635 L9.79633639,8.83936635 L9.79633639,8.83936635 Z M15.3816695,1.46209639 L14.1301083,1.61309998 C9.44638843,2.17820096 5.46735906,4.82624152 3.27819821,8.75618088 L2.86413454,9.4995 L3.715,9.4995 L10.27,9.4995 L10.6287634,9.4995 L10.7436636,9.15963365 C11.5499261,6.77476811 12.8313376,4.51752189 14.5738545,2.42989934 L15.3816695,1.46209639 L15.3816695,1.46209639 Z M20.2551423,9.1704789 L20.725,8.4995 L11.285,8.4995 L11.7548577,9.1704789 C12.6334202,6.75614984 14.0464043,4.46373034 15.9750467,2.34125207 L15.605,2.005 L15.605,2.505 C15.6658429,2.505 15.7142232,2.50425045 15.8153751,2.50214235 C15.9129732,2.50012545 15.9533429,2.4995 16.005,2.4995 C16.0998278,2.4995 16.178184,2.5016947 16.3575902,2.50839474 C16.3744908,2.50902591 16.3744908,2.50902591 16.3914942,2.50965742 L16.41,2.01 L16.0395316,2.34578735 C17.9677298,4.47313534 19.3785654,6.76160632 20.2551423,9.1704789 L20.2551423,9.1704789 L20.2551423,9.1704789 Z M16.6390053,1.51813886 L16.4285058,1.51034258 C16.4117592,1.50972061 16.4117592,1.50972061 16.3949098,1.50909137 C16.203066,1.50192683 16.1164222,1.4995 16.005,1.4995 C15.9441571,1.4995 15.8957768,1.50024955 15.7946249,1.50235765 C15.6970268,1.50437455 15.6566571,1.505 15.605,1.505 L15.3837469,1.505 L15.2349533,1.66874793 C13.2209002,3.88522096 11.7392392,6.28906166 10.8151423,8.8285211 L10.5709764,9.4995 L11.285,9.4995 L20.725,9.4995 L21.4390236,9.4995 L21.1948577,8.8285211 C20.2727999,6.29466528 18.7935295,3.89518832 16.7804684,1.67421265 L16.6390053,1.51813886 L16.6390053,1.51813886 Z M21.74,8.4995 L22.2138499,8.83991833 C21.3745082,6.34764006 20.0339011,3.98518955 18.2142571,1.79958363 L17.7652823,2.61529393 C21.9402644,3.16026889 25.605917,5.63660346 27.702515,9.25041181 L28.135,8.4995 L21.74,8.4995 L21.74,8.4995 Z M29.0031363,9.4995 L28.567485,8.74858819 C26.3162746,4.86828184 22.3801052,2.20919933 17.8947177,1.62370607 L16.6290702,1.4584967 L17.4457429,2.43941637 C19.1877473,4.53176801 20.4669612,6.78603 21.2661501,9.15908167 L21.3807952,9.4995 L21.74,9.4995 L28.135,9.4995 L29.0031363,9.4995 L29.0031363,9.4995 Z M29.955,17.4995 L29.4563468,16.9628259 C29.3052937,19.0166758 28.688578,20.9830689 27.6627037,22.7482633 L28.095,22.4995 L21.35,22.4995 L21.819589,23.1712154 C22.5674984,21.1259122 23.0290089,19.0721902 23.1982729,17.0410227 L22.7,17.4995 L29.955,17.4995 L29.955,17.4995 Z M22.2399336,16.4995 L22.2017271,16.9579773 C22.0399977,18.8987303 21.5981292,20.8650449 20.880411,22.8277846 L20.6347837,23.4995 L21.35,23.4995 L28.095,23.4995 L28.3827231,23.4995 L28.5272963,23.2507367 C29.6287063,21.3555703 30.2913744,19.2426581 30.4536532,17.0361741 L30.4931236,16.4995 L29.955,16.4995 L22.7,16.4995 L22.2399336,16.4995 L22.2399336,16.4995 Z M21.065,10.5 L20.5861988,10.1440466 C21.1527006,12.0270598 21.3986749,13.9765884 21.3253341,15.981724 L21.825,15.5 L10.19,15.5 L10.6896199,15.9805074 C10.6114264,13.9763112 10.8572993,12.0275858 11.4284604,10.1451744 L10.95,10.5 L21.065,10.5 L21.065,10.5 Z M10.5792007,9.5 L10.4715396,9.85482558 C9.86779017,11.8446403 9.60787135,13.90469 9.69038011,16.0194926 L9.70912704,16.5 L10.19,16.5 L21.825,16.5 L22.3070461,16.5 L22.3246659,16.018276 C22.4019933,13.9041432 22.1421787,11.8449194 21.5438012,9.85595336 L21.4367131,9.5 L21.065,9.5 L10.95,9.5 L10.5792007,9.5 L10.5792007,9.5 Z M21.76,17.4995 L21.2619513,16.9553691 C21.0916843,18.8769546 20.6193955,20.8358519 19.8489544,22.8183882 L20.315,22.4995 L11.695,22.4995 L12.1610456,22.8183882 C11.395479,20.848395 10.9242713,18.8889054 10.7479363,16.9541185 L10.25,17.4995 L21.76,17.4995 L21.76,17.4995 Z M9.70235808,16.4995 L9.75206374,17.0448815 C9.93704196,19.0745037 10.4301658,21.1251304 11.2289544,23.1806118 L11.3528788,23.4995 L11.695,23.4995 L20.315,23.4995 L20.6571212,23.4995 L20.7810456,23.1806118 C21.5848087,21.1123297 22.079243,19.0615801 22.2580487,17.0436309 L22.3062628,16.4995 L21.76,16.4995 L10.25,16.4995 L9.70235808,16.4995 L9.70235808,16.4995 Z M9.31,17.4995 L8.81172712,17.0410227 C8.98099108,19.0721902 9.44250164,21.1259122 10.190411,23.1712154 L10.66,22.4995 L3.965,22.4995 L4.39729631,22.7482633 C3.37397472,20.9874614 2.74297709,19.0185037 2.55800343,16.9548617 L2.06,17.4995 L9.31,17.4995 L9.31,17.4995 Z M1.51317815,16.4995 L1.56199657,17.0441383 C1.76009657,19.2542232 2.43625991,21.3641154 3.53270369,23.2507367 L3.67727692,23.4995 L3.965,23.4995 L10.66,23.4995 L11.3752163,23.4995 L11.129589,22.8277846 C10.4118708,20.8650449 9.9700023,18.8987303 9.80827288,16.9579773 L9.77006644,16.4995 L9.31,16.4995 L2.06,16.4995 L1.51317815,16.4995 L1.51317815,16.4995 Z M22.76,15.5 L23.2597075,16.0171007 C23.331268,13.9260008 23.0868186,11.8649068 22.5317678,9.86621001 L22.05,10.5 L28.66,10.5 L28.2086391,10.2151124 C29.0552999,11.9916234 29.5,13.9364531 29.5,15.9445 L29.5,16 L30,16 L30,15.5 L22.76,15.5 L22.76,15.5 Z M30.5,16.5 L30.5,16 L30.5,15.9445 C30.5,13.7867557 30.0217133,11.6950399 29.1113609,9.78488758 L28.9755874,9.5 L28.66,9.5 L22.05,9.5 L21.3922247,9.5 L21.5682322,10.13379 C22.0959924,12.0342153 22.3283714,13.9935374 22.2602925,15.9828993 L22.2425966,16.5 L22.76,16.5 L30,16.5 L30.5,16.5 L30.5,16.5 Z M15.3436393,0.510129082 C6.88301871,0.855810828 0.5,7.38032886 0.5,15.6845 C0.5,24.4037347 7.43137718,31.5 15.96,31.5 C24.5300524,31.5 31.5,24.5217339 31.5,15.9445 C31.5,7.42724888 24.5500325,0.5 16.005,0.5 C15.8215396,0.5 15.6855841,0.50235761 15.3436393,0.510129082 L15.3436393,0.510129082 L15.3436393,0.510129082 Z M30.5,15.9445 C30.5,23.969716 23.9775005,30.5 15.96,30.5 C7.98899221,30.5 1.5,23.8566434 1.5,15.6845 C1.5,7.92094825 7.45567985,1.83324236 15.3754167,1.50958299 C15.7005135,1.50227654 15.8317938,1.5 16.005,1.5 C23.9984794,1.5 30.5,7.98026792 30.5,15.9445 L30.5,15.9445 L30.5,15.9445 Z" id="Fill-3146" sketch:type="MSShapeGroup"></path>
        </g>
    </g>
</svg>