<?xml version="1.0" encoding="UTF-8" standalone="no"?>
<svg width="36px" height="36px" viewBox="0 0 36 36" version="1.1" xmlns="http://www.w3.org/2000/svg" xmlns:xlink="http://www.w3.org/1999/xlink" xmlns:sketch="http://www.bohemiancoding.com/sketch/ns">
    <!-- Generator: Sketch 3.0.2 (7799) - http://www.bohemiancoding.com/sketch -->
    <title>plug_in</title>
    <description>Created with Sketch.</description>
    <defs></defs>
    <g id="24" stroke="none" stroke-width="1" fill="none" fill-rule="evenodd" sketch:type="MSPage">
        <g id="Icons" sketch:type="MSLayerGroup" transform="translate(-200.000000, -120.000000)" stroke="#0093E6" stroke-width="2" stroke-linecap="round" stroke-linejoin="round">
            <g id="plug_in" transform="translate(200.000000, 120.000000)" sketch:type="MSShapeGroup">
                <path d="M21.4995725,14.2286791 C19.2912437,12.066974 19.2912437,8.56397421 21.4995725,6.40296089 L17.0008894,2 L13.3691326,5.55211377 C13.131541,5.15851051 12.8465726,4.78427613 12.5000849,4.44532078 C10.2903419,2.28430745 6.70949766,2.28430745 4.4997547,4.44532078 C2.29142597,6.6063341 2.29142597,10.1114092 4.4997547,12.2717307 C4.84624239,12.6099944 5.22737886,12.8887678 5.63114309,13.1218861 L2.00009346,16.6739999 L6.49948369,21.0755773 C8.70922665,18.9152557 12.290778,18.9152557 14.500521,21.0755773 C16.7088497,23.2372824 16.7088497,26.7416657 14.500521,28.902679 L18.9992041,33.3042564 L22.6309609,29.7521426 C22.8692595,30.1471294 23.154228,30.520672 23.5007157,30.8589356 C25.7090444,33.0199489 29.29201,33.0199489 31.5003388,30.8589356 C33.7100817,28.6979223 33.7100817,25.1942307 31.5003388,23.0332174 C31.1545582,22.694262 30.7720075,22.4154886 30.3689504,22.183062 L34,18.6309483 L29.4999027,14.2286791 C27.2915739,16.3890007 23.7093154,16.3890007 21.4995725,14.2286791 L21.4995725,14.2286791 Z"></path>
            </g>
        </g>
    </g>
</svg>