<?xml version="1.0" encoding="UTF-8" standalone="no"?>
<svg width="48px" height="48px" viewBox="0 0 48 48" version="1.1" xmlns="http://www.w3.org/2000/svg" xmlns:xlink="http://www.w3.org/1999/xlink" xmlns:sketch="http://www.bohemiancoding.com/sketch/ns">
    <!-- Generator: Sketch 3.2.2 (9983) - http://www.bohemiancoding.com/sketch -->
    <title>quiz</title>
    <desc>Created with Sketch.</desc>
    <defs></defs>
    <g id="Icons" stroke="none" stroke-width="1" fill="none" fill-rule="evenodd" sketch:type="MSPage">
        <g id="quiz" sketch:type="MSLayerGroup" fill="#000000">
            <path d="M20.9533679,33.9468401 L27.3390181,31.8538168 C26.3345338,31.1561424 25.7605428,29.830561 25.7605428,28.714282 C25.7605428,22.5049796 38.5318432,21.6677703 38.5318432,11.3421889 C38.5318432,5.06311917 33.0071796,0.388700565 23.9668208,0.388700565 C17.5094217,0.388700565 11.984758,2.90032847 8.32556522,7.29567731 L13.204489,12.5282354 C15.572202,9.52823545 18.7291527,7.64451452 23.1775832,7.64451452 C27.7695114,7.64451452 29.9937267,9.9468401 29.9937267,12.6677703 C29.9937267,18.5980029 18.4421571,19.4352122 18.4421571,27.9468401 C18.4421571,30.2491657 19.2313948,32.3421889 20.9533679,33.9468401 L20.9533679,33.9468401 Z M23.5363275,48.3887006 C26.2627849,48.3887006 28.5587491,46.086375 28.5587491,43.4352122 C28.5587491,40.8538168 26.2627849,38.6212587 23.5363275,38.6212587 C20.8098702,38.6212587 18.513906,40.8538168 18.513906,43.4352122 C18.513906,46.086375 20.8098702,48.3887006 23.5363275,48.3887006 L23.5363275,48.3887006 Z" id="?-2" sketch:type="MSShapeGroup"></path>
        </g>
    </g>
</svg>