<?xml version="1.0" encoding="UTF-8" standalone="no"?>
<svg width="48px" height="48px" viewBox="0 0 48 48" version="1.1" xmlns="http://www.w3.org/2000/svg" xmlns:xlink="http://www.w3.org/1999/xlink" xmlns:sketch="http://www.bohemiancoding.com/sketch/ns">
    <!-- Generator: Sketch 3.2.2 (9983) - http://www.bohemiancoding.com/sketch -->
    <title>review</title>
    <desc>Created with Sketch.</desc>
    <defs></defs>
    <g id="Icons" stroke="none" stroke-width="1" fill="none" fill-rule="evenodd" sketch:type="MSPage">
        <g id="review" sketch:type="MSLayerGroup" fill="#000000">
            <g id="Fill-279-+-Fill-280-+-Fill-281" transform="translate(1.000000, 3.000000)" sketch:type="MSShapeGroup">
                <path d="M23.0097272,0 L26.1869788,6.15407394 L33.2916667,7.14151101 L28.1506969,11.9314761 L29.363541,18.6956522 L23.0097272,15.5019 L16.6566028,18.6956522 L17.8701364,11.9314761 L12.7291667,7.14151101 L19.833165,6.15407394 L23.0097272,0 L23.0097272,0 Z" id="Shape-5"></path>
                <path d="M34.7597272,22.4347826 L37.9369788,28.5888565 L45.0416667,29.5762936 L39.9006969,34.3662587 L41.113541,41.1304348 L34.7597272,37.9366826 L28.4066028,41.1304348 L29.6201364,34.3662587 L24.4791667,29.5762936 L31.583165,28.5888565 L34.7597272,22.4347826 L34.7597272,22.4347826 Z" id="Shape-6"></path>
                <path d="M11.2597272,22.4347826 L14.4369788,28.5888565 L21.5416667,29.5762936 L16.4006969,34.3662587 L17.613541,41.1304348 L11.2597272,37.9366826 L4.90660279,41.1304348 L6.12013642,34.3662587 L0.979166667,29.5762936 L8.08316495,28.5888565 L11.2597272,22.4347826 L11.2597272,22.4347826 Z" id="Shape-7"></path>
            </g>
        </g>
    </g>
</svg>