<?xml version="1.0" encoding="UTF-8" standalone="no"?>
<svg width="32px" height="32px" viewBox="0 0 32 32" version="1.1" xmlns="http://www.w3.org/2000/svg" xmlns:xlink="http://www.w3.org/1999/xlink" xmlns:sketch="http://www.bohemiancoding.com/sketch/ns">
    <!-- Generator: Sketch 3.2.2 (9983) - http://www.bohemiancoding.com/sketch -->
    <title>send</title>
    <desc>Created with Sketch.</desc>
    <defs></defs>
    <g id="Icons" stroke="none" stroke-width="1" fill="none" fill-rule="evenodd" sketch:type="MSPage">
        <g id="send" sketch:type="MSLayerGroup" fill="#505977">
            <path d="M31.7459027,0.836981132 C31.7419218,0.808603774 31.7353381,0.781283019 31.7267639,0.748377358 L31.7160462,0.705056604 C31.6636826,0.527698113 31.5592616,0.36890566 31.4213094,0.251320755 C31.2432424,0.0922264151 31.0152616,0.00301886792 30.7822281,0.000150943396 L30.7663046,0 C30.7315486,0 30.6964864,0.00150943396 30.672295,0.00437735849 C30.6288118,0.008 30.5857879,0.0146415094 30.5427639,0.0241509434 L30.5187257,0.0297358491 C30.4438549,0.0481509434 30.3720462,0.0748679245 30.3052903,0.109132075 L0.57958691,13.5871698 C0.217634757,13.7512453 -0.00437481271,14.0970566 6.53786797e-05,14.4896604 C0.00465868012,14.8821132 0.234476862,15.2229434 0.599797436,15.3788679 L11.6469936,20.0949434 L11.6469936,30.8153962 C11.6469936,31.4300377 12.156697,31.797283 12.6495582,31.797283 C13.0217687,31.797283 13.3486587,31.6004528 13.5238166,31.2706415 L17.6022089,23.5957736 L25.0635678,28.1005283 C25.2206587,28.1953208 25.3999505,28.245434 25.5821515,28.245434 C26.0581706,28.245434 26.4695773,27.9112453 26.5603716,27.450717 L31.7232424,1.23803774 C31.7610606,1.10279245 31.7682568,0.965283019 31.7459027,0.836981132 L31.7459027,0.836981132 Z M26.3575008,4.05886792 L12.4056539,18.2806038 L3.4366204,14.4516226 L26.3575008,4.05886792 L26.3575008,4.05886792 Z M29.1433381,4.04181132 L24.8796826,25.6886038 L14.2206204,19.2529811 L29.1433381,4.04181132 L29.1433381,4.04181132 Z M15.9008501,22.5686038 L13.6374242,26.8282264 L13.6374242,21.2019623 L15.9008501,22.5686038 L15.9008501,22.5686038 Z" id="Imported-Layers" sketch:type="MSShapeGroup"></path>
        </g>
    </g>
</svg>