<?xml version="1.0" encoding="UTF-8" standalone="no"?>
<svg width="55px" height="54px" viewBox="0 0 55 54" version="1.1" xmlns="http://www.w3.org/2000/svg" xmlns:xlink="http://www.w3.org/1999/xlink" xmlns:sketch="http://www.bohemiancoding.com/sketch/ns">
    <title>Untitled</title>
    <description>Created with Sketch (http://www.bohemiancoding.com/sketch)</description>
    <defs></defs>
    <g id="Page-1" stroke="none" stroke-width="1" fill="none" fill-rule="evenodd" sketch:type="MSPage">
        <path d="M28.2347868,37.5575949 L35.5348326,30.2575488 C36.1550558,29.637326 36.1550558,28.6316041 35.5348326,28.011381 C34.9146094,27.3911578 33.9088879,27.3911578 33.2886647,28.011381 L25.9886189,35.3114271 L18.6885727,28.011381 L25.9886189,20.7113352 C26.6088421,20.0911121 26.6088421,19.0853902 25.9886189,18.4651674 C25.3683958,17.8449442 24.3626738,17.8449442 23.7424511,18.4651674 L16.4424049,25.7652131 L13.9154659,23.2382742 L9.42313014,27.7306099 C5.34801982,31.8057201 4.8431934,38.0983596 7.90752806,42.723221 L1,49.6307486 L4.36925194,53 L11.2767803,46.0924724 C15.9016402,49.1568057 22.1942797,48.6519786 26.26939,44.5768676 L30.7617258,40.084535 L28.2347868,37.5575949 L28.2347868,37.5575949 Z" id="path3" stroke="#00B2CE" sketch:type="MSShapeGroup"></path>
        <path d="M41.4150911,29 L45.7924541,24.6226403 C49.7632663,20.651829 50.2551727,14.5202444 47.2692645,10.0137539 L54,3.28301824 L50.7169816,0 L43.9862461,6.73073487 C39.4797535,3.744831 33.3481675,4.23673355 29.3773552,8.20754637 L25,12.5849045 C41.0574686,28.6423721 25.1276833,12.7125929 41.4150911,29 L41.4150911,29 L41.4150911,29 Z" id="Path" stroke="#00B2CE" sketch:type="MSShapeGroup"></path>
    </g>
</svg>