<?xml version="1.0" encoding="UTF-8" standalone="no"?>
<svg width="36px" height="36px" viewBox="0 0 36 36" version="1.1" xmlns="http://www.w3.org/2000/svg" xmlns:xlink="http://www.w3.org/1999/xlink" xmlns:sketch="http://www.bohemiancoding.com/sketch/ns">
    <!-- Generator: Sketch 3.0.2 (7799) - http://www.bohemiancoding.com/sketch -->
    <title>share</title>
    <description>Created with Sketch.</description>
    <defs></defs>
    <g id="24" stroke="none" stroke-width="1" fill="none" fill-rule="evenodd" sketch:type="MSPage">
        <g id="Icons" sketch:type="MSLayerGroup" transform="translate(-80.000000, -80.000000)" stroke="#0093E6" stroke-width="2">
            <g id="share" transform="translate(80.000000, 80.000000)" sketch:type="MSShapeGroup">
                <path d="M12.1974565,15.3582 C11.2269783,13.4202 9.22763043,12.0868087 6.91341304,12.0868087 C3.64793478,12.0868087 1.00036957,14.7343739 1.00036957,17.9998522 C1.00036957,21.2660696 3.64793478,23.9128957 6.91341304,23.9128957 C9.22763043,23.9128957 11.2269783,22.5802435 12.1974565,20.6415043" id="Stroke-1149"></path>
                <path d="M29.0869565,12.826087 C32.3524348,12.826087 35,10.1792609 35,6.91304348 C35,3.64756522 32.3524348,1 29.0869565,1 C25.8214783,1 23.173913,3.64756522 23.173913,6.91304348 C23.173913,7.86356522 23.4045217,8.7593913 23.8021739,9.55469565" id="Stroke-1150"></path>
                <path d="M23.8019522,26.4451565 C21.8410391,30.3610696 24.6859522,34.9998522 29.0867348,34.9998522 C32.352213,34.9998522 34.9997783,32.3530261 34.9997783,29.0868087 C34.9997783,25.8213304 32.352213,23.1737652 29.0867348,23.1737652" id="Stroke-1151"></path>
                <path d="M29.0869565,12.826087 C26.772,12.826087 24.7733913,11.4926957 23.8021739,9.55469565 L12.197087,15.3583478 C12.5954783,16.1536522 12.826087,17.0494783 12.826087,18 C12.826087,18.9505217 12.5954783,19.8463478 12.197087,20.6416522 L23.8021739,26.4453043 C24.7733913,24.5073043 26.772,23.173913 29.0869565,23.173913" id="Stroke-1152"></path>
            </g>
        </g>
    </g>
</svg>