<?xml version="1.0" encoding="UTF-8" standalone="no"?>
<svg width="36px" height="36px" viewBox="0 0 36 36" version="1.1" xmlns="http://www.w3.org/2000/svg" xmlns:xlink="http://www.w3.org/1999/xlink" xmlns:sketch="http://www.bohemiancoding.com/sketch/ns">
    <!-- Generator: Sketch 3.0.2 (7799) - http://www.bohemiancoding.com/sketch -->
    <title>show</title>
    <description>Created with Sketch.</description>
    <defs></defs>
    <g id="24" stroke="none" stroke-width="1" fill="none" fill-rule="evenodd" sketch:type="MSPage">
        <g id="Icons" sketch:type="MSLayerGroup" transform="translate(-40.000000, -80.000000)" stroke="#0093E6" stroke-width="2" stroke-linecap="round" stroke-linejoin="round">
            <g id="show" transform="translate(40.000000, 80.000000)" sketch:type="MSShapeGroup">
                <path d="M35,17.6086957 C35,17.6086957 27.3891739,27.2173913 18,27.2173913 C8.61082609,27.2173913 1,17.6086957 1,17.6086957 C1,17.6086957 8.61082609,8 18,8 C27.3891739,8 35,17.6086957 35,17.6086957 L35,17.6086957 Z" id="Stroke-166"></path>
                <path d="M23.9130435,17.6086957 C23.9130435,20.8741739 21.2654783,23.5217391 18,23.5217391 C14.7345217,23.5217391 12.0869565,20.8741739 12.0869565,17.6086957 C12.0869565,14.3432174 14.7345217,11.6956522 18,11.6956522 C21.2654783,11.6956522 23.9130435,14.3432174 23.9130435,17.6086957 L23.9130435,17.6086957 Z" id="Stroke-167"></path>
            </g>
        </g>
    </g>
</svg>