<?xml version="1.0" encoding="UTF-8" standalone="no"?>
<svg width="15px" height="15px" viewBox="0 0 15 15" version="1.1" xmlns="http://www.w3.org/2000/svg" xmlns:xlink="http://www.w3.org/1999/xlink" xmlns:sketch="http://www.bohemiancoding.com/sketch/ns">
    <!-- Generator: Sketch 3.2.2 (9983) - http://www.bohemiancoding.com/sketch -->
    <title>Slice 3</title>
    <desc>Created with Sketch.</desc>
    <defs></defs>
    <g id="Page-1" stroke="none" stroke-width="1" fill="none" fill-rule="evenodd" sketch:type="MSPage">
        <g id="key" sketch:type="MSLayerGroup" transform="translate(1.000000, 1.000000)" stroke="#231F1F" stroke-linecap="round">
            <path d="M11.3043478,0 L5.77284783,5.53121739 C5.22882609,5.2488913 4.6118913,5.08695652 3.95652174,5.08695652 C1.7713913,5.08695652 0,6.85863043 0,9.04347826 C0,11.2283261 1.7713913,13 3.95652174,13 C6.14165217,13 7.91304348,11.2283261 7.91304348,9.04347826 C7.91304348,8.3881087 7.7511087,7.77117391 7.4685,7.22686957 L9.32608696,5.36956522 L10.173913,5.36956522 L10.173913,4.52173913 L10.4565217,4.23913043 L11.3043478,4.23913043 L11.3043478,3.39130435 L11.5869565,3.10869565 L12.4347826,3.10869565 L12.4347826,2.26086957 L13,1.69565217 L13,0 L11.3043478,0 L11.3043478,0 Z" id="Stroke-254" sketch:type="MSShapeGroup"></path>
            <path d="M4.17857143,9.75 C4.17857143,10.262881 3.76288095,10.6785714 3.25,10.6785714 C2.73711905,10.6785714 2.32142857,10.262881 2.32142857,9.75 C2.32142857,9.23711905 2.73711905,8.82142857 3.25,8.82142857 C3.76288095,8.82142857 4.17857143,9.23711905 4.17857143,9.75 L4.17857143,9.75 Z" id="Stroke-255" stroke-linejoin="round" sketch:type="MSShapeGroup"></path>
        </g>
        <g id="Group" sketch:type="MSLayerGroup" transform="translate(-40.000000, 0.000000)"></g>
    </g>
</svg>