<?xml version="1.0" encoding="UTF-8" standalone="no"?>
<svg width="32px" height="32px" viewBox="0 0 32 32" version="1.1" xmlns="http://www.w3.org/2000/svg" xmlns:xlink="http://www.w3.org/1999/xlink" xmlns:sketch="http://www.bohemiancoding.com/sketch/ns">
    <!-- Generator: Sketch 3.0.2 (7799) - http://www.bohemiancoding.com/sketch -->
    <title>soundcloud</title>
    <description>Created with Sketch.</description>
    <defs></defs>
    <g id="24" stroke="none" stroke-width="1" fill="none" fill-rule="evenodd" sketch:type="MSPage">
        <g id="Brands" sketch:type="MSLayerGroup" transform="translate(-40.000000, -41.000000)" fill="#FF5500">
            <g id="soundcloud" transform="translate(40.000000, 41.000000)" sketch:type="MSShapeGroup">
                <path d="M0.362384928,16.0268408 C0.295276608,16.0268408 0.2426224,16.0825573 0.234018752,16.1620462 L0,18.0805515 L0.234018752,19.9659983 C0.2426224,20.0458587 0.295276608,20.1008323 0.362384928,20.1008323 C0.427084224,20.1008323 0.479394304,20.0458587 0.490062816,19.9667412 L0.490062816,19.9663698 C0.490062816,19.9663698 0.490062816,19.9663698 0.490062816,19.9667412 L0.767099712,18.0805515 L0.490062816,16.1616747 C0.479738464,16.0825573 0.426740096,16.0268408 0.362384928,16.0268408 L0.362384928,16.0268408 L0.362384928,16.0268408 Z M1.67839629,14.9786274 C1.66738365,14.896167 1.61232038,14.8393361 1.54521206,14.8393361 C1.47741546,14.8393361 1.42131981,14.8980242 1.41168374,14.9786274 C1.41168374,14.9793703 1.09713498,18.0805515 1.09713498,18.0805515 L1.41168374,21.1137585 C1.42097565,21.1947332 1.47707133,21.2537927 1.54521206,21.2537927 C1.61197626,21.2537927 1.66703949,21.196219 1.67805213,21.1145014 L2.03596317,18.0805515 L1.67839629,14.9786274 L1.67839629,14.9786274 Z M6.63512003,12.1173987 C6.50606557,12.1173987 6.39938054,12.2314318 6.39353008,12.3762947 L6.14264819,18.0831516 L6.39353008,21.7712134 C6.39972467,21.9153335 6.50606557,22.0293666 6.63512003,22.0293666 C6.76348618,22.0293666 6.8701712,21.914962 6.87739827,21.7704705 L6.87739827,21.7715848 L7.16062979,18.0831516 L6.87739827,12.3762947 C6.8701712,12.2314318 6.76348618,12.1173987 6.63512003,12.1173987 L6.63512003,12.1173987 L6.63512003,12.1173987 Z M4.06986147,14.1009066 C3.97074765,14.1009066 3.88952938,14.1863386 3.88161405,14.3003717 L3.5997591,18.0820373 L3.88161405,21.7400122 C3.88952938,21.8533024 3.97074765,21.9387344 4.06986147,21.9387344 C4.16759872,21.9387344 4.24847286,21.8533024 4.25742064,21.7400122 L4.57781984,18.0820373 L4.25742064,14.2996288 C4.24847286,14.1863386 4.16759872,14.1009066 4.06986147,14.1009066 L4.06986147,14.1009066 L4.06986147,14.1009066 Z M9.24236429,22.0286237 C9.40239181,22.0286237 9.53282285,21.8893324 9.5393616,21.7110396 L9.78473715,18.0846374 L9.53970576,10.4871335 C9.53316701,10.3088406 9.4030801,10.1695493 9.24270842,10.1695493 C9.08164845,10.1695493 8.95121741,10.3092121 8.94605523,10.4875049 C8.94605523,10.4878764 8.72786717,18.0846374 8.72786717,18.0846374 L8.94605523,21.7121539 C8.95121741,21.8893324 9.08164845,22.0286237 9.24236429,22.0286237 C9.24236429,22.0286237 9.08164845,22.0286237 9.24236429,22.0286237 L9.24236429,22.0286237 L9.24236429,22.0286237 Z M14.5804009,22.0457101 C14.8006539,22.0457101 14.9823626,21.8499594 14.9864923,21.6092641 L14.9864923,21.6118642 L14.9864923,21.6092641 L15.1578766,18.0872375 L14.9864923,9.31225791 C14.9827067,9.07193401 14.8006539,8.87581187 14.5804009,8.87581187 C14.3594597,8.87581187 14.1774069,9.07156256 14.1739654,9.31262936 L14.0211649,18.0838945 C14.0211649,18.0898376 14.1739654,21.6114927 14.1739654,21.6114927 C14.1774069,21.8499594 14.3598038,22.0457101 14.5804009,22.0457101 C14.5804009,22.0457101 14.3598038,22.0457101 14.5804009,22.0457101 L14.5804009,22.0457101 L14.5804009,22.0457101 Z M11.890906,22.0319667 C12.0825948,22.0319667 12.2371161,21.8659315 12.2426224,21.6542087 L12.2426224,21.6571803 L12.4511744,18.0853802 L12.2422782,10.4329027 C12.2367719,10.22118 12.0822507,10.0555162 11.890906,10.0555162 C11.6978405,10.0555162 11.5433193,10.22118 11.5388454,10.4329027 L11.3536953,18.0861232 L11.5391895,21.6564374 C11.5436634,21.8659315 11.6981846,22.0319667 11.890906,22.0319667 C11.890906,22.0319667 11.6981846,22.0319667 11.890906,22.0319667 L11.890906,22.0319667 L11.890906,22.0319667 Z M5.3476727,21.9989082 C5.4615848,21.9989082 5.55381571,21.9001043 5.56241933,21.7704705 L5.86457885,18.0820373 L5.56241933,14.5726397 C5.55415984,14.443006 5.46192893,14.3453164 5.3476727,14.3453164 C5.23203994,14.3453164 5.13946486,14.4437489 5.13258195,14.5741255 L4.86621354,18.0820373 L5.13258195,21.7700991 C5.13980899,21.9001043 5.23203994,21.9989082 5.3476727,21.9989082 C5.3476727,21.9989082 5.23203994,21.9989082 5.3476727,21.9989082 L5.3476727,21.9989082 L5.3476727,21.9989082 Z M2.80203046,21.7964716 C2.88565776,21.7964716 2.95311021,21.7255259 2.96240214,21.6274648 L3.30207347,18.0812944 L2.96274627,14.4006614 C2.95311021,14.302229 2.88565776,14.2312832 2.80203046,14.2312832 C2.71771488,14.2312832 2.65060656,14.3026004 2.64200291,14.4006614 C2.64200291,14.4010329 2.34294074,18.0812944 2.34294074,18.0812944 L2.64200291,21.6267219 C2.6502624,21.7251544 2.71737072,21.7964716 2.80203046,21.7964716 C2.80203046,21.7964716 2.71737072,21.7964716 2.80203046,21.7964716 L2.80203046,21.7964716 L2.80203046,21.7964716 Z M13.2303192,10.3054976 C13.0224555,10.3054976 12.8552009,10.4841619 12.8514153,10.7129711 L12.6817517,18.0864946 L12.8514153,21.6345222 C12.8552009,21.8599884 13.0221113,22.0390241 13.2303192,22.0390241 C13.4385271,22.0390241 13.6040609,21.8607313 13.6092231,21.6319221 L13.6092231,21.6348937 L13.7991913,18.086866 L13.6092231,10.7122282 C13.6040609,10.4841619 13.4385271,10.3054976 13.2303192,10.3054976 L13.2303192,10.3054976 L13.2303192,10.3054976 Z M7.93426826,22.0360526 C8.07812096,22.0360526 8.19650691,21.9093904 8.20373398,21.7478125 L8.46769338,18.0838945 L8.20373398,11.0721569 C8.19616278,10.9102075 8.07812096,10.7839168 7.93426826,10.7839168 C7.78903898,10.7839168 7.67065302,10.910579 7.66411427,11.0721569 C7.66411427,11.0725283 7.43043965,18.0838945 7.43043965,18.0838945 L7.6644584,21.7492982 C7.67065302,21.9093904 7.78903898,22.0360526 7.93426826,22.0360526 C7.93426826,22.0360526 7.78903898,22.0360526 7.93426826,22.0360526 L7.93426826,22.0360526 L7.93426826,22.0360526 Z M10.8856578,21.6906102 L10.8856578,21.6883815 L11.1127936,18.0853802 L10.8856578,10.2315804 C10.8801514,10.0365726 10.7376753,9.88353792 10.5614729,9.88353792 C10.3849264,9.88353792 10.2424503,10.0362012 10.2376323,10.2315804 L10.0359632,18.0846374 L10.2379764,21.6894958 C10.2427945,21.8830179 10.3852706,22.0356811 10.5614729,22.0356811 C10.7380195,22.0356811 10.8794631,21.8830179 10.8856578,21.6891244 L10.8856578,21.6906102 L10.8856578,21.6906102 Z M28.0646993,13.5582278 C27.5250796,13.5582278 27.0105825,13.6759753 26.5422008,13.8880695 C26.2290286,10.0592306 23.2538932,7.05573908 19.6252259,7.05573908 C18.7373312,7.05573908 17.87215,7.24443233 17.1078035,7.56350224 C16.8108062,7.68756434 16.7316528,7.81534089 16.7285555,8.06309367 L16.7285555,21.5468616 C16.7319969,21.8065005 16.9188678,22.0230521 17.1539189,22.0486816 C17.1638992,22.049796 27.9941495,22.0557391 28.0643552,22.0557391 C30.2376323,22.0557391 32,20.1539487 32,17.8067977 C32,15.460761 30.2383206,13.5582278 28.0646993,13.5582278 L28.0646993,13.5582278 L28.0646993,13.5582278 Z M15.9239439,8.05120747 C15.6878603,8.05120747 15.4934182,8.26070156 15.4903209,8.51811185 L15.312742,18.0883518 L15.4903209,21.5617193 C15.4934182,21.8150437 15.6878603,22.0245378 15.9239439,22.0245378 C16.1600275,22.0245378 16.3537813,21.8150437 16.3572228,21.5580049 L16.3572228,21.5620907 L16.5506324,18.0883518 L16.3572228,8.51736898 C16.3537813,8.26070156 16.1600275,8.05120747 15.9239439,8.05120747 L15.9239439,8.05120747 L15.9239439,8.05120747 Z"></path>
            </g>
        </g>
    </g>
</svg>