<?xml version="1.0" encoding="UTF-8" standalone="no"?>
<svg width="121px" height="100px" viewBox="0 0 121 100" version="1.1" xmlns="http://www.w3.org/2000/svg" xmlns:xlink="http://www.w3.org/1999/xlink" xmlns:sketch="http://www.bohemiancoding.com/sketch/ns">
    <title>soundcloud</title>
    <description>Created with Sketch (http://www.bohemiancoding.com/sketch)</description>
    <defs>
        <path d="M11.1324529,63.478733 C10.9227394,63.478733 10.758195,63.6421681 10.7313086,63.8753355 L10,69.5029511 L10.7313086,75.0335951 C10.758195,75.2678521 10.9227394,75.4291081 11.1324529,75.4291081 C11.3346382,75.4291081 11.4981072,75.2678521 11.5314463,75.0357743 L11.5314463,75.0346847 C11.5314463,75.0346847 11.5314463,75.0346847 11.5314463,75.0357743 L12.3971866,69.5029511 L11.5314463,63.8742459 C11.4991827,63.6421681 11.3335628,63.478733 11.1324529,63.478733 L11.1324529,63.478733 L11.1324529,63.478733 L11.1324529,63.478733 Z M15.2449884,60.4039738 C15.2105739,60.1620898 15.0385012,59.995386 14.8287877,59.995386 C14.6169233,59.995386 14.4416244,60.1675376 14.4115117,60.4039738 C14.4115117,60.4061529 13.4285468,69.5029511 13.4285468,69.5029511 L14.4115117,78.4003584 C14.4405489,78.6378841 14.6158479,78.8111253 14.8287877,78.8111253 C15.0374258,78.8111253 15.2094984,78.6422424 15.2439129,78.4025375 L16.3623849,69.5029511 L15.2449884,60.4039738 L15.2449884,60.4039738 L15.2449884,60.4039738 L15.2449884,60.4039738 Z M30.7347501,52.0110361 C30.3314549,52.0110361 29.9980642,52.3455333 29.9797815,52.7704646 L29.1957756,69.510578 L29.9797815,80.3288927 C29.9991396,80.7516448 30.3314549,81.086142 30.7347501,81.086142 C31.1358943,81.086142 31.469285,80.7505553 31.4918696,80.3267135 L31.4918696,80.3299822 L32.3769681,69.510578 L31.4918696,52.7704646 C31.469285,52.3455333 31.1358943,52.0110361 30.7347501,52.0110361 L30.7347501,52.0110361 L30.7347501,52.0110361 L30.7347501,52.0110361 Z M22.7183171,57.829326 C22.4085864,57.829326 22.1547793,58.0799265 22.1300439,58.4144237 L21.2492472,69.5073093 L22.1300439,80.237369 C22.1547793,80.5696871 22.4085864,80.8202876 22.7183171,80.8202876 C23.023746,80.8202876 23.2764777,80.5696871 23.3044395,80.237369 L24.305687,69.5073093 L23.3044395,58.4122446 C23.2764777,58.0799265 23.023746,57.829326 22.7183171,57.829326 L22.7183171,57.829326 L22.7183171,57.829326 L22.7183171,57.829326 Z M38.8823884,81.0839629 C39.3824744,81.0839629 39.7900714,80.6753751 39.810505,80.1523828 L40.5773036,69.5149363 L39.8115805,47.2289249 C39.7911469,46.7059325 39.3846253,46.2973447 38.8834638,46.2973447 C38.3801514,46.2973447 37.9725544,46.7070221 37.9564226,47.2300144 C37.9564226,47.231104 37.2745849,69.5149363 37.2745849,69.5149363 L37.9564226,80.1556515 C37.9725544,80.6753751 38.3801514,81.0839629 38.8823884,81.0839629 C38.8823884,81.0839629 38.3801514,81.0839629 38.8823884,81.0839629 L38.8823884,81.0839629 L38.8823884,81.0839629 Z M55.5637529,81.134083 C56.2520434,81.134083 56.819883,80.559881 56.8327884,79.8538413 L56.8327884,79.8614683 L56.8327884,79.8538413 L57.3683644,69.5225633 L56.8327884,43.7826232 C56.8209584,43.0776731 56.2520434,42.5023815 55.5637529,42.5023815 C54.8733115,42.5023815 54.3043965,43.0765835 54.2936419,43.7837128 L53.8161404,69.5127572 C53.8161404,69.5301902 54.2936419,79.8603787 54.2936419,79.8603787 C54.3043965,80.559881 54.874387,81.134083 55.5637529,81.134083 C55.5637529,81.134083 54.874387,81.134083 55.5637529,81.134083 L55.5637529,81.134083 L55.5637529,81.134083 Z M47.1590811,81.093769 C47.7581089,81.093769 48.2409877,80.6067324 48.258195,79.9856789 L48.258195,79.9943955 L48.90992,69.5171154 L48.2571195,47.069848 C48.2399122,46.4487946 47.7570335,45.9628476 47.1590811,45.9628476 C46.5557515,45.9628476 46.0728728,46.4487946 46.0588919,47.069848 L45.4802977,69.5192946 L46.0599673,79.9922163 C46.0739482,80.6067324 46.556827,81.093769 47.1590811,81.093769 C47.1590811,81.093769 46.556827,81.093769 47.1590811,81.093769 L47.1590811,81.093769 L47.1590811,81.093769 Z M26.7114772,80.9967975 C27.0674525,80.9967975 27.3556741,80.7069726 27.3825604,80.3267135 L28.3268089,69.5073093 L27.3825604,59.2130766 C27.3567495,58.8328176 27.0685279,58.5462614 26.7114772,58.5462614 C26.3501248,58.5462614 26.0608277,58.8349967 26.0393186,59.2174349 L25.2069173,69.5073093 L26.0393186,80.325624 C26.0619031,80.7069726 26.3501248,80.9967975 26.7114772,80.9967975 C26.7114772,80.9967975 26.3501248,80.9967975 26.7114772,80.9967975 L26.7114772,80.9967975 L26.7114772,80.9967975 Z M18.7563452,80.4029833 C19.0176805,80.4029833 19.2284694,80.1948759 19.2575067,79.9072301 L20.3189796,69.5051302 L19.2585821,58.7086069 C19.2284694,58.4198716 19.0176805,58.2117642 18.7563452,58.2117642 C18.492859,58.2117642 18.2831455,58.4209611 18.2562591,58.7086069 C18.2562591,58.7096965 17.3216898,69.5051302 17.3216898,69.5051302 L18.2562591,79.905051 C18.28207,80.1937863 18.4917835,80.4029833 18.7563452,80.4029833 C18.7563452,80.4029833 18.4917835,80.4029833 18.7563452,80.4029833 L18.7563452,80.4029833 L18.7563452,80.4029833 Z M51.3447475,46.6961264 C50.6951734,46.6961264 50.1725028,47.2202083 50.1606728,47.8913818 L49.6304741,69.5203841 L50.1606728,79.9279319 C50.1725028,80.5892993 50.6940979,81.1144708 51.3447475,81.1144708 C51.9953971,81.1144708 52.5126904,80.5914784 52.5288222,79.9203049 L52.5288222,79.9290214 L53.1224727,69.5214737 L52.5288222,47.8892027 C52.5126904,47.2202083 51.9953971,46.6961264 51.3447475,46.6961264 L51.3447475,46.6961264 L51.3447475,46.6961264 L51.3447475,46.6961264 Z M34.7945883,81.1057542 C35.244128,81.1057542 35.6140841,80.7342117 35.6366687,80.2602499 L36.4615418,69.5127572 L35.6366687,48.9449935 C35.6130087,48.4699421 35.244128,48.0994892 34.7945883,48.0994892 C34.3407468,48.0994892 33.9707907,48.4710317 33.9503571,48.9449935 C33.9503571,48.9460831 33.2201239,69.5127572 33.2201239,69.5127572 L33.9514325,80.2646082 C33.9707907,80.7342117 34.3407468,81.1057542 34.7945883,81.1057542 C34.7945883,81.1057542 34.3407468,81.1057542 34.7945883,81.1057542 L34.7945883,81.1057542 L34.7945883,81.1057542 Z M44.0176805,80.0924565 L44.0176805,80.0859191 L44.72748,69.5171154 L44.0176805,46.4793025 C44.0004732,45.9072796 43.5552353,45.4583779 43.0046029,45.4583779 C42.4528951,45.4583779 42.0076572,45.9061901 41.9926009,46.4793025 L41.3623849,69.5149363 L41.9936763,80.0891878 C42.0087327,80.6568525 42.4539706,81.1046647 43.0046029,81.1046647 C43.5563108,81.1046647 43.9983223,80.6568525 44.0176805,80.0880983 L44.0176805,80.0924565 L44.0176805,80.0924565 L44.0176805,80.0924565 L44.0176805,80.0924565 Z M97.7021853,56.2374681 C96.0158737,56.2374681 94.4080702,56.5828609 92.9443775,57.2050039 C91.9657145,45.9737432 82.6684161,37.1635013 71.3288308,37.1635013 C68.5541599,37.1635013 65.8504689,37.7170015 63.4618859,38.6529399 C62.5337693,39.0168554 62.2864149,39.3916666 62.2767358,40.1184081 L62.2767358,79.670794 C62.2874903,80.4324016 62.8714618,81.0676194 63.6059967,81.1427995 C63.6371849,81.1460682 97.4817173,81.1635013 97.7011099,81.1635013 C104.492601,81.1635013 110,75.5849162 110,68.6999399 C110,61.8182322 104.494752,56.2374681 97.7021853,56.2374681 L97.7021853,56.2374681 L97.7021853,56.2374681 L97.7021853,56.2374681 Z M59.7623247,40.0835419 C59.0245634,40.0835419 58.4169319,40.6980579 58.4072529,41.4531281 L57.8523187,69.525832 L58.4072529,79.7143767 C58.4169319,80.4574616 59.0245634,81.0719776 59.7623247,81.0719776 C60.500086,81.0719776 61.1055665,80.4574616 61.1163211,79.703481 L61.1163211,79.7154662 L61.7207261,69.525832 L61.1163211,41.450949 C61.1055665,40.6980579 60.500086,40.0835419 59.7623247,40.0835419 L59.7623247,40.0835419 L59.7623247,40.0835419 L59.7623247,40.0835419 Z M59.7623247,40.0835419" id="path-1"></path>
        <mask id="mask-2" sketch:name="Clip 2" fill="white">
            <use xlink:href="#path-1"></use>
        </mask>
    </defs>
    <g id="Page-1" stroke="none" stroke-width="1" fill="none" fill-rule="evenodd" sketch:type="MSPage">
        <use id="Clip-2" fill="#373F48" sketch:type="MSShapeGroup" xlink:href="#path-1"></use>
    </g>
</svg>