<?xml version="1.0" encoding="UTF-8" standalone="no"?>
<svg width="48px" height="48px" viewBox="0 0 48 48" version="1.1" xmlns="http://www.w3.org/2000/svg" xmlns:xlink="http://www.w3.org/1999/xlink" xmlns:sketch="http://www.bohemiancoding.com/sketch/ns">
    <!-- Generator: Sketch 3.2.2 (9983) - http://www.bohemiancoding.com/sketch -->
    <title>stats</title>
    <desc>Created with Sketch.</desc>
    <defs></defs>
    <g id="Icons" stroke="none" stroke-width="1" fill="none" fill-rule="evenodd" sketch:type="MSPage">
        <g id="stats" sketch:type="MSLayerGroup" stroke="#231F1F" stroke-width="2" stroke-linecap="round" stroke-linejoin="round">
            <g id="Group" transform="translate(1.000000, 1.000000)" sketch:type="MSShapeGroup">
                <path d="M0,46 L46,46" id="Stroke-4415"></path>
                <path d="M8,36 L2,36 L2,46 L8,46 L8,36 Z" id="Stroke-4416"></path>
                <path d="M20,26 L14,26 L14,46 L20,46 L20,26 Z" id="Stroke-4417"></path>
                <path d="M32,30 L26,30 L26,46 L32,46 L32,30 Z" id="Stroke-4418"></path>
                <path d="M44,16 L38,16 L38,46 L44,46 L44,16 Z" id="Stroke-4419"></path>
                <path d="M7,22 C7,23.104 6.105,24 5,24 C3.896,24 3,23.104 3,22 C3,20.896 3.896,20 5,20 C6.105,20 7,20.896 7,22 L7,22 Z" id="Stroke-4420"></path>
                <path d="M19,12 C19,13.104 18.105,14 17,14 C15.896,14 15,13.104 15,12 C15,10.896 15.896,10 17,10 C18.105,10 19,10.896 19,12 L19,12 Z" id="Stroke-4421"></path>
                <path d="M31,16 C31,17.104 30.105,18 29,18 C27.896,18 27,17.104 27,16 C27,14.896 27.896,14 29,14 C30.105,14 31,14.896 31,16 L31,16 Z" id="Stroke-4422"></path>
                <path d="M43,2 C43,3.104 42.105,4 41,4 C39.896,4 39,3.104 39,2 C39,0.896 39.896,0 41,0 C42.105,0 43,0.896 43,2 L43,2 Z" id="Stroke-4423"></path>
                <path d="M6.5371,20.7197 L15.4651,13.2797" id="Stroke-4424"></path>
                <path d="M18.8896,12.6309 L27.1606,15.3859" id="Stroke-4425"></path>
                <path d="M39.6992,3.5176 L30.3012,14.4816" id="Stroke-4426"></path>
            </g>
        </g>
    </g>
</svg>