<?xml version="1.0" encoding="UTF-8" standalone="no"?>
<svg width="36px" height="36px" viewBox="0 0 36 36" version="1.1" xmlns="http://www.w3.org/2000/svg" xmlns:xlink="http://www.w3.org/1999/xlink" xmlns:sketch="http://www.bohemiancoding.com/sketch/ns">
    <!-- Generator: Sketch 3.0.3 (7891) - http://www.bohemiancoding.com/sketch -->
    <title>stop</title>
    <desc>Created with Sketch.</desc>
    <defs></defs>
    <g id="24" stroke="none" stroke-width="1" fill="none" fill-rule="evenodd" sketch:type="MSPage">
        <g id="Icons" sketch:type="MSLayerGroup" transform="translate(-160.000000, -462.000000)" stroke="#0093E6" stroke-width="2" stroke-linecap="round" stroke-linejoin="round">
            <g id="pencil-2" transform="translate(160.000000, 462.000000)" sketch:type="MSShapeGroup">
                <g id="Group-4" transform="translate(4.000000, 2.000000)">
                    <path d="M25.5,15 L25.5,24.75 C25.5,28.8915 22.0405,32.25 17.7727273,32.25 L12.6194091,32.25 C9.97359091,32.25 7.51168182,30.93375 6.09295455,28.76625 C3.43245455,24.70275 0.128272727,18 0.128272727,18 C-0.392545455,17.2845 -0.306,16.30875 0.3315,15.69 C1.01690909,15.0255 2.11340909,14.98425 2.84904545,15.59625 L6.95454545,20.25 L6.95454545,5.25 C6.95454545,4.00725 7.99231818,3 9.27272727,3 C10.5531364,3 11.5909091,4.00725 11.5909091,5.25 L11.5909091,14.25" id="Stroke-679"></path>
                    <path d="M11.5909091,11.25 L11.5909091,2.25 C11.5909091,1.00725 12.6286818,0 13.9090909,0 C15.1895,0 16.2272727,1.00725 16.2272727,2.25 L16.2272727,11.25" id="Stroke-680"></path>
                    <path d="M16.2272727,14.25 L16.2272727,5.25 C16.2272727,4.00725 17.2650455,3 18.5454545,3 C19.8258636,3 20.8636364,4.00725 20.8636364,5.25 L20.8636364,14.25" id="Stroke-681"></path>
                    <path d="M20.8636364,16.5 L20.8636364,9.75 C20.8636364,8.50725 21.9014091,7.5 23.1818182,7.5 C24.4622273,7.5 25.5,8.50725 25.5,9.75 L25.5,18.75" id="Stroke-682"></path>
                </g>
            </g>
        </g>
    </g>
</svg>