<?xml version="1.0" encoding="UTF-8" standalone="no"?>
<svg width="36px" height="36px" viewBox="0 0 36 36" version="1.1" xmlns="http://www.w3.org/2000/svg" xmlns:xlink="http://www.w3.org/1999/xlink" xmlns:sketch="http://www.bohemiancoding.com/sketch/ns">
    <!-- Generator: Sketch 3.0.3 (7891) - http://www.bohemiancoding.com/sketch -->
    <title>table</title>
    <desc>Created with Sketch.</desc>
    <defs></defs>
    <g id="24" stroke="none" stroke-width="1" fill="none" fill-rule="evenodd" sketch:type="MSPage">
        <g id="Icons" sketch:type="MSLayerGroup" transform="translate(-160.000000, -422.000000)" fill="#0093E6">
            <g id="table" transform="translate(160.000000, 422.000000)" sketch:type="MSShapeGroup">
                <g id="Group">
                    <path d="M2,9.27272727 L2,2 L34,2 L34,9.27272727 L2,9.27272727 L2,9.27272727 Z M2,11.2727273 L2,21.6363636 L17,21.6363636 L17,11.2727273 L2,11.2727273 L2,11.2727273 Z M2,23.6363636 L2,34 L34,34 L34,23.6363636 L19,23.6363636 L19,34.0000002 L17,34.0000002 L17,23.6363636 L2,23.6363636 L2,23.6363636 Z M34,21.6363636 L34,11.2727273 L19,11.2727273 L19,21.6363636 L19,21.6363636 L34,21.6363636 L34,21.6363636 Z M36,35 L36,1 C36,0.44771525 35.5522847,0 35,0 L1,0 C0.44771525,0 0,0.44771525 0,1 L0,35 C0,35.5522847 0.44771525,36 1,36 L35,36 C35.5522847,36 36,35.5522847 36,35 L36,35 Z" id="Path"></path>
                </g>
            </g>
        </g>
    </g>
</svg>