<?xml version="1.0" encoding="UTF-8" standalone="no"?>
<svg width="36px" height="36px" viewBox="0 0 36 36" version="1.1" xmlns="http://www.w3.org/2000/svg" xmlns:xlink="http://www.w3.org/1999/xlink" xmlns:sketch="http://www.bohemiancoding.com/sketch/ns">
    <!-- Generator: Sketch 3.0.3 (7891) - http://www.bohemiancoding.com/sketch -->
    <title>templates</title>
    <desc>Created with Sketch.</desc>
    <defs></defs>
    <g id="24" stroke="none" stroke-width="1" fill="none" fill-rule="evenodd" sketch:type="MSPage">
        <g id="Icons" sketch:type="MSLayerGroup" transform="translate(-280.000000, -422.000000)" fill="#0093E6">
            <g id="templates" transform="translate(280.000000, 422.000000)" sketch:type="MSShapeGroup">
                <g id="Group">
                    <path d="M2,9.27272727 L2,2 L34,2 L34,9.27272727 L2,9.27272727 L2,9.27272727 Z M2,11.2727273 L2,34 L10.8181818,34 L10.8181818,11.2727273 L10.8181818,11.2727273 L2,11.2727273 L2,11.2727273 Z M12.8181818,34 L34,34 L34,23.6363636 L12.8181818,23.6363636 L12.8181818,34 L12.8181818,34 Z M34,21.6363636 L34,11.2727273 L12.8181818,11.2727273 L12.8181818,21.6363636 L12.8181818,21.6363636 L34,21.6363636 L34,21.6363636 Z M1.00041944,0 C0.447903039,0 0,0.455173016 0,1.00041944 L0,34.9995806 C0,35.552097 0.455173016,36 1.00041944,36 L34.9995806,36 C35.552097,36 36,35.544827 36,34.9995806 L36,1.00041944 C36,0.447903039 35.544827,0 34.9995806,0 L1.00041944,0 L1.00041944,0 Z" id="Rectangle-3"></path>
                </g>
            </g>
        </g>
    </g>
</svg>