<?xml version="1.0" encoding="utf-8"?>
<!-- Generator: Adobe Illustrator 16.0.0, SVG Export Plug-In . SVG Version: 6.00 Build 0)  -->
<!DOCTYPE svg PUBLIC "-//W3C//DTD SVG 1.1//EN" "http://www.w3.org/Graphics/SVG/1.1/DTD/svg11.dtd">
<svg version="1.1" id="Layer_1" xmlns="http://www.w3.org/2000/svg" xmlns:xlink="http://www.w3.org/1999/xlink" x="0px" y="0px"
	 width="512px" height="512px" viewBox="0 0 512 512" enable-background="new 0 0 512 512" xml:space="preserve">
<path d="M151.946,194.237l-61.701-61.701c-6.001-6.001-15.722-6.001-21.723,0c-6.001,6.002-6.001,15.722,0,21.724l53.729,53.73
	l-53.729,53.745c-6.001,6.002-6.001,15.707,0,21.709s15.722,6.002,21.723,0l61.701-61.685c1.204-0.673,2.438-1.283,3.47-2.313
	c3.157-3.156,4.548-7.329,4.376-11.44c0.172-4.125-1.219-8.298-4.376-11.438C154.383,195.518,153.164,194.91,151.946,194.237z
	 M496.051,63.958H15.948c-8.846,0-16.003,7.174-16.003,16.003v352.078c0,8.846,7.158,16.002,16.003,16.002h480.104
	c8.847,0,16.004-7.156,16.004-16.002V79.961C512.055,71.132,504.897,63.958,496.051,63.958z M480.047,400.031
	c0,8.846-7.158,16.004-16.003,16.004H47.953c-8.845,0-16.003-7.158-16.003-16.004V111.969c0-8.831,7.158-16.004,16.003-16.004
	h416.091c8.845,0,16.003,7.173,16.003,16.004V400.031z M304.009,256h-96.021c-8.846,0-16.003,7.173-16.003,16.003
	c0,8.846,7.158,16.002,16.003,16.002h96.021c8.847,0,16.004-7.156,16.004-16.002C320.013,263.174,312.856,256,304.009,256z"/>
</svg>
