<?xml version="1.0" encoding="UTF-8" standalone="no"?>
<svg width="48px" height="48px" viewBox="0 0 48 48" version="1.1" xmlns="http://www.w3.org/2000/svg" xmlns:xlink="http://www.w3.org/1999/xlink" xmlns:sketch="http://www.bohemiancoding.com/sketch/ns">
    <!-- Generator: Sketch 3.2.2 (9983) - http://www.bohemiancoding.com/sketch -->
    <title>trait</title>
    <desc>Created with Sketch.</desc>
    <defs></defs>
    <g id="Icons" stroke="none" stroke-width="1" fill="none" fill-rule="evenodd" sketch:type="MSPage">
        <g id="trait" sketch:type="MSLayerGroup" fill="#626A85">
            <path d="M18,23 C16.8954305,23 16,23.8954305 16,25 C16,26.1045695 16.8954305,27 18,27 L30,27 C31.1045695,27 32,26.1045695 32,25 C32,23.8954305 31.1045695,23 30,23 L18,23 Z" id="Shape-3" sketch:type="MSShapeGroup"></path>
            <path d="M4.48673898,24.1923146 C3.83775367,24.9433241 3.83775367,26.0566759 4.48673898,26.8076854 L13.5603201,37.3076854 C14.2825348,38.1434364 15.5455156,38.2354757 16.3812665,37.513261 C17.2170175,36.7910463 17.3090569,35.5280656 16.5868422,34.6923146 L7.51326102,24.1923146 L7.51326102,26.8076854 L16.5868422,16.3076854 C17.3090569,15.4719344 17.2170175,14.2089537 16.3812665,13.486739 C15.5455156,12.7645243 14.2825348,12.8565636 13.5603201,13.6923146 L4.48673898,24.1923146 Z" id="Stroke-6883-4" sketch:type="MSShapeGroup"></path>
            <path d="M40.5603201,26.8076854 L40.5603201,24.1923146 L31.486739,34.6923146 C30.7645243,35.5280656 30.8565636,36.7910463 31.6923146,37.513261 C32.5280656,38.2354757 33.7910463,38.1434364 34.513261,37.3076854 L43.5868422,26.8076854 C44.2358275,26.0566759 44.2358275,24.9433241 43.5868422,24.1923146 L34.513261,13.6923146 C33.7910463,12.8565636 32.5280656,12.7645243 31.6923146,13.486739 C30.8565636,14.2089537 30.7645243,15.4719344 31.486739,16.3076854 L40.5603201,26.8076854 Z" id="Stroke-6883-5" sketch:type="MSShapeGroup"></path>
        </g>
    </g>
</svg>