<?xml version="1.0" encoding="UTF-8" standalone="no"?>
<svg width="260px" height="260px" viewBox="0 0 260 260" version="1.1" xmlns="http://www.w3.org/2000/svg" xmlns:xlink="http://www.w3.org/1999/xlink" xmlns:sketch="http://www.bohemiancoding.com/sketch/ns">
    <title>Slice 1</title>
    <description>Created with Sketch (http://www.bohemiancoding.com/sketch)</description>
    <defs></defs>
    <g id="Page 1" stroke="none" stroke-width="1" fill="none" fill-rule="evenodd">
        <path d="M232.972186,0 C247.894886,0 260,12.1007643 260,27.0278136 L260,232.972186 C260,247.894886 247.899236,260 232.972186,260 L27.0278136,260 C12.1051138,260 0,247.899236 0,232.972186 L0,27.0278136 C0,12.1051138 12.1007643,0 27.0278136,0 L232.972186,0 Z M114.345111,52 C113.264738,60.5568401 111.296059,67.6161489 108.421925,73.1509438 C105.568369,78.6992299 101.77506,83.4414125 97.0351388,87.4078469 C92.3157963,91.36079 84.6297159,94.3963265 78,96.5110836 L78,120.023 L100.93134,120.023 L100.93134,178.237845 C100.93134,185.826686 101.740762,191.621188 103.363036,195.62135 C104.981881,199.611394 107.873164,203.385578 112.074613,206.937156 C116.255484,210.461751 121.314373,213.203852 127.247848,215.133104 C133.171035,217.038747 137.725749,218 145.442697,218 C152.240471,218 158.558079,217.311945 164.412671,215.976309 C170.260403,214.640673 176.797515,212.286446 184,208.947356 L184,182.774285 C175.545655,188.234878 167.043293,190.963488 158.496344,190.963488 C153.687828,190.963488 149.434932,189.863949 145.68964,187.658126 C142.877241,186.032428 140.291206,183.212752 139.258849,180.497633 C138.226493,177.769023 138.346535,172.213991 138.346535,162.584595 L138.346535,120.023 L177.373714,120.023 L177.373714,90.3826727 L138.346535,90.3826727 L138.346535,52 L114.345111,52 Z M114.345111,52" id="Rectangle 1" fill="#000000"></path>
    </g>
</svg>