<?xml version="1.0" encoding="UTF-8" standalone="no"?>
<svg width="32px" height="32px" viewBox="0 0 32 32" version="1.1" xmlns="http://www.w3.org/2000/svg" xmlns:xlink="http://www.w3.org/1999/xlink" xmlns:sketch="http://www.bohemiancoding.com/sketch/ns">
    <!-- Generator: Sketch 3.0.2 (7799) - http://www.bohemiancoding.com/sketch -->
    <title>tumblr</title>
    <description>Created with Sketch.</description>
    <defs></defs>
    <g id="24" stroke="none" stroke-width="1" fill="none" fill-rule="evenodd" sketch:type="MSPage">
        <g id="Brands" sketch:type="MSLayerGroup" transform="translate(-120.000000, -41.000000)" fill="#32506D">
            <g id="tumblr" transform="translate(120.000000, 41.000000)" sketch:type="MSShapeGroup">
                <path d="M28.6734998,0 C30.5101398,0 32,1.48932484 32,3.32650014 L32,28.6734998 C32,30.5101398 30.5106752,32 28.6734998,32 L3.32650014,32 C1.48986016,32 0,30.5106752 0,28.6734998 L0,3.32650014 C0,1.48986016 1.48932484,0 3.32650014,0 L28.6734998,0 L28.6734998,0 Z M14.0732444,6.4 C13.9402754,7.45314955 13.6979765,8.32198756 13.3442369,9.00319308 C12.99303,9.68605906 12.5261612,10.2697123 11.9427863,10.7578888 C11.3619442,11.2444049 10.415965,11.6180094 9.6,11.8782872 L9.6,14.7720615 L12.4223188,14.7720615 L12.4223188,21.9369655 C12.4223188,22.8709767 12.5219399,23.5841462 12.7216044,24.0764738 C12.9208469,24.5675562 13.2766971,25.0320711 13.7937985,25.4691884 C14.3083673,25.9029847 14.9309998,26.2404741 15.6612736,26.4779205 C16.3902812,26.7124612 16.9508614,26.8307692 17.9006396,26.8307692 C18.7372887,26.8307692 19.5148405,26.7460855 20.2354057,26.5816996 C20.9551265,26.4173136 21.7596942,26.1275626 22.6461538,25.7165977 L22.6461538,22.4952966 C21.6056191,23.1673696 20.5591745,23.5031985 19.5072423,23.5031985 C18.915425,23.5031985 18.3919916,23.3678706 17.9310326,23.0963847 C17.5848912,22.8962988 17.26661,22.5492618 17.1395506,22.2150933 C17.0124914,21.8792644 17.0272658,21.1955681 17.0272658,20.0104117 L17.0272658,14.7720615 L21.830611,14.7720615 L21.830611,11.1240213 L17.0272658,11.1240213 L17.0272658,6.4 L14.0732444,6.4 L14.0732444,6.4 Z"></path>
            </g>
        </g>
    </g>
</svg>