<?xml version="1.0" encoding="UTF-8" standalone="no"?>
<svg width="32px" height="32px" viewBox="0 0 32 32" version="1.1" xmlns="http://www.w3.org/2000/svg" xmlns:xlink="http://www.w3.org/1999/xlink" xmlns:sketch="http://www.bohemiancoding.com/sketch/ns">
    <!-- Generator: Sketch 3.0.2 (7799) - http://www.bohemiancoding.com/sketch -->
    <title>twitter</title>
    <description>Created with Sketch.</description>
    <defs></defs>
    <g id="24" stroke="none" stroke-width="1" fill="none" fill-rule="evenodd" sketch:type="MSPage">
        <g id="Brands" sketch:type="MSLayerGroup" transform="translate(-160.000000, 0.000000)" fill="#00ABF5">
            <g id="twitter" transform="translate(160.000000, 0.000000)" sketch:type="MSShapeGroup">
                <path d="M31.645287,6.0755625 C30.467912,6.5976875 29.202662,6.950625 27.874662,7.1093125 C29.2300995,6.2968125 30.2710995,5.01025 30.7613495,3.477125 C29.492662,4.2295625 28.0877245,4.775875 26.592287,5.07025 C25.394787,3.7943125 23.6884745,2.997125 21.800162,2.997125 C18.1744745,2.997125 15.2349745,5.9364375 15.2349745,9.5620625 C15.2349745,10.076625 15.293037,10.5776875 15.4049745,11.05825 C9.94872449,10.784375 5.11116199,8.17075 1.87316199,4.1986875 C1.30803699,5.1683125 0.98422449,6.2960625 0.98422449,7.49925 C0.98422449,9.777 2.14322449,11.7865 3.90484949,12.9638125 C2.82866199,12.9296875 1.81634949,12.634375 0.93128699,12.142625 C0.93066199,12.17 0.93066199,12.1975 0.93066199,12.2251875 C0.93066199,15.4060625 3.19372449,18.0594375 6.19697449,18.6626875 C5.64616199,18.812625 5.06609949,18.8930625 4.46734949,18.8930625 C4.04428699,18.8930625 3.63303699,18.8518125 3.23209949,18.7751875 C4.06759949,21.38325 6.49209949,23.281625 9.36497449,23.3344375 C7.11809949,25.0953125 4.28728699,26.144875 1.21134949,26.144875 C0.68141199,26.144875 0.15884949,26.1138125 -0.35477551,26.0529375 C2.55059949,27.9158125 6.00153699,29.00275 9.70903699,29.00275 C21.7847245,29.00275 28.388287,18.998875 28.388287,10.32325 C28.388287,10.038625 28.3818495,9.7555 28.3692245,9.473875 C29.652162,8.5483125 30.765162,7.3920625 31.645287,6.0755625 L31.645287,6.0755625 Z"></path>
            </g>
        </g>
    </g>
</svg>