<?xml version="1.0" encoding="UTF-8" standalone="no"?>
<svg width="48px" height="48px" viewBox="0 0 48 48" version="1.1" xmlns="http://www.w3.org/2000/svg" xmlns:xlink="http://www.w3.org/1999/xlink" xmlns:sketch="http://www.bohemiancoding.com/sketch/ns">
    <!-- Generator: Sketch 3.2.2 (9983) - http://www.bohemiancoding.com/sketch -->
    <title>twitter</title>
    <desc>Created with Sketch.</desc>
    <defs></defs>
    <g id="Icons" stroke="none" stroke-width="1" fill="none" fill-rule="evenodd" sketch:type="MSPage">
        <g id="twitter" sketch:type="MSLayerGroup" fill="#626A85">
            <path d="M1.5,9.90410959 C1.97945205,9.83561644 2.73287671,9.80136986 3.76027397,9.80136986 C8.00684932,9.80136986 11.8082192,11.1712329 15.1643836,13.9109589 C13.109589,13.9109589 11.3287671,14.5273973 9.82191781,15.760274 C8.24657534,16.9931507 7.15068493,18.6027397 6.53424658,20.5890411 C7.49315068,20.4520548 8.07534247,20.3835616 8.28082192,20.3835616 C9.10273973,20.3835616 9.92465753,20.4863014 10.7465753,20.6917808 C8.55479452,21.1027397 6.7739726,22.1986301 5.40410959,23.9794521 C4.03424658,25.760274 3.34931507,27.7808219 3.34931507,30.0410959 L3.34931507,30.2465753 C4.78767123,29.4246575 6.15753425,29.0136986 7.45890411,29.0136986 C6.0890411,30.0410959 5.09589041,31.1712329 4.47945205,32.4041096 C3.79452055,33.7739726 3.45205479,35.2808219 3.45205479,36.9246575 C3.45205479,38.7054795 3.8630137,40.3150685 4.68493151,41.7534247 C6.87671233,38.8082192 9.68493151,36.4452055 13.109589,34.6643836 C16.3287671,32.9520548 19.8561644,31.9931507 23.6917808,31.7876712 C23.5547945,32.609589 23.4863014,33.3287671 23.4863014,33.9452055 C23.4863014,36.5479452 24.3767123,38.8082192 26.1575342,40.7260274 C27.9383562,42.5753425 30.0958904,43.5 32.630137,43.5 C33.8630137,43.5 35.0958904,43.2260274 36.3287671,42.6780822 C37.630137,42.0616438 38.6575342,41.3424658 39.4109589,40.5205479 C41.5342466,40.9315068 43.4863014,41.6849315 45.2671233,42.7808219 C44.9931507,41.890411 44.4452055,40.8972603 43.6232877,39.8013699 C42.9383562,38.9794521 42.1164384,38.2260274 41.1575342,37.5410959 C42.9383562,37.7465753 44.7191781,38.260274 46.5,39.0821918 C45.2671233,37.1643836 43.7260274,35.5205479 41.8767123,34.1506849 L41.8767123,32.8150685 C41.8767123,30.2123288 41.5342466,27.6780822 40.8493151,25.2123288 C40.1643836,22.7465753 39.0684932,20.2808219 37.5616438,17.8150685 C36.260274,15.6917808 34.4794521,13.6027397 32.2191781,11.5479452 C30.369863,9.90410959 27.9041096,8.46575342 24.8219178,7.23287671 C22.0136986,6.1369863 18.9657534,5.5890411 15.6780822,5.5890411 C10.5410959,5.5890411 5.81506849,7.02739726 1.5,9.90410959 L1.5,9.90410959 Z" id="Shape-75" sketch:type="MSShapeGroup" transform="translate(24.000000, 24.544521) scale(1, -1) translate(-24.000000, -24.544521) "></path>
        </g>
    </g>
</svg>