<?xml version="1.0" encoding="UTF-8" standalone="no"?>
<svg width="32px" height="32px" viewBox="0 0 32 32" version="1.1" xmlns="http://www.w3.org/2000/svg" xmlns:xlink="http://www.w3.org/1999/xlink" xmlns:sketch="http://www.bohemiancoding.com/sketch/ns">
    <!-- Generator: Sketch 3.2.2 (9983) - http://www.bohemiancoding.com/sketch -->
    <title>twitter</title>
    <desc>Created with Sketch.</desc>
    <defs></defs>
    <g id="Icons" stroke="none" stroke-width="1" fill="none" fill-rule="evenodd" sketch:type="MSPage">
        <g id="twitter" sketch:type="MSLayerGroup" fill="#626A85">
            <path d="M1,6.60273973 C1.3196347,6.55707763 1.82191781,6.53424658 2.50684932,6.53424658 C5.33789954,6.53424658 7.87214612,7.44748858 10.109589,9.2739726 C8.73972603,9.2739726 7.55251142,9.68493151 6.54794521,10.5068493 C5.49771689,11.3287671 4.76712329,12.4018265 4.35616438,13.7260274 C4.99543379,13.6347032 5.38356164,13.5890411 5.52054795,13.5890411 C6.06849315,13.5890411 6.61643836,13.6575342 7.16438356,13.7945205 C5.70319635,14.0684932 4.51598174,14.7990868 3.60273973,15.9863014 C2.68949772,17.173516 2.23287671,18.5205479 2.23287671,20.0273973 L2.23287671,20.1643836 C3.19178082,19.6164384 4.10502283,19.3424658 4.97260274,19.3424658 C4.05936073,20.0273973 3.39726027,20.7808219 2.98630137,21.6027397 C2.52968037,22.5159817 2.30136986,23.5205479 2.30136986,24.6164384 C2.30136986,25.803653 2.57534247,26.8767123 3.12328767,27.8356164 C4.58447489,25.8721461 6.456621,24.2968037 8.73972603,23.109589 C10.8858447,21.9680365 13.2374429,21.3287671 15.7945205,21.1917808 C15.7031963,21.739726 15.6575342,22.2191781 15.6575342,22.630137 C15.6575342,24.3652968 16.2511416,25.8721461 17.4383562,27.1506849 C18.6255708,28.3835616 20.0639269,29 21.7534247,29 C22.5753425,29 23.3972603,28.8173516 24.2191781,28.4520548 C25.086758,28.0410959 25.7716895,27.5616438 26.2739726,27.0136986 C27.6894977,27.2876712 28.9908676,27.7899543 30.1780822,28.5205479 C29.9954338,27.9269406 29.630137,27.2648402 29.0821918,26.5342466 C28.6255708,25.9863014 28.0776256,25.4840183 27.4383562,25.0273973 C28.6255708,25.1643836 29.8127854,25.5068493 31,26.0547945 C30.1780822,24.7762557 29.1506849,23.6803653 27.9178082,22.7671233 L27.9178082,21.8767123 C27.9178082,20.1415525 27.6894977,18.4520548 27.2328767,16.8082192 C26.7762557,15.1643836 26.0456621,13.5205479 25.0410959,11.8767123 C24.173516,10.4611872 22.9863014,9.06849315 21.4794521,7.69863014 C20.2465753,6.60273973 18.6027397,5.64383562 16.5479452,4.82191781 C14.6757991,4.0913242 12.6438356,3.7260274 10.4520548,3.7260274 C7.02739726,3.7260274 3.87671233,4.68493151 1,6.60273973 L1,6.60273973 Z" id="Shape-75" sketch:type="MSShapeGroup" transform="translate(16.000000, 16.363014) scale(1, -1) translate(-16.000000, -16.363014) "></path>
        </g>
    </g>
</svg>