<?xml version="1.0" encoding="UTF-8" standalone="no"?>
<svg width="15px" height="15px" viewBox="0 0 15 15" version="1.1" xmlns="http://www.w3.org/2000/svg" xmlns:xlink="http://www.w3.org/1999/xlink" xmlns:sketch="http://www.bohemiancoding.com/sketch/ns">
    <!-- Generator: Sketch 3.2.2 (9983) - http://www.bohemiancoding.com/sketch -->
    <title>twitter</title>
    <desc>Created with Sketch.</desc>
    <defs></defs>
    <g id="Page-1" stroke="none" stroke-width="1" fill="none" fill-rule="evenodd" sketch:type="MSPage">
        <g id="twitter" sketch:type="MSLayerGroup" transform="translate(0.000000, 1.000000)" fill="#000000">
            <path d="M0,1.80136986 C0.159817352,1.77853881 0.410958904,1.76712329 0.753424658,1.76712329 C2.16894977,1.76712329 3.43607306,2.22374429 4.55479452,3.1369863 C3.86986301,3.1369863 3.27625571,3.34246575 2.7739726,3.75342466 C2.24885845,4.16438356 1.88356164,4.70091324 1.67808219,5.3630137 C1.99771689,5.3173516 2.19178082,5.29452055 2.26027397,5.29452055 C2.53424658,5.29452055 2.80821918,5.32876712 3.08219178,5.39726027 C2.35159817,5.53424658 1.75799087,5.89954338 1.30136986,6.49315068 C0.844748858,7.08675799 0.616438356,7.76027397 0.616438356,8.51369863 L0.616438356,8.58219178 C1.09589041,8.30821918 1.55251142,8.17123288 1.98630137,8.17123288 C1.52968037,8.51369863 1.19863014,8.89041096 0.993150685,9.30136986 C0.764840183,9.75799087 0.650684932,10.260274 0.650684932,10.8082192 C0.650684932,11.4018265 0.787671233,11.9383562 1.06164384,12.4178082 C1.79223744,11.4360731 2.7283105,10.6484018 3.86986301,10.0547945 C4.94292237,9.48401826 6.11872146,9.16438356 7.39726027,9.09589041 C7.35159817,9.36986301 7.32876712,9.60958904 7.32876712,9.81506849 C7.32876712,10.6826484 7.62557078,11.4360731 8.21917808,12.0753425 C8.81278539,12.6917808 9.53196347,13 10.3767123,13 C10.7876712,13 11.1986301,12.9086758 11.609589,12.7260274 C12.043379,12.5205479 12.3858447,12.2808219 12.6369863,12.0068493 C13.3447489,12.1438356 13.9954338,12.3949772 14.5890411,12.760274 C14.4977169,12.4634703 14.3150685,12.1324201 14.0410959,11.7671233 C13.8127854,11.4931507 13.5388128,11.2420091 13.2191781,11.0136986 C13.8127854,11.0821918 14.4063927,11.2534247 15,11.5273973 C14.5890411,10.8881279 14.0753425,10.3401826 13.4589041,9.88356164 L13.4589041,9.43835616 C13.4589041,8.57077626 13.3447489,7.7260274 13.1164384,6.90410959 C12.8881279,6.08219178 12.5228311,5.26027397 12.0205479,4.43835616 C11.586758,3.73059361 10.9931507,3.03424658 10.239726,2.34931507 C9.62328767,1.80136986 8.80136986,1.32191781 7.7739726,0.910958904 C6.83789954,0.5456621 5.82191781,0.363013699 4.7260274,0.363013699 C3.01369863,0.363013699 1.43835616,0.842465753 0,1.80136986 L0,1.80136986 Z" id="Shape-75" sketch:type="MSShapeGroup" transform="translate(7.500000, 6.681507) scale(1, -1) translate(-7.500000, -6.681507) "></path>
        </g>
        <g id="Group" sketch:type="MSLayerGroup" transform="translate(-100.000000, 0.000000)"></g>
    </g>
</svg>