<?xml version="1.0" encoding="UTF-8" standalone="no"?>
<svg width="36px" height="36px" viewBox="0 0 36 36" version="1.1" xmlns="http://www.w3.org/2000/svg" xmlns:xlink="http://www.w3.org/1999/xlink" xmlns:sketch="http://www.bohemiancoding.com/sketch/ns">
    <!-- Generator: Sketch 3.0.3 (7891) - http://www.bohemiancoding.com/sketch -->
    <title>ul</title>
    <desc>Created with Sketch.</desc>
    <defs></defs>
    <g id="24" stroke="none" stroke-width="1" fill="none" fill-rule="evenodd" sketch:type="MSPage">
        <g id="Icons" sketch:type="MSLayerGroup" transform="translate(0.000000, -382.000000)" stroke="#0093E6" stroke-width="2" stroke-linecap="round" stroke-linejoin="round">
            <g id="ul" transform="translate(0.000000, 382.000000)" sketch:type="MSShapeGroup">
                <g id="Group" transform="translate(1.000000, 4.000000)">
                    <path d="M5.6994425,3.0054875 C5.6994425,4.6070125 4.4009675,5.9054875 2.7994425,5.9054875 C1.1957425,5.9054875 -0.1005575,4.6070125 -0.1005575,3.0054875 C-0.1005575,1.4046875 1.1957425,0.1054875 2.7994425,0.1054875 C4.4009675,0.1054875 5.6994425,1.4046875 5.6994425,3.0054875 L5.6994425,3.0054875 Z" id="Stroke-6909"></path>
                    <path d="M11.6,2.9 L33.35,2.9" id="Stroke-6910"></path>
                    <path d="M5.6994425,14.6054875 C5.6994425,16.2070125 4.4009675,17.5054875 2.7994425,17.5054875 C1.1957425,17.5054875 -0.1005575,16.2070125 -0.1005575,14.6054875 C-0.1005575,13.0046875 1.1957425,11.7054875 2.7994425,11.7054875 C4.4009675,11.7054875 5.6994425,13.0046875 5.6994425,14.6054875 L5.6994425,14.6054875 Z" id="Stroke-6911"></path>
                    <path d="M11.6,14.5 L33.35,14.5" id="Stroke-6912"></path>
                    <path d="M5.6994425,26.2054875 C5.6994425,27.8070125 4.4009675,29.1054875 2.7994425,29.1054875 C1.1957425,29.1054875 -0.1005575,27.8070125 -0.1005575,26.2054875 C-0.1005575,24.6046875 1.1957425,23.3054875 2.7994425,23.3054875 C4.4009675,23.3054875 5.6994425,24.6046875 5.6994425,26.2054875 L5.6994425,26.2054875 Z" id="Stroke-6913"></path>
                    <path d="M11.6,26.1 L33.35,26.1" id="Stroke-6914"></path>
                </g>
            </g>
        </g>
    </g>
</svg>