<?xml version="1.0" encoding="UTF-8" standalone="no"?>
<svg width="36px" height="36px" viewBox="0 0 36 36" version="1.1" xmlns="http://www.w3.org/2000/svg" xmlns:xlink="http://www.w3.org/1999/xlink" xmlns:sketch="http://www.bohemiancoding.com/sketch/ns">
    <!-- Generator: Sketch 3.0.3 (7891) - http://www.bohemiancoding.com/sketch -->
    <title>unlink</title>
    <desc>Created with Sketch.</desc>
    <defs></defs>
    <g id="24" stroke="none" stroke-width="1" fill="none" fill-rule="evenodd" sketch:type="MSPage">
        <g id="Icons" sketch:type="MSLayerGroup" transform="translate(-360.000000, -422.000000)" stroke="#0093E6" stroke-width="2" stroke-linecap="round" stroke-linejoin="round">
            <g id="unlink" transform="translate(360.000000, 422.000000)" sketch:type="MSShapeGroup">
                <g id="Group" transform="translate(1.000000, 2.000000)">
                    <path d="M8.90674348,5.28648261 L5.95022174,2.32996087" id="Stroke-222"></path>
                    <path d="M13.3043478,3.69565217 L13.3043478,0" id="Stroke-223"></path>
                    <path d="M7.39130435,8.86956522 L3.69565217,8.86956522" id="Stroke-224"></path>
                    <path d="M15.5589174,25.9821348 L10.5291348,31.0126565 C8.51648261,33.0245696 5.22439565,33.0245696 3.21100435,31.0126565 L1.6433087,29.4449609 C-0.367865217,27.4323087 -0.367865217,24.1402217 1.6433087,22.1275696 L6.67383043,17.0970478" id="Stroke-225"></path>
                    <path d="M22.173913,9.60869565 L28.826087,9.60869565 C31.6717391,9.60869565 34,12.0500435 34,14.8949565 L34,17.8514783 C34,20.6978696 31.6340435,22.9130435 28.7891304,22.9130435 L22.173913,22.9130435" id="Stroke-226"></path>
                </g>
            </g>
        </g>
    </g>
</svg>