<?xml version="1.0" encoding="UTF-8" standalone="no"?>
<svg width="36px" height="36px" viewBox="0 0 36 36" version="1.1" xmlns="http://www.w3.org/2000/svg" xmlns:xlink="http://www.w3.org/1999/xlink" xmlns:sketch="http://www.bohemiancoding.com/sketch/ns">
    <!-- Generator: Sketch 3.0.2 (7799) - http://www.bohemiancoding.com/sketch -->
    <title>user</title>
    <description>Created with Sketch.</description>
    <defs></defs>
    <g id="24" stroke="none" stroke-width="1" fill="none" fill-rule="evenodd" sketch:type="MSPage">
        <g id="Icons" sketch:type="MSLayerGroup" transform="translate(-40.000000, -40.000000)" stroke-width="2" stroke="#0093E6" stroke-linejoin="round">
            <g id="user" transform="translate(40.000000, 40.000000)" sketch:type="MSShapeGroup">
                <path d="M18,34.5 L35,34.5 C35,34.5 35,31.4584783 33.5217391,28.5019565 C32.4189565,26.2978696 27.6086957,24.8063043 21.6956522,22.588913 L21.6956522,18.1541304 C21.6956522,18.1541304 23.9130435,16.6758696 23.9130435,13.7193478 C24.6521739,13.7193478 25.3913043,10.7628261 23.9130435,10.0236957 C23.9130435,9.58465217 25.8931739,5.88234783 25.3913043,3.37152174 C24.6521739,-0.324130435 14.3043478,-0.324130435 13.5652174,2.6323913 C9.13043478,2.6323913 12.0869565,9.42426087 12.0869565,10.0236957 C10.6086957,10.7628261 11.3478261,13.7193478 12.0869565,13.7193478 C12.0869565,16.6758696 14.3043478,18.1541304 14.3043478,18.1541304 L14.3043478,22.588913 C8.39130435,24.8063043 3.57956522,26.2978696 2.47826087,28.5019565 C1,31.4584783 1,34.5 1,34.5 L18,34.5 L18,34.5 Z"></path>
            </g>
        </g>
    </g>
</svg>