<?xml version="1.0" encoding="UTF-8" standalone="no"?>
<svg width="48px" height="48px" viewBox="0 0 48 48" version="1.1" xmlns="http://www.w3.org/2000/svg" xmlns:xlink="http://www.w3.org/1999/xlink" xmlns:sketch="http://www.bohemiancoding.com/sketch/ns">
    <!-- Generator: Sketch 3.2.2 (9983) - http://www.bohemiancoding.com/sketch -->
    <title>user_group</title>
    <desc>Created with Sketch.</desc>
    <defs></defs>
    <g id="Icons" stroke="none" stroke-width="1" fill="none" fill-rule="evenodd" sketch:type="MSPage">
        <g id="user_group" sketch:type="MSLayerGroup" stroke="#626A85" stroke-width="2" stroke-linejoin="round">
            <path d="M19.1028261,46.3610625 L36.7173913,46.3610625 C36.7173913,46.3610625 36.7173913,39.8607375 35.79,37.0751625 C34.9819565,34.6474125 29.1456522,33.0610875 23.0217391,30.7610625 L23.0217391,25.8860625 C23.0217391,25.8860625 25.9565217,24.6780375 25.9565217,20.0360625 C27.4865217,20.0360625 27.4865217,16.1360625 25.9565217,16.1360625 C25.9565217,15.6797625 27.5775,12.8629875 26.9347826,10.2860625 C26.0073913,6.5713125 15.1438043,6.5713125 14.2173913,10.2860625 C9.58336957,9.3568875 12.2608696,15.5130375 12.2608696,16.1360625 C10.728913,16.1360625 10.728913,20.0360625 12.2608696,20.0360625 C12.2608696,24.6780375 15.1956522,25.8860625 15.1956522,25.8860625 L15.1956522,30.7610625 C9.75945652,32.8192875 3.23347826,34.6474125 2.42641304,37.0751625 C1.5,39.8607375 1.5,46.3610625 1.5,46.3610625 L19.1028261,46.3610625 L19.1028261,46.3610625 Z" id="Stroke-1701" sketch:type="MSShapeGroup"></path>
            <path d="M42.2673867,46.1916726 L46.1804302,46.1916726 C46.1804302,46.1916726 46.1804302,39.6913476 45.2530389,36.9057726 C44.4449954,34.4780226 38.6086911,31.9166976 32.484778,29.6166726 L32.484778,26.6916726 C32.484778,26.6916726 35.4195606,25.4836476 35.4195606,20.8416726 C36.9495606,20.8416726 36.9495606,16.9416726 35.4195606,16.9416726 C35.4195606,16.4853726 37.0405389,13.3107726 36.3978215,10.7328726 C35.9634737,8.99542256 32.484778,6.21667256 29.5499954,8.16667256" id="Stroke-1702" stroke-linecap="round" sketch:type="MSShapeGroup"></path>
        </g>
    </g>
</svg>