<?xml version="1.0" encoding="UTF-8" standalone="no"?>
<svg width="36px" height="36px" viewBox="0 0 36 36" version="1.1" xmlns="http://www.w3.org/2000/svg" xmlns:xlink="http://www.w3.org/1999/xlink" xmlns:sketch="http://www.bohemiancoding.com/sketch/ns">
    <!-- Generator: Sketch 3.0.2 (7799) - http://www.bohemiancoding.com/sketch -->
    <title>user_group</title>
    <description>Created with Sketch.</description>
    <defs></defs>
    <g id="24" stroke="none" stroke-width="1" fill="none" fill-rule="evenodd" sketch:type="MSPage">
        <g id="Icons" sketch:type="MSLayerGroup" transform="translate(-80.000000, -40.000000)" stroke="#0093E6" stroke-width="2" stroke-linejoin="round">
            <g id="user_group" transform="translate(80.000000, 40.000000)" sketch:type="MSShapeGroup">
                <g transform="translate(1.000000, 3.000000)">
                    <path d="M13.2998391,29.5652174 L26.6086217,29.5652174 C26.6086217,29.5652174 26.6086217,24.6374348 25.9079261,22.5257391 C25.2974043,20.6853043 20.8877522,19.4827391 16.2607957,17.7391304 L16.2607957,14.0434783 C16.2607957,14.0434783 18.478187,13.1276957 18.478187,9.60869565 C19.634187,9.60869565 19.634187,6.65217391 18.478187,6.65217391 C18.478187,6.30626087 19.7029261,4.17091304 19.2173174,2.2173913 C18.5166217,-0.598695652 10.3085783,-0.598695652 9.60862174,2.2173913 C6.10736087,1.513 8.13036087,6.17986957 8.13036087,6.65217391 C6.97288261,6.65217391 6.97288261,9.60869565 8.13036087,9.60869565 C8.13036087,13.1276957 10.3477522,14.0434783 10.3477522,14.0434783 L10.3477522,17.7391304 C6.24040435,19.2994348 1.30966522,20.6853043 0.699882609,22.5257391 C-7.39130435e-05,24.6374348 -7.39130435e-05,29.5652174 -7.39130435e-05,29.5652174 L13.2998391,29.5652174 L13.2998391,29.5652174 Z" id="Stroke-1701"></path>
                    <path d="M31.0434783,29.5652174 L34,29.5652174 C34,29.5652174 34,24.6374348 33.2993043,22.5257391 C32.6887826,20.6853043 28.2791304,18.7436087 23.6521739,17 L23.6521739,14.7826087 C23.6521739,14.7826087 25.8695652,13.8668261 25.8695652,10.3478261 C27.0255652,10.3478261 27.0255652,7.39130435 25.8695652,7.39130435 C25.8695652,7.0453913 27.0943043,4.63878261 26.6086957,2.68452174 C26.2805217,1.3673913 23.6521739,-0.739130435 21.4347826,0.739130435" id="Stroke-1702" stroke-linecap="round"></path>
                </g>
            </g>
        </g>
    </g>
</svg>