<?xml version="1.0" encoding="UTF-8" standalone="no"?>
<svg width="32px" height="32px" viewBox="0 0 32 32" version="1.1" xmlns="http://www.w3.org/2000/svg" xmlns:xlink="http://www.w3.org/1999/xlink" xmlns:sketch="http://www.bohemiancoding.com/sketch/ns">
    <!-- Generator: Sketch 3.2.2 (9983) - http://www.bohemiancoding.com/sketch -->
    <title>user_group</title>
    <desc>Created with Sketch.</desc>
    <defs></defs>
    <g id="Icons" stroke="none" stroke-width="1" fill="none" fill-rule="evenodd" sketch:type="MSPage">
        <g id="user_group" sketch:type="MSLayerGroup" stroke="#626A85" stroke-width="2" stroke-linejoin="round">
            <path d="M12.7352174,30.907375 L24.4782609,30.907375 C24.4782609,30.907375 24.4782609,26.573825 23.86,24.716775 C23.3213043,23.098275 19.4304348,22.040725 15.3478261,20.507375 L15.3478261,17.257375 C15.3478261,17.257375 17.3043478,16.452025 17.3043478,13.357375 C18.3243478,13.357375 18.3243478,10.757375 17.3043478,10.757375 C17.3043478,10.453175 18.385,8.575325 17.9565217,6.857375 C17.3382609,4.380875 10.0958696,4.380875 9.47826087,6.857375 C6.38891304,6.237925 8.17391304,10.342025 8.17391304,10.757375 C7.1526087,10.757375 7.1526087,13.357375 8.17391304,13.357375 C8.17391304,16.452025 10.1304348,17.257375 10.1304348,17.257375 L10.1304348,20.507375 C6.50630435,21.879525 2.15565217,23.098275 1.6176087,24.716775 C1,26.573825 1,30.907375 1,30.907375 L12.7352174,30.907375 L12.7352174,30.907375 Z" id="Stroke-1701" sketch:type="MSShapeGroup"></path>
            <path d="M28.1782578,30.7944484 L30.7869535,30.7944484 C30.7869535,30.7944484 30.7869535,26.4608984 30.1686926,24.6038484 C29.6299969,22.9853484 25.7391274,21.2777984 21.6565187,19.7444484 L21.6565187,17.7944484 C21.6565187,17.7944484 23.6130404,16.9890984 23.6130404,13.8944484 C24.6330404,13.8944484 24.6330404,11.2944484 23.6130404,11.2944484 C23.6130404,10.9902484 24.6936926,8.87384838 24.2652143,7.15524838 C23.9756491,5.99694838 21.6565187,4.14444838 19.6999969,5.44444838" id="Stroke-1702" stroke-linecap="round" sketch:type="MSShapeGroup"></path>
        </g>
    </g>
</svg>