<?xml version="1.0" encoding="UTF-8" standalone="no"?>
<svg width="48px" height="48px" viewBox="0 0 48 48" version="1.1" xmlns="http://www.w3.org/2000/svg" xmlns:xlink="http://www.w3.org/1999/xlink" xmlns:sketch="http://www.bohemiancoding.com/sketch/ns">
    <!-- Generator: Sketch 3.2.2 (9983) - http://www.bohemiancoding.com/sketch -->
    <title>user</title>
    <desc>Created with Sketch.</desc>
    <defs></defs>
    <g id="Icons" stroke="none" stroke-width="1" fill="none" fill-rule="evenodd" sketch:type="MSPage">
        <g id="user" sketch:type="MSLayerGroup" stroke="#626A85" stroke-width="2" stroke-linejoin="round">
            <path d="M24.75,46.5 L46.5,46.5 C46.5,46.5 46.5,42.6086784 44.6086957,38.8261057 C43.1977826,36.0061978 37.0434783,34.0978899 29.4782609,31.2609604 L29.4782609,25.5871014 C29.4782609,25.5871014 32.3152174,23.6958151 32.3152174,19.9132424 C33.2608696,19.9132424 34.2065217,16.1306697 32.3152174,15.1850266 C32.3152174,14.6233145 34.8486196,9.88658791 34.2065217,6.67423808 C33.2608696,1.94602225 20.0217391,1.94602225 19.076087,5.72859491 C13.4021739,5.72859491 17.1847826,14.41811 17.1847826,15.1850266 C15.2934783,16.1306697 16.2391304,19.9132424 17.1847826,19.9132424 C17.1847826,23.6958151 20.0217391,25.5871014 20.0217391,25.5871014 L20.0217391,31.2609604 C12.4565217,34.0978899 6.30032609,36.0061978 4.89130435,38.8261057 C3,42.6086784 3,46.5 3,46.5 L24.75,46.5 L24.75,46.5 Z" id="Stroke-1670" sketch:type="MSShapeGroup"></path>
        </g>
    </g>
</svg>