<?xml version="1.0" encoding="UTF-8" standalone="no"?>
<svg width="48px" height="48px" viewBox="0 0 48 48" version="1.1" xmlns="http://www.w3.org/2000/svg" xmlns:xlink="http://www.w3.org/1999/xlink" xmlns:sketch="http://www.bohemiancoding.com/sketch/ns">
    <!-- Generator: Sketch 3.2.2 (9983) - http://www.bohemiancoding.com/sketch -->
    <title>user_circle</title>
    <desc>Created with Sketch.</desc>
    <defs></defs>
    <g id="Icons" stroke="none" stroke-width="1" fill="none" fill-rule="evenodd" sketch:type="MSPage">
        <g id="user_circle" sketch:type="MSLayerGroup" stroke="#626A85" stroke-width="2" stroke-linejoin="round">
            <path d="M20.0869565,29.8695652 C20.0869565,29.8695652 17.1521739,28.8913043 17.1521739,24 C15.536087,24 15.536087,20.0869565 17.1521739,20.0869565 C17.1521739,19.4315217 14.2173913,12.2608696 19.1086957,13.2391304 C20.0869565,9.32608696 30.8478261,9.32608696 31.826087,13.2391304 C32.5040217,15.9538043 30.8478261,19.6066304 30.8478261,20.0869565 C32.463913,20.0869565 32.463913,24 30.8478261,24 C30.8478261,28.8913043 27.9130435,29.8695652 27.9130435,29.8695652 L27.9130435,34.7608696 C32.7593478,36.5775 37.5577174,38.0830435 40.0151087,39.798913 C44.0240217,35.7361957 46.5,30.1581522 46.5,24 C46.5,11.5731522 36.4258696,1.5 24,1.5 C11.5731522,1.5 1.5,11.5731522 1.5,24 C1.5,30.1698913 3.98478261,35.7577174 8.00543478,39.8223913 C10.6076087,38.0223913 15.738587,36.4053261 20.0869565,34.7608696 L20.0869565,29.8695652 L20.0869565,29.8695652 Z" id="Stroke-1703" sketch:type="MSShapeGroup"></path>
            <path d="M8.34782609,39.6746739 C12.4271739,43.7970652 18.0844565,46.3522826 24.3423913,46.3522826 C30.6101087,46.3522826 36.2771739,43.7872826 40.3575,39.6521739" id="Stroke-1704" sketch:type="MSShapeGroup"></path>
        </g>
    </g>
</svg>