<?xml version="1.0" encoding="UTF-8" standalone="no"?>
<svg width="36px" height="36px" viewBox="0 0 36 36" version="1.1" xmlns="http://www.w3.org/2000/svg" xmlns:xlink="http://www.w3.org/1999/xlink" xmlns:sketch="http://www.bohemiancoding.com/sketch/ns">
    <!-- Generator: Sketch 3.0.2 (7799) - http://www.bohemiancoding.com/sketch -->
    <title>user_circle</title>
    <description>Created with Sketch.</description>
    <defs></defs>
    <g id="24" stroke="none" stroke-width="1" fill="none" fill-rule="evenodd" sketch:type="MSPage">
        <g id="Icons" sketch:type="MSLayerGroup" transform="translate(0.000000, -40.000000)" stroke="#0093E6" stroke-width="2">
            <g id="user_circle" transform="translate(0.000000, 40.000000)" sketch:type="MSShapeGroup">
                <g transform="translate(1.000000, 1.000000)">
                    <path d="M17.0003374,0 C7.61127543,0 0,7.61112435 0,17 C0,26.3888757 7.61127543,34 17.0003374,34 C26.3893995,34 34,26.3888757 34,17 C34,7.61112435 26.3893995,0 17.0003374,0 L17.0003374,0 L17.0003374,0 Z" id="contacts-copy"></path>
                    <path d="M6.375,30.8125 C7.31159844,30.2590303 11.6399674,29.5249472 12.5393992,28.9516375 C13.5347885,28.3174392 13.2151557,24.8467943 13.2151557,24.8467943 L12.5393992,24.2481713 C12.5393992,24.2481713 12.4035722,22.6589129 12.0744788,22.1102322 C11.5115736,21.1715914 10.7229659,18.6895295 10.7229659,18.6895295 C10.7229659,18.6895295 10.0472094,18.1914752 10.0472094,17.3212485 C10.0472094,16.4510217 10.7229659,15.9529674 10.7229659,15.9529674 C10.7229659,15.9529674 10.1952001,13.5311099 10.1952001,11.8481242 C10.1952001,8.02172624 13.069868,6.375 17.0088524,6.375 C20.9485125,6.375 23.1399906,8.31248596 23.1399906,11.8481242 C23.1399906,13.5304258 22.886582,15.9529674 22.886582,15.9529674 C22.886582,15.9529674 23.5623384,16.4510217 23.5623384,17.3212485 C23.5623384,18.1914752 22.886582,18.6895295 22.886582,18.6895295 C22.886582,18.6895295 22.1925801,20.8343101 21.535069,22.1102322 C21.241115,22.6794371 21.0701486,24.2481713 21.0701486,24.2481713 L20.3943922,24.8467943 C20.3943922,24.8467943 20.0740836,28.3174392 21.0701486,28.9516375 C21.9574168,29.5174217 26.0970092,30.2617669 27.09375,30.8125" id="Path"></path>
                </g>
            </g>
        </g>
    </g>
</svg>