<?xml version="1.0" encoding="UTF-8" standalone="no"?>
<svg width="32px" height="32px" viewBox="0 0 32 32" version="1.1" xmlns="http://www.w3.org/2000/svg" xmlns:xlink="http://www.w3.org/1999/xlink" xmlns:sketch="http://www.bohemiancoding.com/sketch/ns">
    <!-- Generator: Sketch 3.2.2 (9983) - http://www.bohemiancoding.com/sketch -->
    <title>user_circle</title>
    <desc>Created with Sketch.</desc>
    <defs></defs>
    <g id="Icons" stroke="none" stroke-width="1" fill="none" fill-rule="evenodd" sketch:type="MSPage">
        <g id="user_circle" sketch:type="MSLayerGroup" stroke="#626A85" stroke-width="2" stroke-linejoin="round">
            <path d="M13.3913043,19.9130435 C13.3913043,19.9130435 11.4347826,19.2608696 11.4347826,16 C10.3573913,16 10.3573913,13.3913043 11.4347826,13.3913043 C11.4347826,12.9543478 9.47826087,8.17391304 12.7391304,8.82608696 C13.3913043,6.2173913 20.5652174,6.2173913 21.2173913,8.82608696 C21.6693478,10.6358696 20.5652174,13.071087 20.5652174,13.3913043 C21.6426087,13.3913043 21.6426087,16 20.5652174,16 C20.5652174,19.2608696 18.6086957,19.9130435 18.6086957,19.9130435 L18.6086957,23.173913 C21.8395652,24.385 25.0384783,25.3886957 26.6767391,26.5326087 C29.3493478,23.8241304 31,20.1054348 31,16 C31,7.71543478 24.283913,1 16,1 C7.71543478,1 1,7.71543478 1,16 C1,20.1132609 2.65652174,23.8384783 5.33695652,26.5482609 C7.07173913,25.3482609 10.4923913,24.2702174 13.3913043,23.173913 L13.3913043,19.9130435 L13.3913043,19.9130435 Z" id="Stroke-1703" sketch:type="MSShapeGroup"></path>
            <path d="M5.56521739,26.4497826 C8.28478261,29.1980435 12.0563043,30.9015217 16.2282609,30.9015217 C20.4067391,30.9015217 24.1847826,29.1915217 26.905,26.4347826" id="Stroke-1704" sketch:type="MSShapeGroup"></path>
        </g>
    </g>
</svg>