<?xml version="1.0" encoding="UTF-8" standalone="no"?>
<svg width="32px" height="32px" viewBox="0 0 32 32" version="1.1" xmlns="http://www.w3.org/2000/svg" xmlns:xlink="http://www.w3.org/1999/xlink" xmlns:sketch="http://www.bohemiancoding.com/sketch/ns">
    <!-- Generator: Sketch 3.2.2 (9983) - http://www.bohemiancoding.com/sketch -->
    <title>user</title>
    <desc>Created with Sketch.</desc>
    <defs></defs>
    <g id="Icons" stroke="none" stroke-width="1" fill="none" fill-rule="evenodd" sketch:type="MSPage">
        <g id="user" sketch:type="MSLayerGroup" stroke="#626A85" stroke-width="2" stroke-linejoin="round">
            <path d="M16.5,31 L31,31 C31,31 31,28.4057856 29.7391304,25.8840705 C28.7985217,24.0041319 24.6956522,22.7319266 19.6521739,20.8406403 L19.6521739,17.0580676 C19.6521739,17.0580676 21.5434783,15.79721 21.5434783,13.2754949 C22.173913,13.2754949 22.8043478,10.7537798 21.5434783,10.123351 C21.5434783,9.74887635 23.232413,6.59105861 22.8043478,4.44949205 C22.173913,1.29734817 13.3478261,1.29734817 12.7173913,3.81906328 C8.93478261,3.81906328 11.4565217,9.61207331 11.4565217,10.123351 C10.1956522,10.7537798 10.826087,13.2754949 11.4565217,13.2754949 C11.4565217,15.79721 13.3478261,17.0580676 13.3478261,17.0580676 L13.3478261,20.8406403 C8.30434783,22.7319266 4.20021739,24.0041319 3.26086957,25.8840705 C2,28.4057856 2,31 2,31 L16.5,31 L16.5,31 Z" id="Stroke-1670" sketch:type="MSShapeGroup"></path>
        </g>
    </g>
</svg>