<?xml version="1.0" encoding="UTF-8" standalone="no"?>
<svg width="260px" height="260px" viewBox="0 0 260 260" version="1.1" xmlns="http://www.w3.org/2000/svg" xmlns:xlink="http://www.w3.org/1999/xlink" xmlns:sketch="http://www.bohemiancoding.com/sketch/ns">
    <title>Slice 1</title>
    <description>Created with Sketch (http://www.bohemiancoding.com/sketch)</description>
    <defs></defs>
    <g id="Page 1" stroke="none" stroke-width="1" fill="none" fill-rule="evenodd">
        <path d="M232.972186,0 C247.894886,0 260,12.1007643 260,27.0278136 L260,232.972186 C260,247.894886 247.899236,260 232.972186,260 L27.0278136,260 C12.1051138,260 0,247.899236 0,232.972186 L0,27.0278136 C0,12.1051138 12.1007643,0 27.0278136,0 Z M202.94275,195 C213.617935,191.784235 245.28967,200.15244 246.964133,186.8007 C247.501194,182.519573 241.869758,175.351745 239.260391,172.041961 C232.335277,163.257232 226.346718,157.50843 217.799966,149.630543 C213.857301,145.996613 208.739265,142.120531 208.445423,137.058283 C208.058585,130.398812 214.620522,123.727862 217.799966,119.566444 C225.761234,109.146774 232.997249,101.504481 240.360925,89.5023459 C242.292364,86.3543615 248.536797,74.9070461 246.413866,70.3706469 C243.856773,64.9060871 229.619158,67.0909271 221.651838,67.0909271 C211.924212,67.0909271 201.329366,65.1427735 194.68874,67.6375471 C190.325121,69.2768604 187.743817,78.2638393 185.334196,83.4895262 C179.467247,96.2126526 174.765213,104.767255 167.175376,114.646864 C163.70539,119.163585 160.498433,124.935892 154.519228,125.579264 C146.763761,120.441036 148.703453,108.888223 149.016555,97.7016454 C149.295541,87.7438694 152.308254,74.4571778 147.916021,67.0909271 C143.601375,59.854772 128.163626,61.0781074 117.101052,61.0781074 C103.939209,61.0781074 93.0219061,61.8690665 89.0374206,69.824027 C93.8241958,72.6484123 98.5592458,72.7429776 101.143301,77.4767065 C103.885283,82.4995974 104.159316,94.2568464 103.894637,103.714465 C103.661324,112.049873 103.163332,125.064348 97.8416973,126.125884 C92.358834,127.21967 87.6826625,119.001786 84.6352823,114.646864 C77.6028663,104.597803 72.2685752,95.7616911 66.4764617,83.4895262 C63.9534862,78.1435829 60.7949519,69.7628055 57.6721851,68.1841671 C52.4121801,65.5254075 41.1949813,67.0909271 34.0106916,67.0909271 C25.5398769,67.0909271 17.1455494,65.6582362 12,69.824027 C12.0033016,78.7311994 16.7113885,86.6839733 20.2540094,93.8753056 C31.1949739,116.087755 43.0268212,136.314333 58.2224524,155.643362 C72.4435602,173.733203 88.6604875,190.561446 120.402656,193.90676 C130.454389,194.96611 145.044176,196.046231 148.466288,190.08042 C152.702246,182.694491 147.665649,165.465576 157.820832,163.842662 C164.973206,162.699679 170.965067,172.586941 174.879118,176.961541 C181.804782,184.700587 189.920674,193.056766 201.842215,195 Z M202.94275,195" id="Rectangle 1" fill="#000000"></path>
        <g id="Layer_1" transform="translate(-17.000000, 49.000000)"></g>
    </g>
</svg>