<?xml version="1.0" encoding="UTF-8" standalone="no"?>
<svg width="32px" height="32px" viewBox="0 0 32 32" version="1.1" xmlns="http://www.w3.org/2000/svg" xmlns:xlink="http://www.w3.org/1999/xlink" xmlns:sketch="http://www.bohemiancoding.com/sketch/ns">
    <!-- Generator: Sketch 3.0.2 (7799) - http://www.bohemiancoding.com/sketch -->
    <title>vkontakte</title>
    <description>Created with Sketch.</description>
    <defs></defs>
    <g id="24" stroke="none" stroke-width="1" fill="none" fill-rule="evenodd" sketch:type="MSPage">
        <g id="Brands" sketch:type="MSLayerGroup" transform="translate(-80.000000, -41.000000)" fill="#45668E">
            <g id="vkontakte" transform="translate(80.000000, 41.000000)" sketch:type="MSShapeGroup">
                <path d="M28.6373987,0 C30.4740387,0 31.9638989,1.48932484 31.9638989,3.32650014 L31.9638989,28.6734998 C31.9638989,30.5101398 30.4745741,32 28.6373987,32 L3.29039905,32 C1.45375908,32 -0.036101083,30.5106752 -0.036101083,28.6734998 L-0.036101083,3.32650014 C-0.036101083,1.48986016 1.45322375,0 3.29039905,0 L28.6373987,0 Z M24.9414681,24 C26.2553371,23.6042135 30.1533968,24.6341465 30.3594845,22.9908554 C30.4255843,22.4639474 29.7324845,21.5817532 29.4113317,21.1743952 C28.5590099,20.0931978 27.8219565,19.3856529 26.7700486,18.4160668 C26.2847975,17.9688139 25.6548854,17.4917577 25.6187202,16.8687118 C25.5711094,16.0490846 26.3787324,15.2280446 26.7700486,14.71587 C27.7498969,13.4334491 28.6404834,12.4928592 29.546782,11.0156733 C29.7844976,10.6282291 30.5530432,9.21932875 30.2917593,8.6610027 C29.9770402,7.98844149 28.2247184,8.25734487 27.2441251,8.25734487 C26.0468789,8.25734487 24.7428978,8.01757212 23.92559,8.32462118 C23.3885292,8.52638282 23.0708302,9.63247253 22.7742615,10.275634 C22.0521755,11.8415572 21.4734636,12.8944314 20.5393298,14.1103833 C20.1122546,14.6662874 19.7175522,15.3767252 18.9816501,15.4559094 C18.027131,14.8235121 18.2658624,13.4016274 18.304398,12.0248179 C18.3387347,10.7992455 18.7095302,9.16396034 18.1689477,8.25734487 C17.6379143,7.36674117 15.7378837,7.51730553 14.3763361,7.51730553 C12.7564169,7.51730553 11.4127489,7.61465434 10.9223507,8.5937264 C11.5114922,8.94134305 12.0942676,8.95298186 12.4123052,9.53559465 C12.7497799,10.1537966 12.783507,11.6008426 12.7509312,12.7648572 C12.7222157,13.7907536 12.6609244,15.3925351 12.005954,15.5231857 C11.33114,15.6578055 10.7556112,14.6463737 10.380549,14.1103833 C9.51502092,12.8735758 8.85849279,11.7860543 8.14561728,10.275634 C7.83509722,9.61767174 7.44635454,8.58619145 7.06201401,8.39189749 C6.41462878,8.06466554 5.03405046,8.25734487 4.14983019,8.25734487 C3.10726838,8.25734487 2.07412038,8.08101369 1.44082199,8.5937264 C1.44122834,9.68999377 2.02068519,10.6687967 2.45670007,11.5538838 C3.80328032,14.2877237 5.25950768,16.7771487 7.12973921,19.1561061 C8.8800294,21.3825481 10.8759589,23.4537164 14.7826873,23.8654474 C16.0198237,23.9958289 17.8154898,24.1287669 18.2366728,23.3945132 C18.7580215,22.4854758 18.1381326,20.364994 19.3880013,20.1652507 C20.2682935,20.0245759 21.0057533,21.2414697 21.4874827,21.779882 C22.3398721,22.7323799 23.3387511,23.7608327 24.8060177,24 L24.9414681,24 Z"></path>
            </g>
        </g>
    </g>
</svg>