<?xml version="1.0" encoding="UTF-8" standalone="no"?>
<svg width="260px" height="260px" viewBox="0 0 260 260" version="1.1" xmlns="http://www.w3.org/2000/svg" xmlns:xlink="http://www.w3.org/1999/xlink" xmlns:sketch="http://www.bohemiancoding.com/sketch/ns">
    <title>Slice 1</title>
    <description>Created with Sketch (http://www.bohemiancoding.com/sketch)</description>
    <defs></defs>
    <g id="Page 1" stroke="none" stroke-width="1" fill="none" fill-rule="evenodd">
        <path d="M130.751739,59.5752174 C136.833478,59.5752174 140.908696,61.6947826 142.960435,65.9 C145.023478,70.1165217 146.035217,76.1869565 146.035217,84.1226087 C146.035217,88.8026087 145.797826,93.5391304 145.28913,98.366087 L140.73913,150.727826 C140.241739,156.967826 139.173478,161.743913 137.556957,165.073043 C135.906522,168.407826 133.238696,170.08087 129.491304,170.08087 C125.642174,170.08087 123.002609,168.458696 121.504783,165.231304 C120.012609,162.015217 118.955652,157.103478 118.322609,150.513043 L114.908696,99.6378261 C114.275652,89.7182609 113.953478,82.6021739 113.953478,78.283913 C113.95913,72.4056522 115.496522,67.816087 118.593913,64.5265217 C121.657391,61.2313043 125.726957,59.5752174 130.751739,59.5752174 Z M130.107391,220.424783 C125.783478,220.424783 122.01913,219.023043 118.797391,216.219565 C115.575652,213.427391 113.947826,209.516087 113.947826,204.491304 C113.947826,200.105217 115.49087,196.363478 118.576957,193.277391 C121.657391,190.202609 125.438696,188.676522 129.909565,188.676522 C134.380435,188.676522 138.156087,190.208261 141.326957,193.277391 C144.486522,196.363478 146.04087,200.11087 146.04087,204.491304 C146.04087,209.448261 144.463913,213.336957 141.281739,216.168696 C138.076957,219.006087 134.380435,220.424783 130.107391,220.424783 Z M130.107391,220.424783" id="Shape" fill="#000000"></path>
    </g>
</svg>