<?xml version="1.0" encoding="UTF-8" standalone="no"?>
<svg width="36px" height="36px" viewBox="0 0 36 36" version="1.1" xmlns="http://www.w3.org/2000/svg" xmlns:xlink="http://www.w3.org/1999/xlink" xmlns:sketch="http://www.bohemiancoding.com/sketch/ns">
    <!-- Generator: Sketch 3.0.2 (7799) - http://www.bohemiancoding.com/sketch -->
    <title>warning</title>
    <description>Created with Sketch.</description>
    <defs></defs>
    <g id="24" stroke="none" stroke-width="1" fill="none" fill-rule="evenodd" sketch:type="MSPage">
        <g id="Icons" sketch:type="MSLayerGroup" transform="translate(-280.000000, -40.000000)">
            <g id="warning" transform="translate(280.000000, 40.000000)" sketch:type="MSShapeGroup">
                <g transform="translate(1.000000, 1.000000)" id="Stroke-3988-+-Stroke-3989-+-Fill-3990">
                    <g>
                        <path d="M33.99745,16.7013409 C34.1604955,26.0892045 26.3884045,33.83425 16.9997682,33.9972955 C7.61267727,34.1603409 0.165131818,26.6811136 0.00285909091,17.29325 C-0.160959091,7.90538636 7.61190455,0.159568182 16.9997682,-0.00347727273 C26.3884045,-0.166522727 33.8344045,7.31502273 33.99745,16.7013409 L33.99745,16.7013409 Z" id="Stroke-3988" stroke="#0093E6" stroke-width="2" stroke-linecap="round" stroke-linejoin="round"></path>
                        <path d="M16,19.3124636 L16,8.49428182" id="Stroke-3989" stroke="#0093E6" stroke-width="2" stroke-linecap="round" stroke-linejoin="round"></path>
                        <path d="M17.00085,23.1765636 C16.9915773,23.1765636 16.9823045,23.1773364 16.9730318,23.1773364 C16.1199409,23.1904727 15.4391682,23.8952 15.4546227,24.7482909 C15.4693045,25.5928818 16.1578045,26.2667 17.0000773,26.2667 L17.0271227,26.2667 C17.8794409,26.2512455 18.5602136,25.5480636 18.5455318,24.6949727 C18.53085,23.8503818 17.84235,23.1765636 17.00085,23.1765636" id="Fill-3990" fill="#0093E6"></path>
                    </g>
                </g>
            </g>
        </g>
    </g>
</svg>