<?xml version="1.0" encoding="UTF-8" standalone="no"?>
<svg width="66px" height="58px" viewBox="0 0 66 58" version="1.1" xmlns="http://www.w3.org/2000/svg" xmlns:xlink="http://www.w3.org/1999/xlink" xmlns:sketch="http://www.bohemiancoding.com/sketch/ns">
    <title>Untitled</title>
    <description>Created with Sketch (http://www.bohemiancoding.com/sketch)</description>
    <defs></defs>
    <g id="Page-1" stroke="none" stroke-width="1" fill="none" fill-rule="evenodd" sketch:type="MSPage">
        <path d="M33,33.025641 L33,57" id="Stroke-1171" stroke="#231F1F" stroke-linecap="round" sketch:type="MSShapeGroup"></path>
        <path d="M55.6273391,1.62811538 C61.4193391,7.49760256 65.0005565,15.6065769 65.0005565,24.5645256 C65.0005565,33.5210641 61.4193391,41.6300385 55.6273391,47.5009359" id="Stroke-1172" stroke="#231F1F" stroke-linecap="round" sketch:type="MSShapeGroup"></path>
        <path d="M47.7564522,9.60635897 C51.5338435,13.4337949 53.8698435,18.7222564 53.8698435,24.5635385 C53.8698435,30.4048205 51.5338435,35.6932821 47.7564522,39.5221282" id="Stroke-1173" stroke="#231F1F" stroke-linecap="round" sketch:type="MSShapeGroup"></path>
        <path d="M10.3729391,1.62811538 C4.58233043,7.49760256 0.999721739,15.6065769 0.999721739,24.5645256 C0.999721739,33.5210641 4.58233043,41.6300385 10.3729391,47.5009359" id="Stroke-1174" stroke="#231F1F" stroke-linecap="round" sketch:type="MSShapeGroup"></path>
        <path d="M18.2424348,9.60635897 C14.4664348,13.4337949 12.1304348,18.7222564 12.1304348,24.5635385 C12.1304348,30.4048205 14.4664348,35.6932821 18.2424348,39.5221282" id="Stroke-1175" stroke="#231F1F" stroke-linecap="round" sketch:type="MSShapeGroup"></path>
        <path d="M41.3478261,24.5641026 C41.3478261,29.2362821 37.6093913,33.025641 33,33.025641 C28.3892174,33.025641 24.6521739,29.2362821 24.6521739,24.5641026 C24.6521739,19.8919231 28.3892174,16.1025641 33,16.1025641 C37.6093913,16.1025641 41.3478261,19.8919231 41.3478261,24.5641026 L41.3478261,24.5641026 Z" id="Stroke-1176" stroke="#231F1F" sketch:type="MSShapeGroup"></path>
    </g>
</svg>