<?xml version="1.0" encoding="UTF-8" standalone="no"?>
<svg width="36px" height="36px" viewBox="0 0 36 36" version="1.1" xmlns="http://www.w3.org/2000/svg" xmlns:xlink="http://www.w3.org/1999/xlink" xmlns:sketch="http://www.bohemiancoding.com/sketch/ns">
    <!-- Generator: Sketch 3.0.2 (7799) - http://www.bohemiancoding.com/sketch -->
    <title>webhook</title>
    <description>Created with Sketch.</description>
    <defs></defs>
    <g id="24" stroke="none" stroke-width="1" fill="none" fill-rule="evenodd" sketch:type="MSPage">
        <g id="Icons" sketch:type="MSLayerGroup" transform="translate(-280.000000, -120.000000)" stroke="#0093E6" stroke-width="2">
            <g id="webhook" transform="translate(280.000000, 120.000000)" sketch:type="MSShapeGroup">
                <g transform="translate(1.000000, 2.000000)">
                    <ellipse id="Oval-2" cx="26.2727273" cy="24.2580645" rx="3.60606061" ry="3.61290323"></ellipse>
                    <path d="M5.88395565,16.7377734 C2.50631728,17.5659788 0,20.6187754 0,24.2580645 C0,28.5338174 3.45961784,32 7.72727273,32 C11.9949276,32 15.4545455,28.5338174 15.4545455,24.2580645 L22.7790434,24.2580645" id="Oval-3"></path>
                    <ellipse id="Oval-2" transform="translate(7.793679, 24.263770) rotate(-240.000000) translate(-7.793679, -24.263770) " cx="7.79367898" cy="24.2637703" rx="3.60606061" ry="3.61290323"></ellipse>
                    <path d="M24.4884931,10.3332166 C25.4614238,6.98844273 24.0757903,3.28739134 20.9300426,1.46774678 C17.2341451,-0.670129672 12.5082192,0.598581207 10.3743918,4.30149184 C8.24056432,8.00440247 9.50687234,12.7392959 13.2027699,14.8771724 L9.54052091,21.2324101" id="Oval-3"></path>
                    <ellipse id="Oval-2" transform="translate(17.066406, 8.032092) rotate(-120.000000) translate(-17.066406, -8.032092) " cx="17.0664062" cy="8.03209178" rx="3.60606061" ry="3.61290323"></ellipse>
                    <path d="M20.7603637,29.4829366 C23.1650714,31.9995051 27.0570222,32.6477599 30.2027699,30.8281153 C33.8986674,28.6902389 35.1649754,23.9553454 33.031148,20.2524348 C30.8973206,16.5495241 26.1713947,15.2808133 22.4754972,17.4186897 L18.8132482,11.063452" id="Oval-3"></path>
                </g>
            </g>
        </g>
    </g>
</svg>