<?xml version="1.0" encoding="UTF-8" standalone="no"?>
<svg width="48px" height="48px" viewBox="0 0 48 48" version="1.1" xmlns="http://www.w3.org/2000/svg" xmlns:xlink="http://www.w3.org/1999/xlink" xmlns:sketch="http://www.bohemiancoding.com/sketch/ns">
    <!-- Generator: Sketch 3.2.2 (9983) - http://www.bohemiancoding.com/sketch -->
    <title>week</title>
    <desc>Created with Sketch.</desc>
    <defs></defs>
    <g id="Icons" stroke="none" stroke-width="1" fill="none" fill-rule="evenodd" sketch:type="MSPage">
        <g id="week" sketch:type="MSLayerGroup" fill="#231F1F">
            <g id="Fill-2450-+-Fill-2451-+-Fill-2452" sketch:type="MSShapeGroup">
                <path d="M47,4 L40,4 L40,1 C40,0.447 39.552,0 39,0 L33,0 C32.448,0 32,0.447 32,1 L32,4 L16,4 L16,1 C16,0.447 15.552,0 15,0 L9,0 C8.448,0 8,0.447 8,1 L8,4 L1,4 C0.448,4 0,4.447 0,5 L0,47 C0,47.553 0.448,48 1,48 L47,48 C47.552,48 48,47.553 48,47 L48,5 C48,4.447 47.552,4 47,4 L47,4 Z M34,2 L38,2 L38,8 L34,8 L34,2 Z M10,2 L14,2 L14,8 L10,8 L10,2 Z M8,6 L8,9 C8,9.553 8.448,10 9,10 L15,10 C15.552,10 16,9.553 16,9 L16,6 L32,6 L32,9 C32,9.553 32.448,10 33,10 L39,10 C39.552,10 40,9.553 40,9 L40,6 L46,6 L46,14 L2,14 L2,6 L8,6 L8,6 Z M2,16 L46,16 L46,46 L2,46 L2,16 Z" id="Fill-2450"></path>
                <path d="M29,22 L19,22 C18.448,22 18,22.447 18,23 L18,25 C18,25.553 18.448,26 19,26 C19.552,26 20,25.553 20,25 L20,24 L27.557,24 L25.307,30 L22,30 C21.448,30 21,30.447 21,31 C21,31.553 21.448,32 22,32 L24.557,32 L22.063,38.648 C21.87,39.166 22.132,39.742 22.649,39.936 C22.765,39.979 22.883,40 23,40 C23.405,40 23.786,39.753 23.937,39.352 L26.693,32 L28,32 C28.552,32 29,31.553 29,31 C29,30.447 28.552,30 28,30 L27.443,30 L29.937,23.352 C30.051,23.044 30.009,22.7 29.822,22.431 C29.635,22.161 29.328,22 29,22" id="Fill-2452"></path>
            </g>
        </g>
    </g>
</svg>