<?xml version="1.0" encoding="UTF-8" standalone="no"?>
<svg width="48px" height="48px" viewBox="0 0 48 48" version="1.1" xmlns="http://www.w3.org/2000/svg" xmlns:xlink="http://www.w3.org/1999/xlink" xmlns:sketch="http://www.bohemiancoding.com/sketch/ns">
    <!-- Generator: Sketch 3.2.2 (9983) - http://www.bohemiancoding.com/sketch -->
    <title>week</title>
    <desc>Created with Sketch.</desc>
    <defs></defs>
    <g id="Icons" stroke="none" stroke-width="1" fill="none" fill-rule="evenodd" sketch:type="MSPage">
        <g id="week" sketch:type="MSLayerGroup" fill="#231F1F">
            <g id="Fill-2450-+-Fill-2451-+-Fill-2452" sketch:type="MSShapeGroup">
                <path d="M47,4 C47.552,4 48,4.447 48,5 L48,47 C48,47.553 47.552,48 47,48 L1,48 C0.448,48 0,47.553 0,47 L0,5 C0,4.447 0.448,4 1,4 L8,4 L8,1 C8,0.447 8.448,0 9,0 L15,0 C15.552,0 16,0.447 16,1 L16,4 L32,4 L32,1 C32,0.447 32.448,0 33,0 L39,0 C39.552,0 40,0.447 40,1 L40,4 M34,2 L34,8 L38,8 L38,2 M10,2 L10,8 L14,8 L14,2 M8,6 L2,6 L2,14 L46,14 L46,6 L40,6 L40,9 C40,9.553 39.552,10 39,10 L33,10 C32.448,10 32,9.553 32,9 L32,6 L16,6 L16,9 C16,9.553 15.552,10 15,10 L9,10 C8.448,10 8,9.553 8,9 M2,16 L2,46 L46,46 L46,16" id="Fill-2450"></path>
                <path d="M29,22 L19,22 C18.448,22 18,22.447 18,23 L18,25 C18,25.553 18.448,26 19,26 C19.552,26 20,25.553 20,25 L20,24 L27.557,24 L25.307,30 L22,30 C21.448,30 21,30.447 21,31 C21,31.553 21.448,32 22,32 L24.557,32 L22.063,38.648 C21.87,39.166 22.132,39.742 22.649,39.936 C22.765,39.979 22.883,40 23,40 C23.405,40 23.786,39.753 23.937,39.352 L26.693,32 L28,32 C28.552,32 29,31.553 29,31 C29,30.447 28.552,30 28,30 L27.443,30 L29.937,23.352 C30.051,23.044 30.009,22.7 29.822,22.431 C29.635,22.161 29.328,22 29,22" id="Fill-2452"></path>
            </g>
        </g>
    </g>
</svg>