<?xml version="1.0" encoding="UTF-8" standalone="no"?>
<svg width="320px" height="320px" viewBox="0 0 320 320" version="1.1" xmlns="http://www.w3.org/2000/svg" xmlns:xlink="http://www.w3.org/1999/xlink" xmlns:sketch="http://www.bohemiancoding.com/sketch/ns">
    <!-- Generator: Sketch 3.3.3 (12072) - http://www.bohemiancoding.com/sketch -->
    <title>avatar</title>
    <desc>Created with Sketch.</desc>
    <defs>
        <radialGradient cx="83.5892974%" cy="13.7337785%" fx="83.5892974%" fy="13.7337785%" r="148.018384%" id="radialGradient-1">
            <stop stop-color="#049CD6" offset="0%"></stop>
            <stop stop-color="#4BC2B8" offset="100%"></stop>
        </radialGradient>
        <path id="path-2" d="M159.830377,319.981055 C248.086978,319.981055 319.63309,248.434944 319.63309,160.178343 C319.63309,71.9217414 248.086978,0.375629931 159.830377,0.375629931 C71.5737758,0.375629931 0.0276642535,71.9217414 0.0276642535,160.178343 C0.0276642535,248.434944 71.5737758,319.981055 159.830377,319.981055 Z"></path>
    </defs>
    <g id="BlankSlate" stroke="none" stroke-width="1" fill="none" fill-rule="evenodd" sketch:type="MSPage">
        <g id="avatar" sketch:type="MSArtboardGroup">
            <path d="M159.830377,319.981055 C248.086978,319.981055 319.63309,248.434944 319.63309,160.178343 C319.63309,71.9217414 248.086978,0.375629931 159.830377,0.375629931 C71.5737758,0.375629931 0.0276642535,71.9217414 0.0276642535,160.178343 C0.0276642535,248.434944 71.5737758,319.981055 159.830377,319.981055 Z" id="Oval-1" opacity="0.959999979" fill="url(#radialGradient-1)" sketch:type="MSShapeGroup"></path>
            <mask id="mask-3" sketch:name="Oval 4" fill="white">
                <use xlink:href="#path-2"></use>
            </mask>
            <use id="Oval-4" opacity="0.959999979" fill="url(#radialGradient-1)" sketch:type="MSShapeGroup" xlink:href="#path-2"></use>
            <g id="Fill-1663" sketch:type="MSLayerGroup" mask="url(#mask-3)" fill="#FFFFFF">
                <g transform="translate(-13.000000, -13.000000)" sketch:type="MSShapeGroup">
                    <path d="M290.018248,282.31925 C275.2755,272.88925 252.5975,264.72425 226.558394,255.35399 C220.317,253.05175 213.80225,250.7 207.755474,248.319575 L207.755474,219.00951 C214.107,215.625 227.57925,204.34925 228.908759,176.803016 C234.44475,174.10425 237.98675,167.08925 238.310219,158.044575 C237.98675,149.615 234.98525,143.0025 230.083942,139.286133 C230.276,139.5525 230.3565,139.31675 230.083942,139.286133 C233.88125,128.27675 240.29825,108.20925 235.959854,91.2176266 C231.25925,72.04175 204.677,65.2625 183.076642,65.4247695 C164.0015,65.2625 140.25975,70.8975 132.543796,86.5280162 C122.4405,85.61175 116.81125,89.86675 113.740876,93.5624318 C105.24225,105.16175 111.4465,127.24175 114.916058,139.286133 C114.83325,139.31675 114.89075,139.5525 114.916058,139.286133 C110.07225,142.8875 107.019,149.49425 106.689781,158.044575 C107.019,167.08925 110.561,174.10425 116.091241,176.803016 C117.4265,204.34925 130.893,215.625 137.244526,219.00951 L137.244526,248.319575 C131.836,250.47 125.76975,252.64925 119.616788,255.35399 C95.6455,263.57425 70.84575,272.54425 54.9817518,282.31925 C26.8525,252.41925 11.5,213.60675 11.5,172.113406 C11.5,83.72 83.72575,11.49425 172.5,11.49425 C261.28,11.49425 333.5,83.72 333.5,172.113406 C333.5,213.49175 318.21075,252.24675 290.018248,282.31925 L290.018248,282.31925 Z M63.2615,291.296575 C78.33225,282.095 101.3035,273.75175 123.213782,265.505594 C131.0195,262.99925 138.41975,260.3025 145.548946,257.299372 C147.76925,256.795 149.247,254.60425 149.075551,252.610103 L149.075551,216.268265 C149.247,213.555 147.66,211.36425 145.548946,210.406678 C144.65275,210.27175 127.5005,203.7225 127.915922,172.892523 C127.5005,169.3375 124.9245,166.74425 122.038247,167.030936 C120.28425,166.74425 118.519,162.83425 118.511642,157.652397 C118.519,153.11675 120.28425,149.2125 122.038247,149.446176 C124.9245,149.2125 127.5005,146.67675 127.915922,143.584589 C127.5005,141.96175 127.02325,140.17925 125.564852,136.550685 C123.66525,128.21925 117.8635,107.51925 123.213782,100.208847 C124.1195,99.29675 125.73525,97.80175 130.266992,97.8642123 C131.51975,97.80175 133.24475,97.98 134.969132,97.8642123 C138.1495,98.95175 141.082,97.1175 142.022341,94.3472603 C144.348,84.05925 161.82225,76.7625 183.166065,76.7625 C204.93,76.7625 222.40425,84.05925 225.485323,94.3472603 C228.34975,107.86425 222.364,126.55175 219.607648,135.378368 C218.1205,139.7825 217.50525,141.73175 217.256578,143.584589 C217.50525,146.67675 220.0755,149.2125 223.134253,149.446176 C224.71575,149.2125 226.48675,153.11675 226.660858,157.652397 C226.48675,162.83425 224.71575,166.74425 223.134253,167.030936 C220.0755,166.74425 217.50525,169.3375 217.256578,172.892523 C217.50525,203.7225 200.34725,210.27175 199.623554,210.406678 C197.33425,211.3125 195.753,213.49175 196.096949,216.268265 L196.096949,252.610103 C195.753,254.60425 197.2365,256.795 199.623554,257.299372 C207.32775,260.58425 215.1535,263.4075 223.134253,266.677911 C245.77225,274.4475 267.628,282.37675 281.911,290.124258 C252.05125,318.2625 213.48025,333.5 172.58625,333.5 C131.61175,333.5 93.104,318.31425 63.2615,291.296575 L63.2615,291.296575 Z M172.5,0 C77.3835,0 0,77.38925 0,172.5 C0,218.2125 17.71575,261.27425 50.4591837,293.367347 C82.55275,326.82425 126.0975,345 172.5,345 C218.9945,345 262.59675,326.76675 295.714286,293.367347 C327.34175,261.1075 345,218.09175 345,172.5 C345,77.38925 267.6165,0 172.5,0 L172.5,0 Z"></path>
                </g>
            </g>
        </g>
    </g>
</svg>