<?xml version="1.0" encoding="UTF-8" standalone="no"?>
<svg width="320px" height="320px" viewBox="0 0 320 320" version="1.1" xmlns="http://www.w3.org/2000/svg" xmlns:xlink="http://www.w3.org/1999/xlink" xmlns:sketch="http://www.bohemiancoding.com/sketch/ns">
    <!-- Generator: Sketch 3.3.3 (12072) - http://www.bohemiancoding.com/sketch -->
    <title>code</title>
    <desc>Created with Sketch.</desc>
    <defs>
        <radialGradient cx="83.5892974%" cy="13.7337785%" fx="83.5892974%" fy="13.7337785%" r="148.018384%" id="radialGradient-1">
            <stop stop-color="#049CD6" offset="0%"></stop>
            <stop stop-color="#4BC2B8" offset="100%"></stop>
        </radialGradient>
        <path id="path-2" d="M159.830377,319.981055 C248.086978,319.981055 319.63309,248.434944 319.63309,160.178343 C319.63309,71.9217414 248.086978,0.375629931 159.830377,0.375629931 C71.5737758,0.375629931 0.0276642535,71.9217414 0.0276642535,160.178343 C0.0276642535,248.434944 71.5737758,319.981055 159.830377,319.981055 Z"></path>
    </defs>
    <g id="BlankSlate" stroke="none" stroke-width="1" fill="none" fill-rule="evenodd" sketch:type="MSPage">
        <g id="code" sketch:type="MSArtboardGroup">
            <path d="M159.830377,319.981055 C248.086978,319.981055 319.63309,248.434944 319.63309,160.178343 C319.63309,71.9217414 248.086978,0.375629931 159.830377,0.375629931 C71.5737758,0.375629931 0.0276642535,71.9217414 0.0276642535,160.178343 C0.0276642535,248.434944 71.5737758,319.981055 159.830377,319.981055 Z" id="Oval-1" opacity="0.959999979" fill="url(#radialGradient-1)" sketch:type="MSShapeGroup"></path>
            <mask id="mask-3" sketch:name="Oval 4" fill="white">
                <use xlink:href="#path-2"></use>
            </mask>
            <use id="Oval-4" opacity="0.959999979" fill="url(#radialGradient-1)" sketch:type="MSShapeGroup" xlink:href="#path-2"></use>
            <g id="Stroke-3728" sketch:type="MSLayerGroup" mask="url(#mask-3)" stroke-linecap="round" stroke="#FFFFFF" stroke-width="8" stroke-linejoin="round">
                <g transform="translate(69.000000, 68.000000)" sketch:type="MSShapeGroup">
                    <path d="M111.217111,71.4098893 C98.6531827,58.8459612 98.6531827,38.4718064 111.217111,25.9078784 L85.6307758,0.3135 L64.975099,20.9691768 C63.623793,18.6767828 62.007052,16.4969976 60.0363974,14.5343866 C47.4644259,1.9704585 27.0983146,1.9704585 14.5263431,14.5343866 C1.9704585,27.0902711 1.9704585,47.4644259 14.5263431,60.0363974 C16.5050411,61.9990085 18.6687393,63.623793 20.9611334,64.9831425 L0.3135,85.6307758 L25.8998349,111.217111 C38.4718064,98.6612262 58.8379177,98.6612262 71.4098893,111.217111 C83.9657738,123.781039 83.9657738,144.155194 71.4098893,156.719122 L96.9962242,182.3135 L117.651901,161.665867 C119.01125,163.958261 120.627992,166.130002 122.598646,168.100657 C135.162574,180.664585 155.536729,180.664585 168.092613,168.100657 C180.664585,155.536729 180.664585,135.162574 168.092613,122.598646 C166.130002,120.627992 163.958261,119.003207 161.657823,117.659945 L182.3135,97.0042677 L156.719122,71.4098893 C144.163237,83.9738173 123.781039,83.9738173 111.217111,71.4098893 L111.217111,71.4098893 Z"></path>
                </g>
            </g>
        </g>
    </g>
</svg>