<?xml version="1.0" encoding="UTF-8" standalone="no"?>
<svg width="320px" height="320px" viewBox="0 0 320 320" version="1.1" xmlns="http://www.w3.org/2000/svg" xmlns:xlink="http://www.w3.org/1999/xlink" xmlns:sketch="http://www.bohemiancoding.com/sketch/ns">
    <!-- Generator: Sketch 3.3.3 (12072) - http://www.bohemiancoding.com/sketch -->
    <title>overview</title>
    <desc>Created with Sketch.</desc>
    <defs>
        <radialGradient cx="83.5892974%" cy="13.7337785%" fx="83.5892974%" fy="13.7337785%" r="148.018384%" id="radialGradient-1">
            <stop stop-color="#049CD6" offset="0%"></stop>
            <stop stop-color="#4BC2B8" offset="100%"></stop>
        </radialGradient>
        <path id="path-2" d="M159.830377,319.981055 C248.086978,319.981055 319.63309,248.434944 319.63309,160.178343 C319.63309,71.9217414 248.086978,0.375629931 159.830377,0.375629931 C71.5737758,0.375629931 0.0276642535,71.9217414 0.0276642535,160.178343 C0.0276642535,248.434944 71.5737758,319.981055 159.830377,319.981055 Z"></path>
    </defs>
    <g id="BlankSlate" stroke="none" stroke-width="1" fill="none" fill-rule="evenodd" sketch:type="MSPage">
        <g id="overview" sketch:type="MSArtboardGroup">
            <path d="M159.830377,319.981055 C248.086978,319.981055 319.63309,248.434944 319.63309,160.178343 C319.63309,71.9217414 248.086978,0.375629931 159.830377,0.375629931 C71.5737758,0.375629931 0.0276642535,71.9217414 0.0276642535,160.178343 C0.0276642535,248.434944 71.5737758,319.981055 159.830377,319.981055 Z" id="Oval-1" opacity="0.959999979" fill="url(#radialGradient-1)" sketch:type="MSShapeGroup"></path>
            <mask id="mask-3" sketch:name="Oval 4" fill="white">
                <use xlink:href="#path-2"></use>
            </mask>
            <use id="Oval-4" opacity="0.959999979" fill="url(#radialGradient-1)" sketch:type="MSShapeGroup" xlink:href="#path-2"></use>
            <g id="Group" sketch:type="MSLayerGroup" mask="url(#mask-3)" stroke-linecap="round" stroke="#FFFFFF" stroke-width="8" stroke-linejoin="round">
                <g transform="translate(56.000000, 67.000000)" sketch:type="MSShapeGroup">
                    <path d="M0,218.297872 L207,218.297872" id="Stroke-4415"></path>
                    <path d="M36,171.276596 L9,171.276596 L9,218.297872 L36,218.297872 L36,171.276596 Z" id="Stroke-4416"></path>
                    <path d="M90,124.255319 L63,124.255319 L63,218.297872 L90,218.297872 L90,124.255319 Z" id="Stroke-4417"></path>
                    <path d="M144,143.06383 L117,143.06383 L117,218.297872 L144,218.297872 L144,143.06383 Z" id="Stroke-4418"></path>
                    <path d="M198,77.2340426 L171,77.2340426 L171,218.297872 L198,218.297872 L198,77.2340426 Z" id="Stroke-4419"></path>
                    <path d="M31.5,106.301741 C31.5,110.637957 27.4725,114.851064 23.3181818,114.851064 C17.532,114.851064 13.5,110.637957 13.5,106.301741 C13.5,100.25566 17.532,96.0425532 23.3181818,96.0425532 C27.4725,96.0425532 31.5,100.25566 31.5,106.301741 L31.5,106.301741 Z" id="Stroke-4420"></path>
                    <path d="M86.6694915,58.1049323 C86.6694915,62.4411489 82.6419915,66.6542553 78.4876733,66.6542553 C72.7014915,66.6542553 68.6694915,62.4411489 68.6694915,58.1049323 C68.6694915,52.0588511 72.7014915,47.8457447 78.4876733,47.8457447 C82.6419915,47.8457447 86.6694915,52.0588511 86.6694915,58.1049323 L86.6694915,58.1049323 Z" id="Stroke-4421"></path>
                    <path d="M140.669492,79.2645068 C140.669492,83.6007234 136.641992,87.8138298 132.487673,87.8138298 C126.701492,87.8138298 122.669492,83.6007234 122.669492,79.2645068 C122.669492,73.2184255 126.701492,69.0053191 132.487673,69.0053191 C136.641992,69.0053191 140.669492,73.2184255 140.669492,79.2645068 L140.669492,79.2645068 Z" id="Stroke-4422"></path>
                    <path d="M197.008475,11.0836557 C197.008475,15.4198723 192.980975,19.6329787 188.826656,19.6329787 C183.040475,19.6329787 179.008475,15.4198723 179.008475,11.0836557 C179.008475,5.03757447 183.040475,0.824468085 188.826656,0.824468085 C192.980975,0.824468085 197.008475,5.03757447 197.008475,11.0836557 L197.008475,11.0836557 Z" id="Stroke-4423"></path>
                    <path d="M31.5,98.1114894 L71.676,63.1276596" id="Stroke-4424"></path>
                    <path d="M85.5,63.1276596 L122.7195,76.0820213" id="Stroke-4425"></path>
                    <path d="M180.799475,19.6329787 L138.508475,71.1871064" id="Stroke-4426"></path>
                </g>
            </g>
        </g>
    </g>
</svg>