<?xml version="1.0" encoding="UTF-8" standalone="no"?>
<svg width="320px" height="320px" viewBox="0 0 320 320" version="1.1" xmlns="http://www.w3.org/2000/svg" xmlns:xlink="http://www.w3.org/1999/xlink" xmlns:sketch="http://www.bohemiancoding.com/sketch/ns">
    <!-- Generator: Sketch 3.2.2 (9983) - http://www.bohemiancoding.com/sketch -->
    <title>platform</title>
    <desc>Created with Sketch.</desc>
    <defs>
        <radialGradient cx="83.5892974%" cy="13.7337785%" fx="83.5892974%" fy="13.7337785%" r="148.018384%" id="radialGradient-1">
            <stop stop-color="#049CD6" offset="0%"></stop>
            <stop stop-color="#4BC2B8" offset="100%"></stop>
        </radialGradient>
        <path id="path-2" d="M161.002245,50 C152.214818,50 143.712522,51.1405478 135.520053,53.0871127 L139.392897,55.6219129 L154.648536,57.7750337 L161.691499,56.2101482 L174.87713,57.8199371 L177.52189,61.3448586 L168.33932,60.1212393 L158.950199,64.0323305 L161.646597,71.0440054 L171.345545,75.4512797 L172.638739,66.5761114 L181.834779,65.9878761 L194.937341,78.5024697 L198.650781,83.3969466 L200.413205,86.5244724 L190.240535,90.5365963 L174.874885,97.5011226 L173.615369,104.319713 L163.447188,113.906601 L163.842331,123.102829 L160.764262,123.073642 L159.536177,115.276156 L153.707827,113.37225 L136.952444,114.254603 L130.199102,126.616524 L136.070109,133.659632 L145.769058,128.367759 L146.431371,136.984733 L150.149301,139.919174 L156.792632,147.548271 L156.464843,157.182308 L168.729972,160.062865 L177.723951,153.607993 L181.832534,154.975303 L196.917543,160.996857 L218.089091,168.933543 L222.496275,179.515043 L237.572303,186.856758 L241.014083,199.797934 L230.726911,211.304445 L218.598735,224.016614 L205.740892,230.669062 L192.510358,239.48361 L174.874885,250.949708 L165.108583,260.886843 L161.644351,257.119443 L169.479845,237.263134 L171.457802,214.245622 L154.590162,198.917827 L154.700173,186.021554 L159.111848,180.729681 L164.291356,165.408621 L153.824574,159.562191 L146.763649,148.100584 L135.731095,143.859452 L118.436881,134.541985 L111.380447,115.136956 L107.855598,124.836102 L102.563833,108.96722 L104.326258,85.1571621 L113.145117,77.220476 L110.500357,71.9286035 L116.669966,62.2294567 L104.647311,65.6668163 C72.5554648,84.8742703 51,119.876515 51,160 C51,220.745397 100.246862,270 161.002245,270 C221.746403,270 271,220.745397 271,160 C271,99.2478671 221.746403,50 161.002245,50 L161.002245,50 Z"></path>
    </defs>
    <g id="BlankSlate" stroke="none" stroke-width="1" fill="none" fill-rule="evenodd" sketch:type="MSPage">
        <g id="platform" sketch:type="MSLayerGroup">
            <path d="M159.830377,319.981055 C248.086978,319.981055 319.63309,248.434944 319.63309,160.178343 C319.63309,71.9217414 248.086978,0.375629931 159.830377,0.375629931 C71.5737758,0.375629931 0.0276642535,71.9217414 0.0276642535,160.178343 C0.0276642535,248.434944 71.5737758,319.981055 159.830377,319.981055 Z" id="Oval-1" opacity="0.959999979" fill="url(#radialGradient-1)" sketch:type="MSShapeGroup"></path>
            <path d="M173.356667,261.856333 C183.366667,247.593 191.396667,233.146333 197.373333,218.663 L245.003333,218.663 C228.65,241.983 202.946667,258.189667 173.356667,261.856333 L173.356667,261.856333 Z M158.323333,262.589667 C147.506667,248 138.926667,233.293 132.473333,218.663 L189.6,218.663 C183.146667,233.293 174.566667,248 163.786667,262.589667 C162.76,262.589667 161.733333,262.663 160.706667,262.663 C159.9,262.663 159.093333,262.626333 158.323333,262.589667 L158.323333,262.589667 Z M77.4366667,218.663 L124.7,218.663 C130.676667,233.146333 138.706667,247.626 148.753333,261.929667 C119.42,258.409667 93.8633333,242.126 77.4366667,218.663 L77.4366667,218.663 Z M67.2066667,116 L116.743333,116 C112.746667,130.259667 110.986667,144.999667 111.5,160 L58.37,160 C58.37,159.226333 58.3333333,158.46 58.3333333,157.686333 C58.3333333,142.689667 61.4866667,128.609667 67.2066667,116 L67.2066667,116 Z M147.726667,58.1363333 C134.563333,73.9066667 124.993333,90.876 118.98,108.663 L70.91,108.663 C86.1266667,81.3463333 113.993333,62.2063333 147.726667,58.1363333 L147.726667,58.1363333 Z M164.006667,57.4066667 C178.526667,73.4263333 189.086667,90.6266667 195.65,108.663 L126.423333,108.663 C132.986667,90.6266667 143.546667,73.3896667 158.103333,57.37 C159.093333,57.37 160.046667,57.3296667 161.036667,57.3296667 C162.026667,57.3296667 163.016667,57.37 164.006667,57.4066667 L164.006667,57.4066667 Z M249.99,108.663 L203.093333,108.663 C197.116667,90.9163333 187.546667,73.9763333 174.42,58.2096667 C206.723333,62.4263333 234.333333,81.6763333 249.99,108.663 L249.99,108.663 Z M210.133333,167.329667 L263.336667,167.329667 C262.163333,183.283333 257.323333,198.206667 249.696667,211.329667 L200.233333,211.329667 C205.623333,196.589667 208.923333,181.849667 210.133333,167.329667 L210.133333,167.329667 Z M123.966667,116 L198.143333,116 C202.433333,130.259667 204.266667,144.963 203.716667,160 L118.393333,160 C117.806667,144.963 119.64,130.259667 123.966667,116 L123.966667,116 Z M118.833333,167.329667 L203.24,167.329667 C201.956667,181.813 198.4,196.516333 192.643333,211.329667 L129.43,211.329667 C123.673333,196.516333 120.153333,181.813 118.833333,167.329667 L118.833333,167.329667 Z M58.7733333,167.329667 L111.94,167.329667 C113.15,181.849667 116.45,196.589667 121.84,211.329667 L72.7433333,211.329667 C65.1166667,198.206667 60.2033333,183.283333 58.7733333,167.329667 L58.7733333,167.329667 Z M263.666667,160 L210.573333,160 C211.086667,144.999667 209.326667,130.259667 205.366667,116 L253.84,116 C260.146667,129.233 263.666667,144.009667 263.666667,159.593 L263.666667,160 L263.666667,160 Z M161.036667,50 C159.46,50 157.883333,50.0366667 156.27,50.0733333 C96.2466667,52.5263333 51,98.7666667 51,157.686333 C51,219.62 100.206667,270 160.706667,270 C221.536667,270 271,220.459667 271,159.593 C271,99.1663333 221.683333,50 161.036667,50 L161.036667,50 Z" id="Fill-3146" opacity="0.2" fill="#FFFFFF" sketch:type="MSShapeGroup"></path>
            <mask id="mask-3" sketch:name="Shape 4" fill="white">
                <use xlink:href="#path-2"></use>
            </mask>
            <use id="Shape-4" fill="#FFFFFF" sketch:type="MSShapeGroup" xlink:href="#path-2"></use>
        </g>
    </g>
</svg>