<?xml version="1.0" encoding="UTF-8" standalone="no"?>
<svg width="320px" height="320px" viewBox="0 0 320 320" version="1.1" xmlns="http://www.w3.org/2000/svg" xmlns:xlink="http://www.w3.org/1999/xlink" xmlns:sketch="http://www.bohemiancoding.com/sketch/ns">
    <!-- Generator: Sketch 3.2.2 (9983) - http://www.bohemiancoding.com/sketch -->
    <title>ship</title>
    <desc>Created with Sketch.</desc>
    <defs>
        <radialGradient cx="83.5892974%" cy="13.7337785%" fx="83.5892974%" fy="13.7337785%" r="148.018384%" id="radialGradient-1">
            <stop stop-color="#049CD6" offset="0%"></stop>
            <stop stop-color="#4BC2B8" offset="100%"></stop>
        </radialGradient>
    </defs>
    <g id="BlankSlate" stroke="none" stroke-width="1" fill="none" fill-rule="evenodd" sketch:type="MSPage">
        <g id="ship" sketch:type="MSLayerGroup">
            <path d="M159.830377,319.981055 C248.086978,319.981055 319.63309,248.434944 319.63309,160.178343 C319.63309,71.9217414 248.086978,0.375629931 159.830377,0.375629931 C71.5737758,0.375629931 0.0276642535,71.9217414 0.0276642535,160.178343 C0.0276642535,248.434944 71.5737758,319.981055 159.830377,319.981055 Z" id="Oval-1" opacity="0.959999979" fill="url(#radialGradient-1)" sketch:type="MSShapeGroup"></path>
            <g id="Group" transform="translate(12.000000, 96.000000)" fill="#FFFFFF" sketch:type="MSShapeGroup">
                <path d="M283.981464,45.4456062 C283.805539,42.9094395 283.448516,40.9776684 283.220848,39.6617689 C282.977658,38.3382189 282.848302,37.638191 282.848302,37.638191 C282.848302,37.638191 282.6879,38.3382189 282.372271,39.6426425 C282.23774,40.2967669 282.051467,41.103903 281.839323,42.0525747 C281.58061,42.9859452 281.306375,44.0532009 281.037314,45.2390406 C280.431926,47.6107199 279.541955,50.456735 278.398445,53.6087733 C277.234238,56.7493358 275.702659,60.1767949 273.664004,63.6080793 C271.609826,67.0355384 269.038222,70.4706481 265.778443,73.5385301 C262.523838,76.6217132 258.653498,79.3567949 254.157072,81.6443179 C249.691692,83.9433169 244.667493,85.7947564 239.306967,87.3439986 C233.951616,88.8817649 228.254764,90.1402851 222.423382,91.2151913 C216.612696,92.3666035 210.641609,93.2923233 204.706741,94.3672299 C198.746002,95.3962323 192.811134,96.5552953 187.052191,97.9630015 C181.272551,99.3745331 175.653313,101.088263 170.468712,103.345183 C165.304808,105.594453 160.565192,108.448119 156.906996,111.871753 C153.207405,115.241833 150.811727,119.185706 149.440549,122.712622 C148.974867,123.921414 148.669586,125.069001 148.410873,126.193636 C148.157335,125.069001 147.836531,123.921414 147.376023,122.720273 C146.004846,119.197182 143.619515,115.253309 139.909577,111.883229 C136.266903,108.463421 131.527288,105.617405 126.363383,103.360485 C121.173609,101.103564 115.559544,99.3974852 109.790253,97.9783028 C104.015787,96.5629457 98.0809194,95.4191845 92.130529,94.3825308 C86.1904869,93.3037991 80.224574,92.3666035 74.4035397,91.2151913 C68.5773314,90.1441106 62.8908279,88.8817649 57.5303023,87.3325227 C52.1697767,85.7718047 47.1507517,83.9280156 42.6853718,81.6290167 C38.2044692,79.3414938 34.3237798,76.5987614 31.0691749,73.5232289 C27.8042216,70.4591722 25.2429666,67.0240626 23.1939626,63.6004287 C21.1449586,60.1691443 19.6133799,56.7416852 18.4595216,53.6087733 C17.3160118,50.4605603 16.4260403,47.6183704 15.8103043,45.2390406 C15.5257204,44.0455504 15.2566593,42.9706441 14.9979466,42.0410988 C14.7961508,41.1000777 14.6047035,40.3005922 14.4649986,39.6464678 C14.1545435,38.3382189 13.9941417,37.6420162 13.9941417,37.6420162 C13.9941417,37.6420162 13.8544368,38.3458695 13.6060727,39.6655942 C13.3732314,40.9891443 13.0213822,42.9400418 12.8506318,45.4570821 C12.6591845,47.9702971 12.5194797,51.0573055 12.7885408,54.622475 C13.0524277,58.1952951 13.7457775,62.2501016 15.189394,66.6147566 C16.6485332,70.9564598 18.9148558,75.6194874 22.3505595,80.01857 C25.7862631,84.410002 30.2982114,88.5298383 35.5811231,91.8463641 C38.1992949,93.525666 40.9985655,95.0366553 43.9013212,96.3449042 C46.7833799,97.6914062 49.7792721,98.8619446 52.8217325,99.8565199 C58.8963049,101.937477 65.1726733,103.352834 71.3610793,104.569276 C77.5701823,105.713037 83.7223686,106.638758 89.7038046,107.415291 C92.6686512,107.805471 95.6179752,108.188 98.5155562,108.566703 C101.371744,108.968359 104.186537,109.373839 106.954762,109.760194 C112.423947,110.620883 117.593025,111.56573 122.223981,112.873979 C126.865286,114.174577 130.978816,115.804151 134.31621,117.881282 C141.125526,121.932264 144.576752,127.999172 146.25321,132.513014 C146.672325,133.65295 147.024173,134.681953 147.277712,135.592371 C147.572645,136.491314 147.795137,137.294625 147.929668,137.9564 C148.245297,139.264649 148.416047,139.960852 148.416047,139.960852 C148.416047,139.960852 148.586798,139.260824 148.912776,137.964051 C149.036958,137.306101 149.264625,136.521916 149.554383,135.603847 C149.81827,134.685778 150.175293,133.65295 150.594408,132.516839 C151.453334,130.259918 152.715851,127.620469 154.635499,125.023097 C156.581018,122.444853 159.121576,119.908686 162.52106,117.896584 C165.863627,115.819451 169.987506,114.186053 174.608114,112.88928 C179.254593,111.581031 184.413323,110.632359 189.877333,109.783145 C192.655906,109.38914 195.465526,108.98366 198.316539,108.582004 C201.224469,108.199476 204.168619,107.813121 207.128291,107.422942 C213.109727,106.646408 219.261913,105.720688 225.460668,104.569276 C231.664596,103.352834 237.940965,101.926001 244.005189,99.8450441 C247.047649,98.8542937 250.038367,97.6684545 252.935948,96.329603 C255.83353,95.021354 258.6328,93.5141902 261.23545,91.8310629 C266.518361,88.5145375 271.040658,84.3947007 274.460839,80.0032688 C277.912065,75.6080115 280.168039,70.9411587 281.627178,66.607106 C283.065621,62.2501016 283.75897,58.1914698 284.033206,54.622475 C284.302267,51.0496549 284.167736,47.9702971 283.981464,45.4456062" id="Shape-3"></path>
                <path d="M148.570334,107.260602 C148.570334,107.260602 148.46181,106.798008 148.244763,105.934497 C148.167246,105.502742 148.022548,104.974613 147.83134,104.38095 C147.66597,103.779576 147.438588,103.101104 147.164695,102.349388 C146.074291,99.3695055 143.83147,95.3680605 139.418177,92.6888657 C137.247704,91.3203558 134.570789,90.2409681 131.563135,89.3890226 C128.550313,88.5255124 125.196417,87.901009 121.646145,87.3381856 C119.837418,87.0837583 118.018356,86.8177664 116.16312,86.5517745 C114.276876,86.3050569 112.364793,86.0429199 110.437207,85.788493 C106.556196,85.2757836 102.561495,84.6744104 98.5254504,83.9149839 C94.5049094,83.1092979 90.4326903,82.1763984 86.4793307,80.8001788 C84.510402,80.1486912 82.5673133,79.3738447 80.6862374,78.4794948 C78.8103296,77.6159845 76.9860992,76.6252605 75.291064,75.511178 C71.8544832,73.3254175 68.924346,70.607673 66.6970283,67.7087454 C64.459375,64.802108 62.9917224,61.7297075 62.0460168,58.8693295 C61.1054789,55.9896768 60.6558811,53.3143368 60.4853441,50.9551032 C60.3096392,48.5997245 60.3974916,46.5643074 60.5215186,44.902821 C60.6300422,43.2451895 60.8625928,41.957634 61.0176265,41.0864137 C61.1829958,40.2113385 61.2605126,39.7487437 61.2605126,39.7487437 C61.2605126,39.7487437 61.374204,40.2113385 61.5757478,41.0787038 C61.6687681,41.4988941 61.7824595,42.0347331 61.9168221,42.6553811 C62.0925269,43.2721743 62.2682318,43.9776313 62.4491045,44.7640426 C62.8470243,46.33301 63.4258169,48.2103739 64.1648109,50.2881956 C64.9141405,52.3583075 65.9166919,54.6173121 67.2396463,56.8840268 C68.5729362,59.1430314 70.2421326,61.409746 72.355759,63.4258885 C74.4642174,65.4574507 76.9912672,67.2654254 79.9059009,68.7765685 C82.7946959,70.3031314 86.0659071,71.5135878 89.5438301,72.5467162 C93.0269212,73.5567149 96.7167234,74.3932405 100.499546,75.1064076 C104.282369,75.869689 108.158212,76.4826271 112.018552,77.1919392 C115.878891,77.8781215 119.734063,78.637548 123.485879,79.5665925 C127.232527,80.4956371 130.875819,81.6328494 134.250386,83.1247179 C137.604282,84.6088761 140.679117,86.4823852 143.045966,88.7452448 C145.454156,90.9695547 147.004493,93.5677959 147.893353,95.8923346 C148.198253,96.6826006 148.404965,97.4420271 148.565166,98.174469 C148.730535,97.4420271 148.932079,96.6826006 149.236979,95.8846248 C150.120671,93.5562308 151.676176,90.9618449 154.084366,88.7336797 C156.451214,86.4746754 159.536386,84.6011663 162.895449,83.1092979 C166.254513,81.6212848 169.902973,80.4840724 173.665125,79.5588827 C177.406605,78.6298381 181.261777,77.8627017 185.127284,77.1880843 C188.977288,76.4749172 192.863467,75.869689 196.641122,75.1064076 C200.429112,74.3932405 204.118914,73.5682798 207.602005,72.5505712 C211.085096,71.5328626 214.356308,70.3031314 217.245102,68.7881334 C220.154568,67.2769903 222.686786,65.4767254 224.795244,63.4413083 C226.919206,61.417456 228.572899,59.1507413 229.906189,56.8878817 C231.239479,54.6211671 232.236863,52.3660174 232.986193,50.2881956 C233.735522,48.2142289 234.303979,46.3368649 234.701899,44.7678975 C234.882771,43.9853412 235.053308,43.2798842 235.229013,42.666946 C235.358208,42.042443 235.482235,41.506604 235.570087,41.0787038 C235.776799,40.2113385 235.885323,39.7487437 235.885323,39.7487437 C235.885323,39.7487437 235.96284,40.2113385 236.128209,41.0864137 C236.288411,41.953779 236.510625,43.2297697 236.624317,44.902821 C236.743176,46.5681623 236.82586,48.5997245 236.650155,50.9551032 C236.479618,53.3104818 236.030021,55.9858218 235.094651,58.8616196 C234.138609,61.7258525 232.676125,64.7982531 230.443639,67.7010355 C228.216322,70.599963 225.281017,73.3177076 221.859939,75.4996132 C220.164904,76.6136957 218.340674,77.6082745 216.459598,78.4679299 C214.58369,79.35457 212.645769,80.140981 210.666505,80.7963239 C206.723481,82.1648333 202.651261,83.1092979 198.635888,83.9149839 C194.589509,84.6744104 190.594806,85.2834933 186.718964,85.7962028 C184.791378,86.0506301 182.879295,86.3127672 180.993052,86.5633391 C179.137815,86.829331 177.318752,87.0914681 175.510026,87.3497503 C171.954586,87.9125741 168.605857,88.537077 165.598203,89.4005872 C162.59055,90.2563876 159.903298,91.331921 157.743162,92.7004304 C155.531348,94.0303905 153.867319,95.707297 152.606378,97.4034779 C151.36094,99.1189336 150.54443,100.861374 149.98114,102.349388 C149.712415,103.097249 149.485033,103.779576 149.319664,104.388659 C149.11812,104.990033 148.983757,105.510452 148.901073,105.938352 C148.684025,106.798008 148.570334,107.260602 148.570334,107.260602" id="Shape-2" opacity="0.2"></path>
                <path d="M272.615733,33.4985525 C260.130783,23.3548287 209.345736,15.7615479 149.04948,15.7615479 C87.6296155,15.7615479 36.6744252,23.3643084 24.2103269,33.5175451 C50.7730832,27.3590428 96.6638478,23.2910922 149.04948,23.2910922 C200.587684,23.2910922 246.147147,27.3506806 272.615733,33.4985525 Z" id="Rectangle-4"></path>
                <path d="M205.574906,18.4420937 C198.004326,7.70246902 175.359942,-0.0936815393 148.786922,-0.0936815393 C121.700351,-0.0936815393 98.9421177,7.72279899 91.3843114,18.4840898 C94.6021446,18.1962666 97.8990911,17.9317927 101.268157,17.691929 C106.650315,12.5941382 125.63131,8.09476524 148.536094,8.09476524 C171.030133,8.09476524 190.199105,12.5696187 195.669252,17.6490867 C199.044001,17.8886224 202.348366,18.1533939 205.574909,18.4420981 Z" id="Oval-3"></path>
            </g>
        </g>
    </g>
</svg>