<?xml version="1.0" encoding="utf-8"?>
<!-- Generator: Adobe Illustrator 16.0.0, SVG Export Plug-In . SVG Version: 6.00 Build 0)  -->
<!DOCTYPE svg PUBLIC "-//W3C//DTD SVG 1.1//EN" "http://www.w3.org/Graphics/SVG/1.1/DTD/svg11.dtd">
<svg version="1.1" id="Layer_1" xmlns="http://www.w3.org/2000/svg" xmlns:xlink="http://www.w3.org/1999/xlink" x="0px" y="0px"
	 width="16px" height="16px" viewBox="0 0 16 16" enable-background="new 0 0 16 16" xml:space="preserve">
<polygon fill="#1D1D1B" points="6.82,10.121 2.999,10.121 6.088,12.367 4.91,16 8,13.753 11.09,16 9.91,12.367 12.998,10.121 
	9.184,10.121 8,6.489 "/>
<g>
	<defs>
		<rect id="SVGID_1_" width="16" height="16"/>
	</defs>
	<clipPath id="SVGID_2_">
		<use xlink:href="#SVGID_1_"  overflow="visible"/>
	</clipPath>
	<path clip-path="url(#SVGID_2_)" fill="#1D1D1B" d="M4.5,0C4.225,0,4,0.226,4,0.5v3c0,0.275,0.16,0.659,0.354,0.854L6,6V0H4.5z"/>
	<path clip-path="url(#SVGID_2_)" fill="#1D1D1B" d="M11.5,0C11.775,0,12,0.226,12,0.5v3c0,0.275-0.158,0.659-0.354,0.854L10,6V0
		H11.5z"/>
</g>
<rect x="7" fill="#1D1D1B" width="2" height="6"/>
</svg>
