<?xml version="1.0" encoding="UTF-8" standalone="no"?>
<svg width="260px" height="260px" viewBox="0 0 260 260" version="1.1" xmlns="http://www.w3.org/2000/svg" xmlns:xlink="http://www.w3.org/1999/xlink" xmlns:sketch="http://www.bohemiancoding.com/sketch/ns">
    <title>Slice 1</title>
    <description>Created with Sketch (http://www.bohemiancoding.com/sketch)</description>
    <defs></defs>
    <g id="Page 1" stroke="none" stroke-width="1" fill="none" fill-rule="evenodd">
        <path d="M32,184.54902 C32,173.843137 34.3854749,165.51634 39.1564246,159.568627 C43.075419,154.300654 49.3798883,150.477124 58.0698324,148.098039 C55.3435754,141.300654 53.9804469,136.287582 53.9804469,133.058824 C53.9804469,127.45098 56.9622905,121.503268 62.9259777,115.215686 C69.2304469,109.267974 75.1089385,106.294118 80.5614525,106.294118 C83.4581006,106.294118 86.8659218,107.058824 90.7849162,108.588235 C82.6061453,85.3071895 76.7276536,67.6339869 73.1494413,55.5686275 C69.0600559,41.8039216 67.0153631,32.0326797 67.0153631,26.254902 C67.0153631,18.0980392 69.0600559,11.7254902 73.1494413,7.1372549 C77.4092179,2.37908497 83.1173184,0 90.273743,0 C102.541899,0 117.280726,25.0653595 134.490223,75.1960784 L138.835196,87.6862745 C139.857542,85.1372549 140.879888,82.3333333 141.902235,79.2745098 C158.941341,29.6535948 174.276536,4.84313725 187.907821,4.84313725 C194.723464,4.84313725 200.090782,7.1372549 204.009777,11.7254902 C208.099162,16.3137255 210.143855,22.2614379 210.143855,29.5686275 C210.143855,34.3267974 208.099162,43.9281046 204.009777,58.372549 C200.431564,70.7777778 194.808659,87.7712418 187.141061,109.352941 C196.853352,111.732026 203.839385,116.320261 208.099162,123.117647 C212.699721,130.424837 215,141.72549 215,157.019608 C215,187.267974 205.969274,211.993464 187.907821,231.196078 C169.505587,250.398693 146.162011,260 117.877095,260 C106.631285,260 95.8114525,257.960784 85.4175978,253.882353 C75.3645251,250.313725 66.2486034,244.705882 58.0698324,237.058824 C49.3798883,228.901961 42.9050279,220.490196 38.6452514,211.823529 C34.2150838,202.647059 32,193.555556 32,184.54902 L32,184.54902 Z M48.6131285,183.27451 C48.6131285,187.522876 49.8058659,192.535948 52.1913408,198.313725 C54.4064246,203.751634 57.7290503,209.444444 62.1592179,215.392157 C69.1452514,224.398693 77.4092179,231.281046 86.9511173,236.039216 C96.6634078,240.797386 107.653631,243.176471 119.921788,243.176471 C141.902235,243.176471 160.389665,234.934641 175.384078,218.45098 C190.208101,202.137255 197.620112,181.490196 197.620112,156.509804 C197.620112,148.69281 197.108939,142.660131 196.086592,138.411765 C195.234637,134.673203 193.615922,131.784314 191.230447,129.745098 C186.629888,125.836601 177.599162,122.437908 164.138268,119.54902 C150.677374,116.490196 136.364525,114.960784 121.199721,114.960784 C117.451117,114.960784 115.065642,115.470588 114.043296,116.490196 C112.850559,117 112.25419,118.699346 112.25419,121.588235 C112.25419,128.555556 116.173184,133.48366 124.011173,136.372549 C132.530726,139.941176 146.587989,141.72549 166.182961,141.72549 L173.339385,141.72549 C176.065642,141.72549 178.02514,142.660131 179.217877,144.529412 C180.581006,145.888889 181.518156,148.522876 182.02933,152.431373 C179.132682,155.320261 174.446927,157.954248 167.972067,160.333333 C161.837989,162.542484 157.322626,164.751634 154.425978,166.960784 C147.610335,171.888889 142.157821,177.751634 138.068436,184.54902 C134.149441,191.176471 132.189944,197.464052 132.189944,203.411765 C132.189944,206.980392 133.041899,211.313725 134.74581,216.411765 C136.620112,222.019608 137.557263,225.673203 137.557263,227.372549 L137.557263,228.901961 L136.534916,232.72549 C129.037709,232.215686 123.585196,228.732026 120.177374,222.27451 C117.280726,216.836601 115.662011,209.869281 115.321229,201.372549 C114.810056,201.542484 113.787709,201.627451 112.25419,201.627451 L109.442737,201.627451 C109.613128,202.477124 109.698324,203.496732 109.698324,204.686275 C109.698324,209.784314 107.738827,214.117647 103.819832,217.686275 C99.900838,221.254902 95.3002793,223.039216 90.0181564,223.039216 C82.0097765,223.039216 73.9162011,219.215686 65.7374302,211.568627 C57.5586592,203.751634 53.4692737,196.104575 53.4692737,188.627451 C53.4692737,187.267974 53.7248603,185.908497 54.2360335,184.54902 C54.4064246,183.359477 55.7695531,181.490196 58.325419,178.941176 C62.5851955,184.20915 65.4818436,187.862745 67.0153631,189.901961 C74.1717877,199.928105 80.646648,204.941176 86.4399441,204.941176 C87.9734637,204.941176 89.4217877,204.431373 90.7849162,203.411765 C91.8072626,202.392157 92.3184358,201.542484 92.3184358,200.862745 C92.3184358,199.503268 91.2960894,197.039216 89.2513966,193.470588 C87.8882682,190.921569 84.7360335,186.418301 79.7946927,179.960784 C75.023743,173.843137 71.1899441,169.594771 68.2932961,167.215686 C65.7374302,164.836601 63.8631285,163.647059 62.6703911,163.647059 C59.4329609,163.647059 56.2807263,165.51634 53.2136872,169.254902 C50.146648,172.993464 48.6131285,177.666667 48.6131285,183.27451 L48.6131285,183.27451 Z M71.6159218,134.588235 C71.6159218,136.797386 72.9790503,140.620915 75.7053073,146.058824 C78.0907821,150.647059 81.924581,156.424837 87.2067039,163.392157 C92.4888268,170.189542 97.2597765,175.457516 101.519553,179.196078 C105.608939,182.594771 108.675978,184.294118 110.72067,184.294118 C111.913408,184.294118 113.106145,183.699346 114.298883,182.509804 C115.49162,181.150327 116.087989,179.79085 116.087989,178.431373 C116.087989,176.392157 114.554469,171.464052 111.48743,163.647059 C107.909218,154.980392 103.990223,147.163399 99.7304469,140.196078 C95.9818436,134.248366 92.6592179,130.084967 89.7625698,127.705882 C87.0363128,125.156863 84.3952514,123.882353 81.8393855,123.882353 C79.9650838,123.882353 77.8351955,125.156863 75.4497207,127.705882 C72.8938547,130.254902 71.6159218,132.54902 71.6159218,134.588235 L71.6159218,134.588235 Z M83.1173184,24.4705882 C83.1173184,30.248366 85.1620112,39.3398693 89.2513966,51.745098 C93,63.8104575 98.622905,79.9542484 106.120112,100.176471 C107.824022,99.1568627 110.209497,98.6470588 113.276536,98.6470588 C113.446927,98.6470588 114.000698,98.6895425 114.937849,98.7745098 C115.875,98.8594771 116.769553,98.9019608 117.621508,98.9019608 C118.303073,98.9019608 120.518156,99.0718954 124.26676,99.4117647 L106.631285,48.4313725 C101.860335,34.8366013 98.1117318,26 95.3854749,21.9215686 C93.1703911,18.3529412 90.9553073,16.5686275 88.7402235,16.5686275 C87.2067039,16.5686275 85.9287709,17.248366 84.9064246,18.6078431 C83.7136872,20.1372549 83.1173184,22.0915033 83.1173184,24.4705882 L83.1173184,24.4705882 Z M125.544693,154.470588 C127.078212,158.379085 128.696927,162.627451 130.400838,167.215686 C133.808659,163.30719 137.21648,160.078431 140.624302,157.529412 C139.772346,157.359477 138.494413,157.147059 136.790503,156.892157 C135.086592,156.637255 133.808659,156.424837 132.956704,156.254902 C129.548883,155.575163 127.078212,154.980392 125.544693,154.470588 L125.544693,154.470588 Z M152.381285,102.470588 L169.505587,105.529412 C177.173184,84.4575163 183.051676,67.5490196 187.141061,54.8039216 C191.400838,41.0392157 193.530726,32.8823529 193.530726,30.3333333 C193.530726,27.6143791 192.934358,25.4901961 191.74162,23.9607843 C191.060056,22.7712418 189.782123,22.1764706 187.907821,22.1764706 C185.522346,22.1764706 182.881285,24.4705882 179.984637,29.0588235 C176.747207,33.9869281 173.083799,42.5686275 168.994413,54.8039216 L152.381285,102.470588 Z M152.381285,102.470588" id="Shape" fill="#000000"></path>
    </g>
</svg>