<?xml version="1.0" encoding="UTF-8" standalone="no"?>
<svg width="48px" height="41px" viewBox="0 0 48 41" version="1.1" xmlns="http://www.w3.org/2000/svg" xmlns:xlink="http://www.w3.org/1999/xlink" xmlns:sketch="http://www.bohemiancoding.com/sketch/ns">
    <title>Slice 1</title>
    <description>Created with Sketch (http://www.bohemiancoding.com/sketch)</description>
    <defs></defs>
    <g id="Page-1" stroke="none" stroke-width="1" fill="none" fill-rule="evenodd" sketch:type="MSPage">
        <path d="M24,24 L1,14 L1,30 L24,40 L24,24 L24,24 Z" id="Stroke-5154" stroke="#000000" stroke-linecap="round" stroke-linejoin="round" sketch:type="MSShapeGroup"></path>
        <path d="M47,14 L24,24 L24,40 L47,30 L47,14 L47,14 Z" id="Stroke-5155" stroke="#000000" stroke-linecap="round" stroke-linejoin="round" sketch:type="MSShapeGroup"></path>
        <path d="M30,15 C30,16.657 27.313,18 24,18 C20.687,18 18,16.657 18,15 C18,13.344 20.687,12 24,12 C27.313,12 30,13.344 30,15 L30,15 Z" id="Stroke-5156" stroke="#000000" stroke-linecap="round" stroke-linejoin="round" sketch:type="MSShapeGroup"></path>
        <path d="M30,4 C30,5.657 27.313,7 24,7 C20.687,7 18,5.657 18,4 C18,2.344 20.687,1 24,1 C27.313,1 30,2.344 30,4 L30,4 Z" id="Stroke-5157" stroke="#000000" stroke-linecap="round" stroke-linejoin="round" sketch:type="MSShapeGroup"></path>
        <path d="M44,10 C44,11.657 41.313,13 38,13 C34.687,13 32,11.657 32,10 C32,8.344 34.687,7 38,7 C41.313,7 44,8.344 44,10 L44,10 Z" id="Stroke-5158" stroke="#000000" stroke-linecap="round" stroke-linejoin="round" sketch:type="MSShapeGroup"></path>
        <path d="M17,10 C17,11.657 14.313,13 11,13 C7.687,13 5,11.657 5,10 C5,8.344 7.687,7 11,7 C14.313,7 17,8.344 17,10 L17,10 Z" id="Stroke-5159" stroke="#000000" stroke-linecap="round" stroke-linejoin="round" sketch:type="MSShapeGroup"></path>
        <path d="M6.1475,11.7617 L1.0005,13.9997" id="Stroke-5160" stroke="#000000" stroke-linecap="round" stroke-linejoin="round" sketch:type="MSShapeGroup"></path>
        <path d="M19.4746,5.9687 L15.1636,7.8417" id="Stroke-5161" stroke="#000000" stroke-linecap="round" stroke-linejoin="round" sketch:type="MSShapeGroup"></path>
        <path d="M33.3887,8.0811 L28.5217,5.9671" id="Stroke-5162" stroke="#000000" stroke-linecap="round" stroke-linejoin="round" sketch:type="MSShapeGroup"></path>
        <path d="M47,14 L42.4,12.001" id="Stroke-5163" stroke="#000000" stroke-linecap="round" stroke-linejoin="round" sketch:type="MSShapeGroup"></path>
    </g>
</svg>