<?xml version="1.0" encoding="UTF-8" standalone="no"?>
<svg width="64px" height="64px" viewBox="0 0 64 64" version="1.1" xmlns="http://www.w3.org/2000/svg" xmlns:xlink="http://www.w3.org/1999/xlink" xmlns:sketch="http://www.bohemiancoding.com/sketch/ns">
    <title>building_apps</title>
    <description>Created with Sketch (http://www.bohemiancoding.com/sketch)</description>
    <defs></defs>
    <g id="Page-1" stroke="none" stroke-width="1" fill="none" fill-rule="evenodd" sketch:type="MSPage">
        <g id="Group" sketch:type="MSLayerGroup" fill="#00B2CE">
            <path d="M63.5151515,32 C63.5151515,14.5946616 49.4053384,0.484848485 32,0.484848485 C14.5946616,0.484848485 0.484848485,14.5946616 0.484848485,32 C0.484848485,49.4053384 14.5946616,63.5151515 32,63.5151515 C49.4053384,63.5151515 63.5151515,49.4053384 63.5151515,32 Z M1.45454545,32 C1.45454545,15.1302104 15.1302104,1.45454545 32,1.45454545 C48.8697896,1.45454545 62.5454545,15.1302104 62.5454545,32 C62.5454545,48.8697896 48.8697896,62.5454545 32,62.5454545 C15.1302104,62.5454545 1.45454545,48.8697896 1.45454545,32 Z" id="Oval-21" sketch:type="MSShapeGroup"></path>
            <path d="M34.6248694,32.5350052 C34.6248694,31.3808051 33.6892054,30.4451411 32.5350052,30.4451411 C31.3808051,30.4451411 30.4451411,31.3808051 30.4451411,32.5350052 C30.4451411,33.6892054 31.3808051,34.6248694 32.5350052,34.6248694 C33.6892054,34.6248694 34.6248694,33.6892054 34.6248694,32.5350052 Z M31.414838,32.5350052 C31.414838,31.9163539 31.9163539,31.414838 32.5350052,31.414838 C33.1536565,31.414838 33.6551724,31.9163539 33.6551724,32.5350052 C33.6551724,33.1536565 33.1536565,33.6551724 32.5350052,33.6551724 C31.9163539,33.6551724 31.414838,33.1536565 31.414838,32.5350052 Z" id="Oval-21-copy" sketch:type="MSShapeGroup"></path>
            <path d="M6.20011354,21.2528686 L5.75056985,21.0712411 L5.38731497,21.9703285 L5.83685866,22.151956 L11.7894371,24.5569538 L12.2389808,24.7385812 L12.6022357,23.8394938 L12.152692,23.6578664 L6.20011354,21.2528686 Z" id="Path" sketch:type="MSShapeGroup"></path>
            <path d="M12.4178323,11.732153 L12.0749927,11.3893133 L11.3893133,12.0749927 L11.732153,12.4178323 L16.2718229,16.9575022 L16.6146625,17.3003418 L17.3003418,16.6146625 L16.9575022,16.2718229 L12.4178323,11.732153 Z" id="Path" sketch:type="MSShapeGroup"></path>
            <path d="M21.0269469,5.85048051 L20.8375015,5.40417512 L19.9448908,5.78306592 L20.1343362,6.2293713 L22.6428545,12.1390702 L22.8322999,12.5853756 L23.7249107,12.2064848 L23.5354653,11.7601794 L21.0269469,5.85048051 Z" id="Path" sketch:type="MSShapeGroup"></path>
            <path d="M33.0198537,3.64472309 L33.0198537,3.15987461 L32.0501567,3.15987461 L32.0501567,3.64472309 L32.0501567,10.0647858 L32.0501567,10.5496343 L33.0198537,10.5496343 L33.0198537,10.0647858 L33.0198537,3.64472309 Z" id="Path" sketch:type="MSShapeGroup"></path>
            <path d="M42.7471314,6.20011354 L42.9287589,5.75056985 L42.0296715,5.38731497 L41.848044,5.83685866 L39.4430462,11.7894371 L39.2614188,12.2389808 L40.1605062,12.6022357 L40.3421336,12.152692 L42.7471314,6.20011354 Z" id="Path" sketch:type="MSShapeGroup"></path>
            <path d="M52.267847,12.4178323 L52.6106867,12.0749927 L51.9250073,11.3893133 L51.5821677,11.732153 L47.0424978,16.2718229 L46.6996582,16.6146625 L47.3853375,17.3003418 L47.7281771,16.9575022 L52.267847,12.4178323 Z" id="Path" sketch:type="MSShapeGroup"></path>
            <path d="M58.1495195,22.0969574 L58.5958249,21.907512 L58.2169341,21.0149012 L57.7706287,21.2043466 L51.8609298,23.712865 L51.4146244,23.9023104 L51.7935152,24.7949211 L52.2398206,24.6054757 L58.1495195,22.0969574 Z" id="Path" sketch:type="MSShapeGroup"></path>
        </g>
    </g>
</svg>