<?xml version="1.0" encoding="utf-8"?>
<!-- Generator: Adobe Illustrator 16.0.0, SVG Export Plug-In . SVG Version: 6.00 Build 0)  -->
<!DOCTYPE svg PUBLIC "-//W3C//DTD SVG 1.1//EN" "http://www.w3.org/Graphics/SVG/1.1/DTD/svg11.dtd">
<svg version="1.1" id="Layer_1" xmlns="http://www.w3.org/2000/svg" xmlns:xlink="http://www.w3.org/1999/xlink" x="0px" y="0px"
	 width="16px" height="16px" viewBox="0 0 16 16" enable-background="new 0 0 16 16" xml:space="preserve">
<g>
	<defs>
		<rect id="SVGID_1_" width="16" height="16"/>
	</defs>
	<clipPath id="SVGID_2_">
		<use xlink:href="#SVGID_1_"  overflow="visible"/>
	</clipPath>
	<path clip-path="url(#SVGID_2_)" fill="#1D1D1B" d="M12.625,12.75c-0.768,0-1.406,0.534-1.576,1.25H5.967
		c-0.082-0.402-0.313-0.748-0.629-0.988L5.975,11H14l1.584-6.938L2.913,2.368L1.898,1.691l0.045-0.219
		c0-0.537-0.435-0.972-0.971-0.972C0.436,0.5,0,0.935,0,1.472c0,0.536,0.436,0.97,0.972,0.97l0.193-0.039l1.191,0.796L4.334,11
		h0.592l-0.53,1.674l-0.062-0.007c-0.92,0-1.667,0.746-1.667,1.667c0,0.92,0.747,1.666,1.667,1.666c0.683,0,1.269-0.412,1.526-1
		h5.266c0.245,0.587,0.823,1,1.499,1c0.898,0,1.625-0.729,1.625-1.625S13.523,12.75,12.625,12.75"/>
</g>
</svg>
