<svg xmlns="http://www.w3.org/2000/svg" xmlns:xlink="http://www.w3.org/1999/xlink" version="1.1" x="0px" y="0px" width="100px" height="100px" viewBox="0 0 100 100" enable-background="new 0 0 100 100" xml:space="preserve">
<g id="Captions">
</g>
<g id="Layer_7" display="none">
	<path display="inline" d="M60.267,14.063L14.065,60.27l25.668,25.667l46.201-46.204V14.063H60.267z M72.624,32.219   c-2.671,0-4.84-2.174-4.84-4.841c0-2.678,2.169-4.844,4.84-4.844s4.836,2.166,4.836,4.844   C77.46,30.045,75.295,32.219,72.624,32.219z"/>
</g>
<g id="Your_Icon" display="none">
	<path display="inline" d="M71.686,85.706L69,60l16.982-17.541L62,39L50.001,13.98L38,39l-23.982,3.284L31,60l-2.692,25.676   L49.98,72c0.017,0,0.028,0,0.049,0L71.686,85.706z"/>
</g>
<g id="Layer_6" display="none">
	<path display="inline" d="M50,17.06c-18.194,0-32.941,14.747-32.941,32.945C17.06,68.192,31.806,82.94,50,82.94   c18.192,0,32.94-14.748,32.94-32.936C82.94,31.807,68.192,17.06,50,17.06z M53.117,73.733V61.981H47.13v11.789   C36.2,72.458,27.52,63.769,26.225,52.831h11.755v-5.993H26.275c1.429-10.777,10.036-19.306,20.855-20.605v11.456h5.987V26.27   c10.701,1.403,19.188,9.875,20.609,20.568H62.274v5.993h11.5C72.488,63.684,63.932,72.317,53.117,73.733z"/>
</g>
<g id="Layer_5" display="none">
	<rect x="14" y="36" display="inline" width="72" height="27"/>
</g>
<g id="Layer_4">
	<polygon points="14.033,14.036 44.019,14.036 80,50.018 44.019,86 14.033,86 50.016,50.018  "/>
</g>
</svg>