<?xml version="1.0" encoding="utf-8"?>
<!-- Generator: Adobe Illustrator 16.0.0, SVG Export Plug-In . SVG Version: 6.00 Build 0)  -->
<!DOCTYPE svg PUBLIC "-//W3C//DTD SVG 1.1//EN" "http://www.w3.org/Graphics/SVG/1.1/DTD/svg11.dtd">
<svg version="1.1" id="Layer_1" xmlns="http://www.w3.org/2000/svg" xmlns:xlink="http://www.w3.org/1999/xlink" x="0px" y="0px"
	 width="16px" height="16px" viewBox="0 0 16 16" enable-background="new 0 0 16 16" xml:space="preserve">
<g>
	<defs>
		<rect id="SVGID_1_" width="16" height="16"/>
	</defs>
	<clipPath id="SVGID_2_">
		<use xlink:href="#SVGID_1_"  overflow="visible"/>
	</clipPath>
	<path clip-path="url(#SVGID_2_)" fill="#1D1D1B" d="M15.635,9.5C15.869,9.195,16,8.857,16,8.5C16,7.098,14.023,6,11.5,6
		c-1.086,0-2.057,0.212-2.828,0.556C8.66,6.537,8.648,6.519,8.635,6.5C8.869,6.195,9,5.858,9,5.5s-0.131-0.695-0.365-1
		C8.869,4.195,9,3.858,9,3.5C9,2.098,7.023,1,4.5,1S0,2.098,0,3.5c0,0.358,0.133,0.695,0.365,1C0.133,4.805,0,5.142,0,5.5
		s0.133,0.695,0.365,1C0.133,6.805,0,7.142,0,7.5s0.133,0.695,0.365,1C0.133,8.805,0,9.143,0,9.5s0.133,0.695,0.365,1
		C0.133,10.805,0,11.143,0,11.5C0,12.902,1.977,14,4.5,14c1.086,0,2.059-0.212,2.828-0.557C7.986,14.364,9.582,15,11.5,15
		c2.523,0,4.5-1.098,4.5-2.5c0-0.357-0.131-0.695-0.365-1c0.234-0.305,0.365-0.643,0.365-1S15.869,9.805,15.635,9.5 M4.5,2
		C6.504,2,8,2.792,8,3.5S6.504,5,4.5,5C2.498,5,1,4.208,1,3.5S2.498,2,4.5,2 M7,12.5c0,0.005,0.002,0.01,0.002,0.016
		C6.379,12.802,5.502,13,4.5,13C2.498,13,1,12.208,1,11.5c0-0.114,0.053-0.23,0.125-0.346C1.945,11.672,3.135,12,4.5,12
		c1.086,0,2.059-0.212,2.828-0.557c0.014,0.02,0.024,0.037,0.037,0.057C7.133,11.805,7,12.143,7,12.5 M7,10.5
		c0,0.005,0.002,0.01,0.002,0.016C6.379,10.802,5.502,11,4.5,11C2.498,11,1,10.208,1,9.5c0-0.114,0.053-0.23,0.125-0.346
		C1.945,9.672,3.135,10,4.5,10c1.086,0,2.059-0.212,2.828-0.557C7.342,9.463,7.352,9.48,7.365,9.5C7.133,9.805,7,10.143,7,10.5
		 M7,8.5c0,0.005,0.002,0.01,0.002,0.016C6.379,8.802,5.502,9,4.5,9C2.498,9,1,8.208,1,7.5c0-0.114,0.053-0.23,0.125-0.345
		C1.945,7.672,3.135,8,4.5,8c1.164,0,2.201-0.241,2.992-0.631C7.187,7.708,7,8.088,7,8.5 M4.5,7C2.498,7,1,6.208,1,5.5
		c0-0.114,0.053-0.23,0.125-0.345C1.945,5.672,3.135,6,4.5,6s2.557-0.328,3.375-0.845C7.949,5.27,8,5.386,8,5.5
		C8,6.208,6.504,7,4.5,7 M11.5,14C9.498,14,8,13.208,8,12.5c0-0.114,0.053-0.23,0.125-0.346C8.945,12.672,10.135,13,11.5,13
		s2.557-0.328,3.375-0.846C14.949,12.27,15,12.386,15,12.5C15,13.208,13.504,14,11.5,14 M11.5,12C9.498,12,8,11.208,8,10.5
		c0-0.114,0.053-0.23,0.125-0.346C8.945,10.672,10.135,11,11.5,11s2.557-0.328,3.375-0.846C14.949,10.27,15,10.386,15,10.5
		C15,11.208,13.504,12,11.5,12 M11.5,10C9.498,10,8,9.208,8,8.5S9.498,7,11.5,7C13.504,7,15,7.792,15,8.5S13.504,10,11.5,10"/>
</g>
</svg>
