<?xml version="1.0" encoding="utf-8"?>
<!-- Generator: Adobe Illustrator 16.0.0, SVG Export Plug-In . SVG Version: 6.00 Build 0)  -->
<!DOCTYPE svg PUBLIC "-//W3C//DTD SVG 1.1//EN" "http://www.w3.org/Graphics/SVG/1.1/DTD/svg11.dtd">
<svg version="1.1" id="Layer_1" xmlns="http://www.w3.org/2000/svg" xmlns:xlink="http://www.w3.org/1999/xlink" x="0px" y="0px"
	 width="16px" height="16px" viewBox="0 0 16 16" enable-background="new 0 0 16 16" xml:space="preserve">
<g>
	<defs>
		<rect id="SVGID_1_" width="16" height="16"/>
	</defs>
	<clipPath id="SVGID_2_">
		<use xlink:href="#SVGID_1_"  overflow="visible"/>
	</clipPath>
	<path clip-path="url(#SVGID_2_)" fill="#1D1D1B" d="M11,14H2V5h4.549l2-2H1.752C0.785,3,0,3.784,0,4.751v9.498
		C0,15.217,0.785,16,1.752,16h9.498c0.967,0,1.75-0.783,1.75-1.751V7.033l-2,2V14z"/>
</g>
<polygon fill="#1D1D1B" points="4.646,8.278 3.648,12.278 7.648,11.278 "/>
<polygon fill="#1D1D1B" points="11.029,1.934 9.963,3 7.963,5 5.375,7.59 8.201,10.419 11,7.62 13,5.62 13.857,4.762 "/>
<g>
	<defs>
		<rect id="SVGID_3_" width="16" height="16"/>
	</defs>
	<clipPath id="SVGID_4_">
		<use xlink:href="#SVGID_3_"  overflow="visible"/>
	</clipPath>
	<path clip-path="url(#SVGID_4_)" fill="#1D1D1B" d="M15.707,1.707l-1.414-1.414c-0.391-0.391-1.024-0.391-1.414,0L12.172,1
		L15,3.828l0.707-0.707C16.098,2.73,16.098,2.098,15.707,1.707"/>
</g>
</svg>
