<?xml version="1.0" encoding="utf-8"?>
<!-- Generator: Adobe Illustrator 16.0.0, SVG Export Plug-In . SVG Version: 6.00 Build 0)  -->
<!DOCTYPE svg PUBLIC "-//W3C//DTD SVG 1.1//EN" "http://www.w3.org/Graphics/SVG/1.1/DTD/svg11.dtd">
<svg version="1.1" id="Layer_1" xmlns="http://www.w3.org/2000/svg" xmlns:xlink="http://www.w3.org/1999/xlink" x="0px" y="0px"
	 width="512px" height="512px" viewBox="0 0 512 512" enable-background="new 0 0 512 512" xml:space="preserve">
<path d="M160.504,512C51.878,450.779,23.279,392.832,39.63,313.689c12.071-58.44,56.647-105.986,60.437-164.314
	c16.884,30.726,18.888,52.882,20.775,84.99C174.542,168.572,230.231,80.522,218.19,0c0,0,133.808,64,142.986,188.138
	c12.041-25.587,12.041-66.225,0-92.563C397.298,121.914,614.785,355.734,338.599,512c51.927-101.105,13.396-237.527-76.761-300.533
	c6.021,27.092-1.505,97.832-41.391,142.232c9.031-45.904-13.546-75.254-13.546-75.254s-7.402,41.555-36.122,83.533
	C144.553,400.311,126.381,440.996,160.504,512z"/>
</svg>
