<?xml version="1.0" encoding="utf-8"?>
<!-- Generator: Adobe Illustrator 16.0.0, SVG Export Plug-In . SVG Version: 6.00 Build 0)  -->
<!DOCTYPE svg PUBLIC "-//W3C//DTD SVG 1.1//EN" "http://www.w3.org/Graphics/SVG/1.1/DTD/svg11.dtd">
<svg version="1.1" id="Layer_1" xmlns="http://www.w3.org/2000/svg" xmlns:xlink="http://www.w3.org/1999/xlink" x="0px" y="0px"
	 width="16px" height="16px" viewBox="0 0 16 16" enable-background="new 0 0 16 16" xml:space="preserve">
<g>
	<defs>
		<rect id="SVGID_1_" width="16" height="16"/>
	</defs>
	<clipPath id="SVGID_2_">
		<use xlink:href="#SVGID_1_"  overflow="visible"/>
	</clipPath>
	<path clip-path="url(#SVGID_2_)" fill="#1D1D1B" d="M5,2c0-1.104-0.895-2-2-2S1,0.896,1,2s0.895,2,2,2S5,3.104,5,2"/>
	<path clip-path="url(#SVGID_2_)" fill="#1D1D1B" d="M15,2c0-1.104-0.895-2-2-2s-2,0.896-2,2s0.895,2,2,2S15,3.104,15,2"/>
	<path clip-path="url(#SVGID_2_)" fill="#1D1D1B" d="M10,12c0-1.104-0.895-2-2-2c-1.105,0-2,0.896-2,2s0.895,2,2,2
		C9.105,14,10,13.104,10,12"/>
</g>
<rect x="1.768" y="8.267" transform="matrix(-0.7072 -0.707 0.707 -0.7072 0.233 17.6312)" fill="#1D1D1B" width="3.999" height="1"/>
<rect x="11.733" y="6.768" transform="matrix(-0.7071 -0.7071 0.7071 -0.7071 14.6829 23.618)" fill="#1D1D1B" width="1" height="4"/>
<g>
	<defs>
		<rect id="SVGID_3_" width="16" height="16"/>
	</defs>
	<clipPath id="SVGID_4_">
		<use xlink:href="#SVGID_3_"  overflow="visible"/>
	</clipPath>
	<path clip-path="url(#SVGID_4_)" fill="#1D1D1B" d="M6,6c0-1.104-1.344-2-3-2C1.345,4,0,4.896,0,6H6z"/>
	<path clip-path="url(#SVGID_4_)" fill="#1D1D1B" d="M13,4c-1.656,0-3,0.896-3,2h6C16,4.896,14.656,4,13,4"/>
	<path clip-path="url(#SVGID_4_)" fill="#1D1D1B" d="M8.001,14c-1.656,0-3,0.896-3,2h6C11.001,14.896,9.656,14,8.001,14"/>
</g>
</svg>
