<?xml version="1.0" encoding="utf-8"?>
<!-- Generator: Adobe Illustrator 16.0.0, SVG Export Plug-In . SVG Version: 6.00 Build 0)  -->
<!DOCTYPE svg PUBLIC "-//W3C//DTD SVG 1.1//EN" "http://www.w3.org/Graphics/SVG/1.1/DTD/svg11.dtd">
<svg version="1.1" id="Layer_1" xmlns="http://www.w3.org/2000/svg" xmlns:xlink="http://www.w3.org/1999/xlink" x="0px" y="0px"
	 width="512px" height="512px" viewBox="0 0 512 512" enable-background="new 0 0 512 512" xml:space="preserve">
<path d="M0,262.684c0-44.444,13.867-82.578,41.6-114.399c-1.6-4.089-3.022-8.978-4.267-14.667c-1.245-5.688-2.4-13.511-3.467-23.467
	c-1.067-9.955-0.622-21.511,1.333-34.666c1.956-13.156,5.511-26.578,10.667-40.267c0.889-0.356,2.267-0.667,4.133-0.934
	c1.866-0.267,6.089-0.045,12.667,0.667c6.578,0.711,13.733,2.311,21.467,4.8c7.733,2.488,18.044,7.11,30.934,13.866
	c12.889,6.756,26.444,15.378,40.667,25.867C180.089,72.194,213.511,68.55,256,68.55c42.489,0,75.822,3.645,100,10.934
	c14.222-10.489,27.733-19.156,40.533-26c12.8-6.845,23.245-11.423,31.334-13.733c8.088-2.312,15.155-3.911,21.199-4.8
	c6.045-0.89,10.399-1.067,13.066-0.534l4,0.801c5.155,13.688,8.666,27.11,10.533,40.267c1.866,13.155,2.267,24.755,1.199,34.8
	c-1.066,10.044-2.179,17.822-3.333,23.333c-1.155,5.512-2.533,10.4-4.133,14.667c27.732,32,41.6,70.133,41.6,114.4
	c0,24.711-2.178,47.11-6.533,67.199c-4.354,20.088-10.399,37.512-18.134,52.268c-7.733,14.755-17.555,27.688-29.467,38.8
	c-11.911,11.11-24.844,20.267-38.8,27.467c-13.955,7.199-29.866,13.021-47.733,17.467c-17.866,4.444-36.089,7.556-54.666,9.333
	c-18.578,1.777-38.979,2.667-61.2,2.667s-42.578-0.89-61.067-2.667c-18.489-1.777-36.667-4.889-54.533-9.333
	c-17.867-4.444-33.733-10.268-47.6-17.467c-13.867-7.2-26.711-16.354-38.533-27.467c-11.822-11.112-21.6-24.045-29.333-38.8
	c-7.733-14.756-13.733-32.18-18-52.268C2.133,309.795,0,287.395,0,262.684z M68.267,329.884c0,15.11,1.778,28.577,5.333,40.399
	c3.555,11.822,8.044,21.732,13.467,29.732c5.422,8,13.022,14.756,22.8,20.268c9.778,5.512,19.245,9.777,28.4,12.8
	c9.156,3.022,20.978,5.378,35.467,7.067c14.489,1.688,27.422,2.711,38.8,3.065c11.378,0.355,25.778,0.533,43.2,0.533
	c17.422,0,31.866-0.178,43.333-0.533c11.467-0.354,24.443-1.378,38.934-3.065c14.489-1.689,26.312-4.046,35.467-7.067
	s18.622-7.288,28.4-12.8c9.776-5.512,17.377-12.268,22.8-20.268c5.422-8,9.911-17.91,13.467-29.732s5.333-25.289,5.333-40.399
	c0-25.778-10.667-49.155-32-70.134c-6.399-6.4-13.867-11.245-22.399-14.533c-8.533-3.289-18.179-5.156-28.934-5.601
	c-10.756-0.444-21.021-0.355-30.801,0.267c-9.777,0.622-21.866,1.467-36.268,2.533c-14.399,1.067-26.844,1.601-37.333,1.601
	s-22.934-0.533-37.333-1.601c-14.4-1.066-26.489-1.911-36.267-2.533c-9.778-0.622-20.044-0.711-30.8-0.267
	c-10.756,0.444-20.355,2.312-28.8,5.601c-8.444,3.288-15.867,8.133-22.267,14.533C78.933,280.729,68.267,304.105,68.267,329.884z
	 M136.267,323.75c0-11.911,2.489-22,7.467-30.268c4.978-8.267,11.022-12.399,18.133-12.399c7.111,0,13.155,4.134,18.133,12.399
	c4.978,8.267,7.467,18.355,7.467,30.268c0,11.732-2.489,21.777-7.467,30.134s-11.022,12.533-18.133,12.533
	c-7.111,0-13.155-4.179-18.133-12.533S136.267,335.482,136.267,323.75z M221.867,399.217c-0.355-1.422-0.267-2.8,0.267-4.134
	c0.533-1.333,1.422-2.179,2.667-2.533c3.022-1.243,4.978-0.178,5.867,3.2c1.956,6.045,5.245,10.934,9.867,14.667
	s9.689,5.601,15.2,5.601c5.511,0,10.578-1.867,15.201-5.601c4.621-3.733,7.91-8.622,9.865-14.667c0.891-3.378,2.846-4.443,5.866-3.2
	c1.245,0.355,2.134,1.2,2.667,2.533c0.533,1.334,0.622,2.712,0.268,4.134c-2.488,8.178-6.845,14.801-13.066,19.866
	c-6.223,5.067-13.155,7.601-20.8,7.601s-14.578-2.532-20.8-7.601C228.711,414.018,224.355,407.395,221.867,399.217z M238.4,366.95
	c0-2.312,1.689-4.312,5.067-6c3.378-1.688,7.378-2.533,12-2.533c4.622,0,8.622,0.845,12,2.533s5.066,3.688,5.066,6
	s-1.688,4.312-5.066,6c-3.378,1.688-7.378,2.532-12,2.532s-8.622-0.844-12-2.532C240.089,371.261,238.4,369.261,238.4,366.95z
	 M323.467,323.75c0-11.911,2.488-22,7.467-30.268c4.979-8.267,11.021-12.399,18.134-12.399c7.111,0,13.154,4.134,18.134,12.399
	c4.978,8.268,7.467,18.355,7.467,30.268c0,11.732-2.489,21.777-7.467,30.134c-4.979,8.355-11.022,12.533-18.134,12.533
	c-7.112,0-13.155-4.179-18.134-12.533C325.955,345.527,323.467,335.482,323.467,323.75z"/>
</svg>
