<?xml version="1.0" encoding="utf-8"?>
<!-- Generator: Adobe Illustrator 15.0.0, SVG Export Plug-In . SVG Version: 6.00 Build 0)  -->
<!DOCTYPE svg PUBLIC "-//W3C//DTD SVG 1.1//EN" "http://www.w3.org/Graphics/SVG/1.1/DTD/svg11.dtd">
<svg version="1.1" id="Layer_1" xmlns="http://www.w3.org/2000/svg" xmlns:xlink="http://www.w3.org/1999/xlink" x="0px" y="0px"
	 width="512px" height="512px" viewBox="0 0 512 512" enable-background="new 0 0 512 512" xml:space="preserve">
<path d="M368.92,355.806c-0.021-1.212-0.081-1.9-0.081-1.9l-0.002,0.005c-0.379-6.434-1.425-12.733-3.189-18.564
	c-2.337-7.689-5.9-14.478-10.022-20.447c-0.603-0.85-1.218-1.68-1.843-2.501h0.006c0,0-0.065-0.082-0.167-0.203
	c-1.501-1.959-3.066-3.829-4.756-5.54c-2.392-2.546-4.879-4.923-7.413-7.178c-4.442-3.95-8.969-7.598-13.553-11.018
	c-0.074-0.061-0.137-0.114-0.211-0.176c-20.231-16.513-30.582-16.866-30.582-35.204c0-7.414,6.644-19.153,24.715-33.055
	c18.073-13.901,31.996-31.819,31.967-53.83c-0.028-21.747-8.423-39.051-8.423-39.051l-0.012,0.022
	c-4.709-11.15-12.033-20.773-21.223-28.504l0.006-0.014c0,0-1.236-3.583,0.773-6.054c2.008-2.472,16.063-21.779,16.063-21.779
	s2.472-3.553,1.544-5.406c-0.926-1.854-12.511-11.275-12.511-11.275s-2.471-0.772-5.251,1.39c-2.78,2.163-32.13,20.13-39.234,20.8
	c-7.104,0.67-24.712,1.056-24.712,1.056v0.043c-8.902,0.174-18.017,1.449-27.123,3.973c-51.103,14.164-82.561,61.619-70.261,105.996
	c10.547,38.065,49.864,61.475,93.087,58.436c-2.338,3.749-4.663,9.631-4.663,18.221c0,14.938,11.845,28.884,15.083,32.417
	c-0.685-0.029-1.363-0.059-2.109-0.059c-8.11,0-28.267,0.231-45.982,3.041c-0.148,0.021-0.285,0.051-0.431,0.075
	c-6.696,0.815-13.017,2.295-19.171,4.346c-6.5,2.215-12.824,4.928-19.246,8.019c-3.241,1.513-6.341,3.341-9.571,5.182
	c-3.201,1.881-6.358,3.994-9.43,6.393c-3.07,2.396-6.069,5.068-8.837,8.113c-1.401,1.505-2.737,3.117-4.045,4.78
	c-1.249,1.706-2.461,3.473-3.579,5.33c-2.848,4.76-5.042,10.113-6.422,15.7c-2.197,7.825-4.338,19.23-2.584,30.384
	c3.107,19.771,16.763,33.612,32.022,44.379c5.683,4.306,11.879,7.478,18.061,10.011c6.539,2.741,10.897,3.67,10.897,3.67
	l-0.02-0.032c4.791,1.309,9.561,2.252,14.292,2.899l-0.005,0.023c0,0,57.064,9.873,101.936-12.912
	c8.129-4.126,15.056-8.617,21.012-13.287c1.979-1.477,3.929-3.003,5.812-4.63c10.107-9.08,18.765-19.992,24.782-33.405
	c0.722-1.668,1.427-3.553,1.994-5.27c0.35-1.213,0.628-2.212,0.865-3.24c0.256-1.034,0.44-2.079,0.645-3.129
	c0.728-4.202,1.169-8.51,1.182-12.78C369.01,358.642,368.975,357.222,368.92,355.806z M205.359,178
	c-12.163-37.469,0.598-75.183,28.504-84.241c27.905-9.059,60.387,13.972,72.548,51.439c12.163,37.47-0.599,75.186-28.504,84.242
	C250.004,238.498,217.52,215.466,205.359,178z M191.889,404.396c-3.157-3.284-5.649-6.887-7.72-10.607
	c-2.034-3.76-3.414-7.786-4.482-12c-0.258-1.052-0.463-2.144-0.652-3.217l-0.224-1.525l-0.146-1.122l-0.034-0.262
	c0.012,0.087,0.044,0.301,0.02,0.116l-0.008-0.096l-0.032-0.378c-0.157-2.014-0.262-3.969-0.183-5.887
	c0.042-3.854,0.568-7.6,1.48-11.712c0.25-1.018,0.56-2.042,0.907-3.075c0.324-1.053,0.667-2.124,1.1-3.185
	c0.845-2.126,1.875-4.293,3.102-6.437c2.44-4.293,5.669-8.518,9.569-12.196c3.909-3.659,8.391-6.907,13.228-9.45
	c4.809-2.579,9.896-4.741,14.941-6.073c2.837-0.72,5.716-1.387,8.611-2.018c2.903-0.594,5.835-1.09,8.773-1.591
	c5.88-0.965,11.798-1.9,17.752-2.604c5.049-0.523,10.139-1.085,15.187-1.422h10.546c0,0,0.156,0.12,0.413,0.318
	c0.119,0.095,0.232,0.199,0.355,0.291c0.363,0.293,0.735,0.567,1.099,0.854c8.492,6.738,43.355,35.373,48.841,55.489
	c6.236,22.867-14.015,54.997-52.017,60.675c-2.483,0.342-4.979,0.622-7.49,0.802c-1.428,0.095-2.852,0.187-4.218,0.234
	c-1.292,0.056-3.088,0.12-4.344,0.126c-5.802,0.068-11.57-0.092-17.257-0.563c-5.685-0.525-11.287-1.396-16.717-2.586
	c-10.839-2.473-21.02-6.435-29.383-11.854C198.713,410.763,195.054,407.65,191.889,404.396z"/>
<g>
	<path d="M429,29c14.608,0,28.397,5.744,38.826,16.173C478.256,55.603,484,69.392,484,84v345c0,14.608-5.744,28.397-16.174,38.826
		C457.397,478.256,443.608,484,429,484H84c-14.608,0-28.397-5.744-38.827-16.174C34.744,457.397,29,443.608,29,429V84
		c0-14.608,5.744-28.397,16.173-38.827S69.392,29,84,29H429 M429,9H84C42.75,9,9,42.75,9,84v345c0,41.25,33.75,75,75,75h345
		c41.25,0,75-33.75,75-75V84C504,42.75,470.25,9,429,9L429,9z"/>
</g>
</svg>
