<?xml version="1.0" encoding="utf-8"?>
<!-- Generator: Adobe Illustrator 13.0.0, SVG Export Plug-In . SVG Version: 6.00 Build 14948)  -->
<!DOCTYPE svg PUBLIC "-//W3C//DTD SVG 1.1//EN" "http://www.w3.org/Graphics/SVG/1.1/DTD/svg11.dtd">
<svg version="1.1" id="Layer_3" xmlns="http://www.w3.org/2000/svg" xmlns:xlink="http://www.w3.org/1999/xlink" x="0px" y="0px"
	 width="512px" height="512px" viewBox="0 0 512 512" enable-background="new 0 0 512 512" xml:space="preserve">
<path d="M148.098,393.455c-3.797-0.478-9.233-0.709-16.335-0.709c-27.464,0-52.322,3.785-74.569,11.362
	C40.277,410.008,26.888,417.669,17,427.081v41.914c0,13.75,11.25,25,25,25h183.21c0.182-2.223,0.297-4.479,0.297-6.795
	c0-17.044-6.159-32.436-18.463-46.162C197.567,430.62,177.927,414.763,148.098,393.455z M120.399,278.404
	c18.931,0,35.032-6.625,48.292-19.886c11.832-11.829,17.756-29.117,17.756-51.843c0-29.829-7.579-57.992-22.727-84.514
	C146.2,91.39,123.95,77.999,96.962,77.999c-24.624,0-42.855,8.419-54.684,29.249c-7.103,11.84-10.653,26.754-10.653,44.741
	c0,28.886,7.102,55.874,21.305,80.963C69.974,263.257,92.458,278.404,120.399,278.404z M468.995,17H42c-13.75,0-25,11.25-25,25
	v47.573c30.368-24.666,71.931-37.01,124.704-37.01h146.301L242.553,79.42h-44.032c33.612,27.975,50.425,57.977,50.425,94.008
	c0,23.237-6.159,43.623-18.467,61.155c-8.054,11.385-21.78,24.668-41.19,39.827c-13.261,13.282-19.885,24.901-19.885,34.855
	c0,10.906,6.148,21.104,18.466,30.583l25.566,19.907c19.885,15.168,33.846,28.684,41.901,40.535
	c11.828,17.068,17.755,36.742,17.755,59.023c0,12.154-1.813,23.713-5.424,34.681h201.327c13.75,0,25-11.25,25-25V42
	C493.995,28.25,482.745,17,468.995,17z M446.58,161.575h-60.089v53.822h-26.458v-53.822h-57.088V134h57.088V79.951h26.458V134
	h60.089V161.575z M102.645,325.466c0-6.97,2.365-16.022,7.102-27.175H87.019c-27.291,0-50.628-6.677-70.019-20.021V392.26
	c27.489-9.877,63.139-16.343,106.949-19.398C109.746,354.751,102.645,338.949,102.645,325.466z"/>
</svg>
