<?xml version="1.0" encoding="UTF-8" standalone="no"?>
<svg width="260px" height="310px" viewBox="0 0 260 310" version="1.1" xmlns="http://www.w3.org/2000/svg" xmlns:xlink="http://www.w3.org/1999/xlink" xmlns:sketch="http://www.bohemiancoding.com/sketch/ns">
    <title>Slice 1</title>
    <description>Created with Sketch (http://www.bohemiancoding.com/sketch)</description>
    <defs></defs>
    <g id="Page 1" stroke="none" stroke-width="1" fill="none" fill-rule="evenodd">
        <path d="M99.3764821,157.954232 L99.3764821,167.409607 C99.3764821,175.667097 106.058939,182.361116 114.288528,182.361116 L153.001285,182.361116 C157.017931,174.728518 165.013442,169.525773 174.221311,169.525773 C187.462565,169.525773 198.196721,180.284786 198.196721,193.556701 C198.196721,206.828616 187.462565,217.587629 174.221311,217.587629 C163.982454,217.587629 155.242646,211.154575 151.805639,202.101031 L106.029273,202.101031 C90.7171884,202.101031 78.3196721,189.668482 78.3196721,174.332155 L78.3196721,167.923711 L78.3196721,157.954232 L78.3196721,136.950319 C78.3196721,121.61699 90.7256829,109.181443 106.029273,109.181443 L231.757612,109.181443 C247.069697,109.181443 259.467213,121.613993 259.467213,136.950319 L259.467213,138.018557 L260,250.164713 C260,254.832925 258.849502,259.233335 256.817073,263.096028 C252.376931,272.496191 242.824991,279 231.757612,279 L221.106557,279 L221.106557,277.931959 L27.7013691,277.931959 C12.4090534,277.931959 0,265.500139 0,250.164713 L0,63.2538442 C0,47.926773 12.4023254,35.4865979 27.7013691,35.4865979 L212.543344,35.4865979 C215.980351,26.4330541 224.720159,20 234.959016,20 C248.20027,20 258.934426,30.7590124 258.934426,44.0309278 C258.934426,57.3028433 248.20027,68.0618557 234.959016,68.0618557 C225.614968,68.0618557 217.519404,62.7040819 213.563473,54.8864289 L32.526831,54.8864289 C26.0527699,54.8864289 20.8045064,60.1508893 20.8045064,66.6410228 L20.8045064,246.777534 C20.8045064,253.269417 26.0544375,258.532128 32.526831,258.532128 L227.473169,258.532128 C234.118522,256.546816 238.410403,250.934203 238.410403,244.308576 L238.410403,143.872868 C238.410403,135.615377 231.727946,128.921358 223.498357,128.921358 L114.288528,128.921358 C106.052832,128.921358 99.3764821,135.609202 99.3764821,143.872868 L99.3764821,157.954232 Z M164.098361,193.556701 C164.098361,187.953003 168.63056,183.410309 174.221311,183.410309 C179.812063,183.410309 184.344262,187.953003 184.344262,193.556701 C184.344262,199.160399 179.812063,203.703093 174.221311,203.703093 C168.63056,203.703093 164.098361,199.160399 164.098361,193.556701 Z M234.959016,33.8845361 C229.368265,33.8845361 224.836066,38.4272299 224.836066,44.0309278 C224.836066,49.6346257 229.368265,54.1773196 234.959016,54.1773196 C240.549768,54.1773196 245.081967,49.6346257 245.081967,44.0309278 C245.081967,38.4272299 240.549768,33.8845361 234.959016,33.8845361 Z M234.959016,33.8845361" id="Rectangle 1" fill="#000000"></path>
    </g>
</svg>