<?xml version="1.0" encoding="UTF-8" standalone="no"?>
<svg width="260px" height="310px" viewBox="0 0 260 310" version="1.1" xmlns="http://www.w3.org/2000/svg" xmlns:xlink="http://www.w3.org/1999/xlink" xmlns:sketch="http://www.bohemiancoding.com/sketch/ns">
    <title>Slice 1</title>
    <description>Created with Sketch (http://www.bohemiancoding.com/sketch)</description>
    <defs></defs>
    <g id="Page 1" stroke="none" stroke-width="1" fill="none" fill-rule="evenodd">
        <path d="M28.8032534,120.172228 C31.869254,118.470591 35.1119625,117.045446 38.4967531,115.929451 C39.2709791,94.8394923 56.5651347,78.0141844 77.8237004,77.9955207 C84.6238295,77.9955207 91.0228537,79.7592385 96.5730277,82.8200821 C108.391633,63.1858903 129.874072,50 154.481398,50 C191.299107,50.0186637 221.232734,79.4326241 222.090912,116.050765 C224.534723,116.884341 226.902728,117.881538 229.181687,119.029353 C229.1552,119.187378 229.128019,119.3498 229.100248,119.516558 C228.905922,120.457978 228.699937,121.534438 228.497838,122.730505 C228.043114,125.122638 227.374633,127.993198 226.515711,131.172421 C225.641244,134.340069 224.490833,137.797088 222.959543,141.257965 C221.416594,144.714983 219.484992,148.179719 217.036483,151.274059 C214.59186,154.383833 211.684742,157.142503 208.307354,159.449754 C204.953285,161.76858 201.179472,163.635988 197.153035,165.198591 C193.130484,166.74962 188.851423,168.018994 184.471312,169.10317 C180.106747,170.264513 175.621701,171.198216 171.163859,172.282393 C166.686586,173.32027 162.228745,174.489329 157.903045,175.909176 C153.5618,177.332881 149.341036,179.061391 145.446741,181.337776 C141.567992,183.606444 138.007937,186.484721 135.260166,189.937882 C132.481302,193.337026 130.681842,197.314913 129.651914,200.872247 C129.302127,202.091463 129.072822,203.248947 128.878496,204.383282 C128.688056,203.248947 128.447092,202.091463 128.101192,200.879963 C127.071263,197.326488 125.279576,193.348601 122.49294,189.949457 C119.756828,186.500154 116.196774,183.629594 112.318024,181.353209 C108.419842,179.076824 104.202966,177.356031 99.8694931,175.924609 C95.5321341,174.497046 91.0742929,173.34342 86.6047922,172.297826 C82.1430645,171.209791 77.6619042,170.264513 73.2895665,169.10317 C68.9133424,168.022852 64.6420543,166.74962 60.6156171,165.187016 C56.5891799,163.612838 52.8192532,161.753147 49.4651844,159.434321 C46.099456,157.12707 43.1845642,154.360683 40.7399417,151.258626 C38.2875461,148.168144 36.3637175,144.703409 34.8246546,141.250248 C33.2855918,137.789371 32.1351811,134.332352 31.2684866,131.172421 C30.4095652,127.997057 29.7410834,125.130355 29.2785872,122.730505 C29.1138075,121.802547 28.9559564,120.945664 28.8032534,120.172228 Z M0,169.008959 C0.0153231766,148.559477 10.9109992,130.8611 27.1772467,121.110447 C27.1302488,121.685503 27.0883969,122.299177 27.0554964,122.950427 C26.9116951,125.485316 26.806759,128.598948 27.0088581,132.194865 C27.2070708,135.798499 27.7278648,139.888275 28.8122045,144.290573 C29.9082038,148.66972 31.6105006,153.372963 34.1911515,157.809985 C36.7718023,162.239291 40.1608498,166.394658 44.1289892,169.739787 C46.0955695,171.433571 48.1981781,172.957592 50.3785172,174.277124 C52.5433101,175.635238 54.7936066,176.815872 57.0788817,177.819025 C61.641659,179.917929 66.3560106,181.345492 71.0042914,182.572425 C75.6681182,183.726051 80.2891933,184.659755 84.7820132,185.442986 C87.0089905,185.83653 89.2243083,186.222358 91.4007608,186.604328 C93.5461212,187.009447 95.6603893,187.418425 97.7396788,187.808111 C101.847733,188.676224 105.730369,189.629219 109.208806,190.948751 C112.695017,192.260566 115.784802,193.904193 118.291609,195.999239 C123.406273,200.085158 125.998583,206.20439 127.257816,210.75716 C127.572625,211.906927 127.836908,212.944805 128.027348,213.863075 C128.248879,214.769771 128.416,215.58001 128.517049,216.247492 C128.754127,217.567024 128.882383,218.269231 128.882383,218.269231 C128.882383,218.269231 129.010638,217.563166 129.255489,216.255209 C129.348765,215.591585 129.519772,214.800637 129.737417,213.87465 C129.93563,212.948663 130.2038,211.906927 130.518608,210.761018 C131.163771,208.484633 132.112083,205.82242 133.553982,203.202648 C135.015315,200.602167 136.923597,198.044128 139.477043,196.014672 C141.987736,193.919627 145.085294,192.272141 148.555959,190.964184 C152.046056,189.644652 155.920919,188.687799 160.025086,187.831261 C162.112149,187.433858 164.222531,187.02488 166.364004,186.619761 C168.54823,186.233933 170.759661,185.844247 172.982752,185.450702 C177.475572,184.667471 182.096647,183.733768 186.752701,182.572425 C191.412641,181.345492 196.126993,179.906354 200.681997,177.80745 C202.967272,176.808155 205.213682,175.612089 207.390135,174.261691 C209.566587,172.942159 211.669196,171.421997 213.624116,169.724353 C217.592256,166.379225 220.989076,162.223857 223.558068,157.794552 C226.150378,153.361389 227.844902,148.654287 228.940901,144.282856 C230.021354,139.888275 230.542148,135.79464 230.748134,132.194865 C230.950233,128.591232 230.849184,125.485316 230.709269,122.938852 C230.646103,121.716071 230.551855,120.632585 230.451995,119.689657 C248.019803,129.108661 259.983802,147.600386 260,168.934304 C260,199.841359 234.926273,224.925345 204.031859,224.925345 L55.9681412,224.925345 L55.9681412,225 C25.0643992,225 0,199.916013 0,169.008959 Z M128.88041,190.224359 C128.88041,190.224359 128.965658,189.755477 129.128403,188.884137 C129.190402,188.45042 129.291149,187.922928 129.44227,187.31338 C129.566267,186.696018 129.736762,186.004417 129.938257,185.24639 C130.360621,183.738152 130.972855,181.972028 131.906705,180.233255 C132.85218,178.51402 134.099897,176.814321 135.758354,175.466284 C137.378061,174.079173 139.393008,172.989021 141.648198,172.121589 C143.903389,171.246342 146.414323,170.61335 149.080252,170.042877 C150.436467,169.781084 151.800431,169.515384 153.191519,169.245776 C154.605857,168.991798 156.039569,168.726098 157.484906,168.468213 C160.391079,167.948535 163.386375,167.331173 166.42042,166.561424 C169.431216,165.744787 172.484635,164.787486 175.441183,163.400375 C176.925268,162.736125 178.378355,161.939025 179.784943,161.040333 C181.195406,160.168994 182.563245,159.160896 183.834211,158.031671 C186.399394,155.820109 188.600336,153.065424 190.270417,150.127094 C191.944373,147.184857 193.040969,144.070696 193.757825,141.167532 C194.459181,138.252646 194.796297,135.540942 194.924169,133.153549 C195.055916,130.766156 194.993917,128.706981 194.904794,127.019004 C194.819547,125.323212 194.652926,124.029878 194.532804,123.150724 C194.408808,122.263754 194.350684,121.794872 194.350684,121.794872 C194.350684,121.794872 194.269311,122.263754 194.114315,123.142909 C194.048442,123.576625 193.955445,124.119747 193.858572,124.752739 C193.726826,125.374008 193.598954,126.089054 193.463332,126.882246 C193.164965,128.472539 192.738727,130.375421 192.176866,132.477577 C191.615006,134.583641 190.867151,136.869443 189.867427,139.166967 C188.867704,141.460583 187.627736,143.758108 186.035153,145.809468 C184.454195,147.872551 182.555495,149.697285 180.373928,151.228968 C178.20786,152.764558 175.755049,154.011004 173.143368,155.042545 C170.531687,156.074087 167.76501,156.91026 164.92471,157.633121 C162.092159,158.406777 159.178236,159.020231 156.291437,159.743092 C153.393014,160.426879 150.50234,161.204442 147.696914,162.146115 C144.875988,163.083879 142.14031,164.236549 139.621627,165.744787 C137.102943,167.256933 134.789629,169.155907 133.014926,171.445617 C131.209223,173.704067 130.042879,176.333716 129.380272,178.693758 C129.151653,179.50258 129.000532,180.272329 128.876535,181.014726 C128.756413,180.272329 128.601417,179.50258 128.372798,178.701573 C127.706316,176.345438 126.543846,173.711882 124.738144,171.457339 C122.963441,169.163722 120.657877,167.264748 118.143068,165.760417 C115.61276,164.248271 112.880957,163.095602 110.071656,162.153929 C107.25848,161.212257 104.367806,160.442508 101.473257,159.746999 C98.5787085,159.028046 95.6725351,158.406777 92.8361099,157.633121 C89.9996847,156.91026 87.2330076,156.062365 84.6213264,155.038638 C82.0135202,153.991467 79.5607098,152.764558 77.3946419,151.217246 C75.2091995,149.685563 73.3143745,147.853014 71.7334161,145.793839 C70.1485829,143.750293 68.8969909,141.452769 67.8972673,139.163059 C66.9052934,136.865535 66.1535632,134.575826 65.591703,132.477577 C65.0375926,130.371513 64.6036041,128.468632 64.3052369,126.878339 C64.1696155,126.081239 64.037869,125.366193 63.9061225,124.741017 C63.8053751,124.111933 63.7201274,123.56881 63.6503792,123.142909 C63.4992582,122.263754 63.4140104,121.794872 63.4140104,121.794872 C63.4140104,121.794872 63.355887,122.263754 63.2318902,123.150724 C63.1156433,124.033786 62.9412729,125.338842 62.8599,127.019004 C62.7669025,128.703073 62.7010292,130.766156 62.8327758,133.153549 C62.9606474,135.54485 63.2977635,138.256553 64.0029949,141.175347 C64.7121012,144.074603 65.8125722,147.188764 67.490403,150.134909 C69.160484,153.073239 71.3575511,155.827923 73.9343581,158.043393 C75.2053246,159.172618 76.5731636,160.176808 77.9797515,161.052055 C79.3902143,161.958562 80.8471759,162.74394 82.323512,163.404282 C85.2878089,164.799208 88.3412284,165.744787 91.3558989,166.561424 C94.3821941,167.331173 97.3774902,167.94072 100.287538,168.460398 C101.732875,168.718284 103.166588,168.983984 104.580925,169.234054 C105.972014,169.503662 107.335978,169.773269 108.692192,170.031155 C111.354247,170.601628 113.869055,171.234619 116.128121,172.109867 C118.383312,172.973392 120.390509,174.067451 122.017966,175.454562 C125.327128,178.170172 127.008834,182.226006 127.826438,185.24639 C128.031807,186.008324 128.202303,186.696018 128.326299,187.305566 C128.469671,187.907298 128.578168,188.442606 128.636291,188.880229 C128.799037,189.755477 128.88041,190.224359 128.88041,190.224359 Z M128.88041,190.224359" id="cloud2" fill="#000000"></path>
    </g>
</svg>