<?xml version="1.0" encoding="UTF-8" standalone="no"?>
<svg width="64px" height="64px" viewBox="0 0 64 64" version="1.1" xmlns="http://www.w3.org/2000/svg" xmlns:xlink="http://www.w3.org/1999/xlink" xmlns:sketch="http://www.bohemiancoding.com/sketch/ns">
    <title>Slice 1</title>
    <description>Created with Sketch (http://www.bohemiancoding.com/sketch)</description>
    <defs></defs>
    <g id="Page-1" stroke="none" stroke-width="1" fill="none" fill-rule="evenodd" sketch:type="MSPage">
        <path d="M19,40 L19,12 C19,8.687 21.687,6 25,6 L49,6" id="Stroke-5047" stroke="#000000" stroke-linecap="round" stroke-linejoin="round" sketch:type="MSShapeGroup"></path>
        <path d="M26,16 L37,16" id="Stroke-5048" stroke="#000000" stroke-linecap="round" stroke-linejoin="round" sketch:type="MSShapeGroup"></path>
        <path d="M26,22 L37,22" id="Stroke-5049" stroke="#000000" stroke-linecap="round" stroke-linejoin="round" sketch:type="MSShapeGroup"></path>
        <path d="M26,28 L37,28" id="Stroke-5050" stroke="#000000" stroke-linecap="round" stroke-linejoin="round" sketch:type="MSShapeGroup"></path>
        <path d="M26,34 L37,34" id="Stroke-5051" stroke="#000000" stroke-linecap="round" stroke-linejoin="round" sketch:type="MSShapeGroup"></path>
        <path d="M39,52 L15,52 C11.687,52 9,49.314 9,46 C9,42.687 11.687,40 15,40 L39,40 C35.687,40 33,42.687 33,46 C33,49.314 35.687,52 39,52 C42.313,52 45,49.314 45,46 L45,11 C45,8.238 47.237,6 50,6 C52.761,6 55,8.238 55,12 L45,12" id="Stroke-5052" stroke="#000000" stroke-linecap="round" stroke-linejoin="round" sketch:type="MSShapeGroup"></path>
    </g>
</svg>