<?xml version="1.0" encoding="UTF-8" standalone="no"?>
<svg width="260px" height="260px" viewBox="0 0 260 260" version="1.1" xmlns="http://www.w3.org/2000/svg" xmlns:xlink="http://www.w3.org/1999/xlink" xmlns:sketch="http://www.bohemiancoding.com/sketch/ns">
    <title>Slice 1</title>
    <description>Created with Sketch (http://www.bohemiancoding.com/sketch)</description>
    <defs></defs>
    <g id="Page 1" stroke="none" stroke-width="1" fill="none" fill-rule="evenodd">
        <path d="M129.656194,66 C141.086758,66 150.368208,75.3398303 150.368208,86.8658025 C150.368208,98.3917747 141.086758,107.734239 129.656194,107.734239 C118.204715,107.734239 108.931108,98.3917747 108.931108,86.8658025 C108.931108,75.3398303 118.204715,66 129.656194,66 L129.656194,66 Z M159.997386,206 L100,206 L100,195.669821 L108.737636,195.669821 C109.992592,195.669821 111.020088,194.626794 111.020088,193.34935 L111.020088,126.782646 C111.020088,125.507836 110.00305,124.462175 108.737636,124.462175 L100,124.462175 L100,114.466502 L148.279228,114.466502 L148.279228,192.343198 C148.279228,194.176396 149.314567,195.669821 150.582596,195.669821 L160,195.669821 L160,206 L159.997386,206 Z M159.997386,206" id="Shape" fill="#000000"></path>
    </g>
</svg>