<?xml version="1.0" encoding="utf-8"?>
<!-- Generator: Adobe Illustrator 16.0.0, SVG Export Plug-In . SVG Version: 6.00 Build 0)  -->
<!DOCTYPE svg PUBLIC "-//W3C//DTD SVG 1.1//EN" "http://www.w3.org/Graphics/SVG/1.1/DTD/svg11.dtd">
<svg version="1.1" id="Layer_1" xmlns="http://www.w3.org/2000/svg" xmlns:xlink="http://www.w3.org/1999/xlink" x="0px" y="0px"
	 width="512px" height="512px" viewBox="0 0 512 512" enable-background="new 0 0 512 512" xml:space="preserve">
<path d="M352,0c-88.365,0-160,71.634-160,160c0,10.013,0.929,19.808,2.688,29.312L0,384v96c0,17.673,14.327,32,32,32h32v-32h64v-64
	h64v-64h64l41.521-41.521C314.526,316.637,332.869,320,352,320c88.365,0,160-71.634,160-160S440.365,0,352,0z M399.938,160.063
	c-26.511,0-48-21.49-48-48s21.489-48,48-48c26.51,0,48,21.49,48,48S426.447,160.063,399.938,160.063z"/>
</svg>
