<?xml version="1.0" encoding="utf-8"?>
<!-- Generator: Adobe Illustrator 16.0.0, SVG Export Plug-In . SVG Version: 6.00 Build 0)  -->
<!DOCTYPE svg PUBLIC "-//W3C//DTD SVG 1.1//EN" "http://www.w3.org/Graphics/SVG/1.1/DTD/svg11.dtd">
<svg version="1.1" id="Layer_1" xmlns="http://www.w3.org/2000/svg" xmlns:xlink="http://www.w3.org/1999/xlink" x="0px" y="0px"
	 width="512px" height="512px" viewBox="0 0 512 512" enable-background="new 0 0 512 512" xml:space="preserve">
<path d="M224.103,319.798h-47.848v-0.967c-5.264,0.515-10.544,0.967-15.949,0.967c-88.076,0-159.488-71.396-159.488-159.488
	C0.818,72.216,72.23,0.82,160.306,0.82c88.062,0,159.489,71.396,159.489,159.489v63.794h15.949v15.948h15.949v15.95h15.949v15.949
	h15.949v15.948h15.949v15.947h15.947v15.949h15.949v15.948h15.949v15.949h15.949v15.948h15.949v15.948h15.949v15.949h15.947v31.897
	v63.796c0,8.814-7.133,15.947-15.947,15.947H431.44c-8.832,0-15.949-7.133-15.949-15.947v-63.796h-15.949h-15.949h-47.846
	c-8.816,0-15.949-7.134-15.949-15.949v-63.795h-63.796h-15.948 M128.411,64.615c-35.231,0-63.796,28.564-63.796,63.795
	c0,35.231,28.564,63.796,63.796,63.796c35.229,0,63.795-28.563,63.795-63.796C192.205,93.18,163.64,64.615,128.411,64.615z"/>
</svg>
