<?xml version="1.0" encoding="UTF-8" standalone="no"?>
<svg width="260px" height="310px" viewBox="0 0 260 310" version="1.1" xmlns="http://www.w3.org/2000/svg" xmlns:xlink="http://www.w3.org/1999/xlink" xmlns:sketch="http://www.bohemiancoding.com/sketch/ns">
    <title>url-1</title>
    <description>Created with Sketch (http://www.bohemiancoding.com/sketch)</description>
    <defs></defs>
    <g id="Page 1" stroke="none" stroke-width="1" fill="none" fill-rule="evenodd">
        <g id="Group" transform="translate(0.000000, 20.000000)">
            <path d="M173.855422,222.409639 L136.26506,222.409639 L136.26506,64.2168675 L173.855422,64.2168675 L173.855422,222.409639 Z M220.843373,217.541848 C218.915174,219.476082 216.693064,221.122415 214.248893,222.409639 L183.253012,222.409639 L183.253012,123.73494 L220.843373,123.73494 L220.843373,217.541848 Z M125.301205,222.409639 L87.7108434,222.409639 L87.7108434,144.096386 L125.301205,144.096386 L125.301205,222.409639 Z M78.313253,176.987952 L78.313253,221.067267 C59.144632,213.532753 44.4862211,197.143798 39.4676752,176.987952 L78.313253,176.987952 Z M78.313253,176.987952" id="Rectangle 1" fill="#000000"></path>
            <path d="M172.289157,0 C220.73052,0 260,39.2694798 260,87.7108434 C260,88.2321005 259.995453,88.7522955 259.986396,89.2713911 C259.99545,89.3725206 260,223.105335 260,223.105335 C260,243.47645 243.456109,260 223.052588,260 L89.3464354,260 C88.6286017,259.99647 88.1701348,260 87.7108434,260 C39.2694798,260 0,220.73052 0,172.289157 C0,124.878536 37.616095,86.2536304 84.6313622,84.6313623 C86.2536304,37.616095 124.878536,0 172.289157,0 Z M172.289157,0" id="Oval 1" stroke="#000000" stroke-width="15"></path>
        </g>
    </g>
</svg>