<?xml version="1.0" encoding="utf-8"?>
<!-- Generator: Adobe Illustrator 16.0.0, SVG Export Plug-In . SVG Version: 6.00 Build 0)  -->
<!DOCTYPE svg PUBLIC "-//W3C//DTD SVG 1.1//EN" "http://www.w3.org/Graphics/SVG/1.1/DTD/svg11.dtd">
<svg version="1.1" id="Layer_1" xmlns="http://www.w3.org/2000/svg" xmlns:xlink="http://www.w3.org/1999/xlink" x="0px" y="0px"
	 width="16px" height="16px" viewBox="0 0 16 16" enable-background="new 0 0 16 16" xml:space="preserve">
<g>
	<defs>
		<rect id="SVGID_1_" width="16" height="16"/>
	</defs>
	<clipPath id="SVGID_2_">
		<use xlink:href="#SVGID_1_"  overflow="visible"/>
	</clipPath>
	<path clip-path="url(#SVGID_2_)" fill="#1D1D1B" d="M15.084,7.144c-1.193-0.597-3.389-0.688-4.971-0.666
		C10.25,5.161,10.664,3.542,10,2.391c-0.5-0.866-2.181-2-2.181-1c0,0.937-0.719,5.022-3.277,5.533L4.001,6.977v7
		c0,0,1.478,2.084,4.75,2.084c3.274,0,3.909,0.25,5.001-1.75C14.842,12.311,16.35,7.775,15.084,7.144"/>
	<path clip-path="url(#SVGID_2_)" fill="#1D1D1B" d="M2,6.977H0v9h2c0.553,0,1-0.447,1-1v-7C3,7.425,2.553,6.977,2,6.977 M2,14.977
		H1v-1h1V14.977z"/>
</g>
</svg>
