<?xml version="1.0" encoding="UTF-8" standalone="no"?>
<svg width="63px" height="57px" viewBox="0 0 63 57" version="1.1" xmlns="http://www.w3.org/2000/svg" xmlns:xlink="http://www.w3.org/1999/xlink" xmlns:sketch="http://www.bohemiancoding.com/sketch/ns">
    <title>Slice 1</title>
    <description>Created with Sketch (http://www.bohemiancoding.com/sketch)</description>
    <defs></defs>
    <g id="Page-1" stroke="none" stroke-width="1" fill="none" fill-rule="evenodd" sketch:type="MSPage">
        <g id="-🔑-+-Path" sketch:type="MSLayerGroup" transform="translate(1.000000, 0.000000)" fill="#32ADCF">
            <path d="M39.4958651,37.1793253 C39.6209592,37.2114082 38.2335659,36.856116 37.8562215,36.7589257 C36.7189146,36.4659967 35.8685908,36.241032 35.0813185,36.0221058 L34.82058,35.9495991 L34.6172946,36.1282521 L23.7840595,45.6488096 L24.1225354,45.5244552 L20.000013,45.4551049 L19.8005991,45.4517503 L19.6536227,45.5865653 L10.0451324,54.4000161 L9.93146658,54.5539722 C9.62085768,55.2079443 8.24352436,55.6629948 7.06329324,55.4331031 L1.9114287,55.0967466 C1.5081168,55.1080788 0.813450614,54.404961 0.68591883,53.9711297 L0.7026266,54.1719537 L1.54843409,47.1516539 C1.67378068,46.045405 2.4476638,44.633852 3.37119528,43.8728318 L26.2710477,24.1173272 L26.5121846,23.9092987 L26.4256128,23.6028216 C26.1477011,22.6189736 25.9571654,21.4552109 25.8338546,20.0993451 C25.7210795,18.8593248 25.6879187,18.0281995 25.6313185,15.7612772 C25.6258094,15.5406303 25.6214819,15.3760289 25.6170094,15.2205035 C26.5888931,6.69078261 35.0305409,0.960718328 44.5076561,1.26431499 C54.3234819,2.37864291 61.1152731,10.6939454 60.4270114,20.6541904 C59.1776309,30.7407945 52.2562588,38.5864058 43.655394,38.3334145 C43.0932876,38.1352828 42.2266085,37.8918247 41.0739856,37.5882839 C40.6228835,37.4694871 40.1467149,37.3462486 39.4958651,37.1793253 Z M44.5799826,0.267753126 C34.5848138,-0.054073392 25.6603698,6.00370573 24.6203974,15.1785619 C24.6218521,15.4032784 24.6261498,15.5667442 24.6316301,15.7862373 C24.6888075,18.0762798 24.7224711,18.9200047 24.8379648,20.1899174 C24.9664058,21.6021932 25.1663884,22.8236562 25.4632695,23.8746587 L25.6178345,23.3601531 L2.72661937,43.108375 C1.612672,44.0261387 0.709521576,45.6734737 0.555202377,47.0355582 L-0.290193723,54.0523385 L-0.273485953,54.2531625 C-0.0311463643,55.0775411 1.0045492,56.1258375 1.89629453,56.0954194 L6.93551757,56.4228428 C8.45510709,56.723002 10.2974256,56.1143274 10.834759,54.9829976 L10.7210932,55.1369537 L20.3295835,46.3235029 L19.9831931,46.4549634 L24.1057155,46.5243137 L24.2989915,46.5275651 L24.4441914,46.3999593 L35.2774265,36.8794018 L34.8134026,36.9855481 C35.6080253,37.2065183 36.463837,37.4329349 37.6067982,37.7273203 C37.9849331,37.8247141 39.3731642,38.1802209 39.2474357,38.1479753 C39.8963818,38.3144103 40.370705,38.4371712 40.8193205,38.5553132 C41.9573675,38.8550155 42.8102441,39.0945963 43.4896852,39.3098498 C52.8117535,39.603178 60.1126518,31.3273609 61.4220343,20.7500858 C62.1495029,10.2330947 54.9721738,1.44577183 44.5799826,0.267753126 Z" id="-🔑" sketch:type="MSShapeGroup"></path>
            <path d="M39.3725034,11.8169609 C38.5176785,12.9523556 38.5185109,14.1497036 39.2116451,15.5852446 C39.4762799,16.1333261 39.8278638,16.7045157 40.3729787,17.5024333 C40.3478623,17.4656688 41.4930527,19.1131915 41.8296271,19.6218161 C41.9498138,19.8034398 42.0640232,19.9795015 42.1739417,20.152902 L42.2374116,20.2334005 C42.3388,20.3378859 42.4412768,20.4452507 42.5457268,20.5563282 C42.5583226,20.5697232 44.9030447,23.1978388 45.5451203,23.7916337 C47.339407,25.4509994 48.9808479,25.7959918 51.0279218,24.5759302 L51.1583887,24.4636906 C54.4505293,20.4535961 55.0400905,14.8942351 52.6353885,10.8177148 L52.5537719,10.7137431 C49.0736908,7.32088147 43.9285541,7.22202111 40.4461386,10.7724021 C40.0292178,11.0797888 39.6546838,11.4421635 39.3725034,11.8169609 Z M50.3854861,23.8291658 L50.515953,23.7169262 C48.8902313,24.6858607 47.7186184,24.4396151 46.2240852,23.057463 C45.623581,22.5021135 43.3173597,19.9171521 43.2742326,19.8712885 C43.1662841,19.7564906 43.0602038,19.6453504 42.9550745,19.5370098 L43.0185444,19.6175083 C42.9049982,19.4383852 42.787249,19.2568666 42.6635709,19.0699668 C42.3195094,18.5500277 41.1678733,16.893232 41.1986854,16.9383335 C40.6794913,16.1783579 40.3501203,15.6432558 40.1121687,15.1504373 C39.568541,14.0245375 39.5679816,13.219901 40.1713946,12.4184365 C40.3936866,12.1231841 40.7018129,11.8250611 41.1040955,11.5217678 C44.2467254,8.32572084 48.76082,8.41245616 51.8556947,11.4297656 L51.7740781,11.3257939 C53.9594362,15.0304761 53.4180873,20.1352115 50.3854861,23.8291658 Z" id="Path" sketch:type="MSShapeGroup"></path>
        </g>
    </g>
</svg>