<?xml version="1.0" encoding="UTF-8" standalone="no"?>
<svg width="260px" height="260px" viewBox="0 0 260 260" version="1.1" xmlns="http://www.w3.org/2000/svg" xmlns:xlink="http://www.w3.org/1999/xlink" xmlns:sketch="http://www.bohemiancoding.com/sketch/ns">
    <title>Slice 1</title>
    <description>Created with Sketch (http://www.bohemiancoding.com/sketch)</description>
    <defs></defs>
    <g id="Page 1" stroke="none" stroke-width="1" fill="none" fill-rule="evenodd">
        <path d="M260,38.994933 L260,221.005067 C260,242.536944 242.541374,260 221.005067,260 L38.994933,260 C17.4630556,260 0,242.541374 0,221.005067 L0,38.994933 C0,17.4630556 17.4586262,0 38.994933,0 L221.005067,0 C242.536944,0 260,17.4586262 260,38.994933 Z M2,60 L258,60 L258,202 L2,202 L2,60 Z M87.1745541,178.955945 C89.1169422,179.290171 90.6262703,179.307483 90.6755922,178.996077 C90.7232912,178.694917 91.5013463,178.565747 92.4046464,178.708816 C93.3079465,178.851884 94.0860175,178.722614 94.1337006,178.421555 C94.1814036,178.12037 94.5829052,177.93156 95.0259818,178.001736 C96.7860259,178.2805 102.414702,176.319237 104.822952,174.588055 C106.653787,173.271951 107.402495,172.351766 107.479202,171.323158 C107.537975,170.535389 107.427084,169.865659 107.23245,169.834832 C107.037967,169.804029 106.903225,168.608762 106.933047,167.178694 C106.962845,165.748621 106.813371,164.273018 106.600854,163.899623 C106.388314,163.526199 106.210793,162.210085 106.206643,160.974957 C106.189207,155.946668 106.105833,155.067194 105.639541,154.99334 C105.371308,154.950857 105.288552,154.053957 105.455447,153.000225 C105.622337,151.946518 105.512539,151.045335 105.211447,150.997647 C104.910229,150.949939 104.800527,150.048797 104.967422,148.995065 C105.134313,147.941358 105.517219,147.118212 105.818335,147.165904 C106.119528,147.213608 106.315867,147.567743 106.25487,147.952866 C106.193872,148.337989 106.580428,149.086221 107.11387,149.615613 C107.647342,150.144983 108.043635,150.831734 107.994537,151.141731 C107.945438,151.451728 108.71995,152.939354 109.715677,154.447565 C110.711409,155.955751 111.495591,157.382325 111.458307,157.617724 C111.421027,157.853098 112.318493,159.361799 113.452645,160.97039 C114.586796,162.578981 115.486912,164.070785 115.452859,164.285791 C115.418821,164.500696 116.311046,166.042324 117.435571,167.711691 C118.5601,169.381033 119.444463,170.972463 119.400792,171.248195 C119.357116,171.523951 119.690916,171.808059 120.142554,171.879592 C120.594191,171.951124 120.922888,172.267613 120.872952,172.582896 C120.823016,172.89818 121.689856,174.42425 122.799278,175.974187 C124.607556,178.500409 125.077785,178.83361 127.340303,179.191958 C128.728427,179.411815 129.898058,179.377802 129.939461,179.116396 C130.007923,178.684143 131.002369,178.605531 136.61699,178.588502 C137.62058,178.585459 138.471891,178.392378 138.508816,178.159244 C138.545728,177.926187 140.247041,177.819782 142.28948,177.922872 C146.329901,178.126684 148.129484,177.650789 148.339811,176.322836 C148.41417,175.853347 148.782717,175.245693 149.158766,174.972486 C149.939957,174.405027 153.042027,155.572217 152.547856,154.397575 C152.147565,153.44615 152.698434,145.553121 153.84344,135.834419 C154.352047,131.517174 154.544971,127.94951 154.272105,127.906292 C153.999315,127.863087 154.107596,125.733946 154.51291,123.174894 C154.918224,120.615842 155.3907,118.544358 155.562673,118.571595 C156.291382,118.687012 157.178242,120.519341 157.012348,121.566754 C156.913572,122.190398 157.079109,122.739665 157.380201,122.787354 C157.681418,122.835062 157.857098,123.319636 157.770844,123.864226 C157.684593,124.408791 157.899984,125.389824 158.249494,126.044235 C158.599001,126.698671 158.82402,127.666338 158.750644,128.194799 C158.676765,128.72318 158.862698,129.194513 159.16379,129.242201 C159.464982,129.289905 159.594191,130.067885 159.451138,130.971087 C159.308089,131.874264 159.437399,132.652259 159.73849,132.699947 C160.039708,132.747655 160.168913,133.52566 160.025864,134.428837 C159.882811,135.332039 159.97838,136.10469 160.238279,136.145854 C160.498152,136.187014 160.927622,137.706938 161.192674,139.523472 C161.4577,141.340002 161.812193,142.974303 161.980464,143.155286 C162.148714,143.33624 162.457612,144.584562 162.666883,145.929344 C162.876183,147.274105 163.254317,148.407141 163.507241,148.4472 C163.760089,148.487248 163.889033,149.01268 163.793663,149.614823 C163.698297,150.216941 163.866617,150.748636 164.167709,150.796324 C164.468901,150.844028 164.660272,151.229533 164.59319,151.653075 C164.526107,152.076617 164.936596,154.139915 165.505366,156.238192 C166.074161,158.336473 166.372239,160.174755 166.167781,160.323285 C165.963332,160.471921 166.083475,160.638829 166.434749,160.694465 C166.786048,160.750105 166.975928,161.411467 166.85672,162.164115 C166.737509,162.916788 166.886325,163.57162 167.187417,163.619308 C167.488609,163.667012 167.656833,164.198666 167.561463,164.800809 C167.466096,165.402927 167.572676,165.925669 167.798361,165.962524 C168.024025,165.99935 168.724631,167.499091 169.355259,169.295303 C169.98589,171.091489 170.695244,172.591738 170.931676,172.629186 C171.168082,172.666629 171.302937,173.066745 171.231408,173.518358 C171.159883,173.969947 171.347715,174.378454 171.648806,174.426142 C171.949999,174.473846 172.120523,174.990973 172.027968,175.575342 C171.935417,176.159685 172.081929,176.82907 172.353578,177.062815 C172.625298,177.296598 172.77171,177.965966 172.679159,178.55031 C172.586604,179.134679 172.757229,179.651821 173.05832,179.69951 C173.359513,179.747214 173.515686,180.35495 173.405589,181.05007 C173.295493,181.745189 173.491381,182.849361 173.840913,183.503801 C174.190398,184.158207 174.432162,185.020314 174.379222,185.419746 C174.221071,186.601606 175.49589,187.941312 177.006233,188.180526 C177.78049,188.303157 178.452985,188.157165 178.500668,187.856106 C178.548371,187.554921 179.560542,187.462831 180.749952,187.651215 C182.118083,187.867906 183.132612,187.714483 183.511563,187.233594 C183.867945,186.781288 185.284386,186.519409 187.008968,186.587125 C188.913482,186.661815 189.947849,186.445388 190.025367,185.95596 C190.090252,185.54629 190.636043,185.289154 191.238226,185.38453 C192.218448,185.539782 192.679155,185.029801 192.679743,183.789204 C192.680057,183.065625 195.318,183.748378 195.473172,184.512198 C195.568654,184.982134 195.832817,184.887836 196.224567,184.24401 C196.609582,183.611248 196.60679,183.135914 196.216869,182.933503 C195.880371,182.758832 195.6798,182.14378 195.771195,181.566737 C195.862589,180.989695 195.691016,180.478544 195.389924,180.430856 C195.088832,180.383168 194.903403,179.911915 194.976778,179.383454 C195.050658,178.855073 194.825135,177.887326 194.475625,177.232915 C194.126118,176.578479 193.910724,175.597471 193.996978,175.052881 C194.083233,174.508291 193.907452,174.023701 193.60636,173.976013 C193.305143,173.928304 193.134615,173.411203 193.22717,172.826834 C193.319725,172.242465 193.173212,171.573081 192.901589,171.339339 C192.629868,171.105557 192.465577,170.549079 192.536284,170.102652 C192.606991,169.656224 192.255888,168.68415 191.756048,167.942441 C191.256229,167.200762 190.936133,166.032916 191.044734,165.347238 C191.153335,164.661559 191.015813,163.235491 190.739151,162.178168 C190.462485,161.120871 190.20216,159.573695 190.160501,158.739979 C190.118893,157.90627 189.774179,156.796567 189.394423,156.273967 C189.014695,155.751346 188.764101,154.944179 188.837583,154.480229 C188.911066,154.016279 188.653072,152.757979 188.264242,151.684001 C187.875412,150.610023 187.342636,148.245869 187.080291,146.430332 C186.817947,144.614795 186.401587,142.955881 186.155099,142.74367 C185.908626,142.531539 185.819356,141.64806 185.956778,140.780406 C186.094205,139.912728 185.984402,139.01157 185.712779,138.777828 C185.441033,138.544042 185.333636,137.628348 185.473874,136.74292 C185.614112,135.857492 185.482497,135.094049 185.181405,135.046361 C184.880213,134.998657 184.729196,134.358367 184.845593,133.623469 C184.961989,132.888571 184.834984,132.096023 184.563335,131.862278 C184.291615,131.628495 184.184213,130.712826 184.324451,129.827399 C184.464689,128.941971 184.333079,128.178502 184.031987,128.130814 C183.730895,128.083126 183.545466,127.611873 183.618841,127.083412 C183.692721,126.555031 183.467198,125.587284 183.117692,124.932848 C182.768181,124.278437 182.5895,123.06563 182.720622,122.237755 C182.851749,121.409856 182.736794,120.541226 182.465145,120.30748 C182.193421,120.073723 182.064216,119.295718 182.177797,118.578594 C182.291378,117.861471 182.162072,117.08345 181.890449,116.849709 C181.618699,116.615947 181.491795,115.823416 181.608191,115.088518 C181.724588,114.35362 181.573466,113.713339 181.272374,113.665651 C180.971182,113.617947 180.841973,112.839968 180.985026,111.936765 C181.128079,111.033563 180.998769,110.255568 180.697678,110.20788 C180.396611,110.160195 180.197264,109.812991 180.255208,109.436391 C180.312976,109.059764 180.143357,108.086006 179.878281,107.272494 C179.613209,106.458956 179.222754,104.692707 179.010613,103.34747 C178.798467,102.002259 178.417971,100.868823 178.165046,100.828763 C177.912198,100.788716 177.783254,100.263284 177.87862,99.6611658 C177.97399,99.0590225 177.805666,98.527353 177.504575,98.4796647 C177.203382,98.4319606 177.074173,97.6539813 177.217226,96.7507791 C177.360276,95.847602 177.278378,95.0771162 177.0354,95.0386322 C176.792346,95.0001363 176.4188,93.1683545 176.205301,90.9679892 C175.991823,88.7676531 175.623381,86.8004913 175.386519,86.5967728 C175.149622,86.3929457 175.051105,85.624886 175.167501,84.8899878 C175.283898,84.1550895 175.132776,83.5148091 174.831659,83.4671169 C174.530467,83.4194127 174.342294,83.0137165 174.413272,82.5655771 C174.53831,81.7761217 174.275694,81.2351955 171.852224,77.2905058 C170.744089,75.4866944 170.564473,75.4089529 165.179924,74.4017927 C156.835577,72.8409126 148.694723,72.659824 147.327435,74.0046984 C146.895087,74.4299787 146.192917,75.9221612 145.767253,77.3206592 C145.341486,78.7191665 144.79792,79.8324722 144.559222,79.7946662 C144.055842,79.7149385 143.115708,82.0260998 142.093139,85.8570155 C141.69798,87.3375107 141.113942,88.747417 140.795299,88.9901271 C140.476602,89.2328544 140.087202,90.2443249 139.929845,91.2378348 C139.772489,92.2313447 139.397386,93.005221 139.096295,92.9575327 C138.795077,92.9098246 138.400226,93.8090447 138.218605,94.9557528 C138.03698,96.1024861 137.450951,97.461571 136.916323,97.975948 C136.377765,98.4941157 135.737269,100.129623 135.481992,101.643603 C135.227731,103.14644 134.090471,107.763907 132.954737,111.904686 C130.149871,122.130832 128.099387,132.523948 128.772445,133.103171 C129.45695,133.691432 129.054006,136.256873 128.297097,136.136991 C127.978078,136.086463 127.90857,135.822949 128.142327,135.551361 C128.376128,135.279651 128.233107,135.004597 127.824551,134.939889 C127.415995,134.87518 126.374154,133.195139 125.50932,131.206469 C124.644515,129.217779 123.72021,127.556354 123.455326,127.514401 C123.190518,127.472459 123.014371,127.1815 123.064051,126.867827 C123.113728,126.55418 122.745423,125.690716 122.245579,124.949033 C121.745764,124.207329 121.407485,123.154287 121.493859,122.608942 C121.580237,122.063571 121.311268,121.563576 120.89614,121.497827 C120.481037,121.432081 119.952286,120.59082 119.721203,119.628361 C119.490095,118.665897 119.084545,117.84415 118.819963,117.802244 C118.555482,117.760355 118.397463,117.35657 118.468988,116.904981 C118.540516,116.453367 118.352685,116.044861 118.051569,115.997168 C117.750376,115.949464 117.562646,115.540973 117.63417,115.089385 C117.705699,114.637771 117.517868,114.229264 117.216776,114.181576 C116.915584,114.133872 116.704423,113.873317 116.747317,113.602495 C116.85528,112.920845 113.932831,106.690314 113.354242,106.368726 C113.095382,106.224856 112.921183,105.871079 112.966888,105.582508 C113.01259,105.293961 112.673741,104.499554 112.213882,103.817162 C111.754019,103.134795 111.136745,101.850224 110.842172,100.96254 C110.547569,100.074876 109.835064,98.7379301 109.258815,97.9915527 C108.682566,97.2451752 108.255381,96.3548619 108.309519,96.0130423 C108.363658,95.6712228 108.203271,95.3591454 107.952991,95.3195049 C107.702786,95.2798764 107.265996,94.5794335 106.982338,93.7629783 C106.698684,92.9464979 106.138718,92.2265459 105.737942,92.1630692 C105.337166,92.0995926 105.048298,91.8013356 105.095981,91.5002765 C105.146994,91.1781952 103.266604,90.6493896 100.529334,90.2158487 C97.7920888,89.7823117 95.8403094,89.7042386 95.7893086,90.0262444 C95.7416096,90.3274041 94.5940262,90.3980464 93.2390634,90.1834413 C91.8841258,89.9688403 90.7365264,90.0395832 90.6888433,90.3406423 C90.6411443,90.641802 89.9862654,90.790481 89.2335111,90.6712564 C88.480782,90.5520358 87.8306164,90.6709563 87.7887192,90.9354844 C87.7188415,91.3766751 87.0300575,91.576297 82.3479677,92.5125006 C80.9576252,92.7904884 80.7079884,93.1232293 80.3919595,95.1185572 C80.1927058,96.3765953 80.2226219,97.6763756 80.458448,98.006905 C80.8659528,98.5780571 80.670262,101.128708 79.0675329,116.13535 C78.6866692,119.7013 78.600803,122.654632 78.8766652,122.698325 C79.1524266,122.742001 79.1241609,124.382238 78.813567,126.34325 C78.5029731,128.304263 78.4050997,130.371926 78.5960706,130.938075 C78.7870416,131.504223 78.9263703,133.858528 78.905686,136.169888 C78.8850017,138.481249 78.8805253,141.889355 78.8957623,143.743487 C78.9109782,145.597591 78.9188062,148.062353 78.9134254,149.220767 C78.9078976,150.379133 79.1021642,151.497938 79.345097,151.707005 C79.5880298,151.916072 79.6502327,152.949261 79.483338,154.002992 C79.3031169,155.140864 79.4239852,155.81669 79.7809435,155.66728 C80.1420204,155.516147 80.2483694,156.2592 80.0474011,157.528064 C79.8633879,158.689878 79.8909465,159.908558 80.1086184,160.236212 C80.3263116,160.563895 80.5848456,162.989831 80.6831818,165.627234 C80.7814968,168.264608 81.0598899,170.694877 81.3018127,171.027817 C81.5437354,171.360758 81.6324218,172.322884 81.4989068,173.165865 C81.3653918,174.008845 81.5025013,174.737595 81.8035929,174.785284 C82.1048105,174.832992 82.3120479,175.11832 82.2643648,175.419379 C82.2166818,175.720438 82.5340057,176.507178 82.9695341,177.167677 C83.5780532,178.09213 84.5456981,178.503444 87.1745541,178.955945 Z M87.1745541,178.955945" id="Rectangle 1" fill="#000000"></path>
    </g>
</svg>