<?xml version="1.0" encoding="utf-8"?>
<!-- Generator: Adobe Illustrator 16.0.0, SVG Export Plug-In . SVG Version: 6.00 Build 0)  -->
<!DOCTYPE svg PUBLIC "-//W3C//DTD SVG 1.1//EN" "http://www.w3.org/Graphics/SVG/1.1/DTD/svg11.dtd">
<svg version="1.1" id="Layer_1" xmlns="http://www.w3.org/2000/svg" xmlns:xlink="http://www.w3.org/1999/xlink" x="0px" y="0px"
	 width="16px" height="16px" viewBox="0 0 16 16" enable-background="new 0 0 16 16" xml:space="preserve">
<polygon fill="#1D1D1B" points="14.551,4.287 13.576,3.254 8.352,7.545 5.963,5.785 5,6.822 7.949,10.252 8.471,10.857 
	9.012,10.271 "/>
<rect x="1" y="1.856" fill="#1D1D1B" width="1" height="2.001"/>
<rect x="1" y="5.857" fill="#1D1D1B" width="1" height="2.001"/>
<rect x="1" y="9.857" fill="#1D1D1B" width="1" height="2"/>
<rect x="1" y="13.857" fill="#1D1D1B" width="2" height="1"/>
<rect x="4" y="1.856" fill="#1D1D1B" width="2.002" height="1.001"/>
<rect x="8" y="1.856" fill="#1D1D1B" width="2" height="1.001"/>
<rect x="9" y="13.857" fill="#1D1D1B" width="2" height="1"/>
<rect x="5" y="13.857" fill="#1D1D1B" width="2" height="1"/>
<rect x="13" y="12.857" fill="#1D1D1B" width="1.001" height="2"/>
<rect x="13" y="8.857" fill="#1D1D1B" width="1.001" height="2"/>
</svg>
