<?xml version="1.0" encoding="UTF-8" standalone="no"?>
<svg width="260px" height="260px" viewBox="0 0 260 260" version="1.1" xmlns="http://www.w3.org/2000/svg" xmlns:xlink="http://www.w3.org/1999/xlink" xmlns:sketch="http://www.bohemiancoding.com/sketch/ns">
    <title>Slice 1</title>
    <description>Created with Sketch (http://www.bohemiancoding.com/sketch)</description>
    <defs></defs>
    <g id="Page 1" stroke="none" stroke-width="1" fill="none" fill-rule="evenodd">
        <path d="M197.286513,54.4943379 L197.286513,22.1356164 C197.286513,10.2177626 187.622969,0.563926941 175.691207,0.563926941 L89.308199,0.563926941 C77.3770314,0.563926941 67.7122984,10.2183562 67.7122984,22.1356164 L67.7122984,54.4949315 L32.6188115,54.4949315 C25.1694084,54.4949315 19.1218194,60.5360731 19.1218194,67.9787215 C19.1218194,75.4201826 25.1694084,81.4613242 32.6188115,81.4613242 L40.7177199,81.4613242 L40.7177199,237.864977 C40.7177199,249.783425 50.3812644,259.436667 62.3130262,259.436667 L202.686974,259.436667 C214.618141,259.436667 224.28228,249.783425 224.28228,237.864977 L224.28228,81.4613242 L232.381188,81.4613242 C239.829997,81.4613242 245.879369,75.4201826 245.879369,67.9787215 C245.878775,60.5354795 239.829403,54.4943379 232.380594,54.4943379 L197.286513,54.4943379 Z M94.7062827,54.4943379 L94.7062827,39.3959361 C94.7062827,32.8169863 100.000374,27.5291324 106.585751,27.5291324 L158.41306,27.5291324 C164.999626,27.5291324 170.291935,32.8175799 170.291935,39.3959361 L170.291935,54.4943379 L94.7062827,54.4943379 Z M94.7062827,221.683836 C94.7062827,227.61516 89.8447984,232.470868 83.9089267,232.470868 C77.973055,232.470868 73.1115707,227.61516 73.1115707,221.683836 L73.1115707,92.2471689 C73.1115707,86.3176256 77.9724607,81.4613242 83.9089267,81.4613242 C89.8453927,81.4613242 94.7062827,86.3176256 94.7062827,92.2471689 L94.7062827,221.683836 Z M143.298545,221.683836 C143.298545,227.61516 138.43706,232.470868 132.5,232.470868 C126.563534,232.470868 121.702644,227.61516 121.702644,221.683836 L121.702644,92.2471689 C121.702644,86.3176256 126.564128,81.4613242 132.5,81.4613242 C138.43706,81.4613242 143.298545,86.3176256 143.298545,92.2471689 L143.298545,221.683836 Z M191.887241,221.683836 C191.887241,227.61516 187.025757,232.470868 181.090479,232.470868 C175.154013,232.470868 170.291935,227.61516 170.291935,221.683836 L170.291935,92.2471689 C170.291935,86.3176256 175.154013,81.4613242 181.090479,81.4613242 C187.026351,81.4613242 191.887241,86.3176256 191.887241,92.2471689 L191.887241,221.683836 Z M191.887241,221.683836" id="Shape" fill="#010101"></path>
    </g>
</svg>