<?xml version="1.0" encoding="UTF-8" standalone="no"?>
<svg width="54px" height="54px" viewBox="0 0 54 54" version="1.1" xmlns="http://www.w3.org/2000/svg" xmlns:xlink="http://www.w3.org/1999/xlink" xmlns:sketch="http://www.bohemiancoding.com/sketch/ns">
    <title>Head</title>
    <description>Created with Sketch (http://www.bohemiancoding.com/sketch)</description>
    <defs></defs>
    <g id="Page-1" stroke="none" stroke-width="1" fill="none" fill-rule="evenodd" sketch:type="MSPage">
        <g id="Home-copy" sketch:type="MSArtboardGroup" transform="translate(-300.000000, -662.000000)" stroke="#00B2CE">
            <g id="Page" sketch:type="MSLayerGroup" transform="translate(297.000000, 188.000000)">
                <g id="Grid" transform="translate(0.000000, 444.000000)" sketch:type="MSShapeGroup">
                    <g id="Login" transform="translate(4.000000, 0.000000)">
                        <g id="Head" transform="translate(0.000000, 31.000000)">
                            <path d="M26.0005161,0 C11.6407742,0 0,11.6405431 0,26 C0,40.3594569 11.6407742,52 26.0005161,52 C40.3602581,52 52,40.3594569 52,26 C52,11.6405431 40.3602581,0 26.0005161,0 L26.0005161,0 Z" id="contacts-copy"></path>
                            <path d="M10,47 C11.4465713,46.1620101 18.1317143,45.0505595 19.520882,44.1825304 C21.0582555,43.222312 20.5645843,37.9675248 20.5645843,37.9675248 L19.520882,37.0611699 C19.520882,37.0611699 19.3110979,34.6549269 18.8028149,33.8241878 C17.9334109,32.4030232 16.7154103,28.6450166 16.7154103,28.6450166 C16.7154103,28.6450166 15.671708,27.8909292 15.671708,26.5733481 C15.671708,25.2557669 16.7154103,24.5016795 16.7154103,24.5016795 C16.7154103,24.5016795 15.9002788,20.8348263 15.9002788,18.286674 C15.9002788,12.493253 20.3401883,10 26.4239288,10 C32.5087131,10 35.8934395,12.9334826 35.8934395,18.286674 C35.8934395,20.8337905 35.5020512,24.5016795 35.5020512,24.5016795 C35.5020512,24.5016795 36.5457534,25.2557669 36.5457534,26.5733481 C36.5457534,27.8909292 35.5020512,28.6450166 35.5020512,28.6450166 C35.5020512,28.6450166 34.4301689,31.8923569 33.4146466,33.8241878 C32.9606361,34.6860019 32.6965795,37.0611699 32.6965795,37.0611699 L31.6528772,37.9675248 C31.6528772,37.9675248 31.1581623,43.222312 32.6965795,44.1825304 C34.0669605,45.0391653 40.4605392,46.1661534 42,47" id="Path"></path>
                        </g>
                    </g>
                </g>
            </g>
        </g>
    </g>
</svg>