<?xml version="1.0" encoding="utf-8"?>
<!-- Generator: Adobe Illustrator 16.0.0, SVG Export Plug-In . SVG Version: 6.00 Build 0)  -->
<!DOCTYPE svg PUBLIC "-//W3C//DTD SVG 1.1//EN" "http://www.w3.org/Graphics/SVG/1.1/DTD/svg11.dtd">
<svg version="1.1" id="Layer_1" xmlns="http://www.w3.org/2000/svg" xmlns:xlink="http://www.w3.org/1999/xlink" x="0px" y="0px"
	 width="16px" height="16px" viewBox="0 0 16 16" enable-background="new 0 0 16 16" xml:space="preserve">
<g>
	<defs>
		<rect id="SVGID_1_" width="16" height="16"/>
	</defs>
	<clipPath id="SVGID_2_">
		<use xlink:href="#SVGID_1_"  overflow="visible"/>
	</clipPath>
	<path clip-path="url(#SVGID_2_)" fill="#1D1D1B" d="M15.002,2H1C0.453,2,0,2.45,0,3v10c0,0.551,0.451,1,1,1h14c0.549,0,1-0.449,1-1
		V3C16.002,2.45,15.551,2,15.002,2 M11.105,8.447l-4.211,2.104C6.401,10.799,6,10.551,6,10V6c0-0.55,0.401-0.799,0.894-0.553
		l4.211,2.105C11.598,7.799,11.598,8.201,11.105,8.447"/>
</g>
</svg>
