<?xml version="1.0" encoding="utf-8"?>
<!-- Generator: Adobe Illustrator 16.0.0, SVG Export Plug-In . SVG Version: 6.00 Build 0)  -->
<!DOCTYPE svg PUBLIC "-//W3C//DTD SVG 1.1//EN" "http://www.w3.org/Graphics/SVG/1.1/DTD/svg11.dtd">
<svg version="1.1" id="Layer_1" xmlns="http://www.w3.org/2000/svg" xmlns:xlink="http://www.w3.org/1999/xlink" x="0px" y="0px"
	 width="16px" height="16px" viewBox="0 0 16 16" enable-background="new 0 0 16 16" xml:space="preserve">
<rect x="11.217" y="9.647" transform="matrix(0.7069 0.7074 -0.7074 0.7069 10.7587 -5.6671)" fill="#1D1D1B" width="2" height="1"/>
<rect x="13.156" y="7.962" fill="#1D1D1B" width="2" height="1"/>
<rect x="12.424" y="2.076" transform="matrix(-0.7071 -0.7071 0.7071 -0.7071 19.8872 14.3899)" fill="#1D1D1B" width="1" height="2"/>
<rect x="8.657" y="1.342" fill="#1D1D1B" width="0.999" height="2.002"/>
<rect x="4.854" y="3.284" transform="matrix(-0.7074 -0.7069 0.7069 -0.7074 7.3199 10.5989)" fill="#1D1D1B" width="2" height="1.001"/>
<path fill="#1D1D1B" d="M7.571,7.723l2.12-2.12l0.708,0.705L8.278,8.43L7.571,7.723z M0.001,13.879L2.121,16l9.691-9.692
	L9.689,4.187L0.001,13.879z"/>
</svg>
