<?xml version="1.0" encoding="utf-8"?>
<!-- Generator: Adobe Illustrator 16.0.0, SVG Export Plug-In . SVG Version: 6.00 Build 0)  -->
<!DOCTYPE svg PUBLIC "-//W3C//DTD SVG 1.1//EN" "http://www.w3.org/Graphics/SVG/1.1/DTD/svg11.dtd">
<svg version="1.1" id="Layer_1" xmlns="http://www.w3.org/2000/svg" xmlns:xlink="http://www.w3.org/1999/xlink" x="0px" y="0px"
	 width="512px" height="512px" viewBox="0 0 512 512" enable-background="new 0 0 512 512" xml:space="preserve">
<path d="M507.882,68.117L448,128l-64-64l59.882-59.883C435.057,1.443,425.698,0,416,0c-53.021,0-96,42.98-96,96
	c0,9.697,1.442,19.057,4.116,27.882L123.882,324.117C115.057,321.443,105.698,320,96,320c-53.021,0-96,42.98-96,96
	c0,9.697,1.442,19.058,4.117,27.882L64,384l64,64l-59.883,59.882C76.943,510.556,86.302,512,96,512c53.02,0,96-42.981,96-96
	c0-9.698-1.444-19.059-4.118-27.883l200.234-200.235C396.943,190.556,406.302,192,416,192c53.02,0,96-42.981,96-96
	C512,86.302,510.556,76.942,507.882,68.117z"/>
</svg>
