<?xml version="1.0" encoding="utf-8"?>
<!-- Generator: Adobe Illustrator 16.0.0, SVG Export Plug-In . SVG Version: 6.00 Build 0)  -->
<!DOCTYPE svg PUBLIC "-//W3C//DTD SVG 1.1//EN" "http://www.w3.org/Graphics/SVG/1.1/DTD/svg11.dtd">
<svg version="1.1" id="Layer_1" xmlns="http://www.w3.org/2000/svg" xmlns:xlink="http://www.w3.org/1999/xlink" x="0px" y="0px"
	 width="16px" height="16px" viewBox="0 0 16 16" enable-background="new 0 0 16 16" xml:space="preserve">
<g>
	<defs>
		<rect id="SVGID_1_" width="16" height="16"/>
	</defs>
	<clipPath id="SVGID_2_">
		<use xlink:href="#SVGID_1_"  overflow="visible"/>
	</clipPath>
	<path clip-path="url(#SVGID_2_)" fill="#1D1D1B" d="M3.021,6c0.267,0,0.521-0.045,0.768-0.111l1.454,1.455l2.121-2.121L5.91,3.768
		C5.975,3.521,6.021,3.268,6.021,3c0-1.656-1.344-3-3-3C2.963,0,2.913,0.04,2.898,0.097C2.883,0.152,2.911,0.212,2.961,0.239
		C3.592,0.574,4.021,1.236,4.021,2c0,1.105-0.896,2-2,2C1.256,4,0.595,3.57,0.26,2.941C0.233,2.889,0.174,2.863,0.118,2.877
		C0.061,2.892,0.021,2.942,0.021,3C0.021,4.658,1.365,6,3.021,6"/>
	<path clip-path="url(#SVGID_2_)" fill="#1D1D1B" d="M13.021,10c-0.269,0-0.521,0.047-0.769,0.111L10.9,8.758l-2.123,2.121
		l1.354,1.355c-0.065,0.246-0.11,0.5-0.11,0.766c0,1.656,1.342,3,3,3c0.057,0,0.106-0.039,0.123-0.096
		c0.014-0.057-0.015-0.115-0.064-0.144c-0.629-0.336-1.059-0.997-1.059-1.762c0-1.104,0.895-2,2-2c0.764,0,1.426,0.431,1.76,1.062
		c0.027,0.051,0.086,0.076,0.143,0.062s0.098-0.063,0.098-0.123C16.021,11.344,14.678,10,13.021,10"/>
	<path clip-path="url(#SVGID_2_)" fill="#1D1D1B" d="M12.33,5.912C12.553,5.965,12.781,6,13.021,6c0.256,0,0.5-0.041,0.737-0.102
		c1.298-0.33,2.263-1.497,2.263-2.898c0-0.058-0.041-0.109-0.099-0.123c-0.057-0.014-0.113,0.012-0.144,0.064
		C15.447,3.57,14.785,4,14.021,4c-0.498,0-0.947-0.188-1.296-0.488L12.51,3.297C12.209,2.946,12.021,2.498,12.021,2
		c0-0.764,0.428-1.426,1.059-1.761c0.051-0.027,0.078-0.086,0.064-0.142C13.129,0.04,13.078,0,13.021,0
		c-1.492,0-2.72,1.092-2.951,2.517C10.043,2.676,10.021,2.835,10.021,3c0,0.296,0.055,0.575,0.135,0.845l-6.291,6.291
		C3.595,10.057,3.316,10,3.021,10c-0.166,0-0.325,0.023-0.484,0.049C1.112,10.282,0.021,11.51,0.021,13
		c0,0.058,0.04,0.109,0.097,0.123c0.055,0.016,0.115-0.012,0.142-0.062C0.595,12.43,1.256,12,2.021,12
		c0.499,0,0.95,0.189,1.302,0.493l0.205,0.206C3.831,13.05,4.021,13.501,4.021,14c0,0.766-0.43,1.426-1.06,1.762
		c-0.051,0.027-0.078,0.086-0.063,0.143C2.913,15.961,2.963,16,3.021,16c1.4,0,2.566-0.963,2.897-2.26
		c0.061-0.238,0.103-0.482,0.103-0.74c0-0.238-0.034-0.467-0.087-0.689L12.33,5.912z"/>
</g>
</svg>
