<?xml version="1.0" encoding="UTF-8" standalone="no"?>
<svg width="640px" height="360px" viewBox="0 0 640 360" version="1.1" xmlns="http://www.w3.org/2000/svg" xmlns:xlink="http://www.w3.org/1999/xlink" xmlns:sketch="http://www.bohemiancoding.com/sketch/ns">
    <!-- Generator: Sketch 3.2.2 (9983) - http://www.bohemiancoding.com/sketch -->
    <title>comments</title>
    <desc>Created with Sketch.</desc>
    <defs>
        <radialGradient cx="1.21119367%" cy="62.5565296%" fx="1.21119367%" fy="62.5565296%" r="133.945459%" id="radialGradient-1">
            <stop stop-color="#292E35" offset="0%"></stop>
            <stop stop-color="#1D1D24" offset="100%"></stop>
        </radialGradient>
        <linearGradient x1="50%" y1="0%" x2="50%" y2="100%" id="linearGradient-2">
            <stop stop-color="#4CC2B8" stop-opacity="0" offset="0%"></stop>
            <stop stop-color="#25A4D5" stop-opacity="0.24646173" offset="100%"></stop>
        </linearGradient>
        <radialGradient cx="0%" cy="87.6665808%" fx="0%" fy="87.6665808%" r="115.853719%" id="radialGradient-3">
            <stop stop-color="#4BC2B8" offset="0%"></stop>
            <stop stop-color="#25A4D5" offset="100%"></stop>
        </radialGradient>
    </defs>
    <g id="Ships" stroke="none" stroke-width="1" fill="none" fill-rule="evenodd" sketch:type="MSPage">
        <g id="comments" sketch:type="MSLayerGroup">
            <rect id="Rectangle-105" fill="url(#radialGradient-1)" sketch:type="MSShapeGroup" x="0" y="0" width="640" height="360"></rect>
            <rect id="Rectangle-108" opacity="0.3" fill="url(#linearGradient-2)" sketch:type="MSShapeGroup" x="0" y="0" width="640" height="360"></rect>
            <g id="Stroke-1123-+-Stroke-1124" transform="translate(250.000000, 118.000000)" stroke="#FFFFFF" stroke-width="8" sketch:type="MSShapeGroup" stroke-linecap="round" stroke-linejoin="round">
                <path d="M42.2446957,86.8554231 C39.2681739,86.4377779 36.3312174,85.7894929 33.4794783,84.898101 L3.04469565,97.3651204 L15.2186087,75.5478365 C5.64078261,67.6998478 0.0012173913,56.0681187 0.0012173913,43.9719931 C0.0012173913,20.0976509 23.1651304,0.745720071 51.7403478,0.745720071 C80.3155652,0.745720071 103.479478,20.0976509 103.479478,43.9719931" id="Stroke-1123"></path>
                <path d="M56.7826087,97.3654321 C56.7826087,124.094722 87.2173913,144.116755 114.608696,131.649735 L138.956522,141 L129.826087,122.299471 C137.714783,115.835321 142,107.320347 142,97.3654321 C142,77.7018257 122.926522,59.9643739 99.3913043,59.9643739 C75.8591304,59.9643739 56.7826087,77.7018257 56.7826087,97.3654321 L56.7826087,97.3654321 Z" id="Stroke-1124"></path>
            </g>
        </g>
    </g>
</svg>