<?xml version="1.0" encoding="UTF-8" standalone="no"?>
<svg width="640px" height="360px" viewBox="0 0 640 360" version="1.1" xmlns="http://www.w3.org/2000/svg" xmlns:xlink="http://www.w3.org/1999/xlink" xmlns:sketch="http://www.bohemiancoding.com/sketch/ns">
    <!-- Generator: Sketch 3.2.2 (9983) - http://www.bohemiancoding.com/sketch -->
    <title>default</title>
    <desc>Created with Sketch.</desc>
    <defs>
        <radialGradient cx="1.21119367%" cy="62.5565296%" fx="1.21119367%" fy="62.5565296%" r="133.945459%" id="radialGradient-1">
            <stop stop-color="#292E35" offset="0%"></stop>
            <stop stop-color="#1D1D24" offset="100%"></stop>
        </radialGradient>
        <linearGradient x1="50%" y1="0%" x2="50%" y2="100%" id="linearGradient-2">
            <stop stop-color="#4CC2B8" stop-opacity="0" offset="0%"></stop>
            <stop stop-color="#25A4D5" stop-opacity="0.24646173" offset="100%"></stop>
        </linearGradient>
    </defs>
    <g id="Ships" stroke="none" stroke-width="1" fill="none" fill-rule="evenodd" sketch:type="MSPage">
        <g id="default" sketch:type="MSLayerGroup">
            <rect id="Rectangle-105" fill="url(#radialGradient-1)" sketch:type="MSShapeGroup" x="0" y="0" width="640" height="360"></rect>
            <rect id="Rectangle-106" opacity="0.3" fill="url(#linearGradient-2)" sketch:type="MSShapeGroup" x="0" y="0" width="640" height="360"></rect>
            <g id="Group" transform="translate(235.000000, 141.000000)" fill="#FFFFFF" sketch:type="MSShapeGroup">
                <g>
                    <path d="M162.548313,25.9689178 C162.447615,24.5196797 162.243258,23.4158105 162.112943,22.663868 C161.973744,21.9075536 161.899702,21.5075377 161.899702,21.5075377 C161.899702,21.5075377 161.807889,21.9075536 161.627226,22.6529386 C161.550222,23.026724 161.443601,23.4879446 161.322172,24.0300427 C161.174087,24.5633973 161.017117,25.1732577 160.863109,25.8508803 C160.516591,27.2061257 160.00718,28.83242 159.352645,30.6335848 C158.686264,32.4281919 157.809603,34.3867399 156.642696,36.3474739 C155.466904,38.306022 153.994942,40.2689418 152.129075,42.0220172 C150.26617,43.7838361 148.050824,45.34674 145.477112,46.6538959 C142.92117,47.9676096 140.045366,49.0255751 136.977052,49.9108563 C133.911699,50.78958 130.650875,51.5087344 127.313047,52.1229665 C123.987065,52.7809163 120.569271,53.309899 117.172209,53.9241314 C113.760338,54.5121327 110.363275,55.1744545 107.066911,55.978858 C103.758699,56.7854475 100.5423,57.7647217 97.5746837,59.0543905 C94.6189136,60.3396877 91.9060023,61.9703538 89.8120852,63.9267161 C87.6944745,65.8524759 86.3232106,68.1061177 85.5383617,70.1214986 C85.2718094,70.8122365 85.0970696,71.4680006 84.9489847,72.1106492 C84.8038618,71.4680006 84.6202367,70.8122365 84.3566461,70.1258705 C83.5717975,68.1126753 82.2064566,65.8590335 80.0829226,63.9332737 C77.9978904,61.9790974 75.2849794,60.352803 72.3292094,59.0631341 C69.3586311,57.773465 66.1451938,56.798563 62.8429055,55.9876016 C59.5376556,55.1788261 56.1405936,54.5252483 52.7346462,53.9328747 C49.3346222,53.3164566 45.9197899,52.7809163 42.5878847,52.1229665 C39.253018,51.5109203 35.998117,50.78958 32.9298027,49.9042987 C29.8614883,49.0124598 26.9886458,47.958866 24.4327044,46.6451524 C21.867878,45.3379964 19.646608,43.7707208 17.7837028,42.0132736 C15.9148743,40.2623841 14.4488361,38.2994643 13.2760055,36.3431021 C12.103175,34.3823682 11.2265137,32.4238201 10.5660561,30.6335848 C9.91152189,28.8346059 9.40211063,27.2104974 9.04966912,25.8508803 C8.88677599,25.1688859 8.73276793,24.5546538 8.58468326,24.023485 C8.46917722,23.4857587 8.35959457,23.0289098 8.27962885,22.6551244 C8.10192725,21.9075536 8.01011475,21.5097236 8.01011475,21.5097236 C8.01011475,21.5097236 7.93014903,21.9119254 7.78798775,22.6660538 C7.65471155,23.4223682 7.4533164,24.5371667 7.35558052,25.9754755 C7.24599787,27.4115983 7.16603215,29.1756031 7.3200402,31.2128428 C7.47108656,33.2544543 7.86795347,35.5714866 8.69426592,38.0655752 C9.52946345,40.5465485 10.8266851,43.2111357 12.7932495,45.7248971 C14.7598139,48.2342868 17.3424105,50.588479 20.3662994,52.4836367 C21.8649163,53.4432377 23.4671924,54.3066601 25.1287023,55.054231 C26.7783656,55.8236607 28.493186,56.4925398 30.2346617,57.0608685 C33.7116897,58.249987 37.3042238,59.0587622 40.846409,59.7538721 C44.400441,60.4074499 47.9218945,60.9364329 51.3456121,61.3801663 C53.0426623,61.603126 54.7308276,61.8217142 56.3893756,62.0381161 C58.0242305,62.2676335 59.6353918,62.4993368 61.2198976,62.7201107 C64.3504074,63.2119333 67.3091391,63.7518456 69.9598547,64.4994165 C72.6164936,65.2426157 74.9710397,66.1738003 76.8813322,67.3607328 C80.7789207,69.6755793 82.7543701,73.1423841 83.7139588,75.7217221 C83.9538559,76.3731143 84.1552508,76.9611159 84.3003741,77.481355 C84.4691905,77.9950368 84.5965432,78.4540713 84.6735475,78.8322287 C84.8542105,79.5797996 84.9519464,79.9776295 84.9519464,79.9776295 C84.9519464,79.9776295 85.0496825,79.5776136 85.2362689,78.8366004 C85.3073495,78.4606292 85.4376642,78.0125237 85.603519,77.4879126 C85.7545656,76.9633016 85.9589221,76.3731143 86.1988192,75.723908 C86.6904603,74.4342389 87.4131136,72.9259822 88.5119019,71.4417698 C89.6254985,69.9684872 91.07969,68.5192489 93.0255226,67.3694764 C94.9387767,66.1825436 97.2992461,65.2491733 99.9440384,64.5081601 C102.603639,63.7605892 105.556447,63.218491 108.683995,62.7332259 C110.274425,62.5080802 111.882624,62.2763771 113.514517,62.0468596 C115.178989,61.8282718 116.864192,61.607498 118.558281,61.3845382 C121.981999,60.9408046 125.503452,60.4118219 129.051561,59.7538721 C132.602631,59.0587622 136.195165,58.2434291 139.66627,57.0543109 C141.407745,56.4881678 143.119604,55.8105454 144.778152,55.0454874 C146.436701,54.2979166 148.038977,53.4366801 149.528709,52.4748931 C152.552597,50.5797357 155.141117,48.2255432 157.098797,45.7161536 C159.074246,43.204578 160.365544,40.537805 161.200742,38.0612035 C162.024093,35.5714866 162.420959,33.2522685 162.577929,31.2128428 C162.731938,29.1712314 162.654933,27.4115983 162.548313,25.9689178" id="Shape-3"></path>
                    <path d="M85.0402584,61.2917728 C85.0402584,61.2917728 84.9781405,61.027433 84.8539047,60.5339983 C84.8095348,60.2872811 84.7267108,59.9854931 84.6172653,59.6462569 C84.5226092,59.3026151 84.3924576,58.9149165 84.235684,58.4853643 C83.6115471,56.7825746 82.3277772,54.4960345 79.8016501,52.9650661 C78.5592921,52.1830605 77.0270511,51.5662675 75.3054984,51.0794415 C73.5809875,50.5860071 71.661249,50.229148 69.6291065,49.9075346 C68.5938086,49.7621476 67.5525944,49.6101522 66.4906745,49.4581568 C65.4110063,49.3171754 64.3165483,49.1673828 63.2132162,49.021996 C60.9917623,48.7290192 58.7052327,48.3853774 56.395039,47.9514194 C54.0937192,47.4910274 51.7628193,46.957942 49.4999536,46.1715307 C48.3729574,45.7992521 47.2607517,45.3564827 46.1840416,44.8454256 C45.1102897,44.3519911 44.0661174,43.7858632 43.0958952,43.1492446 C41.1288288,41.9002386 39.4516459,40.3472417 38.1767502,38.6907117 C36.8959385,37.029776 36.0558681,35.2741185 35.5145551,33.6396169 C34.9762,31.994101 34.7188545,30.4653353 34.6212407,29.1172018 C34.5206689,27.7712712 34.5709548,26.6081756 34.6419467,25.6587548 C34.7040646,24.7115369 34.8371743,23.9757908 34.9259142,23.4779507 C35.02057,22.9779077 35.0649399,22.7135678 35.0649399,22.7135678 C35.0649399,22.7135678 35.1300158,22.9779077 35.2453775,23.473545 C35.2986214,23.7136538 35.3636973,24.0198475 35.4406052,24.3745035 C35.541177,24.7269567 35.6417488,25.130075 35.7452787,25.5794529 C35.9730442,26.4760057 36.3043396,27.5487851 36.7273329,28.7361118 C37.1562421,29.9190328 37.730093,31.2098926 38.4873396,32.5051581 C39.2505022,33.796018 40.2059345,35.0912834 41.4157543,36.2433648 C42.622616,37.4042575 44.0690755,38.437386 45.7373843,39.3008963 C47.3909033,40.1732179 49.2633138,40.8649073 51.2540442,41.4552664 C53.2477327,42.0324085 55.3597407,42.5104232 57.5249926,42.9179472 C59.6902449,43.354108 61.9087407,43.7043584 64.1183629,44.1096795 C66.3279847,44.5017837 68.5346488,44.9357417 70.6821527,45.4666243 C72.8266989,45.9975069 74.912085,46.6473425 76.8436552,47.4998388 C78.7633937,48.3479292 80.5234005,49.4185058 81.8781622,50.7115685 C83.2565877,51.9826027 84.1439861,53.467312 84.6527612,54.7956198 C84.8272828,55.2472003 84.9456027,55.6811584 85.0373003,56.0996966 C85.1319563,55.6811584 85.2473181,55.2472003 85.4218397,54.7912142 C85.9276567,53.4607033 86.8180131,51.9781971 88.1964387,50.7049598 C89.5512,49.4141002 91.317123,48.3435236 93.2398193,47.4910274 C95.1625159,46.6407342 97.2508601,45.9908985 99.4042802,45.4622187 C101.545868,44.9313361 103.752532,44.4929724 105.965112,44.1074767 C108.168818,43.6999527 110.39323,43.354108 112.555524,42.9179472 C114.723734,42.5104232 116.835742,42.039017 118.829431,41.4574693 C120.823119,40.8759215 122.69553,40.1732179 124.349048,39.3075048 C126.014399,38.4439945 127.463817,37.4152717 128.670678,36.2521762 C129.886414,35.0956891 130.832973,33.8004236 131.596135,32.507361 C132.359298,31.2120955 132.930191,29.9234385 133.3591,28.7361118 C133.788009,27.5509879 134.113389,26.4782085 134.341154,25.5816557 C134.444684,25.1344807 134.542298,24.7313624 134.64287,24.381112 C134.71682,24.0242532 134.787811,23.7180595 134.838097,23.473545 C134.956417,22.9779077 135.018535,22.7135678 135.018535,22.7135678 C135.018535,22.7135678 135.062905,22.9779077 135.157561,23.4779507 C135.249259,23.973588 135.376452,24.7027256 135.441528,25.6587548 C135.509562,26.6103785 135.55689,27.7712712 135.456318,29.1172018 C135.358704,30.4631324 135.101359,31.9918982 134.565962,33.6352112 C134.018733,35.2719157 133.18162,37.0275732 131.903766,38.686306 C130.628871,40.342836 128.94873,41.8958329 126.990538,43.1426361 C126.020315,43.7792547 124.976143,44.3475854 123.899433,44.8388171 C122.825681,45.3454686 121.716433,45.7948463 120.583521,46.1693279 C118.326571,46.9513333 115.995672,47.4910274 113.69731,47.9514194 C111.3812,48.3853774 109.09467,48.7334248 106.876175,49.0264016 C105.772842,49.1717886 104.678384,49.3215812 103.598717,49.4647652 C102.536796,49.6167606 101.495582,49.7665532 100.460284,49.914143 C98.425184,50.2357566 96.5084032,50.5926154 94.7868505,51.0860498 C93.0652977,51.5750786 91.5271405,52.1896691 90.2906987,52.9716745 C89.0246772,53.7316517 88.0722029,54.689884 87.3504521,55.6591302 C86.6375754,56.6393906 86.1702124,57.6350708 85.8477908,58.4853643 C85.693975,58.9127137 85.5638234,59.3026151 85.4691677,59.6506625 C85.3538059,59.9943046 85.2768978,60.2916867 85.2295701,60.5362011 C85.1053344,61.027433 85.0402584,61.2917728 85.0402584,61.2917728" id="Shape-2" opacity="0.2"></path>
                    <path d="M156.042676,19.14203 C148.896408,13.3456164 119.827525,9.00659878 85.3145174,9.00659878 C50.1583658,9.00659878 20.9920952,13.3510334 13.8577629,19.1528829 C29.0620342,15.6337388 55.3294752,13.3091955 85.3145174,13.3091955 C114.8145,13.3091955 140.892306,15.6289604 156.042676,19.14203 Z" id="Rectangle-4"></path>
                    <path d="M117.66914,10.5383418 C113.335813,4.40141207 100.37438,-0.0535323082 85.1642315,-0.0535323082 C69.6601338,-0.0535323082 56.6335354,4.41302799 52.3075183,10.562337 C54.1493757,10.3978666 56.0365168,10.2467387 57.9649385,10.1096737 C61.0456346,7.19665041 71.9101776,4.62558014 85.0206601,4.62558014 C97.8960356,4.62558014 108.868175,7.18263926 111.999235,10.0851924 C113.930909,10.22207 115.822297,10.373368 117.66914,10.5383418 Z" id="Oval-3"></path>
                </g>
            </g>
        </g>
    </g>
</svg>