<?xml version="1.0" encoding="UTF-8" standalone="no"?>
<svg width="640px" height="360px" viewBox="0 0 640 360" version="1.1" xmlns="http://www.w3.org/2000/svg" xmlns:xlink="http://www.w3.org/1999/xlink" xmlns:sketch="http://www.bohemiancoding.com/sketch/ns">
    <!-- Generator: Sketch 3.2.2 (9983) - http://www.bohemiancoding.com/sketch -->
    <title>default</title>
    <desc>Created with Sketch.</desc>
    <defs>
        <radialGradient cx="0%" cy="2.14315094e-05%" fx="0%" fy="2.14315094e-05%" r="100%" id="radialGradient-1">
            <stop stop-color="#4BC2B8" offset="0%"></stop>
            <stop stop-color="#25A4D5" offset="100%"></stop>
        </radialGradient>
    </defs>
    <g id="Ships" stroke="none" stroke-width="1" fill="none" fill-rule="evenodd" sketch:type="MSPage">
        <g id="default" sketch:type="MSLayerGroup">
            <rect id="Rectangle-105" fill="url(#radialGradient-1)" sketch:type="MSShapeGroup" x="0" y="0" width="640" height="360"></rect>
            <g id="Group" transform="translate(145.000000, 107.000000)" fill="#FFFFFF" sketch:type="MSShapeGroup">
                <path d="M333.702124,53.2362815 C333.495398,50.2653434 333.075865,48.0024116 332.808337,46.4609293 C332.522568,44.910485 332.370564,44.0904523 332.370564,44.0904523 C332.370564,44.0904523 332.182078,44.910485 331.811187,46.4385241 C331.653102,47.2047841 331.434216,48.1502863 331.184929,49.2615875 C330.880919,50.3549644 330.55867,51.6051782 330.2425,52.9943047 C329.531119,55.7725576 328.485328,59.1064611 327.141607,62.7988488 C325.773566,66.4777933 323.973832,70.4928169 321.57824,74.5123215 C319.164408,78.527345 316.142558,82.5513307 312.312042,86.1451352 C308.487608,89.756864 303.939632,92.9608169 298.655953,95.6404866 C293.408756,98.3335998 287.504899,100.502429 281.20583,102.317255 C274.912842,104.118639 268.218561,105.592905 261.366196,106.852081 C254.538151,108.200878 247.521621,109.285293 240.547652,110.544469 C233.543282,111.749872 226.569312,113.107632 219.80207,114.756659 C213.010506,116.410167 206.407428,118.417679 200.315086,121.061501 C194.247064,123.69636 188.677617,127.039225 184.378928,131.049768 C180.031598,134.997576 177.216474,139.617541 175.605225,143.749072 C175.058009,145.165085 174.699278,146.509401 174.395269,147.826831 C174.09734,146.509401 173.720368,145.165085 173.179232,143.758035 C171.567984,139.630984 168.76502,135.011019 164.405529,131.063211 C160.125081,127.05715 154.555634,123.723246 148.487612,121.079425 C142.38919,118.435603 135.792192,116.437054 129.012788,114.774583 C122.227305,113.116594 115.253336,111.776759 108.261127,110.562393 C101.281077,109.298736 94.2706274,108.200878 87.4304221,106.852081 C80.5841369,105.597387 73.9020166,104.118639 67.6029479,102.303812 C61.303879,100.475543 55.4061022,98.3156754 50.158905,95.6225624 C44.8934671,92.9428927 40.3333305,89.7299777 36.5088958,86.127211 C32.6723008,82.5378875 29.6626106,78.5139018 27.2548584,74.5033593 C24.8471063,70.4838548 23.0473723,66.4688313 21.6914917,62.7988488 C20.3477714,59.1109421 19.3019801,55.7815197 18.5784384,52.9943047 C18.2440283,51.5962161 17.9278589,50.3370402 17.6238498,49.2481443 C17.3867227,48.1458053 17.1617559,47.2092652 16.997591,46.4430051 C16.6327801,44.910485 16.4442944,44.0949333 16.4442944,44.0949333 C16.4442944,44.0949333 16.2801295,44.9194471 15.9882807,46.4654104 C15.7146725,48.0158548 15.3012201,50.3011918 15.1005741,53.2497247 C14.8756074,56.1937765 14.7114425,59.8099864 15.0276119,63.9863278 C15.3377012,68.1716314 16.1524457,72.9215476 17.8488165,78.0344292 C19.5634279,83.1204244 22.2265477,88.5828281 26.2637887,93.7360391 C30.3010297,98.880288 35.6029487,103.706382 41.8108147,107.591455 C44.887387,109.558637 48.1767655,111.328653 51.5877478,112.861174 C54.9744093,114.438504 58.4948348,115.809707 62.069982,116.97478 C69.2081159,119.412473 76.583377,121.070462 83.855275,122.495438 C91.1514937,123.835272 98.3808304,124.919687 105.409521,125.829341 C108.893466,126.286408 112.35917,126.734514 115.764071,127.178138 C119.120332,127.648649 122.427951,128.123641 125.680849,128.576227 C132.107601,129.584463 138.181703,130.691284 143.623466,132.223804 C149.07739,133.747362 153.911134,135.656291 157.832853,138.089502 C165.834372,142.834937 169.889854,149.941887 171.859833,155.22953 C172.352328,156.564884 172.76578,157.770288 173.063709,158.836778 C173.410279,159.889825 173.671727,160.830846 173.829812,161.606069 C174.200703,163.138589 174.401349,163.954141 174.401349,163.954141 C174.401349,163.954141 174.601995,163.134108 174.985046,161.615031 C175.13097,160.84429 175.398499,159.925674 175.738989,158.850221 C176.049079,157.774768 176.468611,156.564884 176.961105,155.234011 C177.970416,152.59019 179.45398,149.498264 181.709728,146.455628 C183.995876,143.435399 186.981246,140.46446 190.975926,138.107427 C194.903724,135.674214 199.749629,133.760805 205.179232,132.241728 C210.639235,130.709208 216.701177,129.597906 223.12185,128.603113 C226.386907,128.141564 229.688446,127.666573 233.038626,127.196062 C236.455689,126.747957 239.915313,126.295371 243.393177,125.838303 C250.421868,124.928649 257.651204,123.844235 264.935263,122.495438 C272.225401,121.070462 279.600662,119.39903 286.726636,116.961337 C290.301783,115.800744 293.816128,114.411618 297.22103,112.843249 C300.625932,111.310729 303.915311,109.545194 306.973643,107.573531 C313.181509,103.688458 318.495588,98.8623636 322.514589,93.7181149 C326.57007,88.5693849 329.22103,83.1025002 330.935641,78.0254671 C332.625932,72.9215476 333.440676,68.1671504 333.762926,63.9863278 C334.079095,59.8010243 333.92101,56.1937765 333.702124,53.2362815" id="Shape-3"></path>
                <path d="M174.582648,125.648134 C174.582648,125.648134 174.455124,125.106238 174.200075,124.094697 C174.108986,123.588926 173.938953,122.970261 173.714268,122.274827 C173.519945,121.570361 173.252751,120.775579 172.930904,119.894997 C171.649588,116.404278 169.014084,111.716871 163.828094,108.578386 C161.277606,106.975274 158.132005,105.710848 154.597758,104.712855 C151.057439,103.701314 147.116329,102.969753 142.94446,102.310446 C140.819054,102.012403 138.681503,101.700812 136.501444,101.389222 C134.284948,101.10021 132.03809,100.793135 129.773014,100.495092 C125.2125,99.8944893 120.51839,99.1900237 115.775698,98.3004097 C111.051224,97.3566061 106.266023,96.263781 101.620493,94.651638 C99.306836,93.8884669 97.0235432,92.9807896 94.8131208,91.9331225 C92.6087711,90.9215818 90.4651469,89.7610195 88.4733378,88.4559514 C84.4350661,85.8954891 80.9919083,82.7118455 78.3746225,79.3159589 C75.7451915,75.9110408 74.0205762,72.311943 72.9092924,68.9612146 C71.8040813,65.5879071 71.2757661,62.4539373 71.0753706,59.6902637 C70.8689026,56.9311059 70.9721366,54.54676 71.1178787,52.6004474 C71.2454031,50.6586506 71.5186696,49.1503712 71.7008473,48.1297989 C71.8951701,47.1047108 71.9862589,46.5628141 71.9862589,46.5628141 C71.9862589,46.5628141 72.1198559,47.1047108 72.3566868,48.1207673 C72.4659934,48.6129902 72.5995904,49.2406874 72.7574778,49.9677322 C72.9639457,50.6902613 73.1704138,51.5166539 73.3829544,52.4378784 C73.8505437,54.2758117 74.5306737,56.4750095 75.3990539,58.9090292 C76.2795793,61.3340173 77.4576615,63.9802799 79.0122443,66.6355742 C80.5789722,69.2818368 82.5404184,71.937131 85.0241073,74.2988979 C87.5017235,76.6787279 90.4712197,78.7966412 93.8961596,80.5668374 C97.2907369,82.3550968 101.134685,83.77306 105.221538,84.9832962 C109.314463,86.1664375 113.650291,87.1463675 118.095426,87.9817917 C122.540562,88.8759214 127.095003,89.5939347 131.631227,90.4248431 C136.167451,91.2286567 140.697603,92.1182705 145.106302,93.2065798 C149.508929,94.2948891 153.790104,95.6270522 157.755504,97.3746695 C161.696614,99.1132548 165.309805,101.307937 168.091051,103.958715 C170.920877,106.564335 172.742654,109.60799 173.787139,112.33102 C174.145422,113.256761 174.388325,114.146375 174.576575,115.004378 C174.770899,114.146375 175.00773,113.256761 175.366012,112.321989 C176.404425,109.594442 178.232274,106.555304 181.062101,103.945168 C183.843346,101.298906 187.468682,99.1042234 191.415864,97.3566061 C195.363047,95.613505 199.650295,94.281342 204.07114,93.1975483 C208.467694,92.1092389 212.997845,91.2105934 217.540142,90.4203273 C222.06422,89.5849031 226.630807,88.8759214 231.06987,87.9817917 C235.521078,87.1463675 239.856906,86.1799849 243.949831,84.987812 C248.042756,83.795639 251.886705,82.3550968 255.281281,80.5803848 C258.700149,78.8101886 261.675718,76.7013069 264.153334,74.3169611 C266.649168,71.9461627 268.592397,69.2908684 270.159125,66.64009 C271.725852,63.9847958 272.897862,61.3430489 273.778388,58.9090292 C274.658913,56.4795252 275.326898,54.2803274 275.794487,52.4423942 C276.007027,51.5256854 276.207423,50.6992929 276.413891,49.9812796 C276.565706,49.249719 276.711448,48.6220219 276.814682,48.1207673 C277.057586,47.1047108 277.18511,46.5628141 277.18511,46.5628141 C277.18511,46.5628141 277.276199,47.1047108 277.470521,48.1297989 C277.658772,49.1458554 277.919893,50.6405874 278.05349,52.6004474 C278.193159,54.5512759 278.290321,56.9311059 278.083853,59.6902637 C277.883457,62.4494215 277.355142,65.5833912 276.256004,68.952183 C275.132575,72.3074272 273.414032,75.906525 270.790674,79.3069273 C268.173388,82.7028139 264.724158,85.8864575 260.704104,88.442404 C258.712294,89.7474721 256.568671,90.9125502 254.358248,91.9195751 C252.153899,92.9582105 249.876678,93.8794349 247.550876,94.6471223 C242.917491,96.2502333 238.13229,97.3566061 233.413889,98.3004097 C228.659052,99.1900237 223.964941,99.9035208 219.410499,100.504123 C217.145424,100.802167 214.898566,101.109242 212.682071,101.402769 C210.502011,101.714359 208.36446,102.021434 206.239054,102.323993 C202.061113,102.983301 198.126075,103.714862 194.591828,104.726402 C191.057582,105.728911 187.899835,106.988822 185.361493,108.591933 C182.762426,110.149886 180.807052,112.114262 179.32534,114.101217 C177.861846,116.110751 176.902377,118.151895 176.240465,119.894997 C175.92469,120.771063 175.657496,121.570361 175.463174,122.283858 C175.226343,122.988324 175.068455,123.597958 174.971294,124.099212 C174.716245,125.106238 174.582648,125.648134 174.582648,125.648134" id="Shape-2" opacity="0.2"></path>
                <path d="M320.346434,39.2411615 C305.675567,27.3585137 245.998861,18.4635275 175.145686,18.4635275 C102.972174,18.4635275 43.0955367,27.3696184 28.449172,39.2634099 C59.6626466,32.0491645 113.588158,27.2838508 175.145686,27.2838508 C235.707414,27.2838508 289.243617,32.0393687 320.346434,39.2411615 Z" id="Rectangle-4"></path>
                <path d="M241.567819,21.6035955 C232.67175,9.02289229 206.062693,-0.109741232 174.837158,-0.109741232 C143.008157,-0.109741232 116.265317,9.04670739 107.384258,21.6527909 C111.165483,21.3156266 115.039673,21.0058143 118.998609,20.7248311 C125.323097,14.7531333 147.627365,9.48243928 174.542414,9.48243928 C200.974802,9.48243928 223.499959,14.7244105 229.927842,20.6746444 C233.893455,20.9552434 237.776363,21.2654043 241.567822,21.6036006 Z" id="Oval-3"></path>
            </g>
        </g>
    </g>
</svg>