<?xml version="1.0" encoding="UTF-8" standalone="no"?>
<svg width="640px" height="360px" viewBox="0 0 640 360" version="1.1" xmlns="http://www.w3.org/2000/svg" xmlns:xlink="http://www.w3.org/1999/xlink" xmlns:sketch="http://www.bohemiancoding.com/sketch/ns">
    <!-- Generator: Sketch 3.2.2 (9983) - http://www.bohemiancoding.com/sketch -->
    <title>instant</title>
    <desc>Created with Sketch.</desc>
    <defs>
        <radialGradient cx="1.21119367%" cy="62.5565296%" fx="1.21119367%" fy="62.5565296%" r="133.945459%" id="radialGradient-1">
            <stop stop-color="#292E35" offset="0%"></stop>
            <stop stop-color="#1D1D24" offset="100%"></stop>
        </radialGradient>
        <linearGradient x1="50%" y1="0%" x2="50%" y2="100%" id="linearGradient-2">
            <stop stop-color="#4CC2B8" stop-opacity="0" offset="0%"></stop>
            <stop stop-color="#25A4D5" stop-opacity="0.24646173" offset="100%"></stop>
        </linearGradient>
    </defs>
    <g id="Ships" stroke="none" stroke-width="1" fill="none" fill-rule="evenodd" sketch:type="MSPage">
        <g id="instant" sketch:type="MSLayerGroup">
            <rect id="Rectangle-105" fill="url(#radialGradient-1)" sketch:type="MSShapeGroup" x="0" y="0" width="640" height="360"></rect>
            <rect id="Rectangle-108" opacity="0.3" fill="url(#linearGradient-2)" sketch:type="MSShapeGroup" x="0" y="0" width="640" height="360"></rect>
            <g id="Fill-274-+-Fill-275" transform="translate(264.000000, 119.000000)" fill="#FFFFFF" sketch:type="MSShapeGroup">
                <path d="M32.7030909,0.294265306 C31.4110909,-0.214204082 29.9429091,0.201816327 29.1114545,1.30195918 C28.2738182,2.40518367 28.2738182,3.92442857 29.1114545,5.02457143 C44.4794545,25.2277551 45.3387273,57.0949184 31.6274545,75.4676122 C28.4345455,71.0331429 26.41,66.3952857 25.3312727,61.1010408 C25.1210909,60.0779388 24.4070909,59.2274082 23.4303636,58.8452857 C22.4567273,58.4631633 21.3501818,58.5987551 20.5001818,59.212 C2.98709091,71.7234286 -4.06945455,93.0298367 2.52654545,113.501122 C9.28018182,134.456224 27.9616364,148 50.1203636,148 C74.7889091,148 91.6436364,133.759776 96.3603636,108.937224 C103.509636,71.3228163 79.6385455,18.6916122 32.7030909,0.294265306 Z M53.2112727,86.3673469 C52.114,86.3673469 51.0970909,86.9466939 50.5407273,87.8927551 C49.9874545,88.8357347 49.9781818,90.0036735 50.5129091,90.9589796 C52.7043636,94.8449184 50.7972727,99.2300816 49.4650909,101.498163 C46.4329091,106.669143 40.6065455,110.869408 36.4801818,110.869408 C36.0845455,110.869408 35.7105455,110.829347 35.3736364,110.749224 C34.3536364,110.51502 33.2965455,110.804694 32.5392727,111.513469 C31.782,112.228408 31.4389091,113.27 31.6212727,114.296184 C33.2038182,123.112735 40.8630909,129.510204 49.8390909,129.510204 C59.9216364,129.510204 68.0692727,121.430163 68.3845455,111.112857 C68.5885455,104.302449 67.0616364,95.2301224 62.1594545,90.1947347 C59.7238182,87.692449 56.6298182,86.3673469 53.2112727,86.3673469 Z" id="Fill-274"></path>
            </g>
        </g>
    </g>
</svg>