<?xml version="1.0" encoding="UTF-8" standalone="no"?>
<svg width="640px" height="360px" viewBox="0 0 640 360" version="1.1" xmlns="http://www.w3.org/2000/svg" xmlns:xlink="http://www.w3.org/1999/xlink" xmlns:sketch="http://www.bohemiancoding.com/sketch/ns">
    <!-- Generator: Sketch 3.2.2 (9983) - http://www.bohemiancoding.com/sketch -->
    <title>socialicons</title>
    <desc>Created with Sketch.</desc>
    <defs>
        <radialGradient cx="1.21119367%" cy="62.5565296%" fx="1.21119367%" fy="62.5565296%" r="133.945459%" id="radialGradient-1">
            <stop stop-color="#292E35" offset="0%"></stop>
            <stop stop-color="#1D1D24" offset="100%"></stop>
        </radialGradient>
        <linearGradient x1="50%" y1="0%" x2="50%" y2="100%" id="linearGradient-2">
            <stop stop-color="#4CC2B8" stop-opacity="0" offset="0%"></stop>
            <stop stop-color="#25A4D5" stop-opacity="0.24646173" offset="100%"></stop>
        </linearGradient>
        <filter x="-50%" y="-50%" width="200%" height="200%" filterUnits="objectBoundingBox" id="filter-3">
            <feOffset dx="1" dy="1" in="SourceAlpha" result="shadowOffsetOuter1"></feOffset>
            <feGaussianBlur stdDeviation="2" in="shadowOffsetOuter1" result="shadowBlurOuter1"></feGaussianBlur>
            <feColorMatrix values="0 0 0 0 0   0 0 0 0 0   0 0 0 0 0  0 0 0 0.0508237092 0" in="shadowBlurOuter1" type="matrix" result="shadowMatrixOuter1"></feColorMatrix>
            <feMerge>
                <feMergeNode in="shadowMatrixOuter1"></feMergeNode>
                <feMergeNode in="SourceGraphic"></feMergeNode>
            </feMerge>
        </filter>
        <filter x="-50%" y="-50%" width="200%" height="200%" filterUnits="objectBoundingBox" id="filter-4">
            <feOffset dx="1" dy="1" in="SourceAlpha" result="shadowOffsetOuter1"></feOffset>
            <feGaussianBlur stdDeviation="2" in="shadowOffsetOuter1" result="shadowBlurOuter1"></feGaussianBlur>
            <feColorMatrix values="0 0 0 0 0   0 0 0 0 0   0 0 0 0 0  0 0 0 0.0508237092 0" in="shadowBlurOuter1" type="matrix" result="shadowMatrixOuter1"></feColorMatrix>
            <feMerge>
                <feMergeNode in="shadowMatrixOuter1"></feMergeNode>
                <feMergeNode in="SourceGraphic"></feMergeNode>
            </feMerge>
        </filter>
        <filter x="-50%" y="-50%" width="200%" height="200%" filterUnits="objectBoundingBox" id="filter-5">
            <feOffset dx="1" dy="1" in="SourceAlpha" result="shadowOffsetOuter1"></feOffset>
            <feGaussianBlur stdDeviation="2" in="shadowOffsetOuter1" result="shadowBlurOuter1"></feGaussianBlur>
            <feColorMatrix values="0 0 0 0 0   0 0 0 0 0   0 0 0 0 0  0 0 0 0.0508237092 0" in="shadowBlurOuter1" type="matrix" result="shadowMatrixOuter1"></feColorMatrix>
            <feMerge>
                <feMergeNode in="shadowMatrixOuter1"></feMergeNode>
                <feMergeNode in="SourceGraphic"></feMergeNode>
            </feMerge>
        </filter>
    </defs>
    <g id="Ships" stroke="none" stroke-width="1" fill="none" fill-rule="evenodd" sketch:type="MSPage">
        <g id="socialicons" sketch:type="MSLayerGroup">
            <rect id="Rectangle-105" fill="url(#radialGradient-1)" sketch:type="MSShapeGroup" x="0" y="0" width="640" height="360"></rect>
            <rect id="Rectangle-108" opacity="0.3" fill="url(#linearGradient-2)" sketch:type="MSShapeGroup" x="0" y="0" width="640" height="360"></rect>
            <g id="facebook-+-twitter-+-google" transform="translate(130.500000, 126.000000)">
                <g id="facebook">
                    <rect id="Rectangle-1" fill="#2B4E98" sketch:type="MSShapeGroup" x="1" y="0" width="115.654822" height="116" rx="200"></rect>
                    <g id="Gradient"></g>
                    <path d="M64.3337147,93.2376327 L64.3337147,61.0908438 L75.8753339,61.0908438 L77.6028628,48.5613484 L64.3337147,48.5613484 L64.3337147,40.561399 C64.3337147,36.93595 65.4117891,34.4642817 70.9748134,34.4642817 L78.0696268,34.4602546 L78.0696268,23.2556941 C76.842991,23.1026621 72.6310729,22.7623673 67.7305524,22.7623673 C57.5008915,22.7623673 50.4974233,28.6007396 50.4974233,39.3230479 L50.4974233,48.5613484 L38.9276979,48.5613484 L38.9276979,61.0908438 L50.4974233,61.0908438 L50.4974233,93.2376327 L64.3337147,93.2376327" id="Fill-203" fill="#FFFFFF" filter="url(#filter-3)" sketch:type="MSShapeGroup"></path>
                </g>
                <g id="twitter" transform="translate(131.172589, 0.000000)">
                    <rect id="Rectangle-1" fill="#10A2E6" sketch:type="MSShapeGroup" x="2.84217094e-14" y="0" width="115.654822" height="116" rx="200"></rect>
                    <g id="Gradient-2"></g>
                    <path d="M93.9695431,36.2065497 C91.3593584,37.4822002 88.5546257,38.2713436 85.6482716,38.5901113 C88.6164352,36.8113263 90.9236521,33.9443093 91.988288,30.6449058 C89.1980524,32.2018725 86.0842722,33.4202528 82.8745144,34.2202483 C80.1150958,31.230227 76.3325571,29.453125 72.1757366,29.453125 C64.1115017,29.453125 57.5951592,36.0089286 57.5144486,44.1517551 C57.5951592,45.2431297 57.7238446,46.3595535 57.9106996,47.3298373 C45.8776993,46.8214165 35.1552711,40.9915433 27.7956215,32.2339469 C26.7258739,34.2940201 26.0084784,36.8113263 25.8143663,39.3846318 C26.0084784,44.5732755 28.5771191,49.0563032 32.5506338,51.6997003 C30.0960115,51.605216 27.8526307,50.9455574 25.8143663,49.713399 C25.8899257,49.9106988 25.8899257,49.9718727 25.8143663,50.1106592 C25.8899257,57.1292197 30.9056146,63.0477951 37.7018972,64.4120291 C36.3418108,64.7259993 35.0559706,64.9054428 33.7393869,64.8092894 C32.7902978,64.9054428 31.8793676,64.8136819 30.9656297,64.8092894 C32.8429878,70.4590139 38.2163612,74.6922482 44.4381646,74.7407962 C39.6045418,78.7389021 33.3303709,81.078804 26.6068684,81.0969606 C25.3366801,81.078804 24.1785119,81.0094736 23.0406091,80.6997003 C29.4799431,85.0296188 37.1301352,87.453125 45.2306667,87.453125 C72.1132988,87.453125 86.7499909,65.1419819 86.8370246,45.7407962 C86.7499909,45.1574863 86.7368184,44.5263755 86.8370246,43.7544949 C89.5506706,41.833704 92.0189975,39.2552239 93.9695431,36.2065497" id="Fill-205" fill="#FFFFFF" filter="url(#filter-4)" sketch:type="MSShapeGroup"></path>
                </g>
                <g id="google" transform="translate(260.345178, 0.000000)">
                    <rect id="Rectangle-3" fill="#D93526" sketch:type="MSShapeGroup" x="1" y="0" width="115.654822" height="116" rx="200"></rect>
                    <g id="Gradient-8"></g>
                    <path d="M93.6232487,33.0186193 L93.6232487,38.5584176 L82.5303969,38.5584176 L82.5303969,49.670983 L76.9896206,49.670983 L76.9896206,38.5584176 L65.9820273,38.5584176 L65.9820273,33.0186193 L76.9896206,33.0186193 L76.9896206,21.9400531 L82.5303969,21.9400531 L82.5303969,33.0186193 L93.6232487,33.0186193 L93.6232487,33.0186193 Z M48.7002291,21.9400531 L67.606048,21.9400531 L61.7735438,25.3667536 L55.9194682,25.3667536 C57.9800535,26.6659327 59.5660673,28.457584 60.6805912,30.8055848 C61.7858703,33.151525 62.3528908,35.5870994 62.3528908,38.1360041 C62.3528908,40.2727982 62.01802,42.1829313 61.3739587,43.8334347 C60.7247613,45.4849684 59.9173735,46.8469943 58.9630944,47.8236967 C58.0273052,48.8653066 57.0545363,49.7812226 56.1177199,50.6342918 C55.1408422,51.4853004 54.3488625,52.3713385 53.70891,53.2944665 C53.0032161,54.2021403 52.6950528,55.1644188 52.6950528,56.2122103 C52.6950528,56.9653427 52.9159031,57.6916878 53.3853386,58.4118513 C53.8763454,59.1546808 54.5091074,59.8449663 55.2630803,60.5002223 C56.0417063,61.1585692 56.8655295,61.8550363 57.8167269,62.5896236 C58.7104005,63.3015449 59.6348904,64.1164938 60.5614348,64.9922291 C61.4879791,65.8689946 62.3374826,66.8147887 63.0616664,67.8409444 C63.8557005,68.8732818 64.4915441,70.1085836 64.9301632,71.5180023 C65.3985715,72.9583292 65.6379116,74.4913811 65.6379116,76.1593992 C65.6379116,80.759585 63.6451223,84.8363903 59.5855843,88.3743608 C55.2435633,92.1451738 49.1645285,94.0553069 41.4470921,94.0553069 C39.7809558,94.0553069 38.0316154,93.8976746 36.2740573,93.6081668 C34.5319075,93.3269013 32.7671589,92.8333987 31.0219274,92.153416 C29.2602605,91.4868269 27.6947909,90.6440605 26.3111376,89.6416012 C24.9891171,88.6638685 23.8715115,87.3719014 23.0209807,85.7986688 C22.1303888,84.1945278 21.7184772,82.4502692 21.7184772,80.5246819 C21.7184772,78.7721811 22.2372187,76.8156855 23.3075726,74.680952 C24.2074095,72.8099693 25.6321512,71.2357064 27.461614,69.8839833 C29.311621,68.5456537 31.380424,67.5194981 33.7060298,66.8013951 C36.0306083,66.0966858 38.2832821,65.5794869 40.4291259,65.2436166 C42.5688065,64.92114 44.7064326,64.7181755 46.9077459,64.6635708 C45.0371946,62.2455112 44.1188679,60.1097474 44.1188679,58.2006445 C44.1188679,57.8719862 44.1466026,57.5124196 44.2298067,57.189943 C44.2821945,56.8458306 44.3356095,56.5882614 44.4537387,56.3533583 C44.5420789,56.1194854 44.6335006,55.7897968 44.7824462,55.4075642 C44.9426912,55.0232709 45.0371946,54.7028548 45.0741742,54.4761939 C43.9165074,54.632796 42.9406569,54.6956429 42.0531466,54.6956429 C37.7840575,54.6956429 34.0686353,53.2790123 31.0219274,50.4375089 C27.9690562,47.6063083 26.439539,44.0600956 26.439539,39.8040222 C26.439539,35.7354592 27.8016208,32.1119758 30.5422198,28.9119361 C33.2407032,25.7345625 36.6099554,23.7007961 40.6314865,22.8065158 C43.3371603,22.2130764 46.0479702,21.9400531 48.7002291,21.9400531 L48.7002291,21.9400531 Z M54.4053591,42.5188016 C54.4053591,40.774543 54.1578012,38.9509531 53.669876,36.9954877 C53.182978,35.0369316 52.5122092,33.151525 51.6277805,31.3372076 C50.7700593,29.5136177 49.527134,28.0104439 47.9832358,26.8132623 C46.4670723,25.639777 44.7516299,25.0380953 42.8338269,25.0380953 C40.1435613,25.0380953 38.1035202,26.0549785 36.6099554,28.0351705 C35.1276898,30.0390589 34.4076149,32.4251799 34.4076149,35.1863217 C34.4076149,36.5565898 34.5853224,37.9649782 34.8914313,39.4743337 C35.2273293,40.9775075 35.7512069,42.486863 36.4301934,43.9817946 C37.1245881,45.4767262 37.9165678,46.853176 38.8431121,48.0349035 C39.7922551,49.2403273 40.8985614,50.2118783 42.2246908,50.9784043 C43.5395209,51.6965072 44.9539905,52.0972848 46.4516642,52.0972848 C49.2405421,52.0972848 51.2415492,51.2277312 52.4926922,49.4752304 C53.7582162,47.7227296 54.4053591,45.4149096 54.4053591,42.5188016 L54.4053591,42.5188016 Z M59.5660673,79.8683956 C59.5660673,79.2564112 59.5023802,78.6794562 59.3493258,78.1158948 C59.21887,77.5440912 59.1017679,77.0433767 58.9630944,76.5663585 C58.8192849,76.0810981 58.55221,75.5803836 58.1947406,75.0631847 C57.8444616,74.5398041 57.5537609,74.0936942 57.2959309,73.7495818 C57.0401554,73.3889849 56.6508424,72.9583292 56.1546995,72.4658569 C55.6297946,71.9641121 55.2435633,71.6117574 54.9734068,71.3624305 C54.6642163,71.1028007 54.2040257,70.7432341 53.5784542,70.2353077 C52.9159031,69.7572592 52.4885833,69.4203587 52.248216,69.2719989 C51.9883316,69.0844885 51.5014335,68.740376 50.7813586,68.2479037 C50.1023721,67.7791278 49.6791612,67.4566512 49.4839911,67.3639263 C49.0320182,67.2938674 48.2883175,67.2619289 47.3391745,67.2619289 C45.769596,67.2619289 44.2339156,67.3721685 42.7495956,67.5679211 C41.2673301,67.7791278 39.6813163,68.1232403 38.1035202,68.6538328 C36.4805268,69.1555776 35.084547,69.8355603 33.8241591,70.6340248 C32.6418392,71.4551554 31.6598254,72.5441579 30.8811995,73.8742453 C30.0779205,75.257907 29.734832,76.8074433 29.734832,78.5444899 C29.734832,80.5020158 30.1868048,82.2473047 31.2479138,83.7885988 C32.2833425,85.3463773 33.5981726,86.5435589 35.2519824,87.4347483 C36.9037377,88.3043019 38.6345883,88.9760424 40.4712416,89.3984559 C42.2616704,89.8291116 44.1188679,90.0568027 45.9637389,90.0568027 C47.6298752,90.0568027 49.2682768,89.875474 50.7813586,89.5231194 C52.3396377,89.1408867 53.801359,88.5938097 55.1408422,87.8272838 C56.5255227,87.0586973 57.5804684,85.9954517 58.3878562,84.6334257 C59.1623733,83.279642 59.5660673,81.6991975 59.5660673,79.8683956 L59.5660673,79.8683956 Z" id="Fill-209" fill="#FFFFFF" filter="url(#filter-5)" sketch:type="MSShapeGroup"></path>
                </g>
            </g>
        </g>
    </g>
</svg>