<?xml version="1.0" encoding="UTF-8" standalone="no"?>
<svg width="324px" height="323px" viewBox="0 0 324 323" version="1.1" xmlns="http://www.w3.org/2000/svg" xmlns:xlink="http://www.w3.org/1999/xlink" xmlns:sketch="http://www.bohemiancoding.com/sketch/ns">
    <!-- Generator: Sketch 3.2.2 (9983) - http://www.bohemiancoding.com/sketch -->
    <title>facebook_canvas</title>
    <desc>Created with Sketch.</desc>
    <defs></defs>
    <g id="Page-1" stroke="none" stroke-width="1" fill="none" fill-rule="evenodd" sketch:type="MSPage">
        <g id="facebook_canvas" sketch:type="MSLayerGroup" transform="translate(0.500000, 0.000000)">
            <path d="M161.328787,322.980878 C250.412794,322.980878 322.62965,250.764021 322.62965,161.680015 C322.62965,72.5960078 250.412794,0.379151461 161.328787,0.379151461 C72.2447799,0.379151461 0.0279236059,72.5960078 0.0279236059,161.680015 C0.0279236059,250.764021 72.2447799,322.980878 161.328787,322.980878 Z" id="Oval-1" fill="#3B5999" sketch:type="MSShapeGroup"></path>
            <path d="M86.9875169,227.96261 C86.9875169,230.11159 87.7933843,231.991947 89.4051192,233.603682 C91.016854,235.215417 93.0315226,236.021284 95.4491248,236.021284 L227.208449,236.021284 C229.626051,236.021284 231.640719,235.215417 233.252454,233.603682 C234.864189,231.991947 235.670057,230.11159 235.670057,227.96261 L235.670057,96.2032864 C235.670057,94.0543066 234.729878,92.0396381 232.849521,90.1592807 C230.969163,88.2789234 229.088806,87.3387448 227.208449,87.3387448 L185.706276,87.3387448 L185.706276,145.764133 L203.43536,145.764133 L203.43536,169.940156 L185.706276,169.940156 L185.706276,175.984161 C185.706276,176.790029 185.773432,177.595896 185.907743,178.401764 C186.042054,179.207631 186.10921,179.744876 186.10921,180.013498 C186.10921,180.550743 186.377832,181.625233 186.915077,183.236968 C187.452322,184.580081 188.392501,185.520259 189.735613,186.057504 C190.541481,186.326127 192.287527,186.460438 194.973752,186.460438 L202.629492,186.460438 L202.629491,207.815929 C202.092246,208.084551 196.719798,208.621792 196.182553,208.621792 L190.138547,208.621792 C186.377832,208.621792 182.348495,208.35317 178.050536,207.815925 C175.364311,207.547302 172.409464,206.472812 169.185994,204.592455 C166.499769,202.98072 164.619412,200.697429 163.544922,197.742582 C162.20181,194.25049 161.530254,190.355464 161.530254,186.057504 L161.530254,169.940156 L143.398237,169.940156 L143.398237,145.764133 L161.530254,145.764133 L161.530254,87.7416785 L95.4491248,87.7416785 C93.0315226,87.7416785 91.016854,88.5475459 89.4051192,90.1592807 C87.7933843,91.7710156 86.9875169,93.7856841 86.9875169,96.2032864 L86.9875169,227.96261 Z" id="Shape-33" fill="#FFFFFF" sketch:type="MSShapeGroup" transform="translate(161.328787, 161.680015) scale(1, -1) translate(-161.328787, -161.680015) "></path>
        </g>
    </g>
</svg>