<?xml version="1.0" encoding="UTF-8" standalone="no"?>
<svg width="320px" height="320px" viewBox="0 0 320 320" version="1.1" xmlns="http://www.w3.org/2000/svg" xmlns:xlink="http://www.w3.org/1999/xlink" xmlns:sketch="http://www.bohemiancoding.com/sketch/ns">
    <!-- Generator: Sketch 3.2.2 (9983) - http://www.bohemiancoding.com/sketch -->
    <title>facebook_canvas</title>
    <desc>Created with Sketch.</desc>
    <defs>
        <linearGradient x1="0%" y1="100%" x2="100%" y2="0%" id="linearGradient-1">
            <stop stop-color="#585858" offset="0%"></stop>
            <stop stop-color="#FFFFFF" offset="100%"></stop>
        </linearGradient>
        <filter x="-50%" y="-50%" width="200%" height="200%" filterUnits="objectBoundingBox" id="filter-2">
            <feOffset dx="2" dy="2" in="SourceAlpha" result="shadowOffsetOuter1"></feOffset>
            <feGaussianBlur stdDeviation="4" in="shadowOffsetOuter1" result="shadowBlurOuter1"></feGaussianBlur>
            <feColorMatrix values="0 0 0 0 0   0 0 0 0 0   0 0 0 0 0  0 0 0 0.0508237092 0" in="shadowBlurOuter1" type="matrix" result="shadowMatrixOuter1"></feColorMatrix>
            <feMerge>
                <feMergeNode in="shadowMatrixOuter1"></feMergeNode>
                <feMergeNode in="SourceGraphic"></feMergeNode>
            </feMerge>
        </filter>
    </defs>
    <g id="Platforms" stroke="none" stroke-width="1" fill="none" fill-rule="evenodd" sketch:type="MSPage">
        <g id="facebook_canvas" sketch:type="MSLayerGroup">
            <path d="M159.830377,319.981055 C248.086978,319.981055 319.63309,248.434944 319.63309,160.178343 C319.63309,71.9217414 248.086978,0.375629931 159.830377,0.375629931 C71.5737758,0.375629931 0.0276642535,71.9217414 0.0276642535,160.178343 C0.0276642535,248.434944 71.5737758,319.981055 159.830377,319.981055 Z" id="Oval-1" fill="#2B4E98" sketch:type="MSShapeGroup"></path>
            <path d="M159.830377,319.981055 C248.086978,319.981055 319.63309,248.434944 319.63309,160.178343 C319.63309,71.9217414 248.086978,0.375629931 159.830377,0.375629931 C71.5737758,0.375629931 0.0276642535,71.9217414 0.0276642535,160.178343 C0.0276642535,248.434944 71.5737758,319.981055 159.830377,319.981055 Z" id="Oval-2" fill-opacity="0.2" fill="url(#linearGradient-1)" sketch:type="MSShapeGroup"></path>
            <path d="M81,230 C81,232.719964 81.8563686,234.718157 84,236 C85.2818428,238.143631 87.4227642,239 90,239 L230,239 C232.577236,239 234.718157,238.143631 236,236 C238.143631,234.718157 239,232.719964 239,230 L239,90 C239,88.1364047 238.000903,85.9954833 236,84 C234.004517,81.9990967 232.006323,81 230,81 L186,81 L186,143 L205,143 L205,169 L186,169 L186,175 C185.905149,176.056911 185.976513,176.913279 186,178 C186.261969,178.626016 186.333333,179.196929 186,179 C186.333333,180.053297 186.61879,181.195122 187,183 C187.760614,184.33514 188.759711,185.334237 190,186 C191.04336,186.190605 192.898826,186.333333 196,186 L204,186 L204,209 C203.317975,209.312561 197.608853,209.883469 197,210 L191,210 C186.61879,209.883469 182.336947,209.598013 178,209 C174.915086,208.741644 171.775068,207.599819 168,206 C165.495032,203.888889 163.496838,201.462511 162,198 C160.927733,194.611563 160.214092,190.472448 160,186 L160,169 L141,169 L141,143 L160,143 L160,81 L90,81 C87.4227642,81.4281843 85.2818428,82.2845528 84,84 C81.8563686,85.7100271 81,87.8509485 81,90 L81,230 Z" id="Shape-33" fill="#FFFFFF" filter="url(#filter-2)" sketch:type="MSShapeGroup" transform="translate(160.000000, 160.000000) scale(1, -1) translate(-160.000000, -160.000000) "></path>
        </g>
    </g>
</svg>