<?xml version="1.0" encoding="UTF-8" standalone="no"?>
<svg width="323px" height="323px" viewBox="0 0 323 323" version="1.1" xmlns="http://www.w3.org/2000/svg" xmlns:xlink="http://www.w3.org/1999/xlink" xmlns:sketch="http://www.bohemiancoding.com/sketch/ns">
    <!-- Generator: Sketch 3.2.2 (9983) - http://www.bohemiancoding.com/sketch -->
    <title>facebook_tab</title>
    <desc>Created with Sketch.</desc>
    <defs></defs>
    <g id="Page-1" stroke="none" stroke-width="1" fill="none" fill-rule="evenodd" sketch:type="MSPage">
        <g id="facebook_tab" sketch:type="MSLayerGroup" transform="translate(-0.500000, 0.000000)">
            <path d="M161.714775,322.992541 C250.710356,322.992541 322.855529,250.847367 322.855529,161.851786 C322.855529,72.8562052 250.710356,0.711032124 161.714775,0.711032124 C72.7191937,0.711032124 0.574020638,72.8562052 0.574020638,161.851786 C0.574020638,250.847367 72.7191937,322.992541 161.714775,322.992541 Z" id="Oval-1" fill="#3B5999" sketch:type="MSShapeGroup"></path>
            <path d="M181.657986,119.529862 C181.657986,118.157723 182.172538,116.957101 183.201643,115.927996 C184.230747,114.898892 185.517128,114.384339 187.060785,114.384339 L271.190081,114.384339 C272.733738,114.384339 274.020118,114.898892 275.049223,115.927996 C276.078328,116.957101 276.59288,118.157723 276.59288,119.529862 L276.59288,203.659158 C276.59288,205.031298 275.992569,206.317678 274.791947,207.5183 C273.591325,208.718922 272.390703,209.319233 271.190081,209.319233 L244.690639,209.319233 L244.690639,172.014194 L256.010789,172.014194 L256.010789,156.577626 L244.690639,156.577626 L244.690639,152.718484 C244.690639,152.203931 244.733518,151.689379 244.819277,151.174827 C244.905036,150.660274 244.947915,150.31724 244.947915,150.145722 C244.947915,149.802687 245.119433,149.116618 245.462467,148.087513 C245.805502,147.229926 246.405813,146.629615 247.2634,146.28658 C247.777953,146.115063 248.892816,146.029304 250.60799,146.029304 L255.496237,146.029304 L255.496236,132.393666 C255.153201,132.222149 251.722853,131.879117 251.379819,131.879117 L247.520677,131.879117 C245.119433,131.879117 242.546671,132.050634 239.802392,132.393669 C238.087218,132.565186 236.200527,133.251256 234.142317,134.451878 C232.427143,135.480982 231.226521,136.938881 230.540452,138.825572 C229.682864,141.055299 229.254071,143.542301 229.254071,146.28658 L229.254071,156.577626 L217.676645,156.577626 L217.676645,172.014194 L229.254071,172.014194 L229.254071,209.061957 L187.060785,209.061957 C185.517128,209.061957 184.230747,208.547405 183.201643,207.5183 C182.172538,206.489196 181.657986,205.202815 181.657986,203.659158 L181.657986,119.529862 Z" id="Shape-33" fill="#FFFFFF" sketch:type="MSShapeGroup"></path>
            <path d="M28.5,185 L28.5,178 C29.0282051,177.78799 29.5564103,177.394608 30.5,177 L31.5,177 C31.8012821,176.214461 32.4615385,175.755515 33.5,175 C34.0461538,174.96875 34.8384615,174.640931 35.5,174 C39.0641026,173.067402 42.1012821,172.018382 44.5,171 C50.8166667,169.658088 54.9102564,168.740196 57.5,168 C62.3051282,167.691176 67.7192308,167.297794 73.5,167 C83.3012821,167.297794 92.5448718,166.773284 100.5,166 C108.919231,164.675245 116.446154,163.363971 123.5,162 L131.5,160 L108.5,123 L131.5,78 C130.971795,78.2622549 130.245513,78.4589461 129.5,79 C128.396795,78.721201 127.208333,78.9178922 125.5,79 C124.303205,79.442402 123.180769,79.7046569 122.5,80 C118.426923,80.7536765 111.560256,81.9338235 101.5,84 C93.3371795,84.8186275 83.8294872,85.4742647 73.5,85 C67.4551282,85.4742647 62.0410256,85.8676471 57.5,87 C50.9487179,87.4411765 46.7230769,88.3590686 44.5,89 C43.8179487,89.6703431 42.4314103,90.1292892 40.5,91 C37.9416667,91.4405637 36.4230769,92.0306373 35.5,93 L30.5,95 L28.5,96 L28.5,185 Z" id="Shape-34" stroke="#C85B19" stroke-width="6" fill="#FCAB55" sketch:type="MSShapeGroup" transform="translate(80.000000, 131.500000) scale(-1, -1) translate(-80.000000, -131.500000) "></path>
            <rect id="Rectangle-1" stroke="#6E5B4B" stroke-width="7" fill="#D5D4BF" sketch:type="MSShapeGroup" x="124.5" y="75" width="25" height="165"></rect>
            <path d="M170.5,240 L95.5,240 L103.5,231 L106.5,234 L113.5,227 L117.5,231 L123.5,224 L129.5,230 L138.5,220 L145.5,227 L150.5,222 L170.5,240 Z" id="Path-87" fill="#59AC16" sketch:type="MSShapeGroup"></path>
            <path d="M161.5,240 L117.5,240 L127.5,230 L133.5,235 L141.5,227 L147.5,233 L151.5,230 L161.5,240 Z" id="Path-88" fill="#87C654" sketch:type="MSShapeGroup"></path>
        </g>
    </g>
</svg>