<?xml version="1.0" encoding="UTF-8" standalone="no"?>
<svg width="320px" height="320px" viewBox="0 0 320 320" version="1.1" xmlns="http://www.w3.org/2000/svg" xmlns:xlink="http://www.w3.org/1999/xlink" xmlns:sketch="http://www.bohemiancoding.com/sketch/ns">
    <!-- Generator: Sketch 3.2.2 (9983) - http://www.bohemiancoding.com/sketch -->
    <title>facebook_page</title>
    <desc>Created with Sketch.</desc>
    <defs>
        <linearGradient x1="0%" y1="100%" x2="100%" y2="0%" id="linearGradient-1">
            <stop stop-color="#585858" offset="0%"></stop>
            <stop stop-color="#FFFFFF" offset="100%"></stop>
        </linearGradient>
        <filter x="-50%" y="-50%" width="200%" height="200%" filterUnits="objectBoundingBox" id="filter-2">
            <feOffset dx="2" dy="2" in="SourceAlpha" result="shadowOffsetOuter1"></feOffset>
            <feGaussianBlur stdDeviation="4" in="shadowOffsetOuter1" result="shadowBlurOuter1"></feGaussianBlur>
            <feColorMatrix values="0 0 0 0 0   0 0 0 0 0   0 0 0 0 0  0 0 0 0.0508237092 0" in="shadowBlurOuter1" type="matrix" result="shadowMatrixOuter1"></feColorMatrix>
            <feMerge>
                <feMergeNode in="shadowMatrixOuter1"></feMergeNode>
                <feMergeNode in="SourceGraphic"></feMergeNode>
            </feMerge>
        </filter>
    </defs>
    <g id="Platforms" stroke="none" stroke-width="1" fill="none" fill-rule="evenodd" sketch:type="MSPage">
        <g id="facebook_page" sketch:type="MSLayerGroup">
            <path d="M160.21278,319.99261 C248.381777,319.99261 319.856871,248.517516 319.856871,160.348519 C319.856871,72.1795222 248.381777,0.70442811 160.21278,0.70442811 C72.0437833,0.70442811 0.568689177,72.1795222 0.568689177,160.348519 C0.568689177,248.517516 72.0437833,319.99261 160.21278,319.99261 Z" id="Oval-1" fill="#2B4E98" sketch:type="MSShapeGroup"></path>
            <path d="M160.21278,319.99261 C248.381777,319.99261 319.856871,248.517516 319.856871,160.348519 C319.856871,72.1795222 248.381777,0.70442811 160.21278,0.70442811 C72.0437833,0.70442811 0.568689177,72.1795222 0.568689177,160.348519 C0.568689177,248.517516 72.0437833,319.99261 160.21278,319.99261 Z" id="Oval-3" fill-opacity="0.2" fill="url(#linearGradient-1)" sketch:type="MSShapeGroup"></path>
            <path d="M173,113 C173,111.252936 173.579946,109.899729 175,109 C175.899729,107.579946 177.349593,107 179,107 L274,107 C275.650407,107 277.100271,107.579946 278,109 C279.420054,109.899729 280,111.252936 280,113 L280,208 C280,209.167118 279.323397,210.616983 278,212 C276.616983,213.323397 275.263776,214 274,214 L244,214 L244,172 L257,172 L257,155 L244,155 L244,150 C244.04336,149.626016 244.091689,149.04607 244,148 C244.285005,147.886179 244.333333,147.499548 244,147 C244.333333,146.919603 244.526649,146.146341 245,145 C245.29991,144.019874 245.976513,143.34327 247,143 C247.523035,142.763324 248.779584,142.666667 251,143 L256,143 L256,127 C255.835591,127.104785 251.969286,126.718157 252,127 L247,127 C244.526649,126.718157 241.62692,126.911472 239,127 C236.600723,127.491418 234.474255,128.264679 232,130 C230.221319,130.777778 228.868112,132.420958 228,135 C227.128275,137.060524 226.644986,139.863595 227,143 L227,155 L214,155 L214,172 L227,172 L227,214 L179,214 C177.349593,213.710027 175.899729,213.130081 175,212 C173.579946,210.810298 173,209.360434 173,208 L173,113 Z" id="Shape-33" fill="#FFFFFF" filter="url(#filter-2)" sketch:type="MSShapeGroup"></path>
            <g id="Group" transform="translate(28.000000, 74.000000)" sketch:type="MSShapeGroup">
                <path d="M0.235294118,109.281734 L0.235294118,102.346749 C0.758593316,102.136709 1.28189251,101.74698 2.21671827,101.356037 L3.20743034,101.356037 C3.50591411,100.577794 4.1600381,100.123111 5.18885449,99.374613 C5.7299357,99.3436533 6.5148845,99.0188794 7.17027864,98.3839009 C10.7012781,97.4599648 13.7102485,96.4206884 16.0866873,95.4117647 C22.3446852,94.0823165 26.400254,93.1729497 28.9659443,92.4396285 C33.7264428,92.1336733 39.0902596,91.7439446 44.8173375,91.4489164 C54.5275859,91.7439446 63.6853219,91.2243064 71.5665635,90.4582043 C79.907597,89.1457537 87.3646106,87.8466582 94.3529412,86.495356 L102.278638,84.5139319 L79.4922601,47.8575851 L102.278638,3.2755418 C101.755339,3.53536089 101.035802,3.73022522 100.297214,4.26625387 C99.204255,3.99004431 98.0268318,4.18490864 96.3343653,4.26625387 C95.1486862,4.70454683 94.0366754,4.96436593 93.3622291,5.25696594 C89.3269826,6.00364232 82.524093,7.17282826 72.5572755,9.21981424 C64.4702707,10.0308383 55.0508851,10.6803861 44.8173375,10.2105263 C38.82861,10.6803861 33.4647932,11.0701147 28.9659443,12.1919505 C22.47551,12.6290293 18.2891165,13.5383962 16.0866873,14.1733746 C15.4109709,14.8374917 14.0373105,15.2921751 12.123839,16.1547988 C9.58926729,16.5912706 8.08478209,17.1758635 7.17027864,18.1362229 L2.21671827,20.1176471 L0.235294118,21.1083591 L0.235294118,109.281734 Z" id="Shape-34" stroke="#C85B19" stroke-width="6" fill="#FCAB55" transform="translate(51.256966, 56.278638) scale(-1, -1) translate(-51.256966, -56.278638) "></path>
                <rect id="Rectangle-1" stroke="#6E5B4B" stroke-width="7" fill="#D5D4BF" x="95.3436533" y="0.303405573" width="24.7678019" height="163.467492"></rect>
                <path d="M140.916409,163.770898 L66.6130031,163.770898 L74.5386997,154.854489 L77.5108359,157.826625 L84.4458204,150.891641 L88.4086687,154.854489 L94.3529412,147.919505 L100.297214,153.863777 L109.213622,143.956656 L116.148607,150.891641 L121.102167,145.93808 L140.916409,163.770898 Z" id="Path-87" fill="#59AC16"></path>
                <path d="M132,163.770898 L88.4086687,163.770898 L98.3157895,153.863777 L104.260062,158.817337 L112.185759,150.891641 L118.130031,156.835913 L122.092879,153.863777 L132,163.770898 Z" id="Path-88" fill="#87C654"></path>
            </g>
        </g>
    </g>
</svg>