<?xml version="1.0" encoding="UTF-8" standalone="no"?>
<svg width="324px" height="323px" viewBox="0 0 324 323" version="1.1" xmlns="http://www.w3.org/2000/svg" xmlns:xlink="http://www.w3.org/1999/xlink" xmlns:sketch="http://www.bohemiancoding.com/sketch/ns">
    <!-- Generator: Sketch 3.2.2 (9983) - http://www.bohemiancoding.com/sketch -->
    <title>website</title>
    <desc>Created with Sketch.</desc>
    <defs></defs>
    <g id="Page-1" stroke="none" stroke-width="1" fill="none" fill-rule="evenodd" sketch:type="MSPage">
        <g id="website" sketch:type="MSLayerGroup" transform="translate(0.500000, 0.000000)">
            <path d="M161.328787,322.980878 C250.412794,322.980878 322.62965,250.764021 322.62965,161.680015 C322.62965,72.5960078 250.412794,0.379151461 161.328787,0.379151461 C72.2447799,0.379151461 0.0279236059,72.5960078 0.0279236059,161.680015 C0.0279236059,250.764021 72.2447799,322.980878 161.328787,322.980878 Z" id="Oval-1" fill="#4E5665" sketch:type="MSShapeGroup"></path>
            <path d="M169.967755,234.078115 C176.966088,223.939931 182.580136,213.671436 186.758628,203.376879 L220.05839,203.376879 C208.625215,219.952419 190.655136,231.471898 169.967755,234.078115 L169.967755,234.078115 Z M159.457438,234.599358 C151.895136,224.229221 145.896565,213.775685 141.384818,203.376879 L181.324025,203.376879 C176.812279,213.775685 170.813707,224.229221 163.277041,234.599358 C162.559263,234.599358 161.841485,234.651482 161.123707,234.651482 C160.559739,234.651482 159.995771,234.62542 159.457438,234.599358 L159.457438,234.599358 Z M102.906803,203.376879 L135.950215,203.376879 C140.128707,213.671436 145.742755,223.963387 152.766723,234.130239 C132.258787,231.628271 114.391247,220.054061 102.906803,203.376879 L102.906803,203.376879 Z M95.7546598,130.405411 L130.387438,130.405411 C127.593231,140.540989 126.362755,151.017981 126.721644,161.680015 L89.5766439,161.680015 C89.5766439,161.130103 89.551009,160.585403 89.551009,160.035492 C89.551009,149.376064 91.7556121,139.368191 95.7546598,130.405411 L95.7546598,130.405411 Z M152.048945,89.276702 C142.846009,100.486041 136.155295,112.547613 131.951168,125.190371 L98.3437867,125.190371 C108.982279,105.774055 128.464818,92.1696028 152.048945,89.276702 L152.048945,89.276702 Z M163.43085,88.7580649 C173.582279,100.144627 180.965136,112.37039 185.553787,125.190371 L137.155057,125.190371 C141.743707,112.37039 149.126565,100.118564 159.303628,88.7320027 C159.995771,88.7320027 160.662279,88.7033343 161.354422,88.7033343 C162.046565,88.7033343 162.738707,88.7320027 163.43085,88.7580649 L163.43085,88.7580649 Z M223.544739,125.190371 L190.757676,125.190371 C186.579184,112.576281 179.888469,100.535559 170.711168,89.3288264 C193.295533,92.3259758 212.598628,106.008615 223.544739,125.190371 L223.544739,125.190371 Z M195.67958,166.889842 L232.87585,166.889842 C232.055533,178.229492 228.671723,188.836795 223.33966,198.164445 L188.758152,198.164445 C192.526485,187.687453 194.833628,177.210461 195.67958,166.889842 L195.67958,166.889842 Z M135.437517,130.405411 L187.296961,130.405411 C190.296247,140.540989 191.577993,150.991919 191.193469,161.680015 L131.541009,161.680015 C131.13085,150.991919 132.412596,140.540989 135.437517,130.405411 L135.437517,130.405411 Z M131.848628,166.889842 L190.860215,166.889842 C189.962993,177.184399 187.476406,187.635329 183.451723,198.164445 L139.25712,198.164445 C135.232438,187.635329 132.771485,177.184399 131.848628,166.889842 L131.848628,166.889842 Z M89.858628,166.889842 L127.029263,166.889842 C127.875215,177.210461 130.182358,187.687453 133.950691,198.164445 L99.6255328,198.164445 C94.2934693,188.836795 90.8583899,178.229492 89.858628,166.889842 L89.858628,166.889842 Z M233.106565,161.680015 L195.987199,161.680015 C196.346088,151.017981 195.115612,140.540989 192.347041,130.405411 L226.236406,130.405411 C230.645612,139.811248 233.106565,150.314303 233.106565,161.390725 L233.106565,161.680015 L233.106565,161.680015 Z M161.354422,83.4935067 C160.25212,83.4935067 159.149818,83.5195688 158.021882,83.545631 C116.057517,85.2891901 84.4240248,118.156192 84.4240248,160.035492 C84.4240248,204.057102 118.826088,239.866523 161.123707,239.866523 C203.652041,239.866523 238.233549,204.653926 238.233549,161.390725 C238.233549,118.440269 203.75458,83.4935067 161.354422,83.4935067 L161.354422,83.4935067 Z" id="Fill-3146" fill="#FFFFFF" sketch:type="MSShapeGroup"></path>
        </g>
    </g>
</svg>