<?xml version="1.0" encoding="UTF-8" standalone="no"?>
<svg width="320px" height="320px" viewBox="0 0 320 320" version="1.1" xmlns="http://www.w3.org/2000/svg" xmlns:xlink="http://www.w3.org/1999/xlink" xmlns:sketch="http://www.bohemiancoding.com/sketch/ns">
    <!-- Generator: Sketch 3.2.2 (9983) - http://www.bohemiancoding.com/sketch -->
    <title>website</title>
    <desc>Created with Sketch.</desc>
    <defs>
        <linearGradient x1="0%" y1="100%" x2="100%" y2="0%" id="linearGradient-1">
            <stop stop-color="#585858" offset="0%"></stop>
            <stop stop-color="#FFFFFF" offset="100%"></stop>
        </linearGradient>
        <filter x="-50%" y="-50%" width="200%" height="200%" filterUnits="objectBoundingBox" id="filter-2">
            <feOffset dx="2" dy="2" in="SourceAlpha" result="shadowOffsetOuter1"></feOffset>
            <feGaussianBlur stdDeviation="4" in="shadowOffsetOuter1" result="shadowBlurOuter1"></feGaussianBlur>
            <feColorMatrix values="0 0 0 0 0   0 0 0 0 0   0 0 0 0 0  0 0 0 0.0508237092 0" in="shadowBlurOuter1" type="matrix" result="shadowMatrixOuter1"></feColorMatrix>
            <feMerge>
                <feMergeNode in="shadowMatrixOuter1"></feMergeNode>
                <feMergeNode in="SourceGraphic"></feMergeNode>
            </feMerge>
        </filter>
    </defs>
    <g id="Platforms" stroke="none" stroke-width="1" fill="none" fill-rule="evenodd" sketch:type="MSPage">
        <g id="website" sketch:type="MSLayerGroup">
            <path d="M159.830377,319.981055 C248.086978,319.981055 319.63309,248.434944 319.63309,160.178343 C319.63309,71.9217414 248.086978,0.375629931 159.830377,0.375629931 C71.5737758,0.375629931 0.0276642535,71.9217414 0.0276642535,160.178343 C0.0276642535,248.434944 71.5737758,319.981055 159.830377,319.981055 Z" id="Oval-1" fill="#4E5665" sketch:type="MSShapeGroup"></path>
            <path d="M159.830377,319.981055 C248.086978,319.981055 319.63309,248.434944 319.63309,160.178343 C319.63309,71.9217414 248.086978,0.375629931 159.830377,0.375629931 C71.5737758,0.375629931 0.0276642535,71.9217414 0.0276642535,160.178343 C0.0276642535,248.434944 71.5737758,319.981055 159.830377,319.981055 Z" id="Oval-4" fill-opacity="0.2" fill="url(#linearGradient-1)" sketch:type="MSShapeGroup"></path>
            <path d="M170.749103,251.681748 C179.594243,238.868175 186.689795,225.889903 191.970959,212.878691 L234.058274,212.878691 C219.607972,233.828389 196.895726,248.387771 170.749103,251.681748 L170.749103,251.681748 Z M157.465193,252.340544 C147.907258,239.233807 140.325709,226.021662 134.623348,212.878691 L185.102206,212.878691 C179.399844,226.021662 171.818296,239.233807 162.29276,252.340544 C161.385566,252.340544 160.478373,252.406423 159.571179,252.406423 C158.858384,252.406423 158.145588,252.373484 157.465193,252.340544 L157.465193,252.340544 Z M85.9912776,212.878691 L127.754594,212.878691 C133.035759,225.889903 140.131311,238.897821 149.00885,251.747628 C123.089026,248.585409 100.506379,233.956854 85.9912776,212.878691 L85.9912776,212.878691 Z M76.9517388,120.650611 L120.723842,120.650611 C117.192266,133.46089 115.637077,146.70268 116.090673,160.178343 L69.1433918,160.178343 C69.1433918,159.483313 69.110992,158.794872 69.110992,158.099843 C69.110992,144.627474 71.8973731,131.9786 76.9517388,120.650611 L76.9517388,120.650611 Z M148.101656,68.668349 C136.470135,82.835747 128.013793,98.0802756 122.700229,114.059361 L80.2241167,114.059361 C93.6700255,89.5192277 118.293859,72.3246642 148.101656,68.668349 L148.101656,68.668349 Z M162.487159,68.0128475 C175.317472,82.4042359 184.648609,97.8562851 190.448169,114.059361 L129.277384,114.059361 C135.076945,97.8562851 144.408082,82.3712961 157.270794,67.9799077 C158.145588,67.9799077 158.987983,67.9436739 159.862777,67.9436739 C160.737571,67.9436739 161.612365,67.9799077 162.487159,68.0128475 L162.487159,68.0128475 Z M238.464644,114.059361 L197.025325,114.059361 C191.744161,98.1165094 183.287818,82.8983326 171.688697,68.7342286 C200.232903,72.5223029 224.629938,89.8156857 238.464644,114.059361 L238.464644,114.059361 Z M203.246083,166.763004 L250.258164,166.763004 C249.221371,181.095101 244.9446,194.50159 238.205446,206.290736 L194.498142,206.290736 C199.26091,193.048946 202.17689,179.807156 203.246083,166.763004 L203.246083,166.763004 Z M127.106599,120.650611 L192.651354,120.650611 C196.442129,133.46089 198.062118,146.66974 197.576121,160.178343 L122.181832,160.178343 C121.663436,146.66974 123.283425,133.46089 127.106599,120.650611 L127.106599,120.650611 Z M122.57063,166.763004 L197.154924,166.763004 C196.020932,179.774216 192.878153,192.983066 187.791387,206.290736 L131.934166,206.290736 C126.847401,192.983066 123.737022,179.774216 122.57063,166.763004 L122.57063,166.763004 Z M69.4997894,166.763004 L116.479471,166.763004 C117.548664,179.807156 120.464644,193.048946 125.227412,206.290736 L81.8441057,206.290736 C75.1049514,194.50159 70.7633808,181.095101 69.4997894,166.763004 L69.4997894,166.763004 Z M250.549762,160.178343 L203.63488,160.178343 C204.088477,146.70268 202.533287,133.46089 199.034111,120.650611 L241.866621,120.650611 C247.439383,132.538576 250.549762,145.813306 250.549762,159.812711 L250.549762,160.178343 L250.549762,160.178343 Z M159.862777,61.3590126 C158.469586,61.3590126 157.076396,61.3919524 155.650805,61.4248921 C102.612365,63.6285632 62.6310359,105.168916 62.6310359,158.099843 C62.6310359,213.73842 106.111541,258.997673 159.571179,258.997673 C213.322414,258.997673 257.029718,214.49274 257.029718,159.812711 C257.029718,105.527959 213.452013,61.3590126 159.862777,61.3590126 L159.862777,61.3590126 Z" id="Fill-3146" fill="#FFFFFF" filter="url(#filter-2)" sketch:type="MSShapeGroup"></path>
        </g>
    </g>
</svg>